# Blender Studio Human Base Meshes v1.4.1; CC0; Y-up metres
v 0.0322018862 0.705806732 0.111635663
v 0.032374382 0.702342987 0.114730462
v 0.0326817036 0.700534463 0.119172648
v 0.032856822 0.700404644 0.121616237
v 0.0330364704 0.700807095 0.123906642
v 0.0333616734 0.703040719 0.127867654
v 0.033223033 0.70762229 0.110650763
v 0.0335438251 0.705947876 0.111548573
v 0.0339884758 0.704177976 0.112853527
v 0.0344543457 0.702561975 0.114597306
v 0.034833312 0.701441169 0.116652995
v 0.0351297855 0.70078969 0.119018622
v 0.035310626 0.70067215 0.12144056
v 0.0353745222 0.701063395 0.123737372
v 0.0353291035 0.701935291 0.125886992
v 0.035169363 0.703231096 0.127729654
v 0.0349712372 0.704719663 0.129321724
v 0.0347770452 0.706220388 0.130510584
v 0.0345975161 0.708130836 0.131990865
v 0.0342109203 0.707916617 0.110615239
v 0.0347924232 0.706329465 0.111466102
v 0.035561204 0.704667926 0.112746969
v 0.0363298655 0.703145862 0.11447411
v 0.0369164944 0.702098489 0.116511881
v 0.0373266935 0.701494813 0.118862368
v 0.0375465155 0.701371074 0.121284567
v 0.0375344753 0.701739192 0.123583324
v 0.0373171568 0.702562213 0.125738651
v 0.0369170904 0.703776479 0.127594247
v 0.0364416838 0.705167532 0.12921752
v 0.0359694958 0.706580639 0.130418569
v 0.0354844332 0.708404899 0.131886646
v 0.0351297855 0.708350301 0.110592864
v 0.0359355211 0.706941247 0.111395963
v 0.0370098352 0.705450296 0.112653457
v 0.0380629301 0.704090595 0.11435011
v 0.038838625 0.703145862 0.116386004
v 0.0393741131 0.702593684 0.118720822
v 0.0395996571 0.70249176 0.121138185
v 0.0395216942 0.702817678 0.12344265
v 0.0391613245 0.703549743 0.125611499
v 0.0385332108 0.704635024 0.127485126
v 0.0377925634 0.70588696 0.129116312
v 0.0370486975 0.707149506 0.130340219
v 0.0362716913 0.708806872 0.131790042
v 0.035882473 0.708711743 0.110650763
v 0.036924839 0.707731962 0.111345567
v 0.0382744074 0.706494689 0.112551279
v 0.039567709 0.705351591 0.114240192
v 0.0405306816 0.704543948 0.116263926
v 0.041166544 0.704080582 0.118593074
v 0.0414106846 0.703984857 0.121013068
v 0.0412726402 0.704263091 0.123322375
v 0.0407645702 0.704886079 0.125495285
v 0.0399594307 0.705790043 0.127397537
v 0.0389791727 0.706861615 0.129026234
v 0.0379964113 0.707928777 0.13026607
v 0.0368666649 0.709183455 0.131675169
v 0.0362136364 0.709439635 0.110512838
v 0.0376942158 0.708696365 0.111264504
v 0.0393127203 0.707775235 0.112478577
v 0.0408080816 0.706881642 0.114151955
v 0.0419168472 0.706252217 0.11616239
v 0.0426151752 0.705886245 0.118495308
v 0.0428906679 0.705808878 0.120906942
v 0.0426963568 0.706022501 0.123222761
v 0.0420931578 0.706501722 0.125404328
v 0.0411173105 0.707212329 0.127307937
v 0.0399569273 0.70804894 0.128957361
v 0.0387926102 0.708898306 0.130213588
v 0.0372372866 0.709783316 0.13172099
v 0.036636591 0.710346699 0.110427767
v 0.0382993221 0.709852934 0.111223437
v 0.0400769711 0.7092278 0.112429835
v 0.0417263508 0.708622098 0.114091851
v 0.0429308414 0.708192229 0.116090871
v 0.0436977148 0.70794034 0.118411601
v 0.0439827442 0.707884312 0.120830476
v 0.0437648296 0.708026409 0.12315131
v 0.0430727005 0.708347917 0.125335842
v 0.0419723988 0.708831191 0.127239048
v 0.0406860113 0.709400535 0.128914356
v 0.0393600464 0.709982157 0.130176678
v 0.0376442671 0.710568428 0.13174288
v 0.0369286537 0.711352468 0.110381372
v 0.0386750698 0.711098194 0.111193374
v 0.0405409336 0.710745811 0.112385705
v 0.042272687 0.710401773 0.114048496
v 0.0435653925 0.710295558 0.116038382
v 0.0443769693 0.710164428 0.118367463
v 0.0446671247 0.710135579 0.120786756
v 0.0444229841 0.710198522 0.123107933
v 0.0436912775 0.710351348 0.125299752
v 0.0425155163 0.710585833 0.12720786
v 0.0411359072 0.710873485 0.128880009
v 0.0397274494 0.711159945 0.130164564
v 0.0379018784 0.711464763 0.131772861
v 0.0370218754 0.712439895 0.110372253
v 0.0388091803 0.712442636 0.111179285
v 0.0407096148 0.712464452 0.112364829
v 0.0424702168 0.712486744 0.114027373
v 0.0437794924 0.712497354 0.116018586
v 0.0446038246 0.712496519 0.11833898
v 0.0448913574 0.712483644 0.120767795
v 0.0446574688 0.712469816 0.123094216
v 0.043898344 0.712439895 0.125289932
v 0.0427142382 0.71241498 0.127208203
v 0.0413070917 0.71241498 0.128883198
v 0.0398476124 0.71241498 0.13015084
v 0.0379990339 0.71241045 0.131790042
v 0.0369261503 0.713496566 0.110381797
v 0.0386878252 0.713707089 0.111188859
v 0.0405511856 0.714034677 0.112392955
v 0.0423027277 0.714325786 0.114050411
v 0.0435602665 0.714550972 0.116041578
v 0.0443692207 0.714681029 0.118363701
v 0.0446414948 0.714821339 0.120788299
v 0.0444223881 0.714647412 0.12310715
v 0.0436874628 0.714494705 0.125299022
v 0.0425168276 0.714234591 0.127204001
v 0.0411473513 0.713939309 0.128886953
v 0.0397166014 0.713660598 0.130157232
v 0.0379108191 0.713381171 0.131762713
v 0.036636591 0.714499235 0.110432371
v 0.0383114815 0.714963317 0.111227259
v 0.0400731564 0.715613604 0.112429835
v 0.0417276621 0.716225386 0.114095323
v 0.0429239273 0.716653466 0.116093889
v 0.0436971188 0.716899633 0.118418105
v 0.0439801216 0.716960192 0.120832786
v 0.0437597036 0.716819048 0.123148605
v 0.0430727005 0.716498137 0.125335842
v 0.0419788361 0.716015339 0.127243593
v 0.0406866074 0.715431809 0.128905699
v 0.0393594503 0.714871287 0.130174652
v 0.0376417637 0.714280009 0.13174288
v 0.0362186432 0.715401649 0.110511124
v 0.0377153158 0.716114163 0.111271359
v 0.0393083096 0.717069745 0.112488009
v 0.0408124924 0.717967272 0.114160337
v 0.0419045687 0.718593359 0.116165496
v 0.0426113605 0.718956947 0.118495308
v 0.0428771973 0.71903038 0.120910384
v 0.0426931381 0.718819141 0.123222008
v 0.0420899391 0.718341947 0.125403687
v 0.0411007404 0.717628002 0.127291963
v 0.0399588346 0.716806889 0.12897411
v 0.0387843847 0.715955377 0.130214334
v 0.0372353792 0.715068221 0.131721571
v 0.0358889103 0.716142297 0.110643052
v 0.0369222164 0.71711123 0.111352362
v 0.0382717848 0.718348861 0.112558909
v 0.039557457 0.719489574 0.114253066
v 0.0405185223 0.720297098 0.116261236
v 0.0411505699 0.720759511 0.11859379
v 0.0413991213 0.720849872 0.121006623
v 0.0412642956 0.720577717 0.123325862
v 0.0407563448 0.719952106 0.12549068
v 0.0399466753 0.719049573 0.12738581
v 0.038970232 0.71798563 0.129018605
v 0.0379880667 0.716908932 0.130261526
v 0.0368647575 0.715658307 0.131666034
v 0.0351233482 0.716499448 0.110592864
v 0.0359331369 0.717903137 0.111402959
v 0.0370047092 0.719394088 0.112657242
v 0.0380705595 0.720755577 0.11436116
v 0.0388321877 0.72169435 0.116382219
v 0.0393600464 0.722237945 0.118726194
v 0.0396009684 0.722349644 0.121134393
v 0.0395146608 0.722019672 0.123441495
v 0.0391510725 0.721285701 0.125605613
v 0.0385313034 0.720207691 0.127483249
v 0.0377887487 0.718960643 0.129115239
v 0.0370602608 0.71767354 0.130328119
v 0.0362710953 0.716034293 0.131783172
v 0.034214735 0.716931224 0.110610701
v 0.0347892046 0.718513489 0.111472227
v 0.035556674 0.720178246 0.11275883
v 0.0363260508 0.721687555 0.114479177
v 0.036913991 0.722735763 0.116519034
v 0.0373203754 0.723340392 0.118857771
v 0.0375407934 0.723466754 0.121287994
v 0.0375255346 0.723091602 0.123578779
v 0.0373114347 0.722271562 0.125734091
v 0.0369164944 0.721070766 0.127595603
v 0.0364339352 0.719671845 0.129200757
v 0.0359866619 0.718253136 0.130408645
v 0.0354857445 0.716444254 0.131884009
v 0.0332038403 0.717186928 0.110642664
v 0.0335425138 0.718896866 0.11155428
v 0.0339897871 0.720669031 0.112861104
v 0.0344537497 0.722274542 0.114606492
v 0.0348287821 0.723392606 0.116655685
v 0.0351208448 0.724042535 0.119022086
v 0.0353074074 0.724156499 0.12143787
v 0.0353707075 0.723766565 0.12373551
v 0.035320878 0.722892642 0.125877842
v 0.035164237 0.721600652 0.127717108
v 0.0349662304 0.72011888 0.12931338
v 0.0347853899 0.718625784 0.130506307
v 0.0345962048 0.716707587 0.131987408
v 0.0321469307 0.71728766 0.110694431
v 0.0322057009 0.719028592 0.11164251
v 0.0322830677 0.720840216 0.112974353
v 0.0323776007 0.722496152 0.114740625
v 0.0325143337 0.723633051 0.116819188
v 0.0326805115 0.724299431 0.119178347
v 0.0328600407 0.724427104 0.121614352
v 0.0330357552 0.724023819 0.123902038
v 0.0332140923 0.723113537 0.12603502
v 0.0333609581 0.72179091 0.127855197
v 0.0334715843 0.720284462 0.129439235
v 0.0335520506 0.718736887 0.130590469
v 0.0336562395 0.716798663 0.132080689
v 0.0311142206 0.717187047 0.110780776
v 0.030905962 0.718897104 0.111737266
v 0.0306471586 0.720667601 0.11309582
v 0.030429244 0.722278595 0.114890568
v 0.0303448439 0.723390341 0.116968632
v 0.0303851366 0.724036217 0.119350292
v 0.030533433 0.724163055 0.121772207
v 0.0307928324 0.723766565 0.124055319
v 0.0311410427 0.722886562 0.126168057
v 0.0315500498 0.721598268 0.12796928
v 0.0319641829 0.720116258 0.129522085
v 0.0323059559 0.718602538 0.130671129
v 0.0327073336 0.716707587 0.132119775
v 0.0301065445 0.716931224 0.110892594
v 0.0296649933 0.718513489 0.111831926
v 0.0290828943 0.720179558 0.113212138
v 0.0285582542 0.721690655 0.115020372
v 0.0282603502 0.722739339 0.11712458
v 0.0281779766 0.723340511 0.119498596
v 0.0283089876 0.723457932 0.121925101
v 0.0286297798 0.723097086 0.124201745
v 0.0291466713 0.722270608 0.126306146
v 0.029800415 0.721066952 0.12808834
v 0.0304963589 0.719680667 0.129633471
v 0.0311200619 0.718245149 0.130753681
v 0.0318126678 0.716442108 0.132140696
v 0.029206872 0.71649909 0.111007385
v 0.0285147429 0.717905641 0.111916743
v 0.0276265144 0.719395757 0.113306522
v 0.0268270969 0.720753431 0.115140431
v 0.0263376236 0.72169745 0.117256977
v 0.026140213 0.722238064 0.119641684
v 0.0262436867 0.722349644 0.122068867
v 0.0266494751 0.722017288 0.124342918
v 0.0273051262 0.721290827 0.126435027
v 0.028186202 0.720204949 0.128198951
v 0.0291434526 0.718957663 0.129722178
v 0.0300369263 0.717684507 0.130827054
v 0.031015873 0.716035128 0.132155553
v 0.0284584761 0.716136575 0.111165255
v 0.0275255442 0.717113733 0.112005703
v 0.0263695717 0.718349695 0.113401979
v 0.0253145695 0.719494104 0.115242139
v 0.024646163 0.720299602 0.117371976
v 0.0243477821 0.720765591 0.119767606
v 0.0244385004 0.720856905 0.122194014
v 0.0248941183 0.720583081 0.124471352
v 0.0256941319 0.719961762 0.126549497
v 0.0267664194 0.719048738 0.128306255
v 0.027954936 0.717986107 0.129801407
v 0.0291001797 0.716921926 0.130887926
v 0.0304145813 0.715662241 0.132119775
v 0.0281121731 0.715408564 0.11107637
v 0.0267363787 0.716114163 0.112037674
v 0.0253261328 0.717071533 0.113466993
v 0.0240832567 0.717969537 0.115328364
v 0.0232633352 0.718595386 0.117462717
v 0.0228799582 0.718959212 0.119868688
v 0.0229539871 0.719037175 0.122302771
v 0.0234614611 0.718825817 0.124569111
v 0.0243656635 0.718346119 0.126646146
v 0.0256047249 0.717632651 0.128383473
v 0.026979208 0.716803312 0.129869714
v 0.0283154249 0.715948343 0.130943432
v 0.0300554037 0.71506989 0.132223964
v 0.0276833773 0.714498401 0.111058705
v 0.0261381865 0.714965463 0.112074628
v 0.0245592594 0.71561718 0.113515705
v 0.0231482983 0.716226935 0.115390338
v 0.0222370625 0.716655254 0.117533088
v 0.0218070745 0.716908455 0.119943433
v 0.021851778 0.71696341 0.122380763
v 0.0223981142 0.716823339 0.124648474
v 0.0233821869 0.716499448 0.12671496
v 0.0247311592 0.716020226 0.128454611
v 0.026245594 0.715435505 0.129916593
v 0.0277345181 0.714872837 0.130993828
v 0.0296560526 0.714279175 0.132301196
v 0.0273913145 0.713498831 0.111043952
v 0.0257561207 0.713708043 0.112084895
v 0.0240749121 0.714035273 0.11353986
v 0.0225789547 0.714333296 0.115425691
v 0.0216019154 0.714550972 0.117569603
v 0.0211213827 0.714678645 0.119993299
v 0.0211673975 0.71471107 0.122431666
v 0.0217278004 0.714648962 0.124695823
v 0.0227668285 0.714526772 0.126768589
v 0.0241931677 0.714247227 0.128490746
v 0.0257829428 0.713941813 0.129965574
v 0.0273741484 0.713661551 0.131023332
v 0.0293991566 0.713381886 0.132365048
v 0.0272897482 0.712440848 0.111040138
v 0.0256302357 0.712399125 0.112088695
v 0.0239151716 0.712463617 0.113536596
v 0.0223942995 0.712488055 0.115424111
v 0.0213820934 0.712501764 0.11758291
v 0.0208932161 0.712494016 0.120002955
v 0.0209405422 0.71248436 0.122443892
v 0.0215041637 0.712464452 0.124718271
v 0.0225629807 0.712439656 0.126781523
v 0.0240091085 0.71241498 0.128510103
v 0.0256302357 0.71241498 0.129981115
v 0.0272513628 0.71241498 0.131035507
v 0.0293078423 0.71241045 0.132399723
v 0.0273958445 0.711348295 0.111050248
v 0.025767684 0.711098194 0.112091273
v 0.0240908861 0.7107476 0.113530099
v 0.0226070881 0.710403204 0.115420036
v 0.0216006041 0.710294604 0.117571853
v 0.0211143494 0.710165977 0.119999133
v 0.0211660862 0.710134268 0.122432485
v 0.0217283964 0.710196376 0.124694996
v 0.0227603912 0.710350513 0.126768589
v 0.0241886377 0.710583568 0.128499031
v 0.0257874727 0.710868239 0.129965574
v 0.0273811817 0.711160898 0.131024018
v 0.029396534 0.711464763 0.13237533
v 0.0276865959 0.710355282 0.111066714
v 0.0261478424 0.709846377 0.112066254
v 0.0245522261 0.709227204 0.113507897
v 0.0231502056 0.708623648 0.115384206
v 0.022228837 0.708192229 0.117534973
v 0.0218012333 0.707932353 0.119938292
v 0.021846652 0.707883954 0.122382976
v 0.0223910809 0.708021522 0.124647893
v 0.0233815908 0.708347917 0.126716822
v 0.0247387886 0.708832026 0.128445446
v 0.0262469053 0.709402919 0.129925355
v 0.0277358294 0.709976315 0.130993828
v 0.0296560526 0.710569978 0.132302716
v 0.028111577 0.709442258 0.111076988
v 0.0267580748 0.708701611 0.112033777
v 0.0253221989 0.707772732 0.113457978
v 0.0240678787 0.706878901 0.115327194
v 0.0232582092 0.706248522 0.117460772
v 0.0228697062 0.705880761 0.119871676
v 0.0229547024 0.705806732 0.122303143
v 0.023455739 0.706017137 0.124572553
v 0.0243713856 0.706503391 0.126643419
v 0.0256026983 0.707214475 0.128388554
v 0.0269728899 0.708042264 0.129881278
v 0.028306365 0.708895087 0.130952284
v 0.0300554037 0.709777951 0.132225931
v 0.0284552574 0.708707452 0.111160159
v 0.0275242329 0.707734466 0.111995876
v 0.0263522863 0.706493616 0.113382533
v 0.0253075361 0.705344439 0.115241632
v 0.024641037 0.704543948 0.117366865
v 0.0243350267 0.704071641 0.11976444
v 0.024425745 0.703984857 0.122201093
v 0.0248832703 0.704256177 0.1244708
v 0.0256832838 0.704876781 0.126557916
v 0.0267606974 0.705791235 0.128313079
v 0.027949214 0.706861019 0.129811049
v 0.0290968418 0.707921028 0.130892277
v 0.03041327 0.70918119 0.132128626
v 0.0292004347 0.708346367 0.111002371
v 0.0285217762 0.706941247 0.111917973
v 0.0276297331 0.705442548 0.113296978
v 0.0268213749 0.704086542 0.115138508
v 0.0263305902 0.703142405 0.11725048
v 0.0261312723 0.702586889 0.119651876
v 0.0262334347 0.702482104 0.122074611
v 0.0266405344 0.702817678 0.124344364
v 0.0273005962 0.703549027 0.126440778
v 0.0281831026 0.704639673 0.128203914
v 0.0291390419 0.705884695 0.129733235
v 0.0300529003 0.707157969 0.130825922
v 0.0310190916 0.708803415 0.132161215
v 0.0301122665 0.707912922 0.110898979
v 0.0296522379 0.70632875 0.111823618
v 0.0290739536 0.704664111 0.113194674
v 0.0285487175 0.703147292 0.115014188
v 0.0282514095 0.702098489 0.117120251
v 0.0281741619 0.701488376 0.119496711
v 0.0283000469 0.701370239 0.121931329
v 0.0286297798 0.701742649 0.124205515
v 0.0291416645 0.702560902 0.126311764
v 0.029794693 0.7037642 0.12810351
v 0.0304982662 0.705164671 0.129629061
v 0.0311340094 0.706577063 0.130763143
v 0.0318145752 0.70840323 0.132147953
v 0.0311001539 0.707623124 0.110798523
v 0.0309021473 0.705945373 0.111728191
v 0.0306433439 0.704176545 0.113088183
v 0.030429244 0.702561975 0.114881843
v 0.0303404331 0.701442957 0.116966769
v 0.0303800106 0.700795293 0.119348362
v 0.0305321217 0.700674295 0.121774115
v 0.0307884216 0.701065183 0.124057971
v 0.0311353207 0.701938987 0.126178309
v 0.0315468311 0.703233361 0.127981424
v 0.0319660902 0.704719186 0.129535124
v 0.0323290825 0.706219554 0.130682081
v 0.0327048302 0.708126307 0.132130042
v 0.0321418047 0.707517028 0.1107115
v 0.0322734118 0.704005957 0.112953119
v 0.032510519 0.701190591 0.116807818
v 0.033213377 0.701717257 0.126041368
v 0.0334721804 0.704554677 0.129447967
v 0.0335527658 0.706100583 0.130596921
v 0.0336562395 0.708029032 0.132079452
v 0.0308004618 0.709514976 0.132433549
v 0.0316669941 0.709132075 0.132542372
v 0.0326504707 0.708870888 0.132565126
v 0.0336697102 0.708765626 0.13253589
v 0.0347137451 0.708868384 0.132420152
v 0.0356838703 0.709134817 0.132255971
v 0.03652668 0.709514976 0.132030427
v 0.0304586887 0.710357189 0.132634759
v 0.0313737392 0.710010052 0.13283667
v 0.0324734449 0.709762573 0.132961452
v 0.0336689949 0.709684491 0.132967651
v 0.034948349 0.709768772 0.132786393
v 0.036012888 0.710010409 0.132509619
v 0.0368928909 0.710359454 0.132183671
v 0.0302062035 0.711355329 0.132771656
v 0.0311666727 0.711113214 0.133078218
v 0.0323181152 0.710933566 0.133304492
v 0.0336689949 0.710860252 0.133357644
v 0.0351566076 0.710923195 0.13310203
v 0.0362589359 0.711123586 0.132715911
v 0.0371528864 0.711352825 0.132272393
v 0.0301212072 0.712443471 0.132813141
v 0.0310816765 0.71247983 0.133185118
v 0.0322657824 0.712504864 0.133474499
v 0.0338939428 0.71254611 0.133548662
v 0.0352026224 0.71251595 0.133263424
v 0.0363566875 0.712486744 0.132815734
v 0.0372538567 0.712443471 0.132313326
v 0.0302126408 0.713519812 0.13275677
v 0.0311653614 0.71372211 0.133073986
v 0.0323251486 0.713907599 0.13329497
v 0.0336581469 0.713973999 0.133353204
v 0.0351502895 0.713913798 0.133094192
v 0.0362519026 0.713720083 0.132718056
v 0.0371574163 0.713519812 0.13227196
v 0.0304592848 0.714485765 0.132637411
v 0.0313768387 0.714832783 0.132829875
v 0.0324728489 0.715065598 0.132952318
v 0.0336613655 0.715157151 0.132961452
v 0.0349476337 0.715063691 0.1327793
v 0.036007762 0.714829564 0.132503882
v 0.0368967056 0.714485765 0.132190168
v 0.0308017731 0.715332985 0.132429779
v 0.0316708088 0.715703726 0.13253063
v 0.0326523781 0.715972304 0.132556751
v 0.0336678028 0.716068149 0.132524833
v 0.0347112417 0.715972543 0.132413
v 0.0356787443 0.71570158 0.132246956
v 0.0365247726 0.715331912 0.132027149
v 0.0291237831 0.709341288 0.11070846
v 0.0300656557 0.709010124 0.110530823
v 0.0310637951 0.708763719 0.110395126
v 0.032122612 0.70868361 0.110294998
v 0.0332102776 0.708769679 0.110245287
v 0.0342077017 0.709010959 0.11024449
v 0.035164237 0.709340453 0.110296182
v 0.0288009644 0.710297823 0.110613741
v 0.0298323631 0.710026264 0.110315956
v 0.0309084654 0.70983541 0.110115305
v 0.0321002007 0.709738493 0.109985091
v 0.0333099365 0.709827065 0.109951958
v 0.034403801 0.710028172 0.109997302
v 0.0354729891 0.710288167 0.110141084
v 0.0285569429 0.711317658 0.11054609
v 0.0296157598 0.711160779 0.110193536
v 0.0308082104 0.711065292 0.109912135
v 0.0320676565 0.711024642 0.109749295
v 0.0333917141 0.711068749 0.109733358
v 0.0345885754 0.711160898 0.109843269
v 0.0356926918 0.711317062 0.110047467
v 0.0284751654 0.712447047 0.110512838
v 0.0295761824 0.712379456 0.110129595
v 0.030770421 0.712429047 0.109836012
v 0.0320153236 0.712487817 0.109658457
v 0.0334115028 0.712445736 0.109652691
v 0.0346134901 0.712421179 0.109772205
v 0.0357847214 0.712443471 0.110006042
v 0.0285671949 0.71353209 0.11054799
v 0.0296279192 0.713686585 0.110187046
v 0.0308074951 0.713782668 0.109912828
v 0.0320625305 0.713837504 0.109756887
v 0.0333833694 0.713766456 0.109733358
v 0.0345948935 0.713682532 0.109847054
v 0.0356966257 0.713531256 0.110048227
v 0.0287972689 0.714558005 0.110608101
v 0.0298399925 0.714825988 0.110318623
v 0.0309046507 0.715015531 0.110121317
v 0.0321193933 0.715061069 0.109970994
v 0.0333156586 0.715013146 0.10995128
v 0.0343961716 0.7148211 0.109995291
v 0.0354729891 0.714559197 0.110145301
v 0.0291134119 0.715492725 0.110717207
v 0.0300605297 0.715831518 0.11053852
v 0.0310586691 0.716079473 0.110393487
v 0.0321142673 0.71617043 0.110289089
v 0.0332012177 0.716084242 0.110248253
v 0.0342121124 0.715836406 0.110246383
v 0.035179615 0.715492725 0.110286698
v 0.0346448421 0.707308054 0.131349623
v 0.0356070995 0.707613468 0.131275088
v 0.0365082026 0.708108306 0.131213114
v 0.0372667313 0.708731532 0.131165668
v 0.0379159451 0.709522963 0.131103203
v 0.0384027958 0.710411429 0.131080121
v 0.0387140512 0.711384892 0.131056324
v 0.0388207436 0.712407827 0.131060973
v 0.0387152433 0.713467598 0.131072327
v 0.0384047031 0.714426279 0.131070405
v 0.0379140377 0.715332627 0.131102353
v 0.037271142 0.716110349 0.13115567
v 0.0365049839 0.716734171 0.131199762
v 0.0356084108 0.717218995 0.131266698
v 0.0346416235 0.717538714 0.131341383
v 0.0336108208 0.717650175 0.131425634
v 0.0325667858 0.717548132 0.131492227
v 0.0315992832 0.717235088 0.131557286
v 0.0307135582 0.716739297 0.131613091
v 0.0299538374 0.716114163 0.131680101
v 0.0292987823 0.715328693 0.131708264
v 0.0288079977 0.714433193 0.131747782
v 0.0284993649 0.713462472 0.131780982
v 0.0283913612 0.712407827 0.131796971
v 0.0284981728 0.71138072 0.131790042
v 0.0288054943 0.710415125 0.131755486
v 0.0292918682 0.709516883 0.131709412
v 0.0299563408 0.708723664 0.131691143
v 0.0307078362 0.708104968 0.131623462
v 0.0316076279 0.707605124 0.131559908
v 0.0325692892 0.70730722 0.13149789
v 0.0336108208 0.707197428 0.131431058
vn -0.0587079227 -0.538005531 -0.840894401
vn -0.043984782 -0.81176132 -0.582330644
vn -0.0151070049 -0.987147987 -0.159093246
vn 0.000562883914 -0.998153806 0.0607352108
vn 0.0169246811 -0.959919751 0.279763699
vn 0.0442315862 -0.76911521 0.637577713
vn 0.0323411934 -0.401862115 -0.915128946
vn 0.0544421487 -0.526763976 -0.848266304
vn 0.0856044665 -0.654724896 -0.751004219
vn 0.125924289 -0.795209527 -0.593114555
vn 0.163955003 -0.907234848 -0.387354821
vn 0.191080466 -0.966278315 -0.172610894
vn 0.207830042 -0.977067888 0.046313934
vn 0.215182856 -0.939819574 0.265397072
vn 0.212508768 -0.854788244 0.4734734
vn 0.202860206 -0.752686799 0.626346767
vn 0.18952629 -0.654319048 0.732083619
vn 0.17929472 -0.590767562 0.78666836
vn 0.194843665 -0.556046128 0.807990551
vn 0.114583187 -0.378666997 -0.918412805
vn 0.153935298 -0.495410532 -0.854910672
vn 0.208820194 -0.616388977 -0.759248853
vn 0.276398718 -0.748555422 -0.602717578
vn 0.335656404 -0.853553891 -0.398472846
vn 0.373210043 -0.908952832 -0.185792968
vn 0.39242956 -0.919157207 0.0338989906
vn 0.392086774 -0.884314001 0.253489137
vn 0.371944278 -0.804854631 0.462456971
vn 0.34106487 -0.709686041 0.616458118
vn 0.309007525 -0.619042337 0.722011805
vn 0.288842589 -0.556621373 0.778936863
vn 0.306282043 -0.523026943 0.795383036
vn 0.186734766 -0.345074296 -0.919811904
vn 0.24373965 -0.447533011 -0.860409915
vn 0.321507305 -0.556026161 -0.766464591
vn 0.413960636 -0.674134493 -0.611701906
vn 0.491376102 -0.768625319 -0.4095909
vn 0.538977921 -0.81888783 -0.197295576
vn 0.560562253 -0.827797472 0.0228329636
vn 0.554422975 -0.796090722 0.242599979
vn 0.518943965 -0.726068914 0.451133072
vn 0.468862563 -0.641117215 0.607566118
vn 0.422241718 -0.557691813 0.714627028
vn 0.391407996 -0.501632929 0.771468878
vn 0.39989987 -0.472947031 0.785112202
vn 0.252425015 -0.319054961 -0.913501799
vn 0.322127372 -0.385390371 -0.864701271
vn 0.420970827 -0.474020779 -0.773361385
vn 0.53522408 -0.573207974 -0.620457888
vn 0.630649626 -0.652554929 -0.420063317
vn 0.688868523 -0.694514692 -0.207628444
vn 0.711174726 -0.702895403 0.0129835149
vn 0.698605776 -0.676329136 0.233514011
vn 0.651677549 -0.617509425 0.440452546
vn 0.586487353 -0.544270396 0.599835396
vn 0.522937 -0.472824126 0.7092067
vn 0.483333796 -0.426925153 0.764279544
vn 0.474869162 -0.413754761 0.776727974
vn 0.277675003 -0.254564613 -0.926333427
vn 0.387102187 -0.302394062 -0.87103945
vn 0.506115794 -0.369615644 -0.779250264
vn 0.636317253 -0.447981089 -0.628023207
vn 0.746131063 -0.510347068 -0.427591383
vn 0.811262429 -0.543425024 -0.215737164
vn 0.83501035 -0.550223947 0.0033489489
vn 0.816870034 -0.530923843 0.22548455
vn 0.759898365 -0.484294206 0.433605373
vn 0.683313131 -0.425964117 0.592990458
vn 0.606004655 -0.372027427 0.703103125
vn 0.556234837 -0.337114602 0.759576499
vn 0.528694868 -0.347127914 0.77458632
vn 0.313361079 -0.177316844 -0.932932794
vn 0.437000722 -0.20933944 -0.874761343
vn 0.565164328 -0.256074637 -0.78422904
vn 0.70925802 -0.310517669 -0.632875919
vn 0.829415202 -0.353038222 -0.432937115
vn 0.899552286 -0.375986427 -0.22235091
vn 0.924676299 -0.380738854 -0.00341526
vn 0.903992891 -0.367313027 0.218810216
vn 0.83817327 -0.335592717 0.429933995
vn 0.75250721 -0.296033859 0.58829999
vn 0.667942345 -0.259203047 0.697615087
vn 0.610843658 -0.237218186 0.755379021
vn 0.57477206 -0.250244856 0.779111445
vn 0.339268833 -0.0907914937 -0.936297715
vn 0.466061145 -0.108863354 -0.878029525
vn 0.600967109 -0.134243608 -0.787919581
vn 0.753572643 -0.162670955 -0.636919558
vn 0.880200088 -0.180396199 -0.438981861
vn 0.954872012 -0.193026006 -0.225743949
vn 0.980756462 -0.195110276 -0.00698934402
vn 0.958162427 -0.189284652 0.214700103
vn 0.887066126 -0.175166845 0.427118629
vn 0.794945478 -0.157761335 0.585809886
vn 0.704899669 -0.138072088 0.695738912
vn 0.646875441 -0.124834545 0.752308726
vn 0.605651796 -0.133845925 0.784392238
vn 0.347469091 2.54400657e-05 -0.937691391
vn 0.475903004 -5.53469763e-05 -0.879497826
vn 0.614033282 0.000934813288 -0.78927958
vn 0.768736422 0.00170688331 -0.639563501
vn 0.897288382 0.00353799993 -0.441430807
vn 0.973899543 0.00513218669 -0.226921409
vn 0.999952734 0.00463716267 -0.00854642503
vn 0.977026701 0.00317074638 0.213093594
vn 0.9044348 0.00140167715 0.426609576
vn 0.811033547 -0.000397227326 0.584999502
vn 0.716991663 -0.000652153627 0.697081506
vn 0.660185218 0.000119188866 0.751102805
vn 0.616965413 -0.00285513746 0.786985159
vn 0.338274628 0.0931442976 -0.936426461
vn 0.46650207 0.10945265 -0.877722085
vn 0.601228297 0.13419272 -0.787728965
vn 0.75408417 0.160971075 -0.63674593
vn 0.879833519 0.184897766 -0.43784219
vn 0.95396173 0.19688727 -0.226257384
vn 0.979023814 0.203619957 -0.00716557773
vn 0.957621932 0.19162032 0.215039015
vn 0.886800408 0.175934598 0.427354872
vn 0.795677722 0.156246305 0.585221469
vn 0.703765869 0.136771932 0.697142124
vn 0.64806664 0.125167042 0.751227617
vn 0.606784701 0.134015068 0.78348738
vn 0.314489722 0.17769441 -0.93248111
vn 0.438102156 0.210011438 -0.874049008
vn 0.565051615 0.255725503 -0.784424067
vn 0.709619045 0.309966266 -0.632741451
vn 0.829553783 0.353350043 -0.432416737
vn 0.89898926 0.377018511 -0.222879499
vn 0.92369175 0.383121669 -0.003371133
vn 0.903362036 0.369021714 0.218540475
vn 0.837694168 0.336706758 0.42999661
vn 0.752075374 0.297546208 0.588089228
vn 0.668697953 0.2573964 0.697560191
vn 0.611933291 0.234995678 0.755191863
vn 0.577421784 0.25273329 0.776343942
vn 0.281754434 0.251348138 -0.925979853
vn 0.390807271 0.301606745 -0.869656861
vn 0.504867613 0.371282071 -0.779267848
vn 0.635457933 0.45028314 -0.627246678
vn 0.74516362 0.512254715 -0.426996857
vn 0.810208499 0.54519403 -0.215233892
vn 0.833699048 0.552209079 0.00332493777
vn 0.816160083 0.532610834 0.224072412
vn 0.757571399 0.486449391 0.435261369
vn 0.681679428 0.430363655 0.591692686
vn 0.6051054 0.37552315 0.70201844
vn 0.553256154 0.338114411 0.761305571
vn 0.528747022 0.35196498 0.772364795
vn 0.254997641 0.321664333 -0.911870718
vn 0.324987859 0.386745602 -0.863024235
vn 0.421796858 0.473808527 -0.773041308
vn 0.535458744 0.573257327 -0.620209634
vn 0.630371392 0.65332967 -0.41927582
vn 0.688093781 0.695406377 -0.207212433
vn 0.711239219 0.702856123 0.0114925168
vn 0.698066473 0.676909506 0.233445302
vn 0.650717556 0.617432535 0.441977113
vn 0.587680101 0.545145273 0.597870171
vn 0.521863282 0.475944459 0.707909286
vn 0.478372216 0.430771351 0.765242517
vn 0.472703427 0.42187959 0.773672521
vn 0.186629385 0.348178446 -0.918662727
vn 0.244479567 0.450439245 -0.858681679
vn 0.321460694 0.55623281 -0.766334236
vn 0.414328575 0.674406767 -0.61115247
vn 0.491483718 0.769153357 -0.408469051
vn 0.539172292 0.818700492 -0.197541431
vn 0.56096071 0.827556491 0.0217578541
vn 0.553588033 0.796239257 0.244015276
vn 0.519301772 0.726445556 0.450113863
vn 0.470822245 0.640781283 0.606403947
vn 0.421543479 0.556429446 0.716021955
vn 0.391096652 0.500904441 0.772099793
vn 0.400403142 0.474418491 0.783967018
vn 0.11261981 0.381287873 -0.917570949
vn 0.153625607 0.49716261 -0.853948832
vn 0.208747849 0.61755842 -0.758317828
vn 0.275165707 0.749505997 -0.602100253
vn 0.334842891 0.854299903 -0.397557557
vn 0.372394919 0.909154534 -0.186440364
vn 0.390886545 0.919793308 0.034467198
vn 0.390377581 0.884660244 0.254914641
vn 0.370373875 0.806529284 0.460796922
vn 0.338120937 0.711424291 0.616075993
vn 0.307204545 0.61934036 0.722525358
vn 0.292364836 0.55542028 0.778479993
vn 0.307237089 0.522758603 0.79519105
vn 0.0314013027 0.403062046 -0.914633751
vn 0.0523396097 0.528069198 -0.84758687
vn 0.0847556666 0.655742109 -0.750212491
vn 0.125573084 0.79629451 -0.591731787
vn 0.162738532 0.907499135 -0.387248755
vn 0.189811036 0.966502428 -0.172756612
vn 0.207458243 0.977122843 0.0468194783
vn 0.215000242 0.939612925 0.266275287
vn 0.211044773 0.855387628 0.473045588
vn 0.200489104 0.754031181 0.625492692
vn 0.189125985 0.655810535 0.730851471
vn 0.181605726 0.591233909 0.785787463
vn 0.193557143 0.553923309 0.809755862
vn -0.0619914643 0.412149042 -0.909005105
vn -0.0588015616 0.539214134 -0.840113461
vn -0.0534121357 0.668567181 -0.741731167
vn -0.0433974154 0.81306839 -0.580548406
vn -0.029799832 0.927049041 -0.373754054
vn -0.0148131493 0.987015307 -0.159941956
vn 0.00175848464 0.998133063 0.0610528067
vn 0.0174896959 0.959598005 0.280830652
vn 0.0324414559 0.872593224 0.48736918
vn 0.043781478 0.769957662 0.636591256
vn 0.0498596355 0.667838931 0.742633998
vn 0.05243285 0.605086803 0.794431031
vn 0.0594753399 0.563982487 0.823642194
vn -0.15824455 0.402423024 -0.901673079
vn -0.170714244 0.528849959 -0.831368983
vn -0.189798355 0.654989004 -0.731413662
vn -0.208660305 0.795842052 -0.568415582
vn -0.217489615 0.907291651 -0.35988912
vn -0.215294451 0.965763688 -0.144737244
vn -0.202406004 0.976435959 0.0748638436
vn -0.177471444 0.938897729 0.294915289
vn -0.143732175 0.854535758 0.499109
vn -0.111458711 0.754981339 0.646204412
vn -0.0830371603 0.655148327 0.750923157
vn -0.0683981702 0.594769418 0.800981224
vn -0.0755885094 0.55085206 0.831172884
vn -0.241290346 0.379387289 -0.893221319
vn -0.270193338 0.498356193 -0.823794127
vn -0.310701787 0.618227184 -0.721983135
vn -0.355882764 0.749638498 -0.558022857
vn -0.386038363 0.854746699 -0.346961826
vn -0.394068718 0.909614384 -0.131573275
vn -0.38272801 0.919717193 0.0874044299
vn -0.351460725 0.884879589 0.305717945
vn -0.301220447 0.806016922 0.509512484
vn -0.24942705 0.712600052 0.655734122
vn -0.201303393 0.620104671 0.7582528
vn -0.176029176 0.559152126 0.810162127
vn -0.190312892 0.518451869 0.833659887
vn -0.312812477 0.345172495 -0.884875298
vn -0.361712158 0.449628174 -0.816699922
vn -0.425107569 0.556131005 -0.71414417
vn -0.493939966 0.674594283 -0.548585415
vn -0.542417526 0.769730389 -0.336598366
vn -0.559981704 0.819776416 -0.119947009
vn -0.55037719 0.828935444 0.0997548476
vn -0.513129711 0.797675133 0.316878945
vn -0.449491411 0.726940691 0.519148111
vn -0.380948544 0.641925931 0.665439188
vn -0.318949938 0.559032917 0.765345097
vn -0.278501689 0.502416909 0.818543851
vn -0.285592943 0.471562505 0.834305465
vn -0.377159655 0.31994915 -0.86912787
vn -0.443437785 0.38593924 -0.80895853
vn -0.52663815 0.472969532 -0.706365466
vn -0.616363347 0.572178185 -0.541025341
vn -0.682004988 0.653512478 -0.32831493
vn -0.708937049 0.696702361 -0.109608829
vn -0.700660944 0.704859972 0.110664405
vn -0.657360494 0.678734899 0.327408195
vn -0.581024647 0.618632495 0.528870523
vn -0.496590018 0.545800209 0.674907804
vn -0.420276254 0.474986643 0.77314657
vn -0.370732695 0.426902533 0.824810028
vn -0.361246198 0.418303281 0.833380699
vn -0.405724913 0.252832562 -0.878329635
vn -0.507659972 0.302960664 -0.806533456
vn -0.607903242 0.37245366 -0.70123595
vn -0.715094864 0.450256586 -0.53470403
vn -0.796830297 0.512010217 -0.320791215
vn -0.832311928 0.544981003 -0.101254568
vn -0.825056195 0.55233711 0.119188994
vn -0.776937544 0.532457173 0.335942686
vn -0.689757049 0.486109167 0.536593974
vn -0.591537476 0.429507762 0.682353675
vn -0.502035916 0.373972923 0.779810429
vn -0.445105612 0.337402493 0.829482198
vn -0.41511488 0.348721951 0.840281308
vn -0.439711213 0.179010093 -0.880118966
vn -0.554479122 0.212566376 -0.804592133
vn -0.667863548 0.258512527 -0.697946608
vn -0.789105892 0.311660945 -0.529319644
vn -0.881034672 0.353940845 -0.313853115
vn -0.921408534 0.376672775 -0.0955192223
vn -0.915764391 0.381864339 0.124721013
vn -0.864018559 0.369275272 0.342210025
vn -0.76929003 0.337900907 0.542232215
vn -0.661111832 0.298728496 0.688253105
vn -0.562512815 0.260672808 0.784620285
vn -0.499523401 0.238667086 0.832775116
vn -0.461578399 0.251592547 0.850674212
vn -0.462320209 0.0967690796 -0.881416917
vn -0.583498597 0.112705618 -0.804255426
vn -0.704712868 0.136217669 -0.696293473
vn -0.83453995 0.162403256 -0.526467681
vn -0.932243109 0.18490763 -0.311017811
vn -0.976209402 0.196747512 -0.0911357552
vn -0.971637666 0.198236257 0.128929362
vn -0.918384314 0.190887436 0.346600771
vn -0.818188131 0.175186634 0.547611058
vn -0.706094384 0.15368484 0.691239297
vn -0.600511014 0.134863138 0.788161457
vn -0.536438227 0.124056749 0.834771693
vn -0.490184009 0.13495253 0.861108184
vn -0.471688032 -0.00146461895 -0.881764293
vn -0.593482554 -0.00325636449 -0.804840267
vn -0.718153417 0.000188696082 -0.695884824
vn -0.850166142 0.00128359417 -0.52651298
vn -0.950234115 0.00318015995 -0.311520517
vn -0.995952487 0.00396656338 -0.0897938237
vn -0.991406918 0.00319529185 0.130775377
vn -0.937273622 0.00191309873 0.348589331
vn -0.835659444 0.0015031842 0.549245894
vn -0.722173333 0.00115299458 0.691711187
vn -0.613181829 0.000292684825 0.789941669
vn -0.549742043 4.19383978e-05 0.835334539
vn -0.500115454 0.00407091994 0.865949214
vn -0.463390082 -0.0983809009 -0.880676389
vn -0.581766605 -0.112481229 -0.805540621
vn -0.704945385 -0.13511762 -0.696272314
vn -0.834633946 -0.163145021 -0.526089132
vn -0.932769418 -0.180321842 -0.312130034
vn -0.977125943 -0.192290843 -0.0908256322
vn -0.972307563 -0.194523945 0.129531428
vn -0.918945014 -0.18826291 0.346550345
vn -0.818922043 -0.173312947 0.547109962
vn -0.706076503 -0.155636907 0.690820694
vn -0.599577427 -0.136564463 0.788579106
vn -0.53747344 -0.124724939 0.834005952
vn -0.489355892 -0.133623585 0.861786306
vn -0.439869612 -0.17740716 -0.880364358
vn -0.551187813 -0.210790902 -0.807316005
vn -0.667828143 -0.25763917 -0.698303461
vn -0.789851546 -0.310663134 -0.528793991
vn -0.881413639 -0.352511555 -0.314397424
vn -0.921659708 -0.376123548 -0.0952600986
vn -0.915929735 -0.381200582 0.125533924
vn -0.863968194 -0.368569553 0.343096912
vn -0.768314838 -0.33800441 0.543548882
vn -0.662454128 -0.300056189 0.686382413
vn -0.563964903 -0.259851187 0.783850074
vn -0.500650883 -0.236132786 0.832820594
vn -0.459422469 -0.255241007 0.850754321
vn -0.407334208 -0.246309489 -0.879437506
vn -0.505839229 -0.300333202 -0.808657348
vn -0.608993411 -0.370297879 -0.701431751
vn -0.717238963 -0.448705524 -0.533133745
vn -0.797254622 -0.510876775 -0.321543276
vn -0.83309263 -0.54391104 -0.100585088
vn -0.825870335 -0.550958395 0.119929157
vn -0.777766526 -0.530639291 0.336899459
vn -0.691036701 -0.482815295 0.53791976
vn -0.595197141 -0.426490039 0.681062937
vn -0.504281819 -0.371952236 0.779327571
vn -0.445289731 -0.334898174 0.830397666
vn -0.414338887 -0.343973458 0.842618287
vn -0.378767759 -0.318590939 -0.868927479
vn -0.440783501 -0.383963227 -0.811345935
vn -0.525607407 -0.472334534 -0.707557082
vn -0.617123067 -0.572855115 -0.539440632
vn -0.682447731 -0.652418137 -0.329569012
vn -0.710491061 -0.695009053 -0.110294312
vn -0.70267415 -0.702631235 0.112063959
vn -0.659164429 -0.676665843 0.328063309
vn -0.582514226 -0.616490424 0.529732704
vn -0.497688949 -0.544992328 0.674751163
vn -0.419029683 -0.475217164 0.773681343
vn -0.368763059 -0.428636312 0.824793756
vn -0.359761 -0.411323637 0.83748728
vn -0.311498344 -0.347392797 -0.884469926
vn -0.359755725 -0.448465109 -0.818202257
vn -0.424447119 -0.555786729 -0.714804709
vn -0.494684666 -0.674817681 -0.547638774
vn -0.543033898 -0.768575966 -0.338238478
vn -0.560631335 -0.819238484 -0.120585404
vn -0.550820112 -0.82842207 0.10155841
vn -0.512950242 -0.797421813 0.317805916
vn -0.449923486 -0.726655662 0.519172788
vn -0.381226391 -0.640882611 0.666285217
vn -0.318065077 -0.558028102 0.766445875
vn -0.27851969 -0.503508925 0.817866504
vn -0.285882384 -0.47181648 0.834062696
vn -0.240404487 -0.379267633 -0.893510997
vn -0.271574467 -0.494707286 -0.825537443
vn -0.311368406 -0.616902947 -0.72282809
vn -0.356214851 -0.749511063 -0.557982147
vn -0.386199385 -0.854134023 -0.348289043
vn -0.393090189 -0.909893274 -0.132568702
vn -0.381445795 -0.920083582 0.0891368389
vn -0.351684809 -0.884679198 0.306040257
vn -0.304014206 -0.805712581 0.508333027
vn -0.251655906 -0.709986389 0.657714784
vn -0.204505488 -0.61846298 0.758736491
vn -0.17828986 -0.557443976 0.81084466
vn -0.191902161 -0.521339297 0.831492007
vn -0.158394143 -0.401167542 -0.902206182
vn -0.17162852 -0.526403725 -0.832732141
vn -0.190012321 -0.65512085 -0.731240034
vn -0.209322214 -0.795110941 -0.569194913
vn -0.218777537 -0.906738102 -0.360503078
vn -0.215273559 -0.965861797 -0.144112051
vn -0.201963678 -0.976495624 0.0752788633
vn -0.178387776 -0.939154088 0.293542683
vn -0.144443229 -0.855136931 0.497872531
vn -0.111678936 -0.753507972 0.647883892
vn -0.0840073228 -0.654402554 0.751465261
vn -0.0659683719 -0.592028558 0.803212643
vn -0.0774469897 -0.555354476 0.827999592
vn -0.0635575652 -0.409883767 -0.909920692
vn -0.0534637272 -0.66749388 -0.742693424
vn -0.0302452575 -0.92671293 -0.374550819
vn 0.0324743912 -0.873065591 0.486520171
vn 0.0523688085 -0.666520596 0.743645012
vn 0.056464415 -0.602548778 0.796082199
vn 0.0601782463 -0.568785131 0.820281744
vn -0.323850602 -0.382819325 0.865199566
vn -0.21378234 -0.433296978 0.875528991
vn -0.0846443027 -0.461691022 0.882993102
vn 0.0618249662 -0.471107066 0.879906774
vn 0.207612216 -0.462413728 0.862015426
vn 0.33425656 -0.434267789 0.83647114
vn 0.440170825 -0.384100556 0.8116135
vn -0.367334515 -0.281640172 0.886422038
vn -0.250292838 -0.320869684 0.913452923
vn -0.106088802 -0.35050723 0.930532038
vn 0.0620739013 -0.361241102 0.930404067
vn 0.233386099 -0.349424571 0.907432377
vn 0.376316339 -0.320405215 0.86932528
vn 0.486802399 -0.277712524 0.828190386
vn -0.391365021 -0.146224231 0.908543885
vn -0.27338025 -0.174252033 0.945991218
vn -0.128050491 -0.198577702 0.971684098
vn 0.0629653409 -0.21037446 0.975591123
vn 0.263744295 -0.20201613 0.943201125
vn 0.404669851 -0.172574788 0.898031354
vn 0.513929307 -0.146318361 0.845261872
vn -0.39979431 0.00635893084 0.916582763
vn -0.285869181 0.00778195309 0.958237052
vn -0.136250287 0.00901792012 0.990633368
vn 0.0842521787 0.0133606195 0.996354938
vn 0.274276555 0.00998560619 0.961599052
vn 0.416524947 0.0056763473 0.909106553
vn 0.525377512 0.00113882788 0.850868464
vn -0.392908037 0.150417119 0.907192349
vn -0.27311191 0.179473788 0.945092142
vn -0.128822684 0.208332479 0.969537199
vn 0.0603355467 0.221203774 0.973359406
vn 0.26289922 0.212256283 0.94118613
vn 0.399982601 0.178571239 0.898958445
vn 0.516249657 0.149809062 0.843233943
vn -0.364528686 0.279545367 0.888241589
vn -0.244528726 0.321792245 0.914688706
vn -0.10669376 0.350799173 0.930352807
vn 0.0607815497 0.362304121 0.930076003
vn 0.232902601 0.350049078 0.90731591
vn 0.368812352 0.32284984 0.871633828
vn 0.483603597 0.281018972 0.828948736
vn -0.31998387 0.387096703 0.864735007
vn -0.20898895 0.432213306 0.877220213
vn -0.0843225941 0.461481571 0.883133292
vn 0.0603858456 0.469973236 0.880612731
vn 0.205562696 0.459630013 0.863993168
vn 0.33101809 0.431763113 0.839051664
vn 0.436101049 0.389688015 0.811146855
vn -0.31486246 -0.250990421 -0.915349901
vn -0.237538099 -0.28319487 -0.929180503
vn -0.157819107 -0.301630139 -0.94027257
vn -0.0661132187 -0.306483895 -0.949577034
vn 0.0270103142 -0.301229089 -0.953169167
vn 0.108154759 -0.284177482 -0.952651978
vn 0.184433028 -0.258041948 -0.948366404
vn -0.344858587 -0.176006481 -0.922005534
vn -0.261695266 -0.200836137 -0.94402349
vn -0.170244038 -0.220616922 -0.960388005
vn -0.0673092529 -0.228255376 -0.971271873
vn 0.0349909924 -0.220958665 -0.974655271
vn 0.126886487 -0.202809021 -0.970962584
vn 0.209292367 -0.178463042 -0.961429954
vn -0.362047732 -0.0980977342 -0.926983476
vn -0.279898822 -0.108024441 -0.953932583
vn -0.180956468 -0.116127618 -0.976611078
vn -0.0694047064 -0.120527625 -0.990280867
vn 0.0423505083 -0.115642942 -0.992387593
vn 0.14239639 -0.106440865 -0.984070003
vn 0.227192149 -0.0920336992 -0.969491363
vn -0.365822256 0.00134362746 -0.930683792
vn -0.282541573 -0.00243223156 -0.959252
vn -0.185961023 0.000446214544 -0.982557058
vn -0.0727357715 0.0046358658 -0.9973405
vn 0.0455459952 0.00212005153 -0.998960018
vn 0.145463482 0.000440606032 -0.989363492
vn 0.234729886 0.00130742625 -0.972059786
vn -0.35861659 0.0953247175 -0.92860508
vn -0.278680891 0.107227802 -0.954378963
vn -0.181259409 0.117656879 -0.976371765
vn -0.0702150241 0.122691594 -0.989957929
vn 0.0426273607 0.11556381 -0.99238503
vn 0.142801628 0.106982268 -0.983952463
vn 0.227148727 0.0942693874 -0.96928674
vn -0.341337442 0.178107932 -0.922911882
vn -0.26052466 0.204435095 -0.943574727
vn -0.172315866 0.220522001 -0.960040271
vn -0.0665767267 0.223202333 -0.972495854
vn 0.0361205488 0.219266817 -0.97499609
vn 0.125223666 0.200603873 -0.971636355
vn 0.210035712 0.175776273 -0.961762786
vn -0.313119024 0.255393565 -0.914729774
vn -0.240191177 0.281405598 -0.929042041
vn -0.161009625 0.298561871 -0.940710783
vn -0.0656221882 0.306011736 -0.949763358
vn 0.028114384 0.301610619 -0.953016639
vn 0.105798274 0.283893883 -0.953001022
vn 0.183472529 0.253895879 -0.949670851
vn 0.185450062 -0.590889692 0.785148203
vn 0.293789208 -0.552574396 0.779967606
vn 0.390489697 -0.499911726 0.773049891
vn 0.483498722 -0.424963832 0.765267789
vn 0.555718124 -0.336839795 0.760076463
vn 0.607102334 -0.241119474 0.757158041
vn 0.644937098 -0.127850533 0.753465593
vn 0.660039067 -0.00212853262 0.751228333
vn 0.64605248 0.129661694 0.752199471
vn 0.608164489 0.242408291 0.755892932
vn 0.554629922 0.338708222 0.760041058
vn 0.479728967 0.430433899 0.764582872
vn 0.392042786 0.502350152 0.770679474
vn 0.298169792 0.553336084 0.777762115
vn 0.186651379 0.590463638 0.785184026
vn 0.0556745417 0.607026637 0.792728782
vn -0.0724874735 0.593880832 0.801280975
vn -0.183646306 0.554545701 0.81163609
vn -0.279307216 0.500823736 0.819245458
vn -0.369933248 0.42686677 0.825187325
vn -0.44412896 0.337925673 0.829792559
vn -0.495609373 0.242289424 0.834066629
vn -0.534199595 0.129152372 0.835434377
vn -0.550105751 0.00187110493 0.835092902
vn -0.535909891 -0.128694937 0.834408939
vn -0.495562285 -0.242973283 0.833895743
vn -0.444119841 -0.334453732 0.831202924
vn -0.369601041 -0.426500529 0.825525522
vn -0.278913558 -0.502053559 0.818626583
vn -0.183532894 -0.553438127 0.812417328
vn -0.071206063 -0.592733026 0.80224508
vn 0.057276167 -0.607271016 0.79242748
f 2//2 411//411 9//9
f 2//2 9//9 10//10
f 415//415 414//414 17//17
f 415//415 17//17 18//18
f 412//412 2//2 10//10
f 412//412 10//10 11//11
f 546//546 415//415 18//18
f 546//546 18//18 515//515
f 3//3 412//412 11//11
f 3//3 11//11 12//12
f 4//4 3//3 12//12
f 4//4 12//12 13//13
f 5//5 4//4 13//13
f 5//5 13//13 14//14
f 413//413 5//5 14//14
f 413//413 14//14 15//15
f 1//1 410//410 7//7
f 1//1 7//7 8//8
f 6//6 413//413 15//15
f 6//6 15//15 16//16
f 411//411 1//1 8//8
f 411//411 8//8 9//9
f 414//414 6//6 16//16
f 414//414 16//16 17//17
f 9//9 8//8 21//21
f 9//9 21//21 22//22
f 17//17 16//16 29//29
f 17//17 29//29 30//30
f 10//10 9//9 22//22
f 10//10 22//22 23//23
f 18//18 17//17 30//30
f 18//18 30//30 31//31
f 11//11 10//10 23//23
f 11//11 23//23 24//24
f 515//515 18//18 31//31
f 515//515 31//31 516//516
f 12//12 11//11 24//24
f 12//12 24//24 25//25
f 13//13 12//12 25//25
f 13//13 25//25 26//26
f 14//14 13//13 26//26
f 14//14 26//26 27//27
f 15//15 14//14 27//27
f 15//15 27//27 28//28
f 8//8 7//7 20//20
f 8//8 20//20 21//21
f 16//16 15//15 28//28
f 16//16 28//28 29//29
f 26//26 25//25 38//38
f 26//26 38//38 39//39
f 27//27 26//26 39//39
f 27//27 39//39 40//40
f 28//28 27//27 40//40
f 28//28 40//40 41//41
f 21//21 20//20 33//33
f 21//21 33//33 34//34
f 29//29 28//28 41//41
f 29//29 41//41 42//42
f 22//22 21//21 34//34
f 22//22 34//34 35//35
f 30//30 29//29 42//42
f 30//30 42//42 43//43
f 23//23 22//22 35//35
f 23//23 35//35 36//36
f 31//31 30//30 43//43
f 31//31 43//43 44//44
f 24//24 23//23 36//36
f 24//24 36//36 37//37
f 516//516 31//31 44//44
f 516//516 44//44 517//517
f 25//25 24//24 37//37
f 25//25 37//37 38//38
f 35//35 34//34 47//47
f 35//35 47//47 48//48
f 43//43 42//42 55//55
f 43//43 55//55 56//56
f 36//36 35//35 48//48
f 36//36 48//48 49//49
f 44//44 43//43 56//56
f 44//44 56//56 57//57
f 37//37 36//36 49//49
f 37//37 49//49 50//50
f 517//517 44//44 57//57
f 517//517 57//57 518//518
f 38//38 37//37 50//50
f 38//38 50//50 51//51
f 39//39 38//38 51//51
f 39//39 51//51 52//52
f 40//40 39//39 52//52
f 40//40 52//52 53//53
f 41//41 40//40 53//53
f 41//41 53//53 54//54
f 34//34 33//33 46//46
f 34//34 46//46 47//47
f 42//42 41//41 54//54
f 42//42 54//54 55//55
f 52//52 51//51 64//64
f 52//52 64//64 65//65
f 53//53 52//52 65//65
f 53//53 65//65 66//66
f 54//54 53//53 66//66
f 54//54 66//66 67//67
f 47//47 46//46 59//59
f 47//47 59//59 60//60
f 55//55 54//54 67//67
f 55//55 67//67 68//68
f 48//48 47//47 60//60
f 48//48 60//60 61//61
f 56//56 55//55 68//68
f 56//56 68//68 69//69
f 49//49 48//48 61//61
f 49//49 61//61 62//62
f 57//57 56//56 69//69
f 57//57 69//69 70//70
f 50//50 49//49 62//62
f 50//50 62//62 63//63
f 518//518 57//57 70//70
f 518//518 70//70 519//519
f 51//51 50//50 63//63
f 51//51 63//63 64//64
f 69//69 68//68 81//81
f 69//69 81//81 82//82
f 62//62 61//61 74//74
f 62//62 74//74 75//75
f 70//70 69//69 82//82
f 70//70 82//82 83//83
f 63//63 62//62 75//75
f 63//63 75//75 76//76
f 519//519 70//70 83//83
f 519//519 83//83 520//520
f 64//64 63//63 76//76
f 64//64 76//76 77//77
f 65//65 64//64 77//77
f 65//65 77//77 78//78
f 66//66 65//65 78//78
f 66//66 78//78 79//79
f 67//67 66//66 79//79
f 67//67 79//79 80//80
f 60//60 59//59 72//72
f 60//60 72//72 73//73
f 68//68 67//67 80//80
f 68//68 80//80 81//81
f 61//61 60//60 73//73
f 61//61 73//73 74//74
f 79//79 78//78 91//91
f 79//79 91//91 92//92
f 80//80 79//79 92//92
f 80//80 92//92 93//93
f 73//73 72//72 85//85
f 73//73 85//85 86//86
f 81//81 80//80 93//93
f 81//81 93//93 94//94
f 74//74 73//73 86//86
f 74//74 86//86 87//87
f 82//82 81//81 94//94
f 82//82 94//94 95//95
f 75//75 74//74 87//87
f 75//75 87//87 88//88
f 83//83 82//82 95//95
f 83//83 95//95 96//96
f 76//76 75//75 88//88
f 76//76 88//88 89//89
f 520//520 83//83 96//96
f 520//520 96//96 521//521
f 77//77 76//76 89//89
f 77//77 89//89 90//90
f 78//78 77//77 90//90
f 78//78 90//90 91//91
f 88//88 87//87 100//100
f 88//88 100//100 101//101
f 96//96 95//95 108//108
f 96//96 108//108 109//109
f 89//89 88//88 101//101
f 89//89 101//101 102//102
f 521//521 96//96 109//109
f 521//521 109//109 522//522
f 90//90 89//89 102//102
f 90//90 102//102 103//103
f 91//91 90//90 103//103
f 91//91 103//103 104//104
f 92//92 91//91 104//104
f 92//92 104//104 105//105
f 93//93 92//92 105//105
f 93//93 105//105 106//106
f 86//86 85//85 98//98
f 86//86 98//98 99//99
f 94//94 93//93 106//106
f 94//94 106//106 107//107
f 87//87 86//86 99//99
f 87//87 99//99 100//100
f 95//95 94//94 107//107
f 95//95 107//107 108//108
f 105//105 104//104 117//117
f 105//105 117//117 118//118
f 106//106 105//105 118//118
f 106//106 118//118 119//119
f 99//99 98//98 111//111
f 99//99 111//111 112//112
f 107//107 106//106 119//119
f 107//107 119//119 120//120
f 100//100 99//99 112//112
f 100//100 112//112 113//113
f 108//108 107//107 120//120
f 108//108 120//120 121//121
f 101//101 100//100 113//113
f 101//101 113//113 114//114
f 109//109 108//108 121//121
f 109//109 121//121 122//122
f 102//102 101//101 114//114
f 102//102 114//114 115//115
f 522//522 109//109 122//122
f 522//522 122//122 523//523
f 103//103 102//102 115//115
f 103//103 115//115 116//116
f 104//104 103//103 116//116
f 104//104 116//116 117//117
f 122//122 121//121 134//134
f 122//122 134//134 135//135
f 115//115 114//114 127//127
f 115//115 127//127 128//128
f 523//523 122//122 135//135
f 523//523 135//135 524//524
f 116//116 115//115 128//128
f 116//116 128//128 129//129
f 117//117 116//116 129//129
f 117//117 129//129 130//130
f 118//118 117//117 130//130
f 118//118 130//130 131//131
f 119//119 118//118 131//131
f 119//119 131//131 132//132
f 112//112 111//111 124//124
f 112//112 124//124 125//125
f 120//120 119//119 132//132
f 120//120 132//132 133//133
f 113//113 112//112 125//125
f 113//113 125//125 126//126
f 121//121 120//120 133//133
f 121//121 133//133 134//134
f 114//114 113//113 126//126
f 114//114 126//126 127//127
f 132//132 131//131 144//144
f 132//132 144//144 145//145
f 125//125 124//124 137//137
f 125//125 137//137 138//138
f 133//133 132//132 145//145
f 133//133 145//145 146//146
f 126//126 125//125 138//138
f 126//126 138//138 139//139
f 134//134 133//133 146//146
f 134//134 146//146 147//147
f 127//127 126//126 139//139
f 127//127 139//139 140//140
f 135//135 134//134 147//147
f 135//135 147//147 148//148
f 128//128 127//127 140//140
f 128//128 140//140 141//141
f 524//524 135//135 148//148
f 524//524 148//148 525//525
f 129//129 128//128 141//141
f 129//129 141//141 142//142
f 130//130 129//129 142//142
f 130//130 142//142 143//143
f 131//131 130//130 143//143
f 131//131 143//143 144//144
f 525//525 148//148 161//161
f 525//525 161//161 526//526
f 142//142 141//141 154//154
f 142//142 154//154 155//155
f 143//143 142//142 155//155
f 143//143 155//155 156//156
f 144//144 143//143 156//156
f 144//144 156//156 157//157
f 145//145 144//144 157//157
f 145//145 157//157 158//158
f 138//138 137//137 150//150
f 138//138 150//150 151//151
f 146//146 145//145 158//158
f 146//146 158//158 159//159
f 139//139 138//138 151//151
f 139//139 151//151 152//152
f 147//147 146//146 159//159
f 147//147 159//159 160//160
f 140//140 139//139 152//152
f 140//140 152//152 153//153
f 148//148 147//147 160//160
f 148//148 160//160 161//161
f 141//141 140//140 153//153
f 141//141 153//153 154//154
f 151//151 150//150 163//163
f 151//151 163//163 164//164
f 159//159 158//158 171//171
f 159//159 171//171 172//172
f 152//152 151//151 164//164
f 152//152 164//164 165//165
f 160//160 159//159 172//172
f 160//160 172//172 173//173
f 153//153 152//152 165//165
f 153//153 165//165 166//166
f 161//161 160//160 173//173
f 161//161 173//173 174//174
f 154//154 153//153 166//166
f 154//154 166//166 167//167
f 526//526 161//161 174//174
f 526//526 174//174 527//527
f 155//155 154//154 167//167
f 155//155 167//167 168//168
f 156//156 155//155 168//168
f 156//156 168//168 169//169
f 157//157 156//156 169//169
f 157//157 169//169 170//170
f 158//158 157//157 170//170
f 158//158 170//170 171//171
f 168//168 167//167 180//180
f 168//168 180//180 181//181
f 169//169 168//168 181//181
f 169//169 181//181 182//182
f 170//170 169//169 182//182
f 170//170 182//182 183//183
f 171//171 170//170 183//183
f 171//171 183//183 184//184
f 164//164 163//163 176//176
f 164//164 176//176 177//177
f 172//172 171//171 184//184
f 172//172 184//184 185//185
f 165//165 164//164 177//177
f 165//165 177//177 178//178
f 173//173 172//172 185//185
f 173//173 185//185 186//186
f 166//166 165//165 178//178
f 166//166 178//178 179//179
f 174//174 173//173 186//186
f 174//174 186//186 187//187
f 167//167 166//166 179//179
f 167//167 179//179 180//180
f 527//527 174//174 187//187
f 527//527 187//187 528//528
f 185//185 184//184 197//197
f 185//185 197//197 198//198
f 178//178 177//177 190//190
f 178//178 190//190 191//191
f 186//186 185//185 198//198
f 186//186 198//198 199//199
f 179//179 178//178 191//191
f 179//179 191//191 192//192
f 187//187 186//186 199//199
f 187//187 199//199 200//200
f 180//180 179//179 192//192
f 180//180 192//192 193//193
f 528//528 187//187 200//200
f 528//528 200//200 529//529
f 181//181 180//180 193//193
f 181//181 193//193 194//194
f 182//182 181//181 194//194
f 182//182 194//194 195//195
f 183//183 182//182 195//195
f 183//183 195//195 196//196
f 184//184 183//183 196//196
f 184//184 196//196 197//197
f 177//177 176//176 189//189
f 177//177 189//189 190//190
f 195//195 194//194 207//207
f 195//195 207//207 208//208
f 196//196 195//195 208//208
f 196//196 208//208 209//209
f 197//197 196//196 209//209
f 197//197 209//209 210//210
f 190//190 189//189 202//202
f 190//190 202//202 203//203
f 198//198 197//197 210//210
f 198//198 210//210 211//211
f 191//191 190//190 203//203
f 191//191 203//203 204//204
f 199//199 198//198 211//211
f 199//199 211//211 212//212
f 192//192 191//191 204//204
f 192//192 204//204 205//205
f 200//200 199//199 212//212
f 200//200 212//212 213//213
f 193//193 192//192 205//205
f 193//193 205//205 206//206
f 529//529 200//200 213//213
f 529//529 213//213 530//530
f 194//194 193//193 206//206
f 194//194 206//206 207//207
f 204//204 203//203 216//216
f 204//204 216//216 217//217
f 212//212 211//211 224//224
f 212//212 224//224 225//225
f 205//205 204//204 217//217
f 205//205 217//217 218//218
f 213//213 212//212 225//225
f 213//213 225//225 226//226
f 206//206 205//205 218//218
f 206//206 218//218 219//219
f 530//530 213//213 226//226
f 530//530 226//226 531//531
f 207//207 206//206 219//219
f 207//207 219//219 220//220
f 208//208 207//207 220//220
f 208//208 220//220 221//221
f 209//209 208//208 221//221
f 209//209 221//221 222//222
f 210//210 209//209 222//222
f 210//210 222//222 223//223
f 203//203 202//202 215//215
f 203//203 215//215 216//216
f 211//211 210//210 223//223
f 211//211 223//223 224//224
f 221//221 220//220 233//233
f 221//221 233//233 234//234
f 222//222 221//221 234//234
f 222//222 234//234 235//235
f 223//223 222//222 235//235
f 223//223 235//235 236//236
f 216//216 215//215 228//228
f 216//216 228//228 229//229
f 224//224 223//223 236//236
f 224//224 236//236 237//237
f 217//217 216//216 229//229
f 217//217 229//229 230//230
f 225//225 224//224 237//237
f 225//225 237//237 238//238
f 218//218 217//217 230//230
f 218//218 230//230 231//231
f 226//226 225//225 238//238
f 226//226 238//238 239//239
f 219//219 218//218 231//231
f 219//219 231//231 232//232
f 531//531 226//226 239//239
f 531//531 239//239 532//532
f 220//220 219//219 232//232
f 220//220 232//232 233//233
f 238//238 237//237 250//250
f 238//238 250//250 251//251
f 231//231 230//230 243//243
f 231//231 243//243 244//244
f 239//239 238//238 251//251
f 239//239 251//251 252//252
f 232//232 231//231 244//244
f 232//232 244//244 245//245
f 532//532 239//239 252//252
f 532//532 252//252 533//533
f 233//233 232//232 245//245
f 233//233 245//245 246//246
f 234//234 233//233 246//246
f 234//234 246//246 247//247
f 235//235 234//234 247//247
f 235//235 247//247 248//248
f 236//236 235//235 248//248
f 236//236 248//248 249//249
f 229//229 228//228 241//241
f 229//229 241//241 242//242
f 237//237 236//236 249//249
f 237//237 249//249 250//250
f 230//230 229//229 242//242
f 230//230 242//242 243//243
f 248//248 247//247 260//260
f 248//248 260//260 261//261
f 249//249 248//248 261//261
f 249//249 261//261 262//262
f 242//242 241//241 254//254
f 242//242 254//254 255//255
f 250//250 249//249 262//262
f 250//250 262//262 263//263
f 243//243 242//242 255//255
f 243//243 255//255 256//256
f 251//251 250//250 263//263
f 251//251 263//263 264//264
f 244//244 243//243 256//256
f 244//244 256//256 257//257
f 252//252 251//251 264//264
f 252//252 264//264 265//265
f 245//245 244//244 257//257
f 245//245 257//257 258//258
f 533//533 252//252 265//265
f 533//533 265//265 534//534
f 246//246 245//245 258//258
f 246//246 258//258 259//259
f 247//247 246//246 259//259
f 247//247 259//259 260//260
f 265//265 264//264 277//277
f 265//265 277//277 278//278
f 258//258 257//257 270//270
f 258//258 270//270 271//271
f 534//534 265//265 278//278
f 534//534 278//278 535//535
f 259//259 258//258 271//271
f 259//259 271//271 272//272
f 260//260 259//259 272//272
f 260//260 272//272 273//273
f 261//261 260//260 273//273
f 261//261 273//273 274//274
f 262//262 261//261 274//274
f 262//262 274//274 275//275
f 255//255 254//254 267//267
f 255//255 267//267 268//268
f 263//263 262//262 275//275
f 263//263 275//275 276//276
f 256//256 255//255 268//268
f 256//256 268//268 269//269
f 264//264 263//263 276//276
f 264//264 276//276 277//277
f 257//257 256//256 269//269
f 257//257 269//269 270//270
f 275//275 274//274 287//287
f 275//275 287//287 288//288
f 268//268 267//267 280//280
f 268//268 280//280 281//281
f 276//276 275//275 288//288
f 276//276 288//288 289//289
f 269//269 268//268 281//281
f 269//269 281//281 282//282
f 277//277 276//276 289//289
f 277//277 289//289 290//290
f 270//270 269//269 282//282
f 270//270 282//282 283//283
f 278//278 277//277 290//290
f 278//278 290//290 291//291
f 271//271 270//270 283//283
f 271//271 283//283 284//284
f 535//535 278//278 291//291
f 535//535 291//291 536//536
f 272//272 271//271 284//284
f 272//272 284//284 285//285
f 273//273 272//272 285//285
f 273//273 285//285 286//286
f 274//274 273//273 286//286
f 274//274 286//286 287//287
f 284//284 283//283 296//296
f 284//284 296//296 297//297
f 536//536 291//291 304//304
f 536//536 304//304 537//537
f 285//285 284//284 297//297
f 285//285 297//297 298//298
f 286//286 285//285 298//298
f 286//286 298//298 299//299
f 287//287 286//286 299//299
f 287//287 299//299 300//300
f 288//288 287//287 300//300
f 288//288 300//300 301//301
f 281//281 280//280 293//293
f 281//281 293//293 294//294
f 289//289 288//288 301//301
f 289//289 301//301 302//302
f 282//282 281//281 294//294
f 282//282 294//294 295//295
f 290//290 289//289 302//302
f 290//290 302//302 303//303
f 283//283 282//282 295//295
f 283//283 295//295 296//296
f 291//291 290//290 303//303
f 291//291 303//303 304//304
f 301//301 300//300 313//313
f 301//301 313//313 314//314
f 294//294 293//293 306//306
f 294//294 306//306 307//307
f 302//302 301//301 314//314
f 302//302 314//314 315//315
f 295//295 294//294 307//307
f 295//295 307//307 308//308
f 303//303 302//302 315//315
f 303//303 315//315 316//316
f 296//296 295//295 308//308
f 296//296 308//308 309//309
f 304//304 303//303 316//316
f 304//304 316//316 317//317
f 297//297 296//296 309//309
f 297//297 309//309 310//310
f 537//537 304//304 317//317
f 537//537 317//317 538//538
f 298//298 297//297 310//310
f 298//298 310//310 311//311
f 299//299 298//298 311//311
f 299//299 311//311 312//312
f 300//300 299//299 312//312
f 300//300 312//312 313//313
f 538//538 317//317 330//330
f 538//538 330//330 539//539
f 311//311 310//310 323//323
f 311//311 323//323 324//324
f 312//312 311//311 324//324
f 312//312 324//324 325//325
f 313//313 312//312 325//325
f 313//313 325//325 326//326
f 314//314 313//313 326//326
f 314//314 326//326 327//327
f 307//307 306//306 319//319
f 307//307 319//319 320//320
f 315//315 314//314 327//327
f 315//315 327//327 328//328
f 308//308 307//307 320//320
f 308//308 320//320 321//321
f 316//316 315//315 328//328
f 316//316 328//328 329//329
f 309//309 308//308 321//321
f 309//309 321//321 322//322
f 317//317 316//316 329//329
f 317//317 329//329 330//330
f 310//310 309//309 322//322
f 310//310 322//322 323//323
f 320//320 319//319 332//332
f 320//320 332//332 333//333
f 328//328 327//327 340//340
f 328//328 340//340 341//341
f 321//321 320//320 333//333
f 321//321 333//333 334//334
f 329//329 328//328 341//341
f 329//329 341//341 342//342
f 322//322 321//321 334//334
f 322//322 334//334 335//335
f 330//330 329//329 342//342
f 330//330 342//342 343//343
f 323//323 322//322 335//335
f 323//323 335//335 336//336
f 539//539 330//330 343//343
f 539//539 343//343 540//540
f 324//324 323//323 336//336
f 324//324 336//336 337//337
f 325//325 324//324 337//337
f 325//325 337//337 338//338
f 326//326 325//325 338//338
f 326//326 338//338 339//339
f 327//327 326//326 339//339
f 327//327 339//339 340//340
f 337//337 336//336 349//349
f 337//337 349//349 350//350
f 338//338 337//337 350//350
f 338//338 350//350 351//351
f 339//339 338//338 351//351
f 339//339 351//351 352//352
f 340//340 339//339 352//352
f 340//340 352//352 353//353
f 333//333 332//332 345//345
f 333//333 345//345 346//346
f 341//341 340//340 353//353
f 341//341 353//353 354//354
f 334//334 333//333 346//346
f 334//334 346//346 347//347
f 342//342 341//341 354//354
f 342//342 354//354 355//355
f 335//335 334//334 347//347
f 335//335 347//347 348//348
f 343//343 342//342 355//355
f 343//343 355//355 356//356
f 336//336 335//335 348//348
f 336//336 348//348 349//349
f 540//540 343//343 356//356
f 540//540 356//356 541//541
f 354//354 353//353 366//366
f 354//354 366//366 367//367
f 347//347 346//346 359//359
f 347//347 359//359 360//360
f 355//355 354//354 367//367
f 355//355 367//367 368//368
f 348//348 347//347 360//360
f 348//348 360//360 361//361
f 356//356 355//355 368//368
f 356//356 368//368 369//369
f 349//349 348//348 361//361
f 349//349 361//361 362//362
f 541//541 356//356 369//369
f 541//541 369//369 542//542
f 350//350 349//349 362//362
f 350//350 362//362 363//363
f 351//351 350//350 363//363
f 351//351 363//363 364//364
f 352//352 351//351 364//364
f 352//352 364//364 365//365
f 353//353 352//352 365//365
f 353//353 365//365 366//366
f 346//346 345//345 358//358
f 346//346 358//358 359//359
f 364//364 363//363 376//376
f 364//364 376//376 377//377
f 365//365 364//364 377//377
f 365//365 377//377 378//378
f 366//366 365//365 378//378
f 366//366 378//378 379//379
f 359//359 358//358 371//371
f 359//359 371//371 372//372
f 367//367 366//366 379//379
f 367//367 379//379 380//380
f 360//360 359//359 372//372
f 360//360 372//372 373//373
f 368//368 367//367 380//380
f 368//368 380//380 381//381
f 361//361 360//360 373//373
f 361//361 373//373 374//374
f 369//369 368//368 381//381
f 369//369 381//381 382//382
f 362//362 361//361 374//374
f 362//362 374//374 375//375
f 542//542 369//369 382//382
f 542//542 382//382 543//543
f 363//363 362//362 375//375
f 363//363 375//375 376//376
f 381//381 380//380 393//393
f 381//381 393//393 394//394
f 374//374 373//373 386//386
f 374//374 386//386 387//387
f 382//382 381//381 394//394
f 382//382 394//394 395//395
f 375//375 374//374 387//387
f 375//375 387//387 388//388
f 543//543 382//382 395//395
f 543//543 395//395 544//544
f 376//376 375//375 388//388
f 376//376 388//388 389//389
f 377//377 376//376 389//389
f 377//377 389//389 390//390
f 378//378 377//377 390//390
f 378//378 390//390 391//391
f 379//379 378//378 391//391
f 379//379 391//391 392//392
f 372//372 371//371 384//384
f 372//372 384//384 385//385
f 380//380 379//379 392//392
f 380//380 392//392 393//393
f 373//373 372//372 385//385
f 373//373 385//385 386//386
f 391//391 390//390 403//403
f 391//391 403//403 404//404
f 392//392 391//391 404//404
f 392//392 404//404 405//405
f 385//385 384//384 397//397
f 385//385 397//397 398//398
f 393//393 392//392 405//405
f 393//393 405//405 406//406
f 386//386 385//385 398//398
f 386//386 398//398 399//399
f 394//394 393//393 406//406
f 394//394 406//406 407//407
f 387//387 386//386 399//399
f 387//387 399//399 400//400
f 395//395 394//394 407//407
f 395//395 407//407 408//408
f 388//388 387//387 400//400
f 388//388 400//400 401//401
f 544//544 395//395 408//408
f 544//544 408//408 545//545
f 389//389 388//388 401//401
f 389//389 401//401 402//402
f 390//390 389//389 402//402
f 390//390 402//402 403//403
f 400//400 399//399 411//411
f 400//400 411//411 2//2
f 408//408 407//407 414//414
f 408//408 414//414 415//415
f 401//401 400//400 2//2
f 401//401 2//2 412//412
f 545//545 408//408 415//415
f 545//545 415//415 546//546
f 402//402 401//401 412//412
f 402//402 412//412 3//3
f 403//403 402//402 3//3
f 403//403 3//3 4//4
f 404//404 403//403 4//4
f 404//404 4//4 5//5
f 405//405 404//404 5//5
f 405//405 5//5 413//413
f 398//398 397//397 410//410
f 398//398 410//410 1//1
f 406//406 405//405 413//413
f 406//406 413//413 6//6
f 399//399 398//398 1//1
f 399//399 1//1 411//411
f 407//407 406//406 6//6
f 407//407 6//6 414//414
f 383//383 417//417 357//357
f 383//383 357//357 370//370
f 417//417 424//424 344//344
f 417//417 344//344 357//357
f 424//424 431//431 331//331
f 424//424 331//331 344//344
f 431//431 438//438 318//318
f 431//431 318//318 331//331
f 438//438 445//445 305//305
f 438//438 305//305 318//318
f 445//445 452//452 292//292
f 445//445 292//292 305//305
f 452//452 459//459 279//279
f 452//452 279//279 292//292
f 459//459 253//253 266//266
f 459//459 266//266 279//279
f 396//396 418//418 417//417
f 396//396 417//417 383//383
f 418//418 425//425 424//424
f 418//418 424//424 417//417
f 425//425 432//432 431//431
f 425//425 431//431 424//424
f 432//432 439//439 438//438
f 432//432 438//438 431//431
f 439//439 446//446 445//445
f 439//439 445//445 438//438
f 446//446 453//453 452//452
f 446//446 452//452 445//445
f 453//453 460//460 459//459
f 453//453 459//459 452//452
f 460//460 240//240 253//253
f 460//460 253//253 459//459
f 409//409 419//419 418//418
f 409//409 418//418 396//396
f 419//419 426//426 425//425
f 419//419 425//425 418//418
f 426//426 433//433 432//432
f 426//426 432//432 425//425
f 433//433 440//440 439//439
f 433//433 439//439 432//432
f 440//440 447//447 446//446
f 440//440 446//446 439//439
f 447//447 454//454 453//453
f 447//447 453//453 446//446
f 454//454 461//461 460//460
f 454//454 460//460 453//453
f 461//461 227//227 240//240
f 461//461 240//240 460//460
f 416//416 420//420 419//419
f 416//416 419//419 409//409
f 420//420 427//427 426//426
f 420//420 426//426 419//419
f 427//427 434//434 433//433
f 427//427 433//433 426//426
f 434//434 441//441 440//440
f 434//434 440//440 433//433
f 441//441 448//448 447//447
f 441//441 447//447 440//440
f 448//448 455//455 454//454
f 448//448 454//454 447//447
f 455//455 462//462 461//461
f 455//455 461//461 454//454
f 462//462 214//214 227//227
f 462//462 227//227 461//461
f 19//19 421//421 420//420
f 19//19 420//420 416//416
f 421//421 428//428 427//427
f 421//421 427//427 420//420
f 428//428 435//435 434//434
f 428//428 434//434 427//427
f 435//435 442//442 441//441
f 435//435 441//441 434//434
f 442//442 449//449 448//448
f 442//442 448//448 441//441
f 449//449 456//456 455//455
f 449//449 455//455 448//448
f 456//456 463//463 462//462
f 456//456 462//462 455//455
f 463//463 201//201 214//214
f 463//463 214//214 462//462
f 32//32 422//422 421//421
f 32//32 421//421 19//19
f 422//422 429//429 428//428
f 422//422 428//428 421//421
f 429//429 436//436 435//435
f 429//429 435//435 428//428
f 436//436 443//443 442//442
f 436//436 442//442 435//435
f 443//443 450//450 449//449
f 443//443 449//449 442//442
f 450//450 457//457 456//456
f 450//450 456//456 449//449
f 457//457 464//464 463//463
f 457//457 463//463 456//456
f 464//464 188//188 201//201
f 464//464 201//201 463//463
f 45//45 423//423 422//422
f 45//45 422//422 32//32
f 423//423 430//430 429//429
f 423//423 429//429 422//422
f 430//430 437//437 436//436
f 430//430 436//436 429//429
f 437//437 444//444 443//443
f 437//437 443//443 436//436
f 444//444 451//451 450//450
f 444//444 450//450 443//443
f 451//451 458//458 457//457
f 451//451 457//457 450//450
f 458//458 465//465 464//464
f 458//458 464//464 457//457
f 465//465 175//175 188//188
f 465//465 188//188 464//464
f 58//58 71//71 423//423
f 58//58 423//423 45//45
f 71//71 84//84 430//430
f 71//71 430//430 423//423
f 84//84 97//97 437//437
f 84//84 437//437 430//430
f 97//97 110//110 444//444
f 97//97 444//444 437//437
f 110//110 123//123 451//451
f 110//110 451//451 444//444
f 123//123 136//136 458//458
f 123//123 458//458 451//451
f 136//136 149//149 465//465
f 136//136 465//465 458//458
f 149//149 162//162 175//175
f 149//149 175//175 465//465
f 358//358 345//345 466//466
f 358//358 466//466 371//371
f 345//345 332//332 473//473
f 345//345 473//473 466//466
f 332//332 319//319 480//480
f 332//332 480//480 473//473
f 319//319 306//306 487//487
f 319//319 487//487 480//480
f 306//306 293//293 494//494
f 306//306 494//494 487//487
f 293//293 280//280 501//501
f 293//293 501//501 494//494
f 280//280 267//267 508//508
f 280//280 508//508 501//501
f 267//267 254//254 241//241
f 267//267 241//241 508//508
f 371//371 466//466 467//467
f 371//371 467//467 384//384
f 466//466 473//473 474//474
f 466//466 474//474 467//467
f 473//473 480//480 481//481
f 473//473 481//481 474//474
f 480//480 487//487 488//488
f 480//480 488//488 481//481
f 487//487 494//494 495//495
f 487//487 495//495 488//488
f 494//494 501//501 502//502
f 494//494 502//502 495//495
f 501//501 508//508 509//509
f 501//501 509//509 502//502
f 508//508 241//241 228//228
f 508//508 228//228 509//509
f 384//384 467//467 468//468
f 384//384 468//468 397//397
f 467//467 474//474 475//475
f 467//467 475//475 468//468
f 474//474 481//481 482//482
f 474//474 482//482 475//475
f 481//481 488//488 489//489
f 481//481 489//489 482//482
f 488//488 495//495 496//496
f 488//488 496//496 489//489
f 495//495 502//502 503//503
f 495//495 503//503 496//496
f 502//502 509//509 510//510
f 502//502 510//510 503//503
f 509//509 228//228 215//215
f 509//509 215//215 510//510
f 397//397 468//468 469//469
f 397//397 469//469 410//410
f 468//468 475//475 476//476
f 468//468 476//476 469//469
f 475//475 482//482 483//483
f 475//475 483//483 476//476
f 482//482 489//489 490//490
f 482//482 490//490 483//483
f 489//489 496//496 497//497
f 489//489 497//497 490//490
f 496//496 503//503 504//504
f 496//496 504//504 497//497
f 503//503 510//510 511//511
f 503//503 511//511 504//504
f 510//510 215//215 202//202
f 510//510 202//202 511//511
f 410//410 469//469 470//470
f 410//410 470//470 7//7
f 469//469 476//476 477//477
f 469//469 477//477 470//470
f 476//476 483//483 484//484
f 476//476 484//484 477//477
f 483//483 490//490 491//491
f 483//483 491//491 484//484
f 490//490 497//497 498//498
f 490//490 498//498 491//491
f 497//497 504//504 505//505
f 497//497 505//505 498//498
f 504//504 511//511 512//512
f 504//504 512//512 505//505
f 511//511 202//202 189//189
f 511//511 189//189 512//512
f 7//7 470//470 471//471
f 7//7 471//471 20//20
f 470//470 477//477 478//478
f 470//470 478//478 471//471
f 477//477 484//484 485//485
f 477//477 485//485 478//478
f 484//484 491//491 492//492
f 484//484 492//492 485//485
f 491//491 498//498 499//499
f 491//491 499//499 492//492
f 498//498 505//505 506//506
f 498//498 506//506 499//499
f 505//505 512//512 513//513
f 505//505 513//513 506//506
f 512//512 189//189 176//176
f 512//512 176//176 513//513
f 20//20 471//471 472//472
f 20//20 472//472 33//33
f 471//471 478//478 479//479
f 471//471 479//479 472//472
f 478//478 485//485 486//486
f 478//478 486//486 479//479
f 485//485 492//492 493//493
f 485//485 493//493 486//486
f 492//492 499//499 500//500
f 492//492 500//500 493//493
f 499//499 506//506 507//507
f 499//499 507//507 500//500
f 506//506 513//513 514//514
f 506//506 514//514 507//507
f 513//513 176//176 163//163
f 513//513 163//163 514//514
f 33//33 472//472 59//59
f 33//33 59//59 46//46
f 472//472 479//479 72//72
f 472//472 72//72 59//59
f 479//479 486//486 85//85
f 479//479 85//85 72//72
f 486//486 493//493 98//98
f 486//486 98//98 85//85
f 493//493 500//500 111//111
f 493//493 111//111 98//98
f 500//500 507//507 124//124
f 500//500 124//124 111//111
f 507//507 514//514 137//137
f 507//507 137//137 124//124
f 514//514 163//163 150//150
f 514//514 150//150 137//137
f 409//409 545//545 546//546
f 409//409 546//546 416//416
f 396//396 544//544 545//545
f 396//396 545//545 409//409
f 383//383 543//543 544//544
f 383//383 544//544 396//396
f 370//370 542//542 543//543
f 370//370 543//543 383//383
f 357//357 541//541 542//542
f 357//357 542//542 370//370
f 344//344 540//540 541//541
f 344//344 541//541 357//357
f 331//331 539//539 540//540
f 331//331 540//540 344//344
f 318//318 538//538 539//539
f 318//318 539//539 331//331
f 305//305 537//537 538//538
f 305//305 538//538 318//318
f 292//292 536//536 537//537
f 292//292 537//537 305//305
f 279//279 535//535 536//536
f 279//279 536//536 292//292
f 266//266 534//534 535//535
f 266//266 535//535 279//279
f 253//253 533//533 534//534
f 253//253 534//534 266//266
f 240//240 532//532 533//533
f 240//240 533//533 253//253
f 227//227 531//531 532//532
f 227//227 532//532 240//240
f 214//214 530//530 531//531
f 214//214 531//531 227//227
f 201//201 529//529 530//530
f 201//201 530//530 214//214
f 188//188 528//528 529//529
f 188//188 529//529 201//201
f 175//175 527//527 528//528
f 175//175 528//528 188//188
f 162//162 526//526 527//527
f 162//162 527//527 175//175
f 149//149 525//525 526//526
f 149//149 526//526 162//162
f 136//136 524//524 525//525
f 136//136 525//525 149//149
f 123//123 523//523 524//524
f 123//123 524//524 136//136
f 110//110 522//522 523//523
f 110//110 523//523 123//123
f 97//97 521//521 522//522
f 97//97 522//522 110//110
f 84//84 520//520 521//521
f 84//84 521//521 97//97
f 71//71 519//519 520//520
f 71//71 520//520 84//84
f 58//58 518//518 519//519
f 58//58 519//519 71//71
f 45//45 517//517 518//518
f 45//45 518//518 58//58
f 32//32 516//516 517//517
f 32//32 517//517 45//45
f 19//19 515//515 516//516
f 19//19 516//516 32//32
f 416//416 546//546 515//515
f 416//416 515//515 19//19
