# Blender Studio Human Base Meshes v1.4.1; CC0; Y-up metres
v -0.0321899652 0.705806494 0.11143814
v -0.032450676 0.702342629 0.114526354
v -0.0327676535 0.700534105 0.118968256
v -0.0329363346 0.700404286 0.121412612
v -0.0330787897 0.700806737 0.123705238
v -0.0333101749 0.703040361 0.127672732
v -0.0310410261 0.707621932 0.110605948
v -0.0308487415 0.705947638 0.111539669
v -0.0305905342 0.704177618 0.112893753
v -0.0303733349 0.702561617 0.114685558
v -0.0302857161 0.70144093 0.116773702
v -0.0303227901 0.700789332 0.119157992
v -0.0304819345 0.700671792 0.121581055
v -0.0307394266 0.701063037 0.123864233
v -0.0310851336 0.701934934 0.125986397
v -0.031501174 0.703230739 0.127789155
v -0.0319197178 0.704719305 0.129336715
v -0.0322781801 0.70622015 0.130487561
v -0.0326628685 0.708130479 0.131928653
v -0.0300575495 0.70791626 0.110708259
v -0.0296006203 0.706329107 0.111632541
v -0.0290179253 0.704667687 0.11300759
v -0.0284990072 0.703145623 0.114825442
v -0.0282025337 0.702098131 0.116925322
v -0.0281251669 0.701494455 0.119310185
v -0.0282459259 0.701370716 0.121739708
v -0.0285794735 0.701738834 0.12401402
v -0.0290958881 0.702561855 0.126117662
v -0.0297515392 0.703776121 0.127899885
v -0.0304486752 0.705167294 0.129439861
v -0.0310845375 0.706580281 0.130563065
v -0.0317701101 0.708404541 0.131949186
v -0.0291444063 0.708349943 0.110815175
v -0.0284593105 0.706940889 0.111722633
v -0.0275712013 0.705449939 0.11311803
v -0.0267660618 0.704090238 0.114945151
v -0.0262815952 0.703145623 0.117069587
v -0.0260778666 0.702593327 0.119456574
v -0.0261927843 0.702491403 0.121881552
v -0.0265922546 0.702817321 0.124152005
v -0.0272517204 0.703549385 0.126249835
v -0.0281354189 0.704634666 0.128016606
v -0.0290971994 0.705886602 0.129529163
v -0.0300046206 0.707149148 0.130636692
v -0.0309765339 0.708806515 0.131964013
v -0.0284076929 0.708711386 0.110977575
v -0.0274727345 0.707731605 0.111811206
v -0.0263047218 0.706494331 0.113194063
v -0.0252605677 0.705351233 0.115046702
v -0.0245889425 0.70454371 0.11718522
v -0.0242854357 0.704080224 0.119580574
v -0.024381876 0.703984499 0.122010432
v -0.0248413086 0.704262733 0.124278344
v -0.0256477594 0.704885721 0.126358375
v -0.0267117023 0.705789685 0.128129676
v -0.0279092789 0.706861258 0.129606009
v -0.0290561914 0.707928419 0.130695254
v -0.0303720236 0.709183097 0.131932423
v -0.0280606747 0.709439278 0.110887431
v -0.026698947 0.708696127 0.111838229
v -0.0252662897 0.707774878 0.113266997
v -0.024019599 0.706881285 0.115132265
v -0.0232028961 0.706251979 0.117278852
v -0.0228374004 0.705886006 0.119686507
v -0.0229018927 0.70580852 0.122112729
v -0.023417592 0.706022143 0.124378763
v -0.0243198872 0.706501365 0.126455009
v -0.0255525112 0.707211971 0.128203377
v -0.0269322395 0.708048582 0.129673719
v -0.0282599926 0.708897948 0.130754858
v -0.0300109386 0.709782958 0.132030174
v -0.0276293755 0.710346341 0.110862322
v -0.0260944366 0.709852576 0.111882359
v -0.024502635 0.709227443 0.113325633
v -0.0231019258 0.70862186 0.115201809
v -0.0221887827 0.708191991 0.117349543
v -0.0217536688 0.707939982 0.119754776
v -0.0218098164 0.707883954 0.122188859
v -0.0223498344 0.708026052 0.124457508
v -0.0233409405 0.708347559 0.126523316
v -0.0246956348 0.708830833 0.128254265
v -0.0262043476 0.709400177 0.129733026
v -0.0276932716 0.709981799 0.130797535
v -0.0296115875 0.71056807 0.132108971
v -0.027333498 0.71135211 0.110856608
v -0.0257180929 0.711097836 0.111904703
v -0.0240374804 0.710745454 0.113347016
v -0.0225549936 0.710401535 0.115234591
v -0.0215529203 0.71029532 0.117386118
v -0.0210750103 0.71016407 0.119806081
v -0.0211261511 0.710135221 0.122241892
v -0.021692276 0.710198164 0.124505781
v -0.0227229595 0.71035111 0.126573667
v -0.0241537094 0.710585475 0.128299206
v -0.0257538557 0.710873127 0.129761934
v -0.027327776 0.711159587 0.130836785
v -0.0293604136 0.711464405 0.13217473
v -0.0272401571 0.712439537 0.110861212
v -0.0255832672 0.712442279 0.111909762
v -0.0238668919 0.712464094 0.113348901
v -0.0223561525 0.712486386 0.115241408
v -0.0213382244 0.712496996 0.11739637
v -0.0208462477 0.712496161 0.119808458
v -0.0209012032 0.712483406 0.12225391
v -0.0214577913 0.712469459 0.124525204
v -0.0225166082 0.712439537 0.1265935
v -0.0239570141 0.712414622 0.12832737
v -0.0255844593 0.712414622 0.129788563
v -0.0272070169 0.712414622 0.130840585
v -0.0292664766 0.712410092 0.132204786
v -0.0273365974 0.713496208 0.110857412
v -0.0257046223 0.713706851 0.111902103
v -0.0240285397 0.714034319 0.113355018
v -0.0225255489 0.714325428 0.115241081
v -0.0215587616 0.714550614 0.117388777
v -0.0210820436 0.714680672 0.119800724
v -0.0211510658 0.714820981 0.12223988
v -0.021692872 0.714647055 0.124505438
v -0.0227261782 0.714494348 0.126572505
v -0.0241518021 0.714234233 0.128295407
v -0.0257430077 0.713938951 0.129770219
v -0.0273373127 0.71366024 0.13082841
v -0.0293502808 0.713380814 0.132165223
v -0.0276299715 0.714498878 0.110866897
v -0.0260828733 0.714963078 0.111887291
v -0.0245065689 0.715613246 0.113324553
v -0.0231013298 0.716225028 0.115205266
v -0.022195816 0.716653109 0.117351443
v -0.0217548609 0.716899395 0.119760469
v -0.021812439 0.716959834 0.122191936
v -0.0223542452 0.71681869 0.124453545
v -0.0233409405 0.716497779 0.126523778
v -0.0246905088 0.7160151 0.128259689
v -0.026201725 0.715431571 0.129724637
v -0.0276938677 0.71487093 0.130795628
v -0.0296134949 0.714279652 0.132108152
v -0.0280549526 0.715401292 0.110885978
v -0.0266797543 0.716113925 0.111847766
v -0.0252720118 0.717069387 0.11327529
v -0.0240157843 0.717966914 0.115141109
v -0.0232156515 0.718593001 0.117279947
v -0.0228406191 0.71895659 0.119685933
v -0.0229153633 0.719030023 0.122113585
v -0.0234208107 0.718818784 0.124377623
v -0.0243231058 0.718341589 0.126453072
v -0.0255665779 0.717627764 0.128184706
v -0.0269322395 0.716806531 0.129690349
v -0.0282689333 0.715955019 0.130754203
v -0.030012846 0.715067863 0.132030174
v -0.0283999443 0.716142058 0.110971078
v -0.0274759531 0.717110872 0.11181695
v -0.0263085365 0.718348622 0.113201126
v -0.0252720118 0.719489217 0.115058064
v -0.0246011019 0.720296741 0.11718104
v -0.0243014097 0.720759153 0.119578615
v -0.024392724 0.720849514 0.122002847
v -0.0248502493 0.720577478 0.124280259
v -0.0256553888 0.719951749 0.126352683
v -0.0267219543 0.719049215 0.128116205
v -0.0279169083 0.717985272 0.129596174
v -0.0290632248 0.716908574 0.130690321
v -0.0303726196 0.715658069 0.13192375
v -0.0291507244 0.716499209 0.110813618
v -0.0284626484 0.71790278 0.111728959
v -0.0275763273 0.71939373 0.113121405
v -0.0267596245 0.720755219 0.114957243
v -0.0262874365 0.721694112 0.117065184
v -0.0260925293 0.722237587 0.119458824
v -0.026190877 0.722349286 0.121877819
v -0.0265985727 0.722019315 0.124149852
v -0.0272612572 0.721285343 0.126242772
v -0.0281373262 0.720207334 0.128014684
v -0.0291010141 0.718960285 0.129526556
v -0.0299917459 0.717673182 0.130625606
v -0.0309765339 0.716033936 0.13195619
v -0.0300531387 0.716930866 0.110704422
v -0.0296045542 0.718513131 0.111638173
v -0.0290243626 0.720177889 0.113019124
v -0.0285029411 0.721687198 0.114829883
v -0.0282063484 0.722735405 0.116931602
v -0.0281310081 0.723340154 0.119304977
v -0.0282523632 0.723466396 0.12174239
v -0.0285872221 0.723091245 0.124008119
v -0.0291004181 0.722271204 0.126112282
v -0.0297521353 0.721070528 0.127900273
v -0.0304543972 0.719671488 0.12942192
v -0.0310659409 0.718252897 0.130555302
v -0.0317682028 0.716443896 0.131946519
v -0.0310583115 0.71718657 0.110594518
v -0.0308506489 0.718896508 0.111544989
v -0.0305905342 0.720668793 0.112901419
v -0.0303752422 0.722274184 0.114694498
v -0.030290246 0.723392248 0.116776407
v -0.0303317308 0.724042177 0.119159937
v -0.030485034 0.724156141 0.121578082
v -0.0307426453 0.723766208 0.123861901
v -0.0310921669 0.722892404 0.125976175
v -0.0315042734 0.721600294 0.127775893
v -0.0319235325 0.720118642 0.12932843
v -0.0322692394 0.718625426 0.130484536
v -0.0326641798 0.71670723 0.131924853
v -0.0321125984 0.717287302 0.110498264
v -0.0321867466 0.719028234 0.111445725
v -0.0322960615 0.720839858 0.11277502
v -0.0324500799 0.722495914 0.114536688
v -0.0326046944 0.723632693 0.116614766
v -0.0327695608 0.724299073 0.118973322
v -0.0329325199 0.724426746 0.121411085
v -0.0330781937 0.724023461 0.123700641
v -0.033200264 0.723113179 0.125837713
v -0.0333088636 0.721790671 0.12766026
v -0.033420682 0.720284104 0.129244298
v -0.0335018635 0.718736529 0.130395547
v -0.0336073637 0.716798425 0.131885767
v -0.0331472158 0.717186689 0.110439435
v -0.0334864855 0.718896747 0.11135754
v -0.0339325666 0.720667243 0.112666182
v -0.0343996286 0.722278237 0.11441344
v -0.034773469 0.723389983 0.116459601
v -0.0350667238 0.724035859 0.118823372
v -0.0352585316 0.724162698 0.12124183
v -0.0353211164 0.723766208 0.123538986
v -0.035271287 0.722886205 0.12567912
v -0.0351179838 0.72159791 0.127520293
v -0.03492558 0.7201159 0.129115745
v -0.0347472429 0.71860218 0.130301267
v -0.0345524549 0.71670723 0.131792113
v -0.034160018 0.716930866 0.110409327
v -0.0347293615 0.718513131 0.111277625
v -0.0354981422 0.7201792 0.11256355
v -0.0362701416 0.721690297 0.114279911
v -0.03685987 0.722738981 0.11632213
v -0.0372726917 0.723340154 0.118661664
v -0.0374822617 0.723457575 0.121082872
v -0.037483573 0.723096728 0.123381175
v -0.0372650623 0.72227025 0.125537276
v -0.0368676186 0.721066713 0.127393648
v -0.0363941193 0.719680309 0.129020631
v -0.0359332561 0.718244791 0.130217612
v -0.0354412794 0.716441751 0.131687924
v -0.0350674391 0.716498733 0.110397935
v -0.035879612 0.717905283 0.111201033
v -0.0369538069 0.719395399 0.112453625
v -0.0380017757 0.720753074 0.114157066
v -0.0387814045 0.721697092 0.11618457
v -0.0393104553 0.722237706 0.118518271
v -0.0395475626 0.722349286 0.120935678
v -0.0394638777 0.722016931 0.123244673
v -0.0391066074 0.721290469 0.125408351
v -0.0384809971 0.720204592 0.127277225
v -0.037746191 0.718957424 0.128919512
v -0.0370157957 0.71768415 0.130138054
v -0.0362317562 0.71603477 0.131590515
v -0.0358304977 0.716136217 0.110448882
v -0.0368720293 0.717113376 0.111151129
v -0.0382113457 0.718349457 0.112371787
v -0.0395137072 0.719493747 0.114046074
v -0.0404728651 0.720299244 0.116062142
v -0.0411028862 0.720765352 0.118392393
v -0.0413527489 0.720856547 0.120807365
v -0.0412198305 0.720582724 0.123126373
v -0.0407176018 0.719961405 0.125295758
v -0.0399016142 0.719048381 0.127184838
v -0.0389341116 0.717985749 0.128832012
v -0.0379519463 0.716921687 0.130067363
v -0.0368227959 0.715661883 0.131471917
v -0.0361608267 0.715408206 0.110312738
v -0.0376573801 0.716113925 0.1110719
v -0.0392535925 0.717071176 0.112290069
v -0.0407444239 0.717969298 0.113959722
v -0.0418549776 0.718595028 0.115958296
v -0.0425707102 0.718958855 0.118287086
v -0.0428378582 0.719036937 0.120707467
v -0.0426524878 0.718825459 0.123023294
v -0.0420467854 0.718345761 0.125205576
v -0.0410625935 0.717632294 0.127099618
v -0.0399092436 0.716802955 0.128763214
v -0.038736701 0.715947986 0.130012959
v -0.0371928215 0.715069532 0.131524354
v -0.0365831852 0.714498043 0.11023479
v -0.0382548571 0.714965105 0.111024715
v -0.0400197506 0.715616822 0.112231106
v -0.0416786671 0.716226578 0.113890499
v -0.0428806543 0.716654897 0.115884349
v -0.0436435938 0.716908097 0.118211001
v -0.0439401865 0.716963053 0.120630234
v -0.0437158346 0.716822982 0.12295258
v -0.0430301428 0.716499209 0.125136808
v -0.0419380665 0.716019869 0.127047926
v -0.0406428576 0.715435266 0.128706917
v -0.0393188 0.714872599 0.129981756
v -0.037599206 0.714278817 0.131544575
v -0.036870122 0.713498473 0.110179968
v -0.0386344194 0.713707685 0.11098171
v -0.0405029058 0.714035034 0.112187758
v -0.0422474146 0.714332938 0.113845199
v -0.0435152054 0.714550614 0.115832068
v -0.0443292856 0.714678288 0.118164949
v -0.044624567 0.714710712 0.120585606
v -0.0443861485 0.714648604 0.122905754
v -0.0436468124 0.714526534 0.12510328
v -0.042475462 0.714246869 0.127008379
v -0.0411074162 0.713941574 0.128690943
v -0.0396798849 0.713661194 0.129960418
v -0.037861824 0.713381648 0.131572276
v -0.036970377 0.712440491 0.110161372
v -0.0387597084 0.712398767 0.110968389
v -0.0406607389 0.71246326 0.11216151
v -0.0424301624 0.712487817 0.113818616
v -0.0437344313 0.712501407 0.115814194
v -0.0445567369 0.712493658 0.118142202
v -0.0448507071 0.712484002 0.120566331
v -0.0446110964 0.712464094 0.122896254
v -0.0438512564 0.712439299 0.125088125
v -0.0426608324 0.712414622 0.127001882
v -0.0412607193 0.712414622 0.128684461
v -0.0398031473 0.712414622 0.129955545
v -0.0379576683 0.712410092 0.131593883
v -0.0368663073 0.711347938 0.110186443
v -0.0386241674 0.711097836 0.110989653
v -0.0404856205 0.710747242 0.112180538
v -0.0422192812 0.710402846 0.113844126
v -0.0435163975 0.710294247 0.115834408
v -0.0443376303 0.71016562 0.118169561
v -0.0446264744 0.71013391 0.120586134
v -0.0443861485 0.710196018 0.122905254
v -0.0436538458 0.710350275 0.125102937
v -0.0424813032 0.71058321 0.127015948
v -0.0411028862 0.710867882 0.128691375
v -0.0396728516 0.711160541 0.129962295
v -0.037866354 0.711464405 0.131581813
v -0.0365812778 0.710354924 0.110243909
v -0.038244009 0.709846139 0.11101824
v -0.0400255919 0.709226847 0.112222694
v -0.0416760445 0.70862329 0.113884434
v -0.0428888798 0.708191991 0.115884922
v -0.0436487198 0.707931995 0.118205294
v -0.0439451933 0.707883596 0.120632105
v -0.043722868 0.708021283 0.122950673
v -0.0430314541 0.708347559 0.125138715
v -0.0419291258 0.708831668 0.127039492
v -0.0406428576 0.709402561 0.128715634
v -0.0393182039 0.709975958 0.129982159
v -0.037599206 0.71056962 0.131546423
v -0.0361614227 0.7094419 0.11031352
v -0.037635684 0.708701372 0.111071505
v -0.0392562151 0.707772374 0.112280913
v -0.0407598019 0.706878543 0.113956362
v -0.0418595076 0.706248164 0.115956053
v -0.0425816774 0.705880404 0.118288949
v -0.0428371429 0.705806494 0.120708227
v -0.042658329 0.706016779 0.123025149
v -0.0420403481 0.706503034 0.125203699
v -0.0410658121 0.707214236 0.127104178
v -0.0399181843 0.708041906 0.128773823
v -0.0387468338 0.70889473 0.130020529
v -0.0371934175 0.709777594 0.131526068
v -0.0358330011 0.708707094 0.11044395
v -0.0368714333 0.707734108 0.111141019
v -0.0382254124 0.706493258 0.112350151
v -0.0395200253 0.705344081 0.114044487
v -0.0404772758 0.70454371 0.116056181
v -0.0411156416 0.704071403 0.11838752
v -0.0413662195 0.703984499 0.120813206
v -0.0412306786 0.704255819 0.123124473
v -0.0407297611 0.704876423 0.12530224
v -0.0399086475 0.705790877 0.127191678
v -0.0389405489 0.706860662 0.128840402
v -0.037955761 0.707920671 0.13007167
v -0.0368254185 0.709180832 0.131480232
v -0.0350731611 0.708346009 0.110391505
v -0.0358726978 0.706940889 0.111202985
v -0.0369493961 0.70544219 0.112443879
v -0.0380069017 0.704086304 0.114155181
v -0.0387878418 0.703142047 0.116177827
v -0.0393213034 0.702586532 0.118527465
v -0.0395584106 0.702481747 0.120940231
v -0.0394728184 0.702817321 0.123244666
v -0.0391123295 0.703548789 0.125413269
v -0.038484931 0.704639316 0.127281815
v -0.0377519131 0.705884457 0.128929749
v -0.0369998217 0.707157731 0.130139515
v -0.0362297297 0.708803058 0.131596982
v -0.0341556072 0.707912564 0.110416375
v -0.0347402096 0.706328392 0.111268118
v -0.0355044603 0.704663754 0.112544112
v -0.0362789631 0.703147054 0.114272691
v -0.0368676186 0.702098131 0.116316952
v -0.0372765064 0.701488018 0.118659101
v -0.0374917984 0.701369882 0.121087067
v -0.037483573 0.701742411 0.123385005
v -0.0372713804 0.702560544 0.125542551
v -0.0368745327 0.703763843 0.12740773
v -0.0363914967 0.705164313 0.129016742
v -0.0359205008 0.706576705 0.130228192
v -0.0354399681 0.708402872 0.131694779
v -0.0331639051 0.707622766 0.110455364
v -0.0334891081 0.705945015 0.111347973
v -0.0339357853 0.704176188 0.112657845
v -0.0343984365 0.702561617 0.114404306
v -0.0347779989 0.701442599 0.116456158
v -0.0350712538 0.700795054 0.118819885
v -0.0352604389 0.700673938 0.1212437
v -0.0353256464 0.701064825 0.12354058
v -0.0352783203 0.701938629 0.125688627
v -0.0351229906 0.703233004 0.127531737
v -0.03492558 0.704718828 0.129129052
v -0.0347262621 0.706219316 0.130315289
v -0.0345562696 0.708125949 0.131801605
v -0.032120347 0.70751667 0.110514686
v -0.0323024988 0.704005599 0.11275249
v -0.0326071978 0.701190233 0.116602592
v -0.0332015753 0.7017169 0.125844091
v -0.0334213972 0.704554319 0.129253045
v -0.0335024595 0.706100225 0.130401999
v -0.0336073637 0.708028674 0.131884515
v -0.0364841223 0.709514618 0.13183549
v -0.0356413126 0.709131718 0.132064804
v -0.0346711874 0.708870649 0.132224575
v -0.0336577892 0.708765268 0.132338285
v -0.0326071978 0.708868027 0.132369429
v -0.0316238403 0.709134459 0.132342011
v -0.0307580233 0.709514618 0.132236704
v -0.0368509293 0.710356832 0.131987661
v -0.0359729528 0.710009694 0.132315472
v -0.0349019766 0.709762335 0.132592738
v -0.0337184668 0.709684134 0.132766515
v -0.0324264765 0.709768414 0.132764578
v -0.0313338041 0.710010052 0.132639393
v -0.0304167271 0.710359097 0.132439822
v -0.0371199846 0.711354971 0.132087916
v -0.0362119675 0.711112857 0.13252537
v -0.0351032019 0.710933208 0.132910311
v -0.0337734222 0.710859895 0.13315174
v -0.0322647095 0.710922837 0.133106992
v -0.031118989 0.711123228 0.132879063
v -0.0301713943 0.711352468 0.13256377
v -0.0372101068 0.712443113 0.132116541
v -0.0363109112 0.712479472 0.132619455
v -0.0351792574 0.712504506 0.133071125
v -0.033577323 0.712545753 0.133372143
v -0.032241106 0.712515593 0.13327305
v -0.0310359001 0.712486386 0.132990897
v -0.0300774574 0.712443113 0.132618979
v -0.03711164 0.713519454 0.132073596
v -0.0362125635 0.713721752 0.132520989
v -0.0350948572 0.713907361 0.132901907
v -0.0337830782 0.713973641 0.133146107
v -0.0322698355 0.713913441 0.13309814
v -0.0311260223 0.713719726 0.132879451
v -0.0301674604 0.713519454 0.132564634
v -0.0368503332 0.714485407 0.131989896
v -0.0359690189 0.714832425 0.13230896
v -0.0349012613 0.715065241 0.132583588
v -0.0337249041 0.715156794 0.132758945
v -0.0324264765 0.715063334 0.132758185
v -0.0313382149 0.714829206 0.132633388
v -0.0304142237 0.714485407 0.132447064
v -0.0364822149 0.715332627 0.131832823
v -0.0356360674 0.715703368 0.13205339
v -0.034668088 0.715972066 0.13221617
v -0.0336583853 0.716067791 0.132326901
v -0.0326091051 0.715972185 0.132362634
v -0.031627655 0.715701222 0.132333189
v -0.0307599306 0.715331554 0.132234022
v -0.0351077318 0.70934093 0.110089876
v -0.0341504812 0.709009767 0.110045761
v -0.0331426859 0.708763361 0.110050648
v -0.0320807695 0.708683252 0.110099345
v -0.0309969187 0.708769321 0.110201657
v -0.0300090313 0.709010601 0.110340908
v -0.0290689468 0.709340096 0.1105261
v -0.0354143381 0.710297465 0.109950379
v -0.0343517065 0.710025907 0.109800361
v -0.0332577229 0.709835052 0.109751783
v -0.0320589542 0.709738135 0.109789431
v -0.030856967 0.709826827 0.109925546
v -0.0297796726 0.710027814 0.110122912
v -0.0287418365 0.710287929 0.110415779
v -0.0356463194 0.711317301 0.109849468
v -0.034548521 0.711160421 0.109648347
v -0.0333286524 0.711064935 0.109536543
v -0.0320589542 0.711024404 0.109551691
v -0.0307451487 0.711068392 0.109721124
v -0.0295758247 0.711160541 0.109996676
v -0.0285111666 0.711316705 0.110353775
v -0.0357230902 0.71244669 0.109805346
v -0.0345785618 0.712379098 0.109579824
v -0.0333555937 0.712428689 0.109456614
v -0.0320979357 0.712487459 0.109454766
v -0.0307145119 0.712445378 0.109643742
v -0.029540658 0.712420821 0.109930135
v -0.0284141302 0.712443113 0.110325657
v -0.0356360674 0.713531733 0.109852545
v -0.0345351696 0.713686228 0.109643742
v -0.0333293676 0.71378231 0.109536879
v -0.0320647955 0.713837147 0.109558724
v -0.0307534933 0.713766098 0.109719053
v -0.0295699835 0.713682175 0.110001661
v -0.0285073519 0.713530898 0.110354915
v -0.0354169607 0.714557648 0.109944858
v -0.0343440771 0.714825749 0.109803468
v -0.0332622528 0.715015173 0.109757408
v -0.0320385695 0.715060711 0.109778009
v -0.0308512449 0.715012789 0.109925546
v -0.0297878981 0.714820743 0.11012058
v -0.0287418365 0.71455884 0.110419624
v -0.0351191759 0.715492368 0.110096686
v -0.0341567993 0.715831161 0.110052228
v -0.0331479311 0.716079116 0.110048227
v -0.0320883989 0.716170073 0.110092901
v -0.0310058594 0.716083884 0.110204063
v -0.0300052166 0.715836167 0.11034359
v -0.0290523767 0.715492368 0.110518508
v -0.0325261354 0.707307816 0.131299987
v -0.0315631628 0.707613111 0.13136068
v -0.0306620598 0.708107948 0.131425098
v -0.0299048424 0.708731174 0.131484598
v -0.029253006 0.709522605 0.131512612
v -0.0287674665 0.710411072 0.131558567
v -0.0284562111 0.711384535 0.131578371
v -0.0283508301 0.71240747 0.131597817
v -0.0284568071 0.71346724 0.13159433
v -0.0287642479 0.714425921 0.13154909
v -0.0292550325 0.71533227 0.131512195
v -0.0298985243 0.716109991 0.131474212
v -0.0306633711 0.716733813 0.131411001
v -0.0315605402 0.717218637 0.131352499
v -0.0325280428 0.717538357 0.131291613
v -0.0335613489 0.717649817 0.131230712
v -0.0346034765 0.717547774 0.131150872
v -0.0355709791 0.717234731 0.131080151
v -0.0364559889 0.716739058 0.131010905
v -0.037217021 0.716113925 0.130971357
v -0.0378701687 0.715328455 0.130908266
v -0.0383615494 0.714432955 0.130878747
v -0.0386714935 0.713462114 0.130867928
v -0.0387806892 0.71240747 0.130868748
v -0.0386747122 0.711380363 0.130876333
v -0.038364768 0.710414767 0.13088578
v -0.037877202 0.709516525 0.130908266
v -0.0372164249 0.708723307 0.130982414
v -0.0364630222 0.70810461 0.131020844
v -0.0355633497 0.707604766 0.131083176
v -0.0346022844 0.707306862 0.131156832
v -0.0335613489 0.707197189 0.131236136
vn 0.0595061406 -0.53793323 -0.840884626
vn 0.0379406586 -0.811763644 -0.582752347
vn 0.00731680077 -0.987150431 -0.159625769
vn -0.00793456752 -0.998152435 0.0602388456
vn -0.0223637875 -0.95991683 0.279391378
vn -0.0453035533 -0.769095361 0.637526393
vn 0.159899354 -0.402069598 -0.901538789
vn 0.172420442 -0.52672416 -0.83236587
vn 0.189704835 -0.654706657 -0.731690645
vn 0.207574055 -0.795232892 -0.569664419
vn 0.216463909 -0.90724349 -0.360628158
vn 0.213305265 -0.966285884 -0.144195601
vn 0.199308947 -0.977070928 0.0748886168
vn 0.175980255 -0.939821005 0.292860657
vn 0.1442312 -0.854818583 0.49848026
vn 0.113230638 -0.75265938 0.648600519
vn 0.085288085 -0.654311895 0.751399934
vn 0.0676212907 -0.590862811 0.803933144
vn 0.0800176114 -0.555937946 0.827363372
vn 0.241903916 -0.378759354 -0.893321753
vn 0.271888852 -0.495354533 -0.825045645
vn 0.312930405 -0.616333485 -0.722639322
vn 0.357950181 -0.748548031 -0.558164358
vn 0.388053209 -0.853552401 -0.347653598
vn 0.395484388 -0.908968985 -0.13178578
vn 0.38384369 -0.919152141 0.088449277
vn 0.352804542 -0.884310484 0.305816799
vn 0.303640902 -0.804889381 0.509858191
vn 0.251458287 -0.709683418 0.658117175
vn 0.204857752 -0.619062245 0.758152485
vn 0.17697382 -0.556696892 0.811645746
vn 0.192054525 -0.522867858 0.830496311
vn 0.313685238 -0.345021784 -0.884625018
vn 0.361731648 -0.447421968 -0.817902088
vn 0.425637424 -0.555927515 -0.713986874
vn 0.495452434 -0.674069822 -0.547865629
vn 0.543817461 -0.768601 -0.336920232
vn 0.561269879 -0.818893373 -0.119957477
vn 0.551853597 -0.827801228 0.101007946
vn 0.51505518 -0.796121418 0.317661494
vn 0.450812221 -0.726066947 0.519225478
vn 0.379390359 -0.641134024 0.667090714
vn 0.31813851 -0.557700455 0.766653836
vn 0.279611081 -0.501560509 0.818690836
vn 0.28612107 -0.472663432 0.833501101
vn 0.377626181 -0.31901139 -0.869269907
vn 0.439798057 -0.385423422 -0.811188281
vn 0.524917006 -0.474078596 -0.706902802
vn 0.616640568 -0.573207676 -0.539617777
vn 0.683207512 -0.652509749 -0.327808797
vn 0.71116823 -0.69448179 -0.109246314
vn 0.702377915 -0.702897251 0.112252429
vn 0.659079552 -0.676380455 0.328821659
vn 0.583673537 -0.617557406 0.527207732
vn 0.49686718 -0.54430753 0.675908566
vn 0.418708593 -0.472744048 0.775368452
vn 0.371733129 -0.426737279 0.824445128
vn 0.361920387 -0.413677305 0.835394919
vn 0.404364765 -0.25454405 -0.878462553
vn 0.50499934 -0.302423567 -0.808403134
vn 0.610043287 -0.369651914 -0.700859904
vn 0.717840493 -0.447963774 -0.532947958
vn 0.798608601 -0.510316312 -0.319063544
vn 0.833475649 -0.543399096 -0.100178733
vn 0.826358378 -0.550205171 0.12002521
vn 0.777376652 -0.5308882 0.337406665
vn 0.691821933 -0.484256804 0.535609722
vn 0.593678534 -0.425920099 0.682742894
vn 0.501783311 -0.371913433 0.780957043
vn 0.444566429 -0.337028533 0.829923153
vn 0.415182352 -0.347211063 0.84087342
vn 0.440549999 -0.177470744 -0.88001132
vn 0.555005133 -0.209412321 -0.805056393
vn 0.669276476 -0.256022096 -0.697511137
vn 0.790771902 -0.310510486 -0.527506471
vn 0.881780922 -0.353072703 -0.312733293
vn 0.921797216 -0.376003891 -0.0943979099
vn 0.91608566 -0.380724132 0.12584196
vn 0.864567459 -0.367226779 0.343027234
vn 0.769914687 -0.335484892 0.542845488
vn 0.662904143 -0.2959539 0.68772763
vn 0.563803017 -0.259155124 0.784196854
vn 0.499273539 -0.237211049 0.833340764
vn 0.460095048 -0.250347108 0.85184437
vn 0.466659993 -0.090775013 -0.879766107
vn 0.584241271 -0.108970612 -0.804230988
vn 0.705183446 -0.134406283 -0.6961689
vn 0.835162342 -0.162781045 -0.525362849
vn 0.932911992 -0.180460319 -0.311623633
vn 0.977049589 -0.193063915 -0.0900028944
vn 0.972094595 -0.195136994 0.130206168
vn 0.918742716 -0.189320236 0.346510768
vn 0.818695903 -0.175208971 0.546844423
vn 0.705259442 -0.15776141 0.691173255
vn 0.600668132 -0.138068452 0.787486494
vn 0.535404027 -0.124896444 0.83531034
vn 0.489991426 -0.133808285 0.861396432
vn 0.475023091 0.00020339583 -0.879973292
vn 0.594115078 -1.20259995e-06 -0.804380059
vn 0.718313336 0.000928096531 -0.695719123
vn 0.850596368 0.00176099234 -0.525816321
vn 0.950180054 0.00357830524 -0.311681181
vn 0.996052921 0.00510129659 -0.0886143222
vn 0.991329432 0.00456912909 0.131320328
vn 0.937650919 0.0031094118 0.347564608
vn 0.835941911 0.00134684274 0.548816204
vn 0.721273422 -0.000431334891 0.692650318
vn 0.612523377 -0.000703030033 0.790452182
vn 0.548742354 8.06927164e-06 0.835991502
vn 0.50090909 -0.00275153969 0.865495503
vn 0.465788424 0.0930448174 -0.879990757
vn 0.584537864 0.109427892 -0.803953409
vn 0.705451131 0.134297132 -0.695918739
vn 0.835686386 0.161069095 -0.525057137
vn 0.932383418 0.184912458 -0.310593724
vn 0.976222396 0.196860492 -0.0907509029
vn 0.97041589 0.203578815 0.129801974
vn 0.918143511 0.191610038 0.346840113
vn 0.818386376 0.175970942 0.547063053
vn 0.706061125 0.156242624 0.690699577
vn 0.599435091 0.136725694 0.788659513
vn 0.536688089 0.125190049 0.83444196
vn 0.491328657 0.134030998 0.860599756
vn 0.44178015 0.177526876 -0.879383087
vn 0.55592531 0.209943503 -0.804282844
vn 0.669205189 0.255637378 -0.697720587
vn 0.791164577 0.309860051 -0.527300239
vn 0.881858826 0.353300959 -0.312255442
vn 0.92131865 0.376998395 -0.0951010957
vn 0.915087342 0.383111805 0.125859305
vn 0.863935232 0.369003981 0.342712551
vn 0.769335985 0.336708575 0.54290843
vn 0.662480652 0.297582 0.687433124
vn 0.564571977 0.257454067 0.784203947
vn 0.500280738 0.235128567 0.833326876
vn 0.463279933 0.252675414 0.849427402
vn 0.408467114 0.251315296 -0.877493739
vn 0.508457661 0.301652223 -0.806521297
vn 0.608770192 0.371323049 -0.701083541
vn 0.716900349 0.450304002 -0.532240868
vn 0.797511935 0.512292802 -0.31863901
vn 0.832312644 0.545233428 -0.0998808593
vn 0.825008869 0.552266538 0.11984165
vn 0.776798964 0.532634795 0.335981518
vn 0.689301014 0.486430198 0.536888957
vn 0.59228754 0.430353671 0.681168973
vn 0.501038134 0.37549594 0.779720187
vn 0.441392928 0.338074595 0.831190586
vn 0.415678412 0.352096766 0.838593662
vn 0.380086243 0.321659744 -0.867219388
vn 0.442459762 0.386746347 -0.809108496
vn 0.525666535 0.473886609 -0.706474423
vn 0.616841912 0.573317528 -0.539270937
vn 0.682801425 0.65331918 -0.327041686
vn 0.710307896 0.695400715 -0.108998284
vn 0.702620149 0.702880204 0.110834464
vn 0.658586979 0.676925957 0.32868591
vn 0.582584441 0.617426991 0.52856344
vn 0.498322159 0.545117736 0.674182177
vn 0.417751491 0.475972593 0.773908138
vn 0.366572082 0.430742234 0.824673235
vn 0.359992594 0.422201991 0.831955969
vn 0.313166767 0.34811607 -0.883595943
vn 0.362137198 0.450448751 -0.816059113
vn 0.425527871 0.556203783 -0.713837087
vn 0.495770931 0.674336255 -0.547249317
vn 0.543803155 0.769120216 -0.335756093
vn 0.561502337 0.818692088 -0.120243169
vn 0.552431762 0.827543139 0.0999573171
vn 0.514099598 0.796229541 0.318935812
vn 0.451292008 0.726429522 0.518300653
vn 0.381361961 0.640751123 0.666333973
vn 0.317186475 0.556490481 0.767926514
vn 0.279186398 0.500978053 0.819192231
vn 0.287147254 0.474716306 0.831980109
vn 0.23977007 0.381230801 -0.89284569
vn 0.271501958 0.497219652 -0.824050546
vn 0.312710464 0.617518067 -0.721722603
vn 0.356640726 0.749485314 -0.557744801
vn 0.38708964 0.854308128 -0.346870631
vn 0.394761711 0.909176528 -0.132519394
vn 0.382214874 0.919799685 0.0887707472
vn 0.35092032 0.88466543 0.306955993
vn 0.302306652 0.806533515 0.508049667
vn 0.24865526 0.711379528 0.657350481
vn 0.203232542 0.619273305 0.758417487
vn 0.180856451 0.55541867 0.811665595
vn 0.193332151 0.522889614 0.830186188
vn 0.158895776 0.402984828 -0.901307583
vn 0.170274615 0.528115749 -0.831925631
vn 0.188746229 0.655711532 -0.731038511
vn 0.207000986 0.796324134 -0.568347156
vn 0.215238199 0.907520294 -0.360665321
vn 0.212106243 0.966500163 -0.144528329
vn 0.198861435 0.977127552 0.0753383562
vn 0.175684348 0.939614058 0.29370141
vn 0.142830268 0.855394483 0.497895509
vn 0.111088917 0.754009366 0.64740181
vn 0.0851716101 0.655775011 0.750136673
vn 0.070114173 0.591272533 0.803418159
vn 0.078422524 0.553961396 0.828840554
vn 0.0656353086 0.412094235 -0.908774078
vn 0.0592249222 0.539254069 -0.840057969
vn 0.0508458428 0.66853267 -0.741942525
vn 0.0381503403 0.813085496 -0.580892861
vn 0.0227206852 0.927057207 -0.374230683
vn 0.0077021555 0.987009287 -0.160478279
vn -0.00678215455 0.998132408 0.0607099235
vn -0.0219163634 0.959594905 0.280530214
vn -0.0360178947 0.872582197 0.487137556
vn -0.0456252359 0.769964457 0.63645345
vn -0.0543817356 0.667844653 0.742311418
vn -0.0590793863 0.605119526 0.79393959
vn -0.0562954135 0.563901484 0.823921144
vn -0.0305547137 0.402408719 -0.914950013
vn -0.0527637601 0.52886349 -0.84706521
vn -0.0856949016 0.654955208 -0.75079304
vn -0.127185374 0.795868874 -0.591959894
vn -0.165040731 0.907311261 -0.386714011
vn -0.192960024 0.965762436 -0.173405096
vn -0.210884824 0.976437211 0.0458049439
vn -0.216975987 0.938884556 0.267240047
vn -0.212106779 0.854536593 0.474107504
vn -0.200680271 0.755007148 0.624252796
vn -0.187163338 0.655165493 0.731934547
vn -0.179606065 0.594807446 0.783546925
vn -0.190915644 0.550654888 0.812607229
vn -0.114178278 0.379385859 -0.918166459
vn -0.152531609 0.498331934 -0.853463173
vn -0.206796721 0.618215322 -0.758317232
vn -0.27435115 0.749618232 -0.602332056
vn -0.333761841 0.854758084 -0.397481591
vn -0.371808708 0.90961647 -0.185354486
vn -0.391185582 0.91971916 0.0330232494
vn -0.390752643 0.884876072 0.253587753
vn -0.369436413 0.806037247 0.462407559
vn -0.338648677 0.712612569 0.614410579
vn -0.305377841 0.620091856 0.722655118
vn -0.287667483 0.559106886 0.777590454
vn -0.305053204 0.518214464 0.798997104
vn -0.186188385 0.345307469 -0.919835091
vn -0.244032741 0.449638933 -0.859228075
vn -0.32106635 0.556152701 -0.766557574
vn -0.412374079 0.674614072 -0.612244666
vn -0.490049064 0.769763887 -0.409042209
vn -0.537697494 0.819782436 -0.197074413
vn -0.558900237 0.828949451 0.0217564926
vn -0.552390218 0.797663331 0.242070898
vn -0.517645895 0.726890147 0.451301932
vn -0.470282793 0.641897738 0.605641246
vn -0.422848195 0.558995426 0.713248491
vn -0.390308022 0.502321601 0.771578074
vn -0.399450421 0.471642464 0.786125124
vn -0.251839519 0.32007885 -0.913305223
vn -0.325925797 0.386032611 -0.862989664
vn -0.422647983 0.47298184 -0.773082674
vn -0.534679592 0.572183073 -0.621871531
vn -0.629402876 0.653579235 -0.420340478
vn -0.686594069 0.696751058 -0.207669452
vn -0.709221721 0.704890668 0.011554677
vn -0.696646273 0.678740382 0.232369289
vn -0.649231613 0.618589401 0.442544311
vn -0.586105883 0.545801818 0.59881568
vn -0.524221659 0.474971384 0.706819594
vn -0.48231408 0.426962882 0.764902472
vn -0.473900378 0.418493629 0.774778366
vn -0.27886042 0.252963006 -0.92641598
vn -0.3898561 0.303068072 -0.869575679
vn -0.503928244 0.372462243 -0.779312551
vn -0.633362353 0.450195611 -0.629425168
vn -0.744169235 0.511998236 -0.429033816
vn -0.809957802 0.54501164 -0.216634944
vn -0.833618939 0.552333832 0.00262009283
vn -0.816270649 0.532411158 0.224143952
vn -0.757937968 0.486140937 0.434967816
vn -0.681061804 0.429618329 0.592944264
vn -0.606048107 0.374013782 0.70201093
vn -0.556692243 0.337532401 0.759055793
vn -0.528359592 0.348515809 0.774191737
vn -0.312319785 0.178973019 -0.932965696
vn -0.436576247 0.212499052 -0.874211192
vn -0.563791931 0.258505195 -0.784419298
vn -0.70734334 0.311679065 -0.634445846
vn -0.828488708 0.353934079 -0.433978289
vn -0.8990255 0.376628667 -0.223391965
vn -0.924244106 0.381774873 -0.0045542391
vn -0.903405011 0.369164467 0.218121484
vn -0.837556124 0.337839782 0.429376364
vn -0.750845969 0.298736602 0.589055836
vn -0.66661799 0.260671437 0.698334336
vn -0.611120045 0.238641456 0.75470686
vn -0.575828552 0.251343548 0.777976751
vn -0.33464101 0.0967343748 -0.937367499
vn -0.465374351 0.11260955 -0.877921283
vn -0.600478053 0.136213154 -0.78795439
vn -0.752701938 0.162422031 -0.638011694
vn -0.879609346 0.184919238 -0.438283384
vn -0.953906059 0.196729571 -0.2266289
vn -0.980127275 0.198201969 -0.00814796425
vn -0.957811952 0.19092533 0.214810938
vn -0.886720955 0.175270766 0.427792132
vn -0.79579246 0.153685763 0.585743129
vn -0.704753816 0.134781808 0.696531296
vn -0.64790225 0.123999476 0.751562953
vn -0.60564959 0.134960055 0.784202993
vn -0.343901813 -0.00140084804 -0.93900454
vn -0.475173295 -0.00322595565 -0.879886329
vn -0.613795578 0.000165725811 -0.78946501
vn -0.768220961 0.00124459737 -0.640183628
vn -0.897332668 0.00317162252 -0.441343427
vn -0.97363162 0.00403969781 -0.22809042
vn -0.99995321 0.00332697737 -0.00908895303
vn -0.976821542 0.0020765448 0.214045197
vn -0.904235303 0.00166341488 0.427031249
vn -0.811704934 0.00122070406 0.58406651
vn -0.717555165 0.000284101086 0.696501613
vn -0.66114378 5.47236377e-05 0.750259221
vn -0.616255879 0.00414357008 0.787535131
vn -0.335787684 -0.0984834135 -0.936775148
vn -0.463481069 -0.112563983 -0.878928125
vn -0.600689828 -0.135170653 -0.78797245
vn -0.752897024 -0.1631594 -0.63759315
vn -0.879962087 -0.180331096 -0.439485431
vn -0.95483464 -0.192280009 -0.226537287
vn -0.980872154 -0.194501773 -0.00767064886
vn -0.958375752 -0.188278615 0.214632332
vn -0.887340069 -0.173349902 0.427290767
vn -0.795630038 -0.155632526 0.585449696
vn -0.70393157 -0.136476204 0.69703263
vn -0.648836613 -0.124597698 0.75065738
vn -0.605074823 -0.133610711 0.784877479
vn -0.312631726 -0.177605495 -0.933122575
vn -0.432901978 -0.210853368 -0.876434088
vn -0.56364125 -0.257617772 -0.784819424
vn -0.708162248 -0.310651332 -0.634036243
vn -0.828774035 -0.352518737 -0.434584945
vn -0.899278164 -0.376139194 -0.223199695
vn -0.924466372 -0.381245404 -0.00372446817
vn -0.903410494 -0.368674994 0.218924969
vn -0.836695492 -0.338120729 0.430830568
vn -0.751899838 -0.300050676 0.587040246
vn -0.66807425 -0.259740174 0.69728893
vn -0.612184465 -0.236004949 0.754673362
vn -0.573891461 -0.255158663 0.778166234
vn -0.280519277 -0.246462181 -0.927666664
vn -0.387802869 -0.300325125 -0.87144351
vn -0.504942775 -0.370264053 -0.779703379
vn -0.635689616 -0.448676646 -0.628162324
vn -0.74448961 -0.510856211 -0.429838479
vn -0.810863614 -0.543890774 -0.216062382
vn -0.83454591 -0.550928354 0.00333326939
vn -0.817229152 -0.530609071 0.224923268
vn -0.759432852 -0.482863754 0.436009467
vn -0.684584498 -0.426549762 0.591100216
vn -0.608218849 -0.371994883 0.70120585
vn -0.556901693 -0.335015774 0.760016382
vn -0.527955234 -0.343968391 0.77649796
vn -0.253724456 -0.318461031 -0.913349032
vn -0.323089778 -0.383863479 -0.865021348
vn -0.421534956 -0.472311467 -0.774099529
vn -0.535606027 -0.572894096 -0.620418012
vn -0.629627347 -0.652454138 -0.42174992
vn -0.68807739 -0.695026636 -0.208536476
vn -0.711422205 -0.702648818 0.0127692912
vn -0.698577404 -0.67661798 0.232761145
vn -0.650916457 -0.616434693 0.443075716
vn -0.58712858 -0.544998944 0.598544955
vn -0.522951484 -0.475276828 0.707554698
vn -0.480393946 -0.428715169 0.765130639
vn -0.473067492 -0.411139786 0.779211938
vn -0.184867412 -0.347279698 -0.919358909
vn -0.241854846 -0.44838956 -0.860495806
vn -0.320416272 -0.555782676 -0.767097771
vn -0.413317591 -0.674892962 -0.611300349
vn -0.490376115 -0.768611312 -0.410813719
vn -0.538246691 -0.819255054 -0.197766557
vn -0.559565604 -0.828450859 0.0235688426
vn -0.552323282 -0.797444046 0.242944494
vn -0.518082261 -0.726631284 0.451218009
vn -0.470591933 -0.640851796 0.606508255
vn -0.422056913 -0.558021307 0.71447897
vn -0.39008677 -0.503528714 0.770902753
vn -0.399523616 -0.471745402 0.78602612
vn -0.113100827 -0.379233927 -0.918362558
vn -0.153484583 -0.494670063 -0.855420351
vn -0.207340986 -0.616851747 -0.759278357
vn -0.274867386 -0.749501765 -0.602241695
vn -0.333808303 -0.854101241 -0.398852199
vn -0.370724678 -0.909881771 -0.186221331
vn -0.390150458 -0.920088112 0.0349345505
vn -0.390985608 -0.884704351 0.253827721
vn -0.372027367 -0.805730224 0.460862637
vn -0.341086298 -0.70998323 0.616103768
vn -0.308613271 -0.618436575 0.722699106
vn -0.289941251 -0.557408035 0.777965546
vn -0.306238562 -0.521337211 0.796508312
vn -0.0307735857 -0.401192576 -0.91547662
vn -0.053511247 -0.526311398 -0.848606408
vn -0.0859086588 -0.655067325 -0.750670731
vn -0.127718359 -0.795122683 -0.592847228
vn -0.166269735 -0.906726003 -0.387559444
vn -0.193016544 -0.965857744 -0.172810137
vn -0.2105418 -0.976487279 0.0463111065
vn -0.217694446 -0.939151287 0.26571399
vn -0.212629825 -0.855143964 0.472776145
vn -0.201157942 -0.753518939 0.625895202
vn -0.188260406 -0.654389501 0.732347131
vn -0.177674785 -0.591981351 0.786123276
vn -0.192525044 -0.555305183 0.80905515
vn 0.0642395616 -0.409998029 -0.909821332
vn 0.0510033853 -0.667459786 -0.742897034
vn 0.0224238671 -0.926722765 -0.375075966
vn -0.0358629711 -0.873058915 0.486294031
vn -0.0519494601 -0.666514397 0.74368
vn -0.0552361831 -0.602594554 0.796133578
vn -0.0551322103 -0.568722606 0.820679665
vn -0.441427141 -0.382743567 0.811572134
vn -0.334119529 -0.433402419 0.836974621
vn -0.207379907 -0.461880416 0.862357259
vn -0.0617412291 -0.471189022 0.879868627
vn 0.0853431672 -0.4622657 0.882625043
vn 0.213896558 -0.433884472 0.875209987
vn 0.322273135 -0.383966565 0.865280092
vn -0.487619042 -0.281743646 0.826346278
vn -0.375594646 -0.320996195 0.869419336
vn -0.235257864 -0.350537419 0.906519294
vn -0.068451263 -0.361318618 0.929926515
vn 0.104502164 -0.34956944 0.931064188
vn 0.25112468 -0.320697606 0.913284957
vn 0.366128236 -0.277834505 0.888120592
vn -0.514560521 -0.146137178 0.844909012
vn -0.402841151 -0.174125254 0.898554027
vn -0.262605965 -0.198357537 0.944294631
vn -0.0740768686 -0.210183844 0.974851429
vn 0.129246816 -0.202111512 0.970796704
vn 0.275322348 -0.17275627 0.945702374
vn 0.390736014 -0.146364242 0.908792078
vn -0.524012923 0.00644325465 0.851686001
vn -0.416982949 0.00781949051 0.908880651
vn -0.2733531 0.00899585336 0.961871743
vn -0.0559819564 0.0133249331 0.998342872
vn 0.137106523 0.0100462064 0.990505338
vn 0.285430431 0.00576161686 0.958382189
vn 0.401358813 0.00120720919 0.915920079
vn -0.51591152 0.150498509 0.843318164
vn -0.402625531 0.179461762 0.897600234
vn -0.263091624 0.208168 0.942045033
vn -0.0763506293 0.221013278 0.972277582
vn 0.128823832 0.21217677 0.968702912
vn 0.270419478 0.178597406 0.946031868
vn 0.393365055 0.149833947 0.907090783
vn -0.485126197 0.279382408 0.828612149
vn -0.370026112 0.321769983 0.871518672
vn -0.235821202 0.350974143 0.906203866
vn -0.0698819235 0.362400323 0.929398954
vn 0.103865996 0.349966168 0.930986345
vn 0.243347168 0.32268849 0.91468811
vn 0.363003045 0.28094551 0.888424635
vn -0.437495202 0.386910647 0.811725378
vn -0.329575062 0.432216734 0.839385986
vn -0.206946716 0.461400777 0.862718046
vn -0.0635009035 0.470016986 0.8803702
vn 0.0827918723 0.459745556 0.88418293
vn 0.210694462 0.431883425 0.876974583
vn 0.318457395 0.389716327 0.864121556
vn -0.183868483 -0.25113675 -0.950327694
vn -0.10533122 -0.283188313 -0.953262627
vn -0.0249046125 -0.301660985 -0.953090012
vn 0.0671307072 -0.306613654 -0.949463785
vn 0.159907117 -0.301417619 -0.939987838
vn 0.240526304 -0.284369767 -0.928052247
vn 0.315577954 -0.258189917 -0.913098335
vn -0.212671548 -0.176260516 -0.961094677
vn -0.127124861 -0.201022938 -0.971302748
vn -0.0344044268 -0.220667928 -0.974742055
vn 0.0690765232 -0.228102088 -0.971183717
vn 0.170734376 -0.22077693 -0.960264206
vn 0.261646032 -0.202819422 -0.943613052
vn 0.341945916 -0.178559706 -0.922599196
vn -0.228908852 -0.098098807 -0.968492329
vn -0.143652961 -0.107917897 -0.983726382
vn -0.0425595008 -0.115969077 -0.992340624
vn 0.0697016641 -0.120314896 -0.990285873
vn 0.180431247 -0.11541795 -0.976792395
vn 0.278705955 -0.106287472 -0.954476774
vn 0.360585779 -0.0919923112 -0.928178549
vn -0.232067794 0.00137046154 -0.972698629
vn -0.145502999 -0.00242100889 -0.989354849
vn -0.0465960503 0.000435064489 -0.998913765
vn 0.067325063 0.00455472572 -0.997720718
vn 0.184570715 0.00200765161 -0.982817233
vn 0.282514244 0.000407471758 -0.959263027
vn 0.368409932 0.00141508179 -0.929662347
vn -0.225247085 0.0953236967 -0.969627261
vn -0.142460272 0.107125938 -0.983986318
vn -0.0428171009 0.117458396 -0.9921543
vn 0.0687309802 0.12246161 -0.990090489
vn 0.180888921 0.115443014 -0.976704776
vn 0.279135525 0.10693197 -0.954279244
vn 0.360549122 0.0942048505 -0.927970767
vn -0.209022 0.178135976 -0.961549401
vn -0.126078472 0.204449728 -0.970723629
vn -0.036260128 0.220552906 -0.974700749
vn 0.0698968023 0.223301142 -0.97224021
vn 0.172100693 0.219435632 -0.960327685
vn 0.25993228 0.200664669 -0.944546938
vn 0.342451662 0.17564176 -0.922971785
vn -0.18228884 0.255513966 -0.949464798
vn -0.108061813 0.281508088 -0.953454733
vn -0.0278024096 0.298553854 -0.953987718
vn 0.0677129626 0.305996776 -0.949621439
vn 0.161031574 0.301603466 -0.939736187
vn 0.237963542 0.283825874 -0.928879023
vn 0.314394832 0.253879428 -0.914713621
vn 0.0739349276 -0.590961576 0.803304434
vn 0.181894138 -0.552679181 0.81330204
vn 0.278666973 -0.499944866 0.819999993
vn 0.371918023 -0.424884468 0.825318217
vn 0.443990767 -0.336980075 0.830250919
vn 0.495345533 -0.241211727 0.834535599
vn 0.53334713 -0.127873838 0.836175263
vn 0.548467815 -0.00214942358 0.836168885
vn 0.534422159 0.129691601 0.835208356
vn 0.496479928 0.242460713 0.833498895
vn 0.442938268 0.338792771 0.830075443
vn 0.368052185 0.430534273 0.824122429
vn 0.280505806 0.502393305 0.817873657
vn 0.186782509 0.553305447 0.811766863
vn 0.0751675963 0.590473831 0.803548634
vn -0.055715926 0.607074082 0.792689621
vn -0.183645368 0.593969643 0.78324604
vn -0.295468122 0.554507375 0.77795893
vn -0.391322345 0.500803888 0.772050738
vn -0.481566191 0.427191794 0.765245855
vn -0.555752277 0.338034242 0.759521067
vn -0.607377887 0.242075011 0.756631851
vn -0.645744622 0.129094824 0.752561212
vn -0.661434054 0.00192469649 0.750000834
vn -0.647275865 -0.128628761 0.751324475
vn -0.607243419 -0.242819294 0.756501317
vn -0.555920959 -0.334497929 0.76096189
vn -0.481407285 -0.426641941 0.765652418
vn -0.390546888 -0.502157986 0.771563649
vn -0.295354545 -0.553456068 0.77875036
vn -0.182785809 -0.592709303 0.784401059
vn -0.0540191792 -0.607313454 0.792623699
f 2//2 411//411 9//9
f 2//2 9//9 10//10
f 415//415 414//414 17//17
f 415//415 17//17 18//18
f 412//412 2//2 10//10
f 412//412 10//10 11//11
f 546//546 415//415 18//18
f 546//546 18//18 515//515
f 3//3 412//412 11//11
f 3//3 11//11 12//12
f 4//4 3//3 12//12
f 4//4 12//12 13//13
f 5//5 4//4 13//13
f 5//5 13//13 14//14
f 413//413 5//5 14//14
f 413//413 14//14 15//15
f 1//1 410//410 7//7
f 1//1 7//7 8//8
f 6//6 413//413 15//15
f 6//6 15//15 16//16
f 411//411 1//1 8//8
f 411//411 8//8 9//9
f 414//414 6//6 16//16
f 414//414 16//16 17//17
f 9//9 8//8 21//21
f 9//9 21//21 22//22
f 17//17 16//16 29//29
f 17//17 29//29 30//30
f 10//10 9//9 22//22
f 10//10 22//22 23//23
f 18//18 17//17 30//30
f 18//18 30//30 31//31
f 11//11 10//10 23//23
f 11//11 23//23 24//24
f 515//515 18//18 31//31
f 515//515 31//31 516//516
f 12//12 11//11 24//24
f 12//12 24//24 25//25
f 13//13 12//12 25//25
f 13//13 25//25 26//26
f 14//14 13//13 26//26
f 14//14 26//26 27//27
f 15//15 14//14 27//27
f 15//15 27//27 28//28
f 8//8 7//7 20//20
f 8//8 20//20 21//21
f 16//16 15//15 28//28
f 16//16 28//28 29//29
f 26//26 25//25 38//38
f 26//26 38//38 39//39
f 27//27 26//26 39//39
f 27//27 39//39 40//40
f 28//28 27//27 40//40
f 28//28 40//40 41//41
f 21//21 20//20 33//33
f 21//21 33//33 34//34
f 29//29 28//28 41//41
f 29//29 41//41 42//42
f 22//22 21//21 34//34
f 22//22 34//34 35//35
f 30//30 29//29 42//42
f 30//30 42//42 43//43
f 23//23 22//22 35//35
f 23//23 35//35 36//36
f 31//31 30//30 43//43
f 31//31 43//43 44//44
f 24//24 23//23 36//36
f 24//24 36//36 37//37
f 516//516 31//31 44//44
f 516//516 44//44 517//517
f 25//25 24//24 37//37
f 25//25 37//37 38//38
f 35//35 34//34 47//47
f 35//35 47//47 48//48
f 43//43 42//42 55//55
f 43//43 55//55 56//56
f 36//36 35//35 48//48
f 36//36 48//48 49//49
f 44//44 43//43 56//56
f 44//44 56//56 57//57
f 37//37 36//36 49//49
f 37//37 49//49 50//50
f 517//517 44//44 57//57
f 517//517 57//57 518//518
f 38//38 37//37 50//50
f 38//38 50//50 51//51
f 39//39 38//38 51//51
f 39//39 51//51 52//52
f 40//40 39//39 52//52
f 40//40 52//52 53//53
f 41//41 40//40 53//53
f 41//41 53//53 54//54
f 34//34 33//33 46//46
f 34//34 46//46 47//47
f 42//42 41//41 54//54
f 42//42 54//54 55//55
f 52//52 51//51 64//64
f 52//52 64//64 65//65
f 53//53 52//52 65//65
f 53//53 65//65 66//66
f 54//54 53//53 66//66
f 54//54 66//66 67//67
f 47//47 46//46 59//59
f 47//47 59//59 60//60
f 55//55 54//54 67//67
f 55//55 67//67 68//68
f 48//48 47//47 60//60
f 48//48 60//60 61//61
f 56//56 55//55 68//68
f 56//56 68//68 69//69
f 49//49 48//48 61//61
f 49//49 61//61 62//62
f 57//57 56//56 69//69
f 57//57 69//69 70//70
f 50//50 49//49 62//62
f 50//50 62//62 63//63
f 518//518 57//57 70//70
f 518//518 70//70 519//519
f 51//51 50//50 63//63
f 51//51 63//63 64//64
f 69//69 68//68 81//81
f 69//69 81//81 82//82
f 62//62 61//61 74//74
f 62//62 74//74 75//75
f 70//70 69//69 82//82
f 70//70 82//82 83//83
f 63//63 62//62 75//75
f 63//63 75//75 76//76
f 519//519 70//70 83//83
f 519//519 83//83 520//520
f 64//64 63//63 76//76
f 64//64 76//76 77//77
f 65//65 64//64 77//77
f 65//65 77//77 78//78
f 66//66 65//65 78//78
f 66//66 78//78 79//79
f 67//67 66//66 79//79
f 67//67 79//79 80//80
f 60//60 59//59 72//72
f 60//60 72//72 73//73
f 68//68 67//67 80//80
f 68//68 80//80 81//81
f 61//61 60//60 73//73
f 61//61 73//73 74//74
f 79//79 78//78 91//91
f 79//79 91//91 92//92
f 80//80 79//79 92//92
f 80//80 92//92 93//93
f 73//73 72//72 85//85
f 73//73 85//85 86//86
f 81//81 80//80 93//93
f 81//81 93//93 94//94
f 74//74 73//73 86//86
f 74//74 86//86 87//87
f 82//82 81//81 94//94
f 82//82 94//94 95//95
f 75//75 74//74 87//87
f 75//75 87//87 88//88
f 83//83 82//82 95//95
f 83//83 95//95 96//96
f 76//76 75//75 88//88
f 76//76 88//88 89//89
f 520//520 83//83 96//96
f 520//520 96//96 521//521
f 77//77 76//76 89//89
f 77//77 89//89 90//90
f 78//78 77//77 90//90
f 78//78 90//90 91//91
f 88//88 87//87 100//100
f 88//88 100//100 101//101
f 96//96 95//95 108//108
f 96//96 108//108 109//109
f 89//89 88//88 101//101
f 89//89 101//101 102//102
f 521//521 96//96 109//109
f 521//521 109//109 522//522
f 90//90 89//89 102//102
f 90//90 102//102 103//103
f 91//91 90//90 103//103
f 91//91 103//103 104//104
f 92//92 91//91 104//104
f 92//92 104//104 105//105
f 93//93 92//92 105//105
f 93//93 105//105 106//106
f 86//86 85//85 98//98
f 86//86 98//98 99//99
f 94//94 93//93 106//106
f 94//94 106//106 107//107
f 87//87 86//86 99//99
f 87//87 99//99 100//100
f 95//95 94//94 107//107
f 95//95 107//107 108//108
f 105//105 104//104 117//117
f 105//105 117//117 118//118
f 106//106 105//105 118//118
f 106//106 118//118 119//119
f 99//99 98//98 111//111
f 99//99 111//111 112//112
f 107//107 106//106 119//119
f 107//107 119//119 120//120
f 100//100 99//99 112//112
f 100//100 112//112 113//113
f 108//108 107//107 120//120
f 108//108 120//120 121//121
f 101//101 100//100 113//113
f 101//101 113//113 114//114
f 109//109 108//108 121//121
f 109//109 121//121 122//122
f 102//102 101//101 114//114
f 102//102 114//114 115//115
f 522//522 109//109 122//122
f 522//522 122//122 523//523
f 103//103 102//102 115//115
f 103//103 115//115 116//116
f 104//104 103//103 116//116
f 104//104 116//116 117//117
f 122//122 121//121 134//134
f 122//122 134//134 135//135
f 115//115 114//114 127//127
f 115//115 127//127 128//128
f 523//523 122//122 135//135
f 523//523 135//135 524//524
f 116//116 115//115 128//128
f 116//116 128//128 129//129
f 117//117 116//116 129//129
f 117//117 129//129 130//130
f 118//118 117//117 130//130
f 118//118 130//130 131//131
f 119//119 118//118 131//131
f 119//119 131//131 132//132
f 112//112 111//111 124//124
f 112//112 124//124 125//125
f 120//120 119//119 132//132
f 120//120 132//132 133//133
f 113//113 112//112 125//125
f 113//113 125//125 126//126
f 121//121 120//120 133//133
f 121//121 133//133 134//134
f 114//114 113//113 126//126
f 114//114 126//126 127//127
f 132//132 131//131 144//144
f 132//132 144//144 145//145
f 125//125 124//124 137//137
f 125//125 137//137 138//138
f 133//133 132//132 145//145
f 133//133 145//145 146//146
f 126//126 125//125 138//138
f 126//126 138//138 139//139
f 134//134 133//133 146//146
f 134//134 146//146 147//147
f 127//127 126//126 139//139
f 127//127 139//139 140//140
f 135//135 134//134 147//147
f 135//135 147//147 148//148
f 128//128 127//127 140//140
f 128//128 140//140 141//141
f 524//524 135//135 148//148
f 524//524 148//148 525//525
f 129//129 128//128 141//141
f 129//129 141//141 142//142
f 130//130 129//129 142//142
f 130//130 142//142 143//143
f 131//131 130//130 143//143
f 131//131 143//143 144//144
f 525//525 148//148 161//161
f 525//525 161//161 526//526
f 142//142 141//141 154//154
f 142//142 154//154 155//155
f 143//143 142//142 155//155
f 143//143 155//155 156//156
f 144//144 143//143 156//156
f 144//144 156//156 157//157
f 145//145 144//144 157//157
f 145//145 157//157 158//158
f 138//138 137//137 150//150
f 138//138 150//150 151//151
f 146//146 145//145 158//158
f 146//146 158//158 159//159
f 139//139 138//138 151//151
f 139//139 151//151 152//152
f 147//147 146//146 159//159
f 147//147 159//159 160//160
f 140//140 139//139 152//152
f 140//140 152//152 153//153
f 148//148 147//147 160//160
f 148//148 160//160 161//161
f 141//141 140//140 153//153
f 141//141 153//153 154//154
f 151//151 150//150 163//163
f 151//151 163//163 164//164
f 159//159 158//158 171//171
f 159//159 171//171 172//172
f 152//152 151//151 164//164
f 152//152 164//164 165//165
f 160//160 159//159 172//172
f 160//160 172//172 173//173
f 153//153 152//152 165//165
f 153//153 165//165 166//166
f 161//161 160//160 173//173
f 161//161 173//173 174//174
f 154//154 153//153 166//166
f 154//154 166//166 167//167
f 526//526 161//161 174//174
f 526//526 174//174 527//527
f 155//155 154//154 167//167
f 155//155 167//167 168//168
f 156//156 155//155 168//168
f 156//156 168//168 169//169
f 157//157 156//156 169//169
f 157//157 169//169 170//170
f 158//158 157//157 170//170
f 158//158 170//170 171//171
f 168//168 167//167 180//180
f 168//168 180//180 181//181
f 169//169 168//168 181//181
f 169//169 181//181 182//182
f 170//170 169//169 182//182
f 170//170 182//182 183//183
f 171//171 170//170 183//183
f 171//171 183//183 184//184
f 164//164 163//163 176//176
f 164//164 176//176 177//177
f 172//172 171//171 184//184
f 172//172 184//184 185//185
f 165//165 164//164 177//177
f 165//165 177//177 178//178
f 173//173 172//172 185//185
f 173//173 185//185 186//186
f 166//166 165//165 178//178
f 166//166 178//178 179//179
f 174//174 173//173 186//186
f 174//174 186//186 187//187
f 167//167 166//166 179//179
f 167//167 179//179 180//180
f 527//527 174//174 187//187
f 527//527 187//187 528//528
f 185//185 184//184 197//197
f 185//185 197//197 198//198
f 178//178 177//177 190//190
f 178//178 190//190 191//191
f 186//186 185//185 198//198
f 186//186 198//198 199//199
f 179//179 178//178 191//191
f 179//179 191//191 192//192
f 187//187 186//186 199//199
f 187//187 199//199 200//200
f 180//180 179//179 192//192
f 180//180 192//192 193//193
f 528//528 187//187 200//200
f 528//528 200//200 529//529
f 181//181 180//180 193//193
f 181//181 193//193 194//194
f 182//182 181//181 194//194
f 182//182 194//194 195//195
f 183//183 182//182 195//195
f 183//183 195//195 196//196
f 184//184 183//183 196//196
f 184//184 196//196 197//197
f 177//177 176//176 189//189
f 177//177 189//189 190//190
f 195//195 194//194 207//207
f 195//195 207//207 208//208
f 196//196 195//195 208//208
f 196//196 208//208 209//209
f 197//197 196//196 209//209
f 197//197 209//209 210//210
f 190//190 189//189 202//202
f 190//190 202//202 203//203
f 198//198 197//197 210//210
f 198//198 210//210 211//211
f 191//191 190//190 203//203
f 191//191 203//203 204//204
f 199//199 198//198 211//211
f 199//199 211//211 212//212
f 192//192 191//191 204//204
f 192//192 204//204 205//205
f 200//200 199//199 212//212
f 200//200 212//212 213//213
f 193//193 192//192 205//205
f 193//193 205//205 206//206
f 529//529 200//200 213//213
f 529//529 213//213 530//530
f 194//194 193//193 206//206
f 194//194 206//206 207//207
f 204//204 203//203 216//216
f 204//204 216//216 217//217
f 212//212 211//211 224//224
f 212//212 224//224 225//225
f 205//205 204//204 217//217
f 205//205 217//217 218//218
f 213//213 212//212 225//225
f 213//213 225//225 226//226
f 206//206 205//205 218//218
f 206//206 218//218 219//219
f 530//530 213//213 226//226
f 530//530 226//226 531//531
f 207//207 206//206 219//219
f 207//207 219//219 220//220
f 208//208 207//207 220//220
f 208//208 220//220 221//221
f 209//209 208//208 221//221
f 209//209 221//221 222//222
f 210//210 209//209 222//222
f 210//210 222//222 223//223
f 203//203 202//202 215//215
f 203//203 215//215 216//216
f 211//211 210//210 223//223
f 211//211 223//223 224//224
f 221//221 220//220 233//233
f 221//221 233//233 234//234
f 222//222 221//221 234//234
f 222//222 234//234 235//235
f 223//223 222//222 235//235
f 223//223 235//235 236//236
f 216//216 215//215 228//228
f 216//216 228//228 229//229
f 224//224 223//223 236//236
f 224//224 236//236 237//237
f 217//217 216//216 229//229
f 217//217 229//229 230//230
f 225//225 224//224 237//237
f 225//225 237//237 238//238
f 218//218 217//217 230//230
f 218//218 230//230 231//231
f 226//226 225//225 238//238
f 226//226 238//238 239//239
f 219//219 218//218 231//231
f 219//219 231//231 232//232
f 531//531 226//226 239//239
f 531//531 239//239 532//532
f 220//220 219//219 232//232
f 220//220 232//232 233//233
f 238//238 237//237 250//250
f 238//238 250//250 251//251
f 231//231 230//230 243//243
f 231//231 243//243 244//244
f 239//239 238//238 251//251
f 239//239 251//251 252//252
f 232//232 231//231 244//244
f 232//232 244//244 245//245
f 532//532 239//239 252//252
f 532//532 252//252 533//533
f 233//233 232//232 245//245
f 233//233 245//245 246//246
f 234//234 233//233 246//246
f 234//234 246//246 247//247
f 235//235 234//234 247//247
f 235//235 247//247 248//248
f 236//236 235//235 248//248
f 236//236 248//248 249//249
f 229//229 228//228 241//241
f 229//229 241//241 242//242
f 237//237 236//236 249//249
f 237//237 249//249 250//250
f 230//230 229//229 242//242
f 230//230 242//242 243//243
f 248//248 247//247 260//260
f 248//248 260//260 261//261
f 249//249 248//248 261//261
f 249//249 261//261 262//262
f 242//242 241//241 254//254
f 242//242 254//254 255//255
f 250//250 249//249 262//262
f 250//250 262//262 263//263
f 243//243 242//242 255//255
f 243//243 255//255 256//256
f 251//251 250//250 263//263
f 251//251 263//263 264//264
f 244//244 243//243 256//256
f 244//244 256//256 257//257
f 252//252 251//251 264//264
f 252//252 264//264 265//265
f 245//245 244//244 257//257
f 245//245 257//257 258//258
f 533//533 252//252 265//265
f 533//533 265//265 534//534
f 246//246 245//245 258//258
f 246//246 258//258 259//259
f 247//247 246//246 259//259
f 247//247 259//259 260//260
f 265//265 264//264 277//277
f 265//265 277//277 278//278
f 258//258 257//257 270//270
f 258//258 270//270 271//271
f 534//534 265//265 278//278
f 534//534 278//278 535//535
f 259//259 258//258 271//271
f 259//259 271//271 272//272
f 260//260 259//259 272//272
f 260//260 272//272 273//273
f 261//261 260//260 273//273
f 261//261 273//273 274//274
f 262//262 261//261 274//274
f 262//262 274//274 275//275
f 255//255 254//254 267//267
f 255//255 267//267 268//268
f 263//263 262//262 275//275
f 263//263 275//275 276//276
f 256//256 255//255 268//268
f 256//256 268//268 269//269
f 264//264 263//263 276//276
f 264//264 276//276 277//277
f 257//257 256//256 269//269
f 257//257 269//269 270//270
f 275//275 274//274 287//287
f 275//275 287//287 288//288
f 268//268 267//267 280//280
f 268//268 280//280 281//281
f 276//276 275//275 288//288
f 276//276 288//288 289//289
f 269//269 268//268 281//281
f 269//269 281//281 282//282
f 277//277 276//276 289//289
f 277//277 289//289 290//290
f 270//270 269//269 282//282
f 270//270 282//282 283//283
f 278//278 277//277 290//290
f 278//278 290//290 291//291
f 271//271 270//270 283//283
f 271//271 283//283 284//284
f 535//535 278//278 291//291
f 535//535 291//291 536//536
f 272//272 271//271 284//284
f 272//272 284//284 285//285
f 273//273 272//272 285//285
f 273//273 285//285 286//286
f 274//274 273//273 286//286
f 274//274 286//286 287//287
f 284//284 283//283 296//296
f 284//284 296//296 297//297
f 536//536 291//291 304//304
f 536//536 304//304 537//537
f 285//285 284//284 297//297
f 285//285 297//297 298//298
f 286//286 285//285 298//298
f 286//286 298//298 299//299
f 287//287 286//286 299//299
f 287//287 299//299 300//300
f 288//288 287//287 300//300
f 288//288 300//300 301//301
f 281//281 280//280 293//293
f 281//281 293//293 294//294
f 289//289 288//288 301//301
f 289//289 301//301 302//302
f 282//282 281//281 294//294
f 282//282 294//294 295//295
f 290//290 289//289 302//302
f 290//290 302//302 303//303
f 283//283 282//282 295//295
f 283//283 295//295 296//296
f 291//291 290//290 303//303
f 291//291 303//303 304//304
f 301//301 300//300 313//313
f 301//301 313//313 314//314
f 294//294 293//293 306//306
f 294//294 306//306 307//307
f 302//302 301//301 314//314
f 302//302 314//314 315//315
f 295//295 294//294 307//307
f 295//295 307//307 308//308
f 303//303 302//302 315//315
f 303//303 315//315 316//316
f 296//296 295//295 308//308
f 296//296 308//308 309//309
f 304//304 303//303 316//316
f 304//304 316//316 317//317
f 297//297 296//296 309//309
f 297//297 309//309 310//310
f 537//537 304//304 317//317
f 537//537 317//317 538//538
f 298//298 297//297 310//310
f 298//298 310//310 311//311
f 299//299 298//298 311//311
f 299//299 311//311 312//312
f 300//300 299//299 312//312
f 300//300 312//312 313//313
f 538//538 317//317 330//330
f 538//538 330//330 539//539
f 311//311 310//310 323//323
f 311//311 323//323 324//324
f 312//312 311//311 324//324
f 312//312 324//324 325//325
f 313//313 312//312 325//325
f 313//313 325//325 326//326
f 314//314 313//313 326//326
f 314//314 326//326 327//327
f 307//307 306//306 319//319
f 307//307 319//319 320//320
f 315//315 314//314 327//327
f 315//315 327//327 328//328
f 308//308 307//307 320//320
f 308//308 320//320 321//321
f 316//316 315//315 328//328
f 316//316 328//328 329//329
f 309//309 308//308 321//321
f 309//309 321//321 322//322
f 317//317 316//316 329//329
f 317//317 329//329 330//330
f 310//310 309//309 322//322
f 310//310 322//322 323//323
f 320//320 319//319 332//332
f 320//320 332//332 333//333
f 328//328 327//327 340//340
f 328//328 340//340 341//341
f 321//321 320//320 333//333
f 321//321 333//333 334//334
f 329//329 328//328 341//341
f 329//329 341//341 342//342
f 322//322 321//321 334//334
f 322//322 334//334 335//335
f 330//330 329//329 342//342
f 330//330 342//342 343//343
f 323//323 322//322 335//335
f 323//323 335//335 336//336
f 539//539 330//330 343//343
f 539//539 343//343 540//540
f 324//324 323//323 336//336
f 324//324 336//336 337//337
f 325//325 324//324 337//337
f 325//325 337//337 338//338
f 326//326 325//325 338//338
f 326//326 338//338 339//339
f 327//327 326//326 339//339
f 327//327 339//339 340//340
f 337//337 336//336 349//349
f 337//337 349//349 350//350
f 338//338 337//337 350//350
f 338//338 350//350 351//351
f 339//339 338//338 351//351
f 339//339 351//351 352//352
f 340//340 339//339 352//352
f 340//340 352//352 353//353
f 333//333 332//332 345//345
f 333//333 345//345 346//346
f 341//341 340//340 353//353
f 341//341 353//353 354//354
f 334//334 333//333 346//346
f 334//334 346//346 347//347
f 342//342 341//341 354//354
f 342//342 354//354 355//355
f 335//335 334//334 347//347
f 335//335 347//347 348//348
f 343//343 342//342 355//355
f 343//343 355//355 356//356
f 336//336 335//335 348//348
f 336//336 348//348 349//349
f 540//540 343//343 356//356
f 540//540 356//356 541//541
f 354//354 353//353 366//366
f 354//354 366//366 367//367
f 347//347 346//346 359//359
f 347//347 359//359 360//360
f 355//355 354//354 367//367
f 355//355 367//367 368//368
f 348//348 347//347 360//360
f 348//348 360//360 361//361
f 356//356 355//355 368//368
f 356//356 368//368 369//369
f 349//349 348//348 361//361
f 349//349 361//361 362//362
f 541//541 356//356 369//369
f 541//541 369//369 542//542
f 350//350 349//349 362//362
f 350//350 362//362 363//363
f 351//351 350//350 363//363
f 351//351 363//363 364//364
f 352//352 351//351 364//364
f 352//352 364//364 365//365
f 353//353 352//352 365//365
f 353//353 365//365 366//366
f 346//346 345//345 358//358
f 346//346 358//358 359//359
f 364//364 363//363 376//376
f 364//364 376//376 377//377
f 365//365 364//364 377//377
f 365//365 377//377 378//378
f 366//366 365//365 378//378
f 366//366 378//378 379//379
f 359//359 358//358 371//371
f 359//359 371//371 372//372
f 367//367 366//366 379//379
f 367//367 379//379 380//380
f 360//360 359//359 372//372
f 360//360 372//372 373//373
f 368//368 367//367 380//380
f 368//368 380//380 381//381
f 361//361 360//360 373//373
f 361//361 373//373 374//374
f 369//369 368//368 381//381
f 369//369 381//381 382//382
f 362//362 361//361 374//374
f 362//362 374//374 375//375
f 542//542 369//369 382//382
f 542//542 382//382 543//543
f 363//363 362//362 375//375
f 363//363 375//375 376//376
f 381//381 380//380 393//393
f 381//381 393//393 394//394
f 374//374 373//373 386//386
f 374//374 386//386 387//387
f 382//382 381//381 394//394
f 382//382 394//394 395//395
f 375//375 374//374 387//387
f 375//375 387//387 388//388
f 543//543 382//382 395//395
f 543//543 395//395 544//544
f 376//376 375//375 388//388
f 376//376 388//388 389//389
f 377//377 376//376 389//389
f 377//377 389//389 390//390
f 378//378 377//377 390//390
f 378//378 390//390 391//391
f 379//379 378//378 391//391
f 379//379 391//391 392//392
f 372//372 371//371 384//384
f 372//372 384//384 385//385
f 380//380 379//379 392//392
f 380//380 392//392 393//393
f 373//373 372//372 385//385
f 373//373 385//385 386//386
f 391//391 390//390 403//403
f 391//391 403//403 404//404
f 392//392 391//391 404//404
f 392//392 404//404 405//405
f 385//385 384//384 397//397
f 385//385 397//397 398//398
f 393//393 392//392 405//405
f 393//393 405//405 406//406
f 386//386 385//385 398//398
f 386//386 398//398 399//399
f 394//394 393//393 406//406
f 394//394 406//406 407//407
f 387//387 386//386 399//399
f 387//387 399//399 400//400
f 395//395 394//394 407//407
f 395//395 407//407 408//408
f 388//388 387//387 400//400
f 388//388 400//400 401//401
f 544//544 395//395 408//408
f 544//544 408//408 545//545
f 389//389 388//388 401//401
f 389//389 401//401 402//402
f 390//390 389//389 402//402
f 390//390 402//402 403//403
f 400//400 399//399 411//411
f 400//400 411//411 2//2
f 408//408 407//407 414//414
f 408//408 414//414 415//415
f 401//401 400//400 2//2
f 401//401 2//2 412//412
f 545//545 408//408 415//415
f 545//545 415//415 546//546
f 402//402 401//401 412//412
f 402//402 412//412 3//3
f 403//403 402//402 3//3
f 403//403 3//3 4//4
f 404//404 403//403 4//4
f 404//404 4//4 5//5
f 405//405 404//404 5//5
f 405//405 5//5 413//413
f 398//398 397//397 410//410
f 398//398 410//410 1//1
f 406//406 405//405 413//413
f 406//406 413//413 6//6
f 399//399 398//398 1//1
f 399//399 1//1 411//411
f 407//407 406//406 6//6
f 407//407 6//6 414//414
f 383//383 417//417 357//357
f 383//383 357//357 370//370
f 417//417 424//424 344//344
f 417//417 344//344 357//357
f 424//424 431//431 331//331
f 424//424 331//331 344//344
f 431//431 438//438 318//318
f 431//431 318//318 331//331
f 438//438 445//445 305//305
f 438//438 305//305 318//318
f 445//445 452//452 292//292
f 445//445 292//292 305//305
f 452//452 459//459 279//279
f 452//452 279//279 292//292
f 459//459 253//253 266//266
f 459//459 266//266 279//279
f 396//396 418//418 417//417
f 396//396 417//417 383//383
f 418//418 425//425 424//424
f 418//418 424//424 417//417
f 425//425 432//432 431//431
f 425//425 431//431 424//424
f 432//432 439//439 438//438
f 432//432 438//438 431//431
f 439//439 446//446 445//445
f 439//439 445//445 438//438
f 446//446 453//453 452//452
f 446//446 452//452 445//445
f 453//453 460//460 459//459
f 453//453 459//459 452//452
f 460//460 240//240 253//253
f 460//460 253//253 459//459
f 409//409 419//419 418//418
f 409//409 418//418 396//396
f 419//419 426//426 425//425
f 419//419 425//425 418//418
f 426//426 433//433 432//432
f 426//426 432//432 425//425
f 433//433 440//440 439//439
f 433//433 439//439 432//432
f 440//440 447//447 446//446
f 440//440 446//446 439//439
f 447//447 454//454 453//453
f 447//447 453//453 446//446
f 454//454 461//461 460//460
f 454//454 460//460 453//453
f 461//461 227//227 240//240
f 461//461 240//240 460//460
f 416//416 420//420 419//419
f 416//416 419//419 409//409
f 420//420 427//427 426//426
f 420//420 426//426 419//419
f 427//427 434//434 433//433
f 427//427 433//433 426//426
f 434//434 441//441 440//440
f 434//434 440//440 433//433
f 441//441 448//448 447//447
f 441//441 447//447 440//440
f 448//448 455//455 454//454
f 448//448 454//454 447//447
f 455//455 462//462 461//461
f 455//455 461//461 454//454
f 462//462 214//214 227//227
f 462//462 227//227 461//461
f 19//19 421//421 420//420
f 19//19 420//420 416//416
f 421//421 428//428 427//427
f 421//421 427//427 420//420
f 428//428 435//435 434//434
f 428//428 434//434 427//427
f 435//435 442//442 441//441
f 435//435 441//441 434//434
f 442//442 449//449 448//448
f 442//442 448//448 441//441
f 449//449 456//456 455//455
f 449//449 455//455 448//448
f 456//456 463//463 462//462
f 456//456 462//462 455//455
f 463//463 201//201 214//214
f 463//463 214//214 462//462
f 32//32 422//422 421//421
f 32//32 421//421 19//19
f 422//422 429//429 428//428
f 422//422 428//428 421//421
f 429//429 436//436 435//435
f 429//429 435//435 428//428
f 436//436 443//443 442//442
f 436//436 442//442 435//435
f 443//443 450//450 449//449
f 443//443 449//449 442//442
f 450//450 457//457 456//456
f 450//450 456//456 449//449
f 457//457 464//464 463//463
f 457//457 463//463 456//456
f 464//464 188//188 201//201
f 464//464 201//201 463//463
f 45//45 423//423 422//422
f 45//45 422//422 32//32
f 423//423 430//430 429//429
f 423//423 429//429 422//422
f 430//430 437//437 436//436
f 430//430 436//436 429//429
f 437//437 444//444 443//443
f 437//437 443//443 436//436
f 444//444 451//451 450//450
f 444//444 450//450 443//443
f 451//451 458//458 457//457
f 451//451 457//457 450//450
f 458//458 465//465 464//464
f 458//458 464//464 457//457
f 465//465 175//175 188//188
f 465//465 188//188 464//464
f 58//58 71//71 423//423
f 58//58 423//423 45//45
f 71//71 84//84 430//430
f 71//71 430//430 423//423
f 84//84 97//97 437//437
f 84//84 437//437 430//430
f 97//97 110//110 444//444
f 97//97 444//444 437//437
f 110//110 123//123 451//451
f 110//110 451//451 444//444
f 123//123 136//136 458//458
f 123//123 458//458 451//451
f 136//136 149//149 465//465
f 136//136 465//465 458//458
f 149//149 162//162 175//175
f 149//149 175//175 465//465
f 358//358 345//345 466//466
f 358//358 466//466 371//371
f 345//345 332//332 473//473
f 345//345 473//473 466//466
f 332//332 319//319 480//480
f 332//332 480//480 473//473
f 319//319 306//306 487//487
f 319//319 487//487 480//480
f 306//306 293//293 494//494
f 306//306 494//494 487//487
f 293//293 280//280 501//501
f 293//293 501//501 494//494
f 280//280 267//267 508//508
f 280//280 508//508 501//501
f 267//267 254//254 241//241
f 267//267 241//241 508//508
f 371//371 466//466 467//467
f 371//371 467//467 384//384
f 466//466 473//473 474//474
f 466//466 474//474 467//467
f 473//473 480//480 481//481
f 473//473 481//481 474//474
f 480//480 487//487 488//488
f 480//480 488//488 481//481
f 487//487 494//494 495//495
f 487//487 495//495 488//488
f 494//494 501//501 502//502
f 494//494 502//502 495//495
f 501//501 508//508 509//509
f 501//501 509//509 502//502
f 508//508 241//241 228//228
f 508//508 228//228 509//509
f 384//384 467//467 468//468
f 384//384 468//468 397//397
f 467//467 474//474 475//475
f 467//467 475//475 468//468
f 474//474 481//481 482//482
f 474//474 482//482 475//475
f 481//481 488//488 489//489
f 481//481 489//489 482//482
f 488//488 495//495 496//496
f 488//488 496//496 489//489
f 495//495 502//502 503//503
f 495//495 503//503 496//496
f 502//502 509//509 510//510
f 502//502 510//510 503//503
f 509//509 228//228 215//215
f 509//509 215//215 510//510
f 397//397 468//468 469//469
f 397//397 469//469 410//410
f 468//468 475//475 476//476
f 468//468 476//476 469//469
f 475//475 482//482 483//483
f 475//475 483//483 476//476
f 482//482 489//489 490//490
f 482//482 490//490 483//483
f 489//489 496//496 497//497
f 489//489 497//497 490//490
f 496//496 503//503 504//504
f 496//496 504//504 497//497
f 503//503 510//510 511//511
f 503//503 511//511 504//504
f 510//510 215//215 202//202
f 510//510 202//202 511//511
f 410//410 469//469 470//470
f 410//410 470//470 7//7
f 469//469 476//476 477//477
f 469//469 477//477 470//470
f 476//476 483//483 484//484
f 476//476 484//484 477//477
f 483//483 490//490 491//491
f 483//483 491//491 484//484
f 490//490 497//497 498//498
f 490//490 498//498 491//491
f 497//497 504//504 505//505
f 497//497 505//505 498//498
f 504//504 511//511 512//512
f 504//504 512//512 505//505
f 511//511 202//202 189//189
f 511//511 189//189 512//512
f 7//7 470//470 471//471
f 7//7 471//471 20//20
f 470//470 477//477 478//478
f 470//470 478//478 471//471
f 477//477 484//484 485//485
f 477//477 485//485 478//478
f 484//484 491//491 492//492
f 484//484 492//492 485//485
f 491//491 498//498 499//499
f 491//491 499//499 492//492
f 498//498 505//505 506//506
f 498//498 506//506 499//499
f 505//505 512//512 513//513
f 505//505 513//513 506//506
f 512//512 189//189 176//176
f 512//512 176//176 513//513
f 20//20 471//471 472//472
f 20//20 472//472 33//33
f 471//471 478//478 479//479
f 471//471 479//479 472//472
f 478//478 485//485 486//486
f 478//478 486//486 479//479
f 485//485 492//492 493//493
f 485//485 493//493 486//486
f 492//492 499//499 500//500
f 492//492 500//500 493//493
f 499//499 506//506 507//507
f 499//499 507//507 500//500
f 506//506 513//513 514//514
f 506//506 514//514 507//507
f 513//513 176//176 163//163
f 513//513 163//163 514//514
f 33//33 472//472 59//59
f 33//33 59//59 46//46
f 472//472 479//479 72//72
f 472//472 72//72 59//59
f 479//479 486//486 85//85
f 479//479 85//85 72//72
f 486//486 493//493 98//98
f 486//486 98//98 85//85
f 493//493 500//500 111//111
f 493//493 111//111 98//98
f 500//500 507//507 124//124
f 500//500 124//124 111//111
f 507//507 514//514 137//137
f 507//507 137//137 124//124
f 514//514 163//163 150//150
f 514//514 150//150 137//137
f 409//409 545//545 546//546
f 409//409 546//546 416//416
f 396//396 544//544 545//545
f 396//396 545//545 409//409
f 383//383 543//543 544//544
f 383//383 544//544 396//396
f 370//370 542//542 543//543
f 370//370 543//543 383//383
f 357//357 541//541 542//542
f 357//357 542//542 370//370
f 344//344 540//540 541//541
f 344//344 541//541 357//357
f 331//331 539//539 540//540
f 331//331 540//540 344//344
f 318//318 538//538 539//539
f 318//318 539//539 331//331
f 305//305 537//537 538//538
f 305//305 538//538 318//318
f 292//292 536//536 537//537
f 292//292 537//537 305//305
f 279//279 535//535 536//536
f 279//279 536//536 292//292
f 266//266 534//534 535//535
f 266//266 535//535 279//279
f 253//253 533//533 534//534
f 253//253 534//534 266//266
f 240//240 532//532 533//533
f 240//240 533//533 253//253
f 227//227 531//531 532//532
f 227//227 532//532 240//240
f 214//214 530//530 531//531
f 214//214 531//531 227//227
f 201//201 529//529 530//530
f 201//201 530//530 214//214
f 188//188 528//528 529//529
f 188//188 529//529 201//201
f 175//175 527//527 528//528
f 175//175 528//528 188//188
f 162//162 526//526 527//527
f 162//162 527//527 175//175
f 149//149 525//525 526//526
f 149//149 526//526 162//162
f 136//136 524//524 525//525
f 136//136 525//525 149//149
f 123//123 523//523 524//524
f 123//123 524//524 136//136
f 110//110 522//522 523//523
f 110//110 523//523 123//123
f 97//97 521//521 522//522
f 97//97 522//522 110//110
f 84//84 520//520 521//521
f 84//84 521//521 97//97
f 71//71 519//519 520//520
f 71//71 520//520 84//84
f 58//58 518//518 519//519
f 58//58 519//519 71//71
f 45//45 517//517 518//518
f 45//45 518//518 58//58
f 32//32 516//516 517//517
f 32//32 517//517 45//45
f 19//19 515//515 516//516
f 19//19 516//516 32//32
f 416//416 546//546 515//515
f 416//416 515//515 19//19
