v 0 0 0
v 0.0625 0 0
v 0.125 0 0
v 0.1875 0 0
v 0.25 0 0
v 0.3125 0 0
v 0.375 0 0
v 0.4375 0 0
v 0.5 0 0
v 0.5625 0 0
v 0.625 0 0
v 0.6875 0 0
v 0.75 0 0
v 0.8125 0 0
v 0.875 0 0
v 0.9375 0 0
v 1 0 -0
v 0 0.0625 0
v 0.0625 0.0625 0.00761204679
v 0.125 0.0625 0.0149315679
v 0.1875 0.0625 0.0216772761
v 0.25 0.0625 0.0275899395
v 0.3125 0.0625 0.0324423388
v 0.375 0.0625 0.0360479914
v 0.4375 0.0625 0.0382683463
v 0.5 0.0625 0.0390180647
v 0.5625 0.0625 0.0382683426
v 0.625 0.0625 0.0360479914
v 0.6875 0.0625 0.0324423313
v 0.75 0.0625 0.0275899395
v 0.8125 0.0625 0.0216772743
v 0.875 0.0625 0.0149315605
v 0.9375 0.0625 0.00761204632
v 1 0.0625 -3.41106765e-09
v 0 0.125 0
v 0.0625 0.125 0.0149315679
v 0.125 0.125 0.0292893257
v 0.1875 0.125 0.0425215065
v 0.25 0.125 0.0541196167
v 0.3125 0.125 0.0636379346
v 0.375 0.125 0.0707106814
v 0.4375 0.125 0.0750660673
v 0.5 0.125 0.0765366927
v 0.5625 0.125 0.0750660598
v 0.625 0.125 0.0707106814
v 0.6875 0.125 0.0636379272
v 0.75 0.125 0.0541196167
v 0.8125 0.125 0.0425215065
v 0.875 0.125 0.0292893127
v 0.9375 0.125 0.0149315661
v 1 0.125 -6.69105038e-09
v 0 0.1875 0
v 0.0625 0.1875 0.0216772761
v 0.125 0.1875 0.0425215103
v 0.1875 0.1875 0.0617316589
v 0.25 0.1875 0.0785695016
v 0.3125 0.1875 0.0923879594
v 0.375 0.1875 0.102655992
v 0.4375 0.1875 0.108979031
v 0.5 0.1875 0.111114047
v 0.5625 0.1875 0.108979024
v 0.625 0.1875 0.102655992
v 0.6875 0.1875 0.0923879445
v 0.75 0.1875 0.0785695016
v 0.8125 0.1875 0.0617316552
v 0.875 0.1875 0.0425214879
v 0.9375 0.1875 0.0216772743
v 1 0.1875 -9.71389902e-09
v 0 0.25 0
v 0.0625 0.25 0.0275899377
v 0.125 0.25 0.054119613
v 0.1875 0.25 0.0785694942
v 0.25 0.25 0.100000001
v 0.3125 0.25 0.117587566
v 0.375 0.25 0.130656287
v 0.4375 0.25 0.138703987
v 0.5 0.25 0.141421363
v 0.5625 0.25 0.138703987
v 0.625 0.25 0.130656287
v 0.6875 0.25 0.117587544
v 0.75 0.25 0.100000001
v 0.8125 0.25 0.0785694867
v 0.875 0.25 0.0541195869
v 0.9375 0.25 0.0275899358
v 1 0.25 -1.2363448e-08
v 0 0.3125 0
v 0.0625 0.3125 0.032442335
v 0.125 0.3125 0.0636379346
v 0.1875 0.3125 0.0923879594
v 0.25 0.3125 0.117587574
v 0.3125 0.3125 0.138268366
v 0.375 0.3125 0.153635561
v 0.4375 0.3125 0.163098648
v 0.5 0.3125 0.166293934
v 0.5625 0.3125 0.163098633
v 0.625 0.3125 0.153635561
v 0.6875 0.3125 0.138268337
v 0.75 0.3125 0.117587574
v 0.8125 0.3125 0.0923879519
v 0.875 0.3125 0.0636379048
v 0.9375 0.3125 0.032442335
v 1 0.3125 -1.45378776e-08
v 0 0.375 0
v 0.0625 0.375 0.0360479914
v 0.125 0.375 0.0707106814
v 0.1875 0.375 0.102655992
v 0.25 0.375 0.130656302
v 0.3125 0.375 0.153635561
v 0.375 0.375 0.170710668
v 0.4375 0.375 0.181225494
v 0.5 0.375 0.184775904
v 0.5625 0.375 0.181225479
v 0.625 0.375 0.170710668
v 0.6875 0.375 0.153635532
v 0.75 0.375 0.130656302
v 0.8125 0.375 0.102655984
v 0.875 0.375 0.0707106441
v 0.9375 0.375 0.0360479876
v 1 0.375 -1.61536224e-08
v 0 0.4375 0
v 0.0625 0.4375 0.0382683463
v 0.125 0.4375 0.0750660673
v 0.1875 0.4375 0.108979024
v 0.25 0.4375 0.138704002
v 0.3125 0.4375 0.163098648
v 0.375 0.4375 0.181225494
v 0.4375 0.4375 0.192387968
v 0.5 0.4375 0.196157068
v 0.5625 0.4375 0.192387953
v 0.625 0.4375 0.181225494
v 0.6875 0.4375 0.163098618
v 0.75 0.4375 0.138704002
v 0.8125 0.4375 0.108979017
v 0.875 0.4375 0.07506603
v 0.9375 0.4375 0.0382683426
v 1 0.4375 -1.71485954e-08
v 0 0.5 0
v 0.0625 0.5 0.0390180647
v 0.125 0.5 0.0765366927
v 0.1875 0.5 0.111114047
v 0.25 0.5 0.141421363
v 0.3125 0.5 0.166293934
v 0.375 0.5 0.184775904
v 0.4375 0.5 0.196157068
v 0.5 0.5 0.200000003
v 0.5625 0.5 0.196157053
v 0.625 0.5 0.184775904
v 0.6875 0.5 0.166293904
v 0.75 0.5 0.141421363
v 0.8125 0.5 0.11111404
v 0.875 0.5 0.0765366554
v 0.9375 0.5 0.039018061
v 1 0.5 -1.7484556e-08
v 0 0.5625 0
v 0.0625 0.5625 0.0382683426
v 0.125 0.5625 0.0750660598
v 0.1875 0.5625 0.108979017
v 0.25 0.5625 0.138703987
v 0.3125 0.5625 0.163098633
v 0.375 0.5625 0.181225479
v 0.4375 0.5625 0.192387953
v 0.5 0.5625 0.196157053
v 0.5625 0.5625 0.192387938
v 0.625 0.5625 0.181225479
v 0.6875 0.5625 0.163098603
v 0.75 0.5625 0.138703987
v 0.8125 0.5625 0.108979009
v 0.875 0.5625 0.0750660226
v 0.9375 0.5625 0.0382683389
v 1 0.5625 -1.71485954e-08
v 0 0.625 0
v 0.0625 0.625 0.0360479914
v 0.125 0.625 0.0707106814
v 0.1875 0.625 0.102655992
v 0.25 0.625 0.130656302
v 0.3125 0.625 0.153635561
v 0.375 0.625 0.170710668
v 0.4375 0.625 0.181225494
v 0.5 0.625 0.184775904
v 0.5625 0.625 0.181225479
v 0.625 0.625 0.170710668
v 0.6875 0.625 0.153635532
v 0.75 0.625 0.130656302
v 0.8125 0.625 0.102655984
v 0.875 0.625 0.0707106441
v 0.9375 0.625 0.0360479876
v 1 0.625 -1.61536224e-08
v 0 0.6875 0
v 0.0625 0.6875 0.0324423313
v 0.125 0.6875 0.0636379272
v 0.1875 0.6875 0.0923879445
v 0.25 0.6875 0.117587551
v 0.3125 0.6875 0.138268337
v 0.375 0.6875 0.153635532
v 0.4375 0.6875 0.163098633
v 0.5 0.6875 0.166293904
v 0.5625 0.6875 0.163098618
v 0.625 0.6875 0.153635532
v 0.6875 0.6875 0.138268322
v 0.75 0.6875 0.117587551
v 0.8125 0.6875 0.092387937
v 0.875 0.6875 0.0636378974
v 0.9375 0.6875 0.0324423276
v 1 0.6875 -1.45378758e-08
v 0 0.75 0
v 0.0625 0.75 0.0275899377
v 0.125 0.75 0.054119613
v 0.1875 0.75 0.0785694942
v 0.25 0.75 0.100000001
v 0.3125 0.75 0.117587566
v 0.375 0.75 0.130656287
v 0.4375 0.75 0.138703987
v 0.5 0.75 0.141421363
v 0.5625 0.75 0.138703987
v 0.625 0.75 0.130656287
v 0.6875 0.75 0.117587544
v 0.75 0.75 0.100000001
v 0.8125 0.75 0.0785694867
v 0.875 0.75 0.0541195869
v 0.9375 0.75 0.0275899358
v 1 0.75 -1.2363448e-08
v 0 0.8125 0
v 0.0625 0.8125 0.0216772743
v 0.125 0.8125 0.0425215028
v 0.1875 0.8125 0.0617316514
v 0.25 0.8125 0.0785694942
v 0.3125 0.8125 0.0923879519
v 0.375 0.8125 0.102655984
v 0.4375 0.8125 0.108979017
v 0.5 0.8125 0.11111404
v 0.5625 0.8125 0.108979009
v 0.625 0.8125 0.102655984
v 0.6875 0.8125 0.092387937
v 0.75 0.8125 0.0785694942
v 0.8125 0.8125 0.0617316477
v 0.875 0.8125 0.0425214842
v 0.9375 0.8125 0.0216772705
v 1 0.8125 -9.71389813e-09
v 0 0.875 0
v 0.0625 0.875 0.0149315605
v 0.125 0.875 0.0292893127
v 0.1875 0.875 0.0425214879
v 0.25 0.875 0.0541195907
v 0.3125 0.875 0.0636379048
v 0.375 0.875 0.0707106516
v 0.4375 0.875 0.07506603
v 0.5 0.875 0.0765366554
v 0.5625 0.875 0.0750660226
v 0.625 0.875 0.0707106516
v 0.6875 0.875 0.0636378974
v 0.75 0.875 0.0541195907
v 0.8125 0.875 0.0425214842
v 0.875 0.875 0.0292892978
v 0.9375 0.875 0.0149315596
v 1 0.875 -6.69104727e-09
v 0 0.9375 0
v 0.0625 0.9375 0.00761204632
v 0.125 0.9375 0.014931567
v 0.1875 0.9375 0.0216772743
v 0.25 0.9375 0.0275899377
v 0.3125 0.9375 0.032442335
v 0.375 0.9375 0.0360479876
v 0.4375 0.9375 0.0382683426
v 0.5 0.9375 0.039018061
v 0.5625 0.9375 0.0382683389
v 0.625 0.9375 0.0360479876
v 0.6875 0.9375 0.0324423276
v 0.75 0.9375 0.0275899377
v 0.8125 0.9375 0.0216772724
v 0.875 0.9375 0.0149315596
v 0.9375 0.9375 0.00761204539
v 1 0.9375 -3.41106743e-09
v 0 1 -0
v 0.0625 1 -3.41106765e-09
v 0.125 1 -6.69105038e-09
v 0.1875 1 -9.71389813e-09
v 0.25 1 -1.2363448e-08
v 0.3125 1 -1.45378776e-08
v 0.375 1 -1.61536224e-08
v 0.4375 1 -1.71485954e-08
v 0.5 1 -1.7484556e-08
v 0.5625 1 -1.71485937e-08
v 0.625 1 -1.61536224e-08
v 0.6875 1 -1.45378749e-08
v 0.75 1 -1.2363448e-08
v 0.8125 1 -9.71389813e-09
v 0.875 1 -6.69104683e-09
v 0.9375 1 -3.41106721e-09
v 1 1 1.52854846e-15
vt 0 0
vt 0.0625 0
vt 0.125 0
vt 0.1875 0
vt 0.25 0
vt 0.3125 0
vt 0.375 0
vt 0.4375 0
vt 0.5 0
vt 0.5625 0
vt 0.625 0
vt 0.6875 0
vt 0.75 0
vt 0.8125 0
vt 0.875 0
vt 0.9375 0
vt 1 0
vt 0 0.0625
vt 0.0625 0.0625
vt 0.125 0.0625
vt 0.1875 0.0625
vt 0.25 0.0625
vt 0.3125 0.0625
vt 0.375 0.0625
vt 0.4375 0.0625
vt 0.5 0.0625
vt 0.5625 0.0625
vt 0.625 0.0625
vt 0.6875 0.0625
vt 0.75 0.0625
vt 0.8125 0.0625
vt 0.875 0.0625
vt 0.9375 0.0625
vt 1 0.0625
vt 0 0.125
vt 0.0625 0.125
vt 0.125 0.125
vt 0.1875 0.125
vt 0.25 0.125
vt 0.3125 0.125
vt 0.375 0.125
vt 0.4375 0.125
vt 0.5 0.125
vt 0.5625 0.125
vt 0.625 0.125
vt 0.6875 0.125
vt 0.75 0.125
vt 0.8125 0.125
vt 0.875 0.125
vt 0.9375 0.125
vt 1 0.125
vt 0 0.1875
vt 0.0625 0.1875
vt 0.125 0.1875
vt 0.1875 0.1875
vt 0.25 0.1875
vt 0.3125 0.1875
vt 0.375 0.1875
vt 0.4375 0.1875
vt 0.5 0.1875
vt 0.5625 0.1875
vt 0.625 0.1875
vt 0.6875 0.1875
vt 0.75 0.1875
vt 0.8125 0.1875
vt 0.875 0.1875
vt 0.9375 0.1875
vt 1 0.1875
vt 0 0.25
vt 0.0625 0.25
vt 0.125 0.25
vt 0.1875 0.25
vt 0.25 0.25
vt 0.3125 0.25
vt 0.375 0.25
vt 0.4375 0.25
vt 0.5 0.25
vt 0.5625 0.25
vt 0.625 0.25
vt 0.6875 0.25
vt 0.75 0.25
vt 0.8125 0.25
vt 0.875 0.25
vt 0.9375 0.25
vt 1 0.25
vt 0 0.3125
vt 0.0625 0.3125
vt 0.125 0.3125
vt 0.1875 0.3125
vt 0.25 0.3125
vt 0.3125 0.3125
vt 0.375 0.3125
vt 0.4375 0.3125
vt 0.5 0.3125
vt 0.5625 0.3125
vt 0.625 0.3125
vt 0.6875 0.3125
vt 0.75 0.3125
vt 0.8125 0.3125
vt 0.875 0.3125
vt 0.9375 0.3125
vt 1 0.3125
vt 0 0.375
vt 0.0625 0.375
vt 0.125 0.375
vt 0.1875 0.375
vt 0.25 0.375
vt 0.3125 0.375
vt 0.375 0.375
vt 0.4375 0.375
vt 0.5 0.375
vt 0.5625 0.375
vt 0.625 0.375
vt 0.6875 0.375
vt 0.75 0.375
vt 0.8125 0.375
vt 0.875 0.375
vt 0.9375 0.375
vt 1 0.375
vt 0 0.4375
vt 0.0625 0.4375
vt 0.125 0.4375
vt 0.1875 0.4375
vt 0.25 0.4375
vt 0.3125 0.4375
vt 0.375 0.4375
vt 0.4375 0.4375
vt 0.5 0.4375
vt 0.5625 0.4375
vt 0.625 0.4375
vt 0.6875 0.4375
vt 0.75 0.4375
vt 0.8125 0.4375
vt 0.875 0.4375
vt 0.9375 0.4375
vt 1 0.4375
vt 0 0.5
vt 0.0625 0.5
vt 0.125 0.5
vt 0.1875 0.5
vt 0.25 0.5
vt 0.3125 0.5
vt 0.375 0.5
vt 0.4375 0.5
vt 0.5 0.5
vt 0.5625 0.5
vt 0.625 0.5
vt 0.6875 0.5
vt 0.75 0.5
vt 0.8125 0.5
vt 0.875 0.5
vt 0.9375 0.5
vt 1 0.5
vt 0 0.5625
vt 0.0625 0.5625
vt 0.125 0.5625
vt 0.1875 0.5625
vt 0.25 0.5625
vt 0.3125 0.5625
vt 0.375 0.5625
vt 0.4375 0.5625
vt 0.5 0.5625
vt 0.5625 0.5625
vt 0.625 0.5625
vt 0.6875 0.5625
vt 0.75 0.5625
vt 0.8125 0.5625
vt 0.875 0.5625
vt 0.9375 0.5625
vt 1 0.5625
vt 0 0.625
vt 0.0625 0.625
vt 0.125 0.625
vt 0.1875 0.625
vt 0.25 0.625
vt 0.3125 0.625
vt 0.375 0.625
vt 0.4375 0.625
vt 0.5 0.625
vt 0.5625 0.625
vt 0.625 0.625
vt 0.6875 0.625
vt 0.75 0.625
vt 0.8125 0.625
vt 0.875 0.625
vt 0.9375 0.625
vt 1 0.625
vt 0 0.6875
vt 0.0625 0.6875
vt 0.125 0.6875
vt 0.1875 0.6875
vt 0.25 0.6875
vt 0.3125 0.6875
vt 0.375 0.6875
vt 0.4375 0.6875
vt 0.5 0.6875
vt 0.5625 0.6875
vt 0.625 0.6875
vt 0.6875 0.6875
vt 0.75 0.6875
vt 0.8125 0.6875
vt 0.875 0.6875
vt 0.9375 0.6875
vt 1 0.6875
vt 0 0.75
vt 0.0625 0.75
vt 0.125 0.75
vt 0.1875 0.75
vt 0.25 0.75
vt 0.3125 0.75
vt 0.375 0.75
vt 0.4375 0.75
vt 0.5 0.75
vt 0.5625 0.75
vt 0.625 0.75
vt 0.6875 0.75
vt 0.75 0.75
vt 0.8125 0.75
vt 0.875 0.75
vt 0.9375 0.75
vt 1 0.75
vt 0 0.8125
vt 0.0625 0.8125
vt 0.125 0.8125
vt 0.1875 0.8125
vt 0.25 0.8125
vt 0.3125 0.8125
vt 0.375 0.8125
vt 0.4375 0.8125
vt 0.5 0.8125
vt 0.5625 0.8125
vt 0.625 0.8125
vt 0.6875 0.8125
vt 0.75 0.8125
vt 0.8125 0.8125
vt 0.875 0.8125
vt 0.9375 0.8125
vt 1 0.8125
vt 0 0.875
vt 0.0625 0.875
vt 0.125 0.875
vt 0.1875 0.875
vt 0.25 0.875
vt 0.3125 0.875
vt 0.375 0.875
vt 0.4375 0.875
vt 0.5 0.875
vt 0.5625 0.875
vt 0.625 0.875
vt 0.6875 0.875
vt 0.75 0.875
vt 0.8125 0.875
vt 0.875 0.875
vt 0.9375 0.875
vt 1 0.875
vt 0 0.9375
vt 0.0625 0.9375
vt 0.125 0.9375
vt 0.1875 0.9375
vt 0.25 0.9375
vt 0.3125 0.9375
vt 0.375 0.9375
vt 0.4375 0.9375
vt 0.5 0.9375
vt 0.5625 0.9375
vt 0.625 0.9375
vt 0.6875 0.9375
vt 0.75 0.9375
vt 0.8125 0.9375
vt 0.875 0.9375
vt 0.9375 0.9375
vt 1 0.9375
vt 0 1
vt 0.0625 1
vt 0.125 1
vt 0.1875 1
vt 0.25 1
vt 0.3125 1
vt 0.375 1
vt 0.4375 1
vt 0.5 1
vt 0.5625 1
vt 0.625 1
vt 0.6875 1
vt 0.75 1
vt 0.8125 1
vt 0.875 1
vt 0.9375 1
vt 1 1
vn -0 -0 1
vn -0 -0.121668205 0.992570817
vn -0 -0.233783975 0.972288549
vn -0 -0.32957238 0.944130421
vn -0 -0.4060193 0.913864493
vn -0 -0.463045716 0.88633436
vn -0 -0.502035558 0.864846945
vn -0 -0.524628937 0.851330936
vn 0 -0.532018065 0.846733034
vn 0 -0.524628937 0.851330996
vn 0 -0.502035558 0.864846945
vn 0 -0.463045657 0.88633436
vn 0 -0.4060193 0.913864493
vn 0 -0.32957235 0.944130421
vn 0 -0.233783886 0.972288668
vn 0 -0.121668197 0.992570817
vn 0 5.49293517e-08 1
vn -0.121668205 -0 0.992570817
vn -0.118522651 -0.118522651 0.985852242
vn -0.109560996 -0.228148967 0.967442214
vn -0.0959806815 -0.322414517 0.941720068
vn -0.0792104378 -0.398217767 0.913864493
vn -0.0604971983 -0.455177605 0.888343036
vn -0.0407311842 -0.494357258 0.868303955
vn -0.0204618722 -0.517156541 0.855646193
vn 4.56151028e-09 -0.524628937 0.851330996
vn 0.0204618815 -0.517156482 0.855646193
vn 0.0407311916 -0.494357258 0.868303955
vn 0.0604972243 -0.455177605 0.888343096
vn 0.0792104378 -0.398217767 0.913864493
vn 0.0959806815 -0.322414488 0.941720068
vn 0.109561004 -0.228148863 0.967442214
vn 0.118522666 -0.118522644 0.985852242
vn 0.121668205 5.34736593e-08 0.992570817
vn -0.233783975 -0 0.972288549
vn -0.228148967 -0.109560989 0.967442214
vn -0.21193181 -0.21193181 0.954028249
vn -0.186920568 -0.301526368 0.934955955
vn -0.155376881 -0.375112921 0.913864493
vn -0.119443774 -0.431565404 0.894138992
vn -0.0808243006 -0.471078515 0.878380656
vn -0.0407311693 -0.494357318 0.868303955
vn 9.08978137e-09 -0.502035558 0.864846945
vn 0.0407311879 -0.494357258 0.868303955
vn 0.080824323 -0.471078515 0.878380656
vn 0.119443811 -0.431565374 0.894138992
vn 0.155376881 -0.375112921 0.913864493
vn 0.186920568 -0.301526338 0.934955955
vn 0.211931825 -0.211931691 0.954028249
vn 0.228148997 -0.109560981 0.967442214
vn 0.233783975 4.93418e-08 0.972288549
vn -0.32957238 -0 0.944130421
vn -0.322414547 -0.095980674 0.941720068
vn -0.301526368 -0.186920553 0.934955835
vn -0.268505841 -0.268505841 0.925099611
vn -0.225572258 -0.337592691 0.913864493
vn -0.175129578 -0.392260313 0.903029025
vn -0.119443774 -0.431565404 0.894138992
vn -0.0604971759 -0.455177605 0.888343036
vn 1.35241836e-08 -0.463045716 0.88633436
vn 0.0604971983 -0.455177605 0.888343036
vn 0.119443797 -0.431565404 0.894138992
vn 0.175129652 -0.392260253 0.903029025
vn 0.225572258 -0.337592691 0.913864493
vn 0.268505841 -0.268505812 0.925099611
vn 0.301526427 -0.186920479 0.934955955
vn 0.322414547 -0.0959806591 0.941719949
vn 0.32957238 4.3120405e-08 0.944130421
vn -0.4060193 -0 0.913864493
vn -0.398217738 -0.0792104304 0.913864493
vn -0.375112921 -0.155376881 0.913864493
vn -0.337592721 -0.225572243 0.913864493
vn -0.287099004 -0.287099004 0.913864493
vn -0.225572214 -0.337592721 0.913864493
vn -0.155376852 -0.375112921 0.913864493
vn -0.0792104006 -0.398217797 0.913864493
vn 1.77476664e-08 -0.4060193 0.913864493
vn 0.0792104304 -0.398217738 0.913864493
vn 0.155376881 -0.375112921 0.913864493
vn 0.225572288 -0.337592691 0.913864493
vn 0.287099004 -0.287099004 0.913864493
vn 0.337592721 -0.225572214 0.913864493
vn 0.375112951 -0.155376792 0.913864493
vn 0.398217797 -0.0792104304 0.913864493
vn 0.4060193 3.54953329e-08 0.913864493
vn -0.463045716 -0 0.88633436
vn -0.455177665 -0.0604971983 0.888343096
vn -0.431565434 -0.119443774 0.894138992
vn -0.392260343 -0.175129578 0.903029025
vn -0.337592721 -0.225572228 0.913864493
vn -0.268505841 -0.268505812 0.925099611
vn -0.186920553 -0.301526368 0.934955955
vn -0.0959806442 -0.322414547 0.941720068
vn 2.15602025e-08 -0.32957235 0.944130421
vn 0.0959806815 -0.322414517 0.941720068
vn 0.186920598 -0.301526338 0.934955835
vn 0.268505931 -0.268505782 0.925099611
vn 0.337592721 -0.225572228 0.913864493
vn 0.392260343 -0.175129563 0.903029025
vn 0.431565493 -0.119443722 0.894138992
vn 0.455177665 -0.0604971908 0.888343036
vn 0.463045716 2.70483635e-08 0.88633436
vn -0.502035558 -0 0.864846945
vn -0.494357258 -0.0407311842 0.868303955
vn -0.471078515 -0.0808243006 0.878380656
vn -0.431565404 -0.119443774 0.894138992
vn -0.375112921 -0.155376866 0.913864493
vn -0.301526338 -0.186920553 0.934955955
vn -0.21193178 -0.211931795 0.954028249
vn -0.109560952 -0.228148967 0.967442214
vn 2.46709e-08 -0.233783945 0.972288549
vn 0.109560989 -0.228148952 0.967442214
vn 0.211931825 -0.211931795 0.954028249
vn 0.301526427 -0.186920524 0.934955835
vn 0.375112921 -0.155376866 0.913864493
vn 0.431565404 -0.119443759 0.894138992
vn 0.471078515 -0.0808242559 0.878380537
vn 0.494357318 -0.0407311805 0.868303955
vn 0.502035558 1.8179561e-08 0.864846945
vn -0.524628937 -0 0.851330936
vn -0.517156541 -0.0204618722 0.855646193
vn -0.494357318 -0.0407311693 0.868303955
vn -0.455177665 -0.0604971759 0.888343096
vn -0.398217767 -0.079210408 0.913864493
vn -0.322414517 -0.0959806368 0.941720068
vn -0.228148952 -0.109560952 0.967442214
vn -0.118522607 -0.118522614 0.985852242
vn 2.67368314e-08 -0.121668153 0.992570817
vn 0.118522659 -0.118522599 0.985852242
vn 0.228149012 -0.109560952 0.967442214
vn 0.322414607 -0.0959806219 0.941719949
vn 0.398217767 -0.079210408 0.913864493
vn 0.455177665 -0.0604971685 0.888343096
vn 0.494357377 -0.0407311507 0.868303955
vn 0.517156541 -0.0204618704 0.855646193
vn 0.524628937 9.12301523e-09 0.851330936
vn -0.532018065 0 0.846733034
vn -0.524628937 4.56151028e-09 0.851330996
vn -0.502035558 9.08978137e-09 0.864846945
vn -0.463045716 1.35241836e-08 0.88633436
vn -0.4060193 1.77476664e-08 0.913864493
vn -0.32957235 2.15602025e-08 0.944130421
vn -0.233783945 2.46709e-08 0.972288549
vn -0.121668153 2.67368332e-08 0.992570817
vn 2.74646759e-08 2.74646759e-08 1
vn 0.121668205 2.67368296e-08 0.992570817
vn 0.233784005 2.46709e-08 0.972288549
vn 0.329572439 2.1560199e-08 0.944130301
vn 0.4060193 1.77476664e-08 0.913864493
vn 0.463045716 1.35241818e-08 0.88633436
vn 0.502035618 9.08977604e-09 0.864846945
vn 0.524628937 4.56150939e-09 0.851330936
vn 0.532018065 -2.03303832e-15 0.846733034
vn -0.524628937 0 0.851330996
vn -0.517156482 0.0204618815 0.855646193
vn -0.494357258 0.0407311879 0.868303955
vn -0.455177665 0.060497202 0.888343096
vn -0.398217767 0.0792104378 0.913864493
vn -0.322414488 0.0959806815 0.941720068
vn -0.228148937 0.109560996 0.967442214
vn -0.118522599 0.118522666 0.985852242
vn 2.67368296e-08 0.121668205 0.992570817
vn 0.118522651 0.118522651 0.985852242
vn 0.228148997 0.109560996 0.967442214
vn 0.322414577 0.0959806591 0.941719949
vn 0.398217767 0.0792104378 0.913864493
vn 0.455177665 0.060497202 0.888343096
vn 0.494357318 0.0407311656 0.868303955
vn 0.517156541 0.0204618797 0.855646193
vn 0.524628937 -9.12302056e-09 0.851330996
vn -0.502035558 0 0.864846945
vn -0.494357258 0.0407311916 0.868303955
vn -0.471078515 0.080824323 0.878380656
vn -0.431565404 0.119443797 0.894138992
vn -0.375112921 0.155376896 0.913864493
vn -0.301526338 0.186920598 0.934955955
vn -0.21193178 0.21193184 0.954028249
vn -0.109560952 0.228149027 0.967442214
vn 2.46709e-08 0.233784005 0.972288549
vn 0.109560989 0.228148997 0.967442214
vn 0.211931825 0.21193184 0.954028249
vn 0.301526427 0.186920568 0.934955835
vn 0.375112921 0.155376896 0.913864493
vn 0.431565404 0.119443797 0.894138992
vn 0.471078515 0.0808242783 0.878380537
vn 0.494357318 0.0407311879 0.868303955
vn 0.502035558 -1.81795645e-08 0.864846945
vn -0.463045657 0 0.88633436
vn -0.455177605 0.0604972169 0.888343096
vn -0.431565374 0.119443811 0.894138992
vn -0.392260283 0.175129637 0.903029025
vn -0.337592691 0.225572288 0.913864493
vn -0.268505782 0.268505931 0.925099611
vn -0.186920509 0.301526427 0.934955835
vn -0.0959806219 0.322414607 0.941719949
vn 2.15601972e-08 0.329572439 0.944130301
vn 0.0959806517 0.322414577 0.941719949
vn 0.186920568 0.301526427 0.934955835
vn 0.268505871 0.268505871 0.925099611
vn 0.337592691 0.225572288 0.913864493
vn 0.392260283 0.175129622 0.903029025
vn 0.431565434 0.119443759 0.894138992
vn 0.455177665 0.0604972169 0.888343096
vn 0.463045657 -2.70483742e-08 0.88633436
vn -0.4060193 0 0.913864493
vn -0.398217738 0.0792104304 0.913864493
vn -0.375112921 0.155376881 0.913864493
vn -0.337592721 0.225572243 0.913864493
vn -0.287099004 0.287099004 0.913864493
vn -0.225572214 0.337592721 0.913864493
vn -0.155376852 0.375112921 0.913864493
vn -0.0792104006 0.398217797 0.913864493
vn 1.77476664e-08 0.4060193 0.913864493
vn 0.0792104304 0.398217738 0.913864493
vn 0.155376881 0.375112921 0.913864493
vn 0.225572288 0.337592691 0.913864493
vn 0.287099004 0.287099004 0.913864493
vn 0.337592721 0.225572214 0.913864493
vn 0.375112951 0.155376792 0.913864493
vn 0.398217797 0.0792104304 0.913864493
vn 0.4060193 -3.54953329e-08 0.913864493
vn -0.32957235 0 0.944130421
vn -0.322414517 0.0959806815 0.941720068
vn -0.301526368 0.186920583 0.934955955
vn -0.268505812 0.268505841 0.925099611
vn -0.225572228 0.337592721 0.913864493
vn -0.175129563 0.392260343 0.903029025
vn -0.119443759 0.431565434 0.894138992
vn -0.0604971685 0.455177665 0.888343036
vn 1.35241818e-08 0.463045716 0.88633436
vn 0.0604971908 0.455177605 0.888343036
vn 0.119443797 0.431565434 0.894138992
vn 0.175129622 0.392260283 0.903029025
vn 0.225572228 0.337592721 0.913864493
vn 0.268505812 0.268505841 0.925099611
vn 0.301526397 0.186920494 0.934955955
vn 0.322414547 0.0959806815 0.941720068
vn 0.32957235 -4.3120405e-08 0.944130421
vn -0.233783886 0 0.972288668
vn -0.228148878 0.109561004 0.967442214
vn -0.211931705 0.211931825 0.954028249
vn -0.186920494 0.301526427 0.934955955
vn -0.155376807 0.375112951 0.913864493
vn -0.119443722 0.431565464 0.894138992
vn -0.0808242559 0.471078515 0.878380537
vn -0.0407311507 0.494357377 0.868303955
vn 9.08977604e-09 0.502035618 0.864846945
vn 0.0407311656 0.494357318 0.868303955
vn 0.0808242783 0.471078515 0.878380537
vn 0.119443759 0.431565434 0.894138992
vn 0.155376807 0.375112951 0.913864493
vn 0.186920494 0.301526397 0.934955955
vn 0.21193172 0.21193172 0.954028249
vn 0.228148893 0.109560996 0.967442214
vn 0.233783886 -4.93418106e-08 0.972288668
vn -0.121668197 0 0.992570817
vn -0.118522644 0.118522659 0.985852242
vn -0.109560989 0.228148982 0.967442214
vn -0.095980674 0.322414547 0.941720068
vn -0.0792104304 0.398217767 0.913864493
vn -0.0604971908 0.455177605 0.888343036
vn -0.0407311805 0.494357318 0.868303955
vn -0.0204618704 0.517156541 0.855646193
vn 4.56150939e-09 0.524628937 0.851330936
vn 0.0204618797 0.517156541 0.855646193
vn 0.0407311879 0.494357318 0.868303955
vn 0.0604972169 0.455177605 0.888343096
vn 0.0792104304 0.398217767 0.913864493
vn 0.095980674 0.322414517 0.941720068
vn 0.109560996 0.228148878 0.967442214
vn 0.118522659 0.118522651 0.985852242
vn 0.121668197 -5.34736628e-08 0.992570817
vn 5.49293517e-08 0 1
vn 5.34736593e-08 0.121668205 0.992570817
vn 4.93418e-08 0.233783975 0.972288549
vn 4.3120405e-08 0.32957238 0.944130421
vn 3.54953329e-08 0.4060193 0.913864493
vn 2.70483635e-08 0.463045716 0.88633436
vn 1.8179561e-08 0.502035558 0.864846945
vn 9.12301523e-09 0.524628937 0.851330936
vn -2.03303832e-15 0.532018065 0.846733034
vn -9.12302056e-09 0.524628937 0.851330996
vn -1.81795645e-08 0.502035558 0.864846945
vn -2.70483742e-08 0.463045657 0.88633436
vn -3.54953329e-08 0.4060193 0.913864493
vn -4.3120405e-08 0.32957235 0.944130421
vn -4.93418106e-08 0.233783886 0.972288668
vn -5.34736664e-08 0.121668197 0.992570817
vn -5.49293517e-08 -5.49293517e-08 1
f 1/1/1 2/2/2 19/19/19
f 1/1/1 19/19/19 18/18/18
f 2/2/2 3/3/3 20/20/20
f 2/2/2 20/20/20 19/19/19
f 3/3/3 4/4/4 21/21/21
f 3/3/3 21/21/21 20/20/20
f 4/4/4 5/5/5 22/22/22
f 4/4/4 22/22/22 21/21/21
f 5/5/5 6/6/6 23/23/23
f 5/5/5 23/23/23 22/22/22
f 6/6/6 7/7/7 24/24/24
f 6/6/6 24/24/24 23/23/23
f 7/7/7 8/8/8 25/25/25
f 7/7/7 25/25/25 24/24/24
f 8/8/8 9/9/9 26/26/26
f 8/8/8 26/26/26 25/25/25
f 9/9/9 10/10/10 27/27/27
f 9/9/9 27/27/27 26/26/26
f 10/10/10 11/11/11 28/28/28
f 10/10/10 28/28/28 27/27/27
f 11/11/11 12/12/12 29/29/29
f 11/11/11 29/29/29 28/28/28
f 12/12/12 13/13/13 30/30/30
f 12/12/12 30/30/30 29/29/29
f 13/13/13 14/14/14 31/31/31
f 13/13/13 31/31/31 30/30/30
f 14/14/14 15/15/15 32/32/32
f 14/14/14 32/32/32 31/31/31
f 15/15/15 16/16/16 33/33/33
f 15/15/15 33/33/33 32/32/32
f 16/16/16 17/17/17 34/34/34
f 16/16/16 34/34/34 33/33/33
f 18/18/18 19/19/19 36/36/36
f 18/18/18 36/36/36 35/35/35
f 19/19/19 20/20/20 37/37/37
f 19/19/19 37/37/37 36/36/36
f 20/20/20 21/21/21 38/38/38
f 20/20/20 38/38/38 37/37/37
f 21/21/21 22/22/22 39/39/39
f 21/21/21 39/39/39 38/38/38
f 22/22/22 23/23/23 40/40/40
f 22/22/22 40/40/40 39/39/39
f 23/23/23 24/24/24 41/41/41
f 23/23/23 41/41/41 40/40/40
f 24/24/24 25/25/25 42/42/42
f 24/24/24 42/42/42 41/41/41
f 25/25/25 26/26/26 43/43/43
f 25/25/25 43/43/43 42/42/42
f 26/26/26 27/27/27 44/44/44
f 26/26/26 44/44/44 43/43/43
f 27/27/27 28/28/28 45/45/45
f 27/27/27 45/45/45 44/44/44
f 28/28/28 29/29/29 46/46/46
f 28/28/28 46/46/46 45/45/45
f 29/29/29 30/30/30 47/47/47
f 29/29/29 47/47/47 46/46/46
f 30/30/30 31/31/31 48/48/48
f 30/30/30 48/48/48 47/47/47
f 31/31/31 32/32/32 49/49/49
f 31/31/31 49/49/49 48/48/48
f 32/32/32 33/33/33 50/50/50
f 32/32/32 50/50/50 49/49/49
f 33/33/33 34/34/34 51/51/51
f 33/33/33 51/51/51 50/50/50
f 35/35/35 36/36/36 53/53/53
f 35/35/35 53/53/53 52/52/52
f 36/36/36 37/37/37 54/54/54
f 36/36/36 54/54/54 53/53/53
f 37/37/37 38/38/38 55/55/55
f 37/37/37 55/55/55 54/54/54
f 38/38/38 39/39/39 56/56/56
f 38/38/38 56/56/56 55/55/55
f 39/39/39 40/40/40 57/57/57
f 39/39/39 57/57/57 56/56/56
f 40/40/40 41/41/41 58/58/58
f 40/40/40 58/58/58 57/57/57
f 41/41/41 42/42/42 59/59/59
f 41/41/41 59/59/59 58/58/58
f 42/42/42 43/43/43 60/60/60
f 42/42/42 60/60/60 59/59/59
f 43/43/43 44/44/44 61/61/61
f 43/43/43 61/61/61 60/60/60
f 44/44/44 45/45/45 62/62/62
f 44/44/44 62/62/62 61/61/61
f 45/45/45 46/46/46 63/63/63
f 45/45/45 63/63/63 62/62/62
f 46/46/46 47/47/47 64/64/64
f 46/46/46 64/64/64 63/63/63
f 47/47/47 48/48/48 65/65/65
f 47/47/47 65/65/65 64/64/64
f 48/48/48 49/49/49 66/66/66
f 48/48/48 66/66/66 65/65/65
f 49/49/49 50/50/50 67/67/67
f 49/49/49 67/67/67 66/66/66
f 50/50/50 51/51/51 68/68/68
f 50/50/50 68/68/68 67/67/67
f 52/52/52 53/53/53 70/70/70
f 52/52/52 70/70/70 69/69/69
f 53/53/53 54/54/54 71/71/71
f 53/53/53 71/71/71 70/70/70
f 54/54/54 55/55/55 72/72/72
f 54/54/54 72/72/72 71/71/71
f 55/55/55 56/56/56 73/73/73
f 55/55/55 73/73/73 72/72/72
f 56/56/56 57/57/57 74/74/74
f 56/56/56 74/74/74 73/73/73
f 57/57/57 58/58/58 75/75/75
f 57/57/57 75/75/75 74/74/74
f 58/58/58 59/59/59 76/76/76
f 58/58/58 76/76/76 75/75/75
f 59/59/59 60/60/60 77/77/77
f 59/59/59 77/77/77 76/76/76
f 60/60/60 61/61/61 78/78/78
f 60/60/60 78/78/78 77/77/77
f 61/61/61 62/62/62 79/79/79
f 61/61/61 79/79/79 78/78/78
f 62/62/62 63/63/63 80/80/80
f 62/62/62 80/80/80 79/79/79
f 63/63/63 64/64/64 81/81/81
f 63/63/63 81/81/81 80/80/80
f 64/64/64 65/65/65 82/82/82
f 64/64/64 82/82/82 81/81/81
f 65/65/65 66/66/66 83/83/83
f 65/65/65 83/83/83 82/82/82
f 66/66/66 67/67/67 84/84/84
f 66/66/66 84/84/84 83/83/83
f 67/67/67 68/68/68 85/85/85
f 67/67/67 85/85/85 84/84/84
f 69/69/69 70/70/70 87/87/87
f 69/69/69 87/87/87 86/86/86
f 70/70/70 71/71/71 88/88/88
f 70/70/70 88/88/88 87/87/87
f 71/71/71 72/72/72 89/89/89
f 71/71/71 89/89/89 88/88/88
f 72/72/72 73/73/73 90/90/90
f 72/72/72 90/90/90 89/89/89
f 73/73/73 74/74/74 91/91/91
f 73/73/73 91/91/91 90/90/90
f 74/74/74 75/75/75 92/92/92
f 74/74/74 92/92/92 91/91/91
f 75/75/75 76/76/76 93/93/93
f 75/75/75 93/93/93 92/92/92
f 76/76/76 77/77/77 94/94/94
f 76/76/76 94/94/94 93/93/93
f 77/77/77 78/78/78 95/95/95
f 77/77/77 95/95/95 94/94/94
f 78/78/78 79/79/79 96/96/96
f 78/78/78 96/96/96 95/95/95
f 79/79/79 80/80/80 97/97/97
f 79/79/79 97/97/97 96/96/96
f 80/80/80 81/81/81 98/98/98
f 80/80/80 98/98/98 97/97/97
f 81/81/81 82/82/82 99/99/99
f 81/81/81 99/99/99 98/98/98
f 82/82/82 83/83/83 100/100/100
f 82/82/82 100/100/100 99/99/99
f 83/83/83 84/84/84 101/101/101
f 83/83/83 101/101/101 100/100/100
f 84/84/84 85/85/85 102/102/102
f 84/84/84 102/102/102 101/101/101
f 86/86/86 87/87/87 104/104/104
f 86/86/86 104/104/104 103/103/103
f 87/87/87 88/88/88 105/105/105
f 87/87/87 105/105/105 104/104/104
f 88/88/88 89/89/89 106/106/106
f 88/88/88 106/106/106 105/105/105
f 89/89/89 90/90/90 107/107/107
f 89/89/89 107/107/107 106/106/106
f 90/90/90 91/91/91 108/108/108
f 90/90/90 108/108/108 107/107/107
f 91/91/91 92/92/92 109/109/109
f 91/91/91 109/109/109 108/108/108
f 92/92/92 93/93/93 110/110/110
f 92/92/92 110/110/110 109/109/109
f 93/93/93 94/94/94 111/111/111
f 93/93/93 111/111/111 110/110/110
f 94/94/94 95/95/95 112/112/112
f 94/94/94 112/112/112 111/111/111
f 95/95/95 96/96/96 113/113/113
f 95/95/95 113/113/113 112/112/112
f 96/96/96 97/97/97 114/114/114
f 96/96/96 114/114/114 113/113/113
f 97/97/97 98/98/98 115/115/115
f 97/97/97 115/115/115 114/114/114
f 98/98/98 99/99/99 116/116/116
f 98/98/98 116/116/116 115/115/115
f 99/99/99 100/100/100 117/117/117
f 99/99/99 117/117/117 116/116/116
f 100/100/100 101/101/101 118/118/118
f 100/100/100 118/118/118 117/117/117
f 101/101/101 102/102/102 119/119/119
f 101/101/101 119/119/119 118/118/118
f 103/103/103 104/104/104 121/121/121
f 103/103/103 121/121/121 120/120/120
f 104/104/104 105/105/105 122/122/122
f 104/104/104 122/122/122 121/121/121
f 105/105/105 106/106/106 123/123/123
f 105/105/105 123/123/123 122/122/122
f 106/106/106 107/107/107 124/124/124
f 106/106/106 124/124/124 123/123/123
f 107/107/107 108/108/108 125/125/125
f 107/107/107 125/125/125 124/124/124
f 108/108/108 109/109/109 126/126/126
f 108/108/108 126/126/126 125/125/125
f 109/109/109 110/110/110 127/127/127
f 109/109/109 127/127/127 126/126/126
f 110/110/110 111/111/111 128/128/128
f 110/110/110 128/128/128 127/127/127
f 111/111/111 112/112/112 129/129/129
f 111/111/111 129/129/129 128/128/128
f 112/112/112 113/113/113 130/130/130
f 112/112/112 130/130/130 129/129/129
f 113/113/113 114/114/114 131/131/131
f 113/113/113 131/131/131 130/130/130
f 114/114/114 115/115/115 132/132/132
f 114/114/114 132/132/132 131/131/131
f 115/115/115 116/116/116 133/133/133
f 115/115/115 133/133/133 132/132/132
f 116/116/116 117/117/117 134/134/134
f 116/116/116 134/134/134 133/133/133
f 117/117/117 118/118/118 135/135/135
f 117/117/117 135/135/135 134/134/134
f 118/118/118 119/119/119 136/136/136
f 118/118/118 136/136/136 135/135/135
f 120/120/120 121/121/121 138/138/138
f 120/120/120 138/138/138 137/137/137
f 121/121/121 122/122/122 139/139/139
f 121/121/121 139/139/139 138/138/138
f 122/122/122 123/123/123 140/140/140
f 122/122/122 140/140/140 139/139/139
f 123/123/123 124/124/124 141/141/141
f 123/123/123 141/141/141 140/140/140
f 124/124/124 125/125/125 142/142/142
f 124/124/124 142/142/142 141/141/141
f 125/125/125 126/126/126 143/143/143
f 125/125/125 143/143/143 142/142/142
f 126/126/126 127/127/127 144/144/144
f 126/126/126 144/144/144 143/143/143
f 127/127/127 128/128/128 145/145/145
f 127/127/127 145/145/145 144/144/144
f 128/128/128 129/129/129 146/146/146
f 128/128/128 146/146/146 145/145/145
f 129/129/129 130/130/130 147/147/147
f 129/129/129 147/147/147 146/146/146
f 130/130/130 131/131/131 148/148/148
f 130/130/130 148/148/148 147/147/147
f 131/131/131 132/132/132 149/149/149
f 131/131/131 149/149/149 148/148/148
f 132/132/132 133/133/133 150/150/150
f 132/132/132 150/150/150 149/149/149
f 133/133/133 134/134/134 151/151/151
f 133/133/133 151/151/151 150/150/150
f 134/134/134 135/135/135 152/152/152
f 134/134/134 152/152/152 151/151/151
f 135/135/135 136/136/136 153/153/153
f 135/135/135 153/153/153 152/152/152
f 137/137/137 138/138/138 155/155/155
f 137/137/137 155/155/155 154/154/154
f 138/138/138 139/139/139 156/156/156
f 138/138/138 156/156/156 155/155/155
f 139/139/139 140/140/140 157/157/157
f 139/139/139 157/157/157 156/156/156
f 140/140/140 141/141/141 158/158/158
f 140/140/140 158/158/158 157/157/157
f 141/141/141 142/142/142 159/159/159
f 141/141/141 159/159/159 158/158/158
f 142/142/142 143/143/143 160/160/160
f 142/142/142 160/160/160 159/159/159
f 143/143/143 144/144/144 161/161/161
f 143/143/143 161/161/161 160/160/160
f 144/144/144 145/145/145 162/162/162
f 144/144/144 162/162/162 161/161/161
f 145/145/145 146/146/146 163/163/163
f 145/145/145 163/163/163 162/162/162
f 146/146/146 147/147/147 164/164/164
f 146/146/146 164/164/164 163/163/163
f 147/147/147 148/148/148 165/165/165
f 147/147/147 165/165/165 164/164/164
f 148/148/148 149/149/149 166/166/166
f 148/148/148 166/166/166 165/165/165
f 149/149/149 150/150/150 167/167/167
f 149/149/149 167/167/167 166/166/166
f 150/150/150 151/151/151 168/168/168
f 150/150/150 168/168/168 167/167/167
f 151/151/151 152/152/152 169/169/169
f 151/151/151 169/169/169 168/168/168
f 152/152/152 153/153/153 170/170/170
f 152/152/152 170/170/170 169/169/169
f 154/154/154 155/155/155 172/172/172
f 154/154/154 172/172/172 171/171/171
f 155/155/155 156/156/156 173/173/173
f 155/155/155 173/173/173 172/172/172
f 156/156/156 157/157/157 174/174/174
f 156/156/156 174/174/174 173/173/173
f 157/157/157 158/158/158 175/175/175
f 157/157/157 175/175/175 174/174/174
f 158/158/158 159/159/159 176/176/176
f 158/158/158 176/176/176 175/175/175
f 159/159/159 160/160/160 177/177/177
f 159/159/159 177/177/177 176/176/176
f 160/160/160 161/161/161 178/178/178
f 160/160/160 178/178/178 177/177/177
f 161/161/161 162/162/162 179/179/179
f 161/161/161 179/179/179 178/178/178
f 162/162/162 163/163/163 180/180/180
f 162/162/162 180/180/180 179/179/179
f 163/163/163 164/164/164 181/181/181
f 163/163/163 181/181/181 180/180/180
f 164/164/164 165/165/165 182/182/182
f 164/164/164 182/182/182 181/181/181
f 165/165/165 166/166/166 183/183/183
f 165/165/165 183/183/183 182/182/182
f 166/166/166 167/167/167 184/184/184
f 166/166/166 184/184/184 183/183/183
f 167/167/167 168/168/168 185/185/185
f 167/167/167 185/185/185 184/184/184
f 168/168/168 169/169/169 186/186/186
f 168/168/168 186/186/186 185/185/185
f 169/169/169 170/170/170 187/187/187
f 169/169/169 187/187/187 186/186/186
f 171/171/171 172/172/172 189/189/189
f 171/171/171 189/189/189 188/188/188
f 172/172/172 173/173/173 190/190/190
f 172/172/172 190/190/190 189/189/189
f 173/173/173 174/174/174 191/191/191
f 173/173/173 191/191/191 190/190/190
f 174/174/174 175/175/175 192/192/192
f 174/174/174 192/192/192 191/191/191
f 175/175/175 176/176/176 193/193/193
f 175/175/175 193/193/193 192/192/192
f 176/176/176 177/177/177 194/194/194
f 176/176/176 194/194/194 193/193/193
f 177/177/177 178/178/178 195/195/195
f 177/177/177 195/195/195 194/194/194
f 178/178/178 179/179/179 196/196/196
f 178/178/178 196/196/196 195/195/195
f 179/179/179 180/180/180 197/197/197
f 179/179/179 197/197/197 196/196/196
f 180/180/180 181/181/181 198/198/198
f 180/180/180 198/198/198 197/197/197
f 181/181/181 182/182/182 199/199/199
f 181/181/181 199/199/199 198/198/198
f 182/182/182 183/183/183 200/200/200
f 182/182/182 200/200/200 199/199/199
f 183/183/183 184/184/184 201/201/201
f 183/183/183 201/201/201 200/200/200
f 184/184/184 185/185/185 202/202/202
f 184/184/184 202/202/202 201/201/201
f 185/185/185 186/186/186 203/203/203
f 185/185/185 203/203/203 202/202/202
f 186/186/186 187/187/187 204/204/204
f 186/186/186 204/204/204 203/203/203
f 188/188/188 189/189/189 206/206/206
f 188/188/188 206/206/206 205/205/205
f 189/189/189 190/190/190 207/207/207
f 189/189/189 207/207/207 206/206/206
f 190/190/190 191/191/191 208/208/208
f 190/190/190 208/208/208 207/207/207
f 191/191/191 192/192/192 209/209/209
f 191/191/191 209/209/209 208/208/208
f 192/192/192 193/193/193 210/210/210
f 192/192/192 210/210/210 209/209/209
f 193/193/193 194/194/194 211/211/211
f 193/193/193 211/211/211 210/210/210
f 194/194/194 195/195/195 212/212/212
f 194/194/194 212/212/212 211/211/211
f 195/195/195 196/196/196 213/213/213
f 195/195/195 213/213/213 212/212/212
f 196/196/196 197/197/197 214/214/214
f 196/196/196 214/214/214 213/213/213
f 197/197/197 198/198/198 215/215/215
f 197/197/197 215/215/215 214/214/214
f 198/198/198 199/199/199 216/216/216
f 198/198/198 216/216/216 215/215/215
f 199/199/199 200/200/200 217/217/217
f 199/199/199 217/217/217 216/216/216
f 200/200/200 201/201/201 218/218/218
f 200/200/200 218/218/218 217/217/217
f 201/201/201 202/202/202 219/219/219
f 201/201/201 219/219/219 218/218/218
f 202/202/202 203/203/203 220/220/220
f 202/202/202 220/220/220 219/219/219
f 203/203/203 204/204/204 221/221/221
f 203/203/203 221/221/221 220/220/220
f 205/205/205 206/206/206 223/223/223
f 205/205/205 223/223/223 222/222/222
f 206/206/206 207/207/207 224/224/224
f 206/206/206 224/224/224 223/223/223
f 207/207/207 208/208/208 225/225/225
f 207/207/207 225/225/225 224/224/224
f 208/208/208 209/209/209 226/226/226
f 208/208/208 226/226/226 225/225/225
f 209/209/209 210/210/210 227/227/227
f 209/209/209 227/227/227 226/226/226
f 210/210/210 211/211/211 228/228/228
f 210/210/210 228/228/228 227/227/227
f 211/211/211 212/212/212 229/229/229
f 211/211/211 229/229/229 228/228/228
f 212/212/212 213/213/213 230/230/230
f 212/212/212 230/230/230 229/229/229
f 213/213/213 214/214/214 231/231/231
f 213/213/213 231/231/231 230/230/230
f 214/214/214 215/215/215 232/232/232
f 214/214/214 232/232/232 231/231/231
f 215/215/215 216/216/216 233/233/233
f 215/215/215 233/233/233 232/232/232
f 216/216/216 217/217/217 234/234/234
f 216/216/216 234/234/234 233/233/233
f 217/217/217 218/218/218 235/235/235
f 217/217/217 235/235/235 234/234/234
f 218/218/218 219/219/219 236/236/236
f 218/218/218 236/236/236 235/235/235
f 219/219/219 220/220/220 237/237/237
f 219/219/219 237/237/237 236/236/236
f 220/220/220 221/221/221 238/238/238
f 220/220/220 238/238/238 237/237/237
f 222/222/222 223/223/223 240/240/240
f 222/222/222 240/240/240 239/239/239
f 223/223/223 224/224/224 241/241/241
f 223/223/223 241/241/241 240/240/240
f 224/224/224 225/225/225 242/242/242
f 224/224/224 242/242/242 241/241/241
f 225/225/225 226/226/226 243/243/243
f 225/225/225 243/243/243 242/242/242
f 226/226/226 227/227/227 244/244/244
f 226/226/226 244/244/244 243/243/243
f 227/227/227 228/228/228 245/245/245
f 227/227/227 245/245/245 244/244/244
f 228/228/228 229/229/229 246/246/246
f 228/228/228 246/246/246 245/245/245
f 229/229/229 230/230/230 247/247/247
f 229/229/229 247/247/247 246/246/246
f 230/230/230 231/231/231 248/248/248
f 230/230/230 248/248/248 247/247/247
f 231/231/231 232/232/232 249/249/249
f 231/231/231 249/249/249 248/248/248
f 232/232/232 233/233/233 250/250/250
f 232/232/232 250/250/250 249/249/249
f 233/233/233 234/234/234 251/251/251
f 233/233/233 251/251/251 250/250/250
f 234/234/234 235/235/235 252/252/252
f 234/234/234 252/252/252 251/251/251
f 235/235/235 236/236/236 253/253/253
f 235/235/235 253/253/253 252/252/252
f 236/236/236 237/237/237 254/254/254
f 236/236/236 254/254/254 253/253/253
f 237/237/237 238/238/238 255/255/255
f 237/237/237 255/255/255 254/254/254
f 239/239/239 240/240/240 257/257/257
f 239/239/239 257/257/257 256/256/256
f 240/240/240 241/241/241 258/258/258
f 240/240/240 258/258/258 257/257/257
f 241/241/241 242/242/242 259/259/259
f 241/241/241 259/259/259 258/258/258
f 242/242/242 243/243/243 260/260/260
f 242/242/242 260/260/260 259/259/259
f 243/243/243 244/244/244 261/261/261
f 243/243/243 261/261/261 260/260/260
f 244/244/244 245/245/245 262/262/262
f 244/244/244 262/262/262 261/261/261
f 245/245/245 246/246/246 263/263/263
f 245/245/245 263/263/263 262/262/262
f 246/246/246 247/247/247 264/264/264
f 246/246/246 264/264/264 263/263/263
f 247/247/247 248/248/248 265/265/265
f 247/247/247 265/265/265 264/264/264
f 248/248/248 249/249/249 266/266/266
f 248/248/248 266/266/266 265/265/265
f 249/249/249 250/250/250 267/267/267
f 249/249/249 267/267/267 266/266/266
f 250/250/250 251/251/251 268/268/268
f 250/250/250 268/268/268 267/267/267
f 251/251/251 252/252/252 269/269/269
f 251/251/251 269/269/269 268/268/268
f 252/252/252 253/253/253 270/270/270
f 252/252/252 270/270/270 269/269/269
f 253/253/253 254/254/254 271/271/271
f 253/253/253 271/271/271 270/270/270
f 254/254/254 255/255/255 272/272/272
f 254/254/254 272/272/272 271/271/271
f 256/256/256 257/257/257 274/274/274
f 256/256/256 274/274/274 273/273/273
f 257/257/257 258/258/258 275/275/275
f 257/257/257 275/275/275 274/274/274
f 258/258/258 259/259/259 276/276/276
f 258/258/258 276/276/276 275/275/275
f 259/259/259 260/260/260 277/277/277
f 259/259/259 277/277/277 276/276/276
f 260/260/260 261/261/261 278/278/278
f 260/260/260 278/278/278 277/277/277
f 261/261/261 262/262/262 279/279/279
f 261/261/261 279/279/279 278/278/278
f 262/262/262 263/263/263 280/280/280
f 262/262/262 280/280/280 279/279/279
f 263/263/263 264/264/264 281/281/281
f 263/263/263 281/281/281 280/280/280
f 264/264/264 265/265/265 282/282/282
f 264/264/264 282/282/282 281/281/281
f 265/265/265 266/266/266 283/283/283
f 265/265/265 283/283/283 282/282/282
f 266/266/266 267/267/267 284/284/284
f 266/266/266 284/284/284 283/283/283
f 267/267/267 268/268/268 285/285/285
f 267/267/267 285/285/285 284/284/284
f 268/268/268 269/269/269 286/286/286
f 268/268/268 286/286/286 285/285/285
f 269/269/269 270/270/270 287/287/287
f 269/269/269 287/287/287 286/286/286
f 270/270/270 271/271/271 288/288/288
f 270/270/270 288/288/288 287/287/287
f 271/271/271 272/272/272 289/289/289
f 271/271/271 289/289/289 288/288/288
