v 0 0 0
v 0.0625 0 0
v 0.125 0 0
v 0.1875 0 0
v 0.25 0 0
v 0.3125 0 0
v 0.375 0 0
v 0.4375 0 0
v 0.5 0 0
v 0.5625 0 0
v 0.625 0 0
v 0.6875 0 0
v 0.75 0 0
v 0.8125 0 0
v 0.875 0 0
v 0.9375 0 0
v 1 0 -0
v 0 0.0625 0
v 0.0625 0.0625 0.00761204679
v 0.125 0.0625 0.0149315679
v 0.1875 0.0625 0.0216772761
v 0.25 0.0625 0.0275899395
v 0.3125 0.0625 0.0324423388
v 0.375 0.0625 0.0360479914
v 0.4375 0.0625 0.0382683463
v 0.5 0.0625 0.0390180647
v 0.5625 0.0625 0.0382683426
v 0.625 0.0625 0.0360479914
v 0.6875 0.0625 0.0324423313
v 0.75 0.0625 0.0275899395
v 0.8125 0.0625 0.0216772743
v 0.875 0.0625 0.0149315605
v 0.9375 0.0625 0.00761204632
v 1 0.0625 -3.41106765e-09
v 0 0.125 0
v 0.0625 0.125 0.0149315679
v 0.125 0.125 0.0292893257
v 0.1875 0.125 0.0425215065
v 0.25 0.125 0.0541196167
v 0.3125 0.125 0.0636379346
v 0.375 0.125 0.0707106814
v 0.4375 0.125 0.0750660673
v 0.5 0.125 0.0765366927
v 0.5625 0.125 0.0750660598
v 0.625 0.125 0.0707106814
v 0.6875 0.125 0.0636379272
v 0.75 0.125 0.0541196167
v 0.8125 0.125 0.0425215065
v 0.875 0.125 0.0292893127
v 0.9375 0.125 0.0149315661
v 1 0.125 -6.69105038e-09
v 0 0.1875 0
v 0.0625 0.1875 0.0216772761
v 0.125 0.1875 0.0425215103
v 0.1875 0.1875 0.0617316589
v 0.25 0.1875 0.0785695016
v 0.3125 0.1875 0.0923879594
v 0.375 0.1875 0.102655992
v 0.4375 0.1875 0.108979031
v 0.5 0.1875 0.111114047
v 0.5625 0.1875 0.108979024
v 0.625 0.1875 0.102655992
v 0.6875 0.1875 0.0923879445
v 0.75 0.1875 0.0785695016
v 0.8125 0.1875 0.0617316552
v 0.875 0.1875 0.0425214879
v 0.9375 0.1875 0.0216772743
v 1 0.1875 -9.71389902e-09
v 0 0.25 0
v 0.0625 0.25 0.0275899377
v 0.125 0.25 0.054119613
v 0.1875 0.25 0.0785694942
v 0.25 0.25 0.100000001
v 0.3125 0.25 0.117587566
v 0.375 0.25 0.130656287
v 0.4375 0.25 0.138703987
v 0.5 0.25 0.141421363
v 0.5625 0.25 0.138703987
v 0.625 0.25 0.130656287
v 0.6875 0.25 0.117587544
v 0.75 0.25 0.100000001
v 0.8125 0.25 0.0785694867
v 0.875 0.25 0.0541195869
v 0.9375 0.25 0.0275899358
v 1 0.25 -1.2363448e-08
v 0 0.3125 0
v 0.0625 0.3125 0.032442335
v 0.125 0.3125 0.0636379346
v 0.1875 0.3125 0.0923879594
v 0.25 0.3125 0.117587574
v 0.3125 0.3125 0.138268366
v 0.375 0.3125 0.153635561
v 0.4375 0.3125 0.163098648
v 0.5 0.3125 0.166293934
v 0.5625 0.3125 0.163098633
v 0.625 0.3125 0.153635561
v 0.6875 0.3125 0.138268337
v 0.75 0.3125 0.117587574
v 0.8125 0.3125 0.0923879519
v 0.875 0.3125 0.0636379048
v 0.9375 0.3125 0.032442335
v 1 0.3125 -1.45378776e-08
v 0 0.375 0
v 0.0625 0.375 0.0360479914
v 0.125 0.375 0.0707106814
v 0.1875 0.375 0.102655992
v 0.25 0.375 0.130656302
v 0.3125 0.375 0.153635561
v 0.375 0.375 0.170710668
v 0.4375 0.375 0.181225494
v 0.5 0.375 0.184775904
v 0.5625 0.375 0.181225479
v 0.625 0.375 0.170710668
v 0.6875 0.375 0.153635532
v 0.75 0.375 0.130656302
v 0.8125 0.375 0.102655984
v 0.875 0.375 0.0707106441
v 0.9375 0.375 0.0360479876
v 1 0.375 -1.61536224e-08
v 0 0.4375 0
v 0.0625 0.4375 0.0382683463
v 0.125 0.4375 0.0750660673
v 0.1875 0.4375 0.108979024
v 0.25 0.4375 0.138704002
v 0.3125 0.4375 0.163098648
v 0.375 0.4375 0.181225494
v 0.4375 0.4375 0.192387968
v 0.5 0.4375 0.196157068
v 0.5625 0.4375 0.192387953
v 0.625 0.4375 0.181225494
v 0.6875 0.4375 0.163098618
v 0.75 0.4375 0.138704002
v 0.8125 0.4375 0.108979017
v 0.875 0.4375 0.07506603
v 0.9375 0.4375 0.0382683426
v 1 0.4375 -1.71485954e-08
v 0 0.5 0
v 0.0625 0.5 0.0390180647
v 0.125 0.5 0.0765366927
v 0.1875 0.5 0.111114047
v 0.25 0.5 0.141421363
v 0.3125 0.5 0.166293934
v 0.375 0.5 0.184775904
v 0.4375 0.5 0.196157068
v 0.5 0.5 0.200000003
v 0.5625 0.5 0.196157053
v 0.625 0.5 0.184775904
v 0.6875 0.5 0.166293904
v 0.75 0.5 0.141421363
v 0.8125 0.5 0.11111404
v 0.875 0.5 0.0765366554
v 0.9375 0.5 0.039018061
v 1 0.5 -1.7484556e-08
v 0 0.5625 0
v 0.0625 0.5625 0.0382683426
v 0.125 0.5625 0.0750660598
v 0.1875 0.5625 0.108979017
v 0.25 0.5625 0.138703987
v 0.3125 0.5625 0.163098633
v 0.375 0.5625 0.181225479
v 0.4375 0.5625 0.192387953
v 0.5 0.5625 0.196157053
v 0.5625 0.5625 0.192387938
v 0.625 0.5625 0.181225479
v 0.6875 0.5625 0.163098603
v 0.75 0.5625 0.138703987
v 0.8125 0.5625 0.108979009
v 0.875 0.5625 0.0750660226
v 0.9375 0.5625 0.0382683389
v 1 0.5625 -1.71485954e-08
v 0 0.625 0
v 0.0625 0.625 0.0360479914
v 0.125 0.625 0.0707106814
v 0.1875 0.625 0.102655992
v 0.25 0.625 0.130656302
v 0.3125 0.625 0.153635561
v 0.375 0.625 0.170710668
v 0.4375 0.625 0.181225494
v 0.5 0.625 0.184775904
v 0.5625 0.625 0.181225479
v 0.625 0.625 0.170710668
v 0.6875 0.625 0.153635532
v 0.75 0.625 0.130656302
v 0.8125 0.625 0.102655984
v 0.875 0.625 0.0707106441
v 0.9375 0.625 0.0360479876
v 1 0.625 -1.61536224e-08
v 0 0.6875 0
v 0.0625 0.6875 0.0324423313
v 0.125 0.6875 0.0636379272
v 0.1875 0.6875 0.0923879445
v 0.25 0.6875 0.117587551
v 0.3125 0.6875 0.138268337
v 0.375 0.6875 0.153635532
v 0.4375 0.6875 0.163098633
v 0.5 0.6875 0.166293904
v 0.5625 0.6875 0.163098618
v 0.625 0.6875 0.153635532
v 0.6875 0.6875 0.138268322
v 0.75 0.6875 0.117587551
v 0.8125 0.6875 0.092387937
v 0.875 0.6875 0.0636378974
v 0.9375 0.6875 0.0324423276
v 1 0.6875 -1.45378758e-08
v 0 0.75 0
v 0.0625 0.75 0.0275899377
v 0.125 0.75 0.054119613
v 0.1875 0.75 0.0785694942
v 0.25 0.75 0.100000001
v 0.3125 0.75 0.117587566
v 0.375 0.75 0.130656287
v 0.4375 0.75 0.138703987
v 0.5 0.75 0.141421363
v 0.5625 0.75 0.138703987
v 0.625 0.75 0.130656287
v 0.6875 0.75 0.117587544
v 0.75 0.75 0.100000001
v 0.8125 0.75 0.0785694867
v 0.875 0.75 0.0541195869
v 0.9375 0.75 0.0275899358
v 1 0.75 -1.2363448e-08
v 0 0.8125 0
v 0.0625 0.8125 0.0216772743
v 0.125 0.8125 0.0425215028
v 0.1875 0.8125 0.0617316514
v 0.25 0.8125 0.0785694942
v 0.3125 0.8125 0.0923879519
v 0.375 0.8125 0.102655984
v 0.4375 0.8125 0.108979017
v 0.5 0.8125 0.11111404
v 0.5625 0.8125 0.108979009
v 0.625 0.8125 0.102655984
v 0.6875 0.8125 0.092387937
v 0.75 0.8125 0.0785694942
v 0.8125 0.8125 0.0617316477
v 0.875 0.8125 0.0425214842
v 0.9375 0.8125 0.0216772705
v 1 0.8125 -9.71389813e-09
v 0 0.875 0
v 0.0625 0.875 0.0149315605
v 0.125 0.875 0.0292893127
v 0.1875 0.875 0.0425214879
v 0.25 0.875 0.0541195907
v 0.3125 0.875 0.0636379048
v 0.375 0.875 0.0707106516
v 0.4375 0.875 0.07506603
v 0.5 0.875 0.0765366554
v 0.5625 0.875 0.0750660226
v 0.625 0.875 0.0707106516
v 0.6875 0.875 0.0636378974
v 0.75 0.875 0.0541195907
v 0.8125 0.875 0.0425214842
v 0.875 0.875 0.0292892978
v 0.9375 0.875 0.0149315596
v 1 0.875 -6.69104727e-09
v 0 0.9375 0
v 0.0625 0.9375 0.00761204632
v 0.125 0.9375 0.014931567
v 0.1875 0.9375 0.0216772743
v 0.25 0.9375 0.0275899377
v 0.3125 0.9375 0.032442335
v 0.375 0.9375 0.0360479876
v 0.4375 0.9375 0.0382683426
v 0.5 0.9375 0.039018061
v 0.5625 0.9375 0.0382683389
v 0.625 0.9375 0.0360479876
v 0.6875 0.9375 0.0324423276
v 0.75 0.9375 0.0275899377
v 0.8125 0.9375 0.0216772724
v 0.875 0.9375 0.0149315596
v 0.9375 0.9375 0.00761204539
v 1 0.9375 -3.41106743e-09
v 0 1 -0
v 0.0625 1 -3.41106765e-09
v 0.125 1 -6.69105038e-09
v 0.1875 1 -9.71389813e-09
v 0.25 1 -1.2363448e-08
v 0.3125 1 -1.45378776e-08
v 0.375 1 -1.61536224e-08
v 0.4375 1 -1.71485954e-08
v 0.5 1 -1.7484556e-08
v 0.5625 1 -1.71485937e-08
v 0.625 1 -1.61536224e-08
v 0.6875 1 -1.45378749e-08
v 0.75 1 -1.2363448e-08
v 0.8125 1 -9.71389813e-09
v 0.875 1 -6.69104683e-09
v 0.9375 1 -3.41106721e-09
v 1 1 1.52854846e-15
vt 0 0
vt 0.0625 0
vt 0.125 0
vt 0.1875 0
vt 0.25 0
vt 0.3125 0
vt 0.375 0
vt 0.4375 0
vt 0.5 0
vt 0.5625 0
vt 0.625 0
vt 0.6875 0
vt 0.75 0
vt 0.8125 0
vt 0.875 0
vt 0.9375 0
vt 1 0
vt 0 0.0625
vt 0.0625 0.0625
vt 0.125 0.0625
vt 0.1875 0.0625
vt 0.25 0.0625
vt 0.3125 0.0625
vt 0.375 0.0625
vt 0.4375 0.0625
vt 0.5 0.0625
vt 0.5625 0.0625
vt 0.625 0.0625
vt 0.6875 0.0625
vt 0.75 0.0625
vt 0.8125 0.0625
vt 0.875 0.0625
vt 0.9375 0.0625
vt 1 0.0625
vt 0 0.125
vt 0.0625 0.125
vt 0.125 0.125
vt 0.1875 0.125
vt 0.25 0.125
vt 0.3125 0.125
vt 0.375 0.125
vt 0.4375 0.125
vt 0.5 0.125
vt 0.5625 0.125
vt 0.625 0.125
vt 0.6875 0.125
vt 0.75 0.125
vt 0.8125 0.125
vt 0.875 0.125
vt 0.9375 0.125
vt 1 0.125
vt 0 0.1875
vt 0.0625 0.1875
vt 0.125 0.1875
vt 0.1875 0.1875
vt 0.25 0.1875
vt 0.3125 0.1875
vt 0.375 0.1875
vt 0.4375 0.1875
vt 0.5 0.1875
vt 0.5625 0.1875
vt 0.625 0.1875
vt 0.6875 0.1875
vt 0.75 0.1875
vt 0.8125 0.1875
vt 0.875 0.1875
vt 0.9375 0.1875
vt 1 0.1875
vt 0 0.25
vt 0.0625 0.25
vt 0.125 0.25
vt 0.1875 0.25
vt 0.25 0.25
vt 0.3125 0.25
vt 0.375 0.25
vt 0.4375 0.25
vt 0.5 0.25
vt 0.5625 0.25
vt 0.625 0.25
vt 0.6875 0.25
vt 0.75 0.25
vt 0.8125 0.25
vt 0.875 0.25
vt 0.9375 0.25
vt 1 0.25
vt 0 0.3125
vt 0.0625 0.3125
vt 0.125 0.3125
vt 0.1875 0.3125
vt 0.25 0.3125
vt 0.3125 0.3125
vt 0.375 0.3125
vt 0.4375 0.3125
vt 0.5 0.3125
vt 0.5625 0.3125
vt 0.625 0.3125
vt 0.6875 0.3125
vt 0.75 0.3125
vt 0.8125 0.3125
vt 0.875 0.3125
vt 0.9375 0.3125
vt 1 0.3125
vt 0 0.375
vt 0.0625 0.375
vt 0.125 0.375
vt 0.1875 0.375
vt 0.25 0.375
vt 0.3125 0.375
vt 0.375 0.375
vt 0.4375 0.375
vt 0.5 0.375
vt 0.5625 0.375
vt 0.625 0.375
vt 0.6875 0.375
vt 0.75 0.375
vt 0.8125 0.375
vt 0.875 0.375
vt 0.9375 0.375
vt 1 0.375
vt 0 0.4375
vt 0.0625 0.4375
vt 0.125 0.4375
vt 0.1875 0.4375
vt 0.25 0.4375
vt 0.3125 0.4375
vt 0.375 0.4375
vt 0.4375 0.4375
vt 0.5 0.4375
vt 0.5625 0.4375
vt 0.625 0.4375
vt 0.6875 0.4375
vt 0.75 0.4375
vt 0.8125 0.4375
vt 0.875 0.4375
vt 0.9375 0.4375
vt 1 0.4375
vt 0 0.5
vt 0.0625 0.5
vt 0.125 0.5
vt 0.1875 0.5
vt 0.25 0.5
vt 0.3125 0.5
vt 0.375 0.5
vt 0.4375 0.5
vt 0.5 0.5
vt 0.5625 0.5
vt 0.625 0.5
vt 0.6875 0.5
vt 0.75 0.5
vt 0.8125 0.5
vt 0.875 0.5
vt 0.9375 0.5
vt 1 0.5
vt 0 0.5625
vt 0.0625 0.5625
vt 0.125 0.5625
vt 0.1875 0.5625
vt 0.25 0.5625
vt 0.3125 0.5625
vt 0.375 0.5625
vt 0.4375 0.5625
vt 0.5 0.5625
vt 0.5625 0.5625
vt 0.625 0.5625
vt 0.6875 0.5625
vt 0.75 0.5625
vt 0.8125 0.5625
vt 0.875 0.5625
vt 0.9375 0.5625
vt 1 0.5625
vt 0 0.625
vt 0.0625 0.625
vt 0.125 0.625
vt 0.1875 0.625
vt 0.25 0.625
vt 0.3125 0.625
vt 0.375 0.625
vt 0.4375 0.625
vt 0.5 0.625
vt 0.5625 0.625
vt 0.625 0.625
vt 0.6875 0.625
vt 0.75 0.625
vt 0.8125 0.625
vt 0.875 0.625
vt 0.9375 0.625
vt 1 0.625
vt 0 0.6875
vt 0.0625 0.6875
vt 0.125 0.6875
vt 0.1875 0.6875
vt 0.25 0.6875
vt 0.3125 0.6875
vt 0.375 0.6875
vt 0.4375 0.6875
vt 0.5 0.6875
vt 0.5625 0.6875
vt 0.625 0.6875
vt 0.6875 0.6875
vt 0.75 0.6875
vt 0.8125 0.6875
vt 0.875 0.6875
vt 0.9375 0.6875
vt 1 0.6875
vt 0 0.75
vt 0.0625 0.75
vt 0.125 0.75
vt 0.1875 0.75
vt 0.25 0.75
vt 0.3125 0.75
vt 0.375 0.75
vt 0.4375 0.75
vt 0.5 0.75
vt 0.5625 0.75
vt 0.625 0.75
vt 0.6875 0.75
vt 0.75 0.75
vt 0.8125 0.75
vt 0.875 0.75
vt 0.9375 0.75
vt 1 0.75
vt 0 0.8125
vt 0.0625 0.8125
vt 0.125 0.8125
vt 0.1875 0.8125
vt 0.25 0.8125
vt 0.3125 0.8125
vt 0.375 0.8125
vt 0.4375 0.8125
vt 0.5 0.8125
vt 0.5625 0.8125
vt 0.625 0.8125
vt 0.6875 0.8125
vt 0.75 0.8125
vt 0.8125 0.8125
vt 0.875 0.8125
vt 0.9375 0.8125
vt 1 0.8125
vt 0 0.875
vt 0.0625 0.875
vt 0.125 0.875
vt 0.1875 0.875
vt 0.25 0.875
vt 0.3125 0.875
vt 0.375 0.875
vt 0.4375 0.875
vt 0.5 0.875
vt 0.5625 0.875
vt 0.625 0.875
vt 0.6875 0.875
vt 0.75 0.875
vt 0.8125 0.875
vt 0.875 0.875
vt 0.9375 0.875
vt 1 0.875
vt 0 0.9375
vt 0.0625 0.9375
vt 0.125 0.9375
vt 0.1875 0.9375
vt 0.25 0.9375
vt 0.3125 0.9375
vt 0.375 0.9375
vt 0.4375 0.9375
vt 0.5 0.9375
vt 0.5625 0.9375
vt 0.625 0.9375
vt 0.6875 0.9375
vt 0.75 0.9375
vt 0.8125 0.9375
vt 0.875 0.9375
vt 0.9375 0.9375
vt 1 0.9375
vt 0 1
vt 0.0625 1
vt 0.125 1
vt 0.1875 1
vt 0.25 1
vt 0.3125 1
vt 0.375 1
vt 0.4375 1
vt 0.5 1
vt 0.5625 1
vt 0.625 1
vt 0.6875 1
vt 0.75 1
vt 0.8125 1
vt 0.875 1
vt 0.9375 1
vt 1 1
vn -0 -0 1
vn -0 -0.121668205 0.992570817
vn -0 -0.233783975 0.972288549
vn -0 -0.32957238 0.944130421
vn -0 -0.4060193 0.913864493
vn -0 -0.463045716 0.88633436
vn -0 -0.502035558 0.864846945
vn -0 -0.524628937 0.851330936
vn 0 -0.532018065 0.846733034
vn 0 -0.524628937 0.851330996
vn 0 -0.502035558 0.864846945
vn 0 -0.463045657 0.88633436
vn 0 -0.4060193 0.913864493
vn 0 -0.32957235 0.944130421
vn 0 -0.233783886 0.972288668
vn 0 -0.121668197 0.992570817
vn 0 5.49293517e-08 1
vn -0.121668205 -0 0.992570817
vn -0.118522651 -0.118522651 0.985852242
vn -0.109560996 -0.228148967 0.967442214
vn -0.0959806815 -0.322414517 0.941720068
vn -0.0792104378 -0.398217767 0.913864493
vn -0.0604971983 -0.455177605 0.888343036
vn -0.0407311842 -0.494357258 0.868303955
vn -0.0204618722 -0.517156541 0.855646193
vn 4.56151028e-09 -0.524628937 0.851330996
vn 0.0204618815 -0.517156482 0.855646193
vn 0.0407311916 -0.494357258 0.868303955
vn 0.0604972243 -0.455177605 0.888343096
vn 0.0792104378 -0.398217767 0.913864493
vn 0.0959806815 -0.322414488 0.941720068
vn 0.109561004 -0.228148863 0.967442214
vn 0.118522666 -0.118522644 0.985852242
vn 0.121668205 5.34736593e-08 0.992570817
vn -0.233783975 -0 0.972288549
vn -0.228148967 -0.109560989 0.967442214
vn -0.21193181 -0.21193181 0.954028249
vn -0.186920568 -0.301526368 0.934955955
vn -0.155376881 -0.375112921 0.913864493
vn -0.119443774 -0.431565404 0.894138992
vn -0.0808243006 -0.471078515 0.878380656
vn -0.0407311693 -0.494357318 0.868303955
vn 9.08978137e-09 -0.502035558 0.864846945
vn 0.0407311879 -0.494357258 0.868303955
vn 0.080824323 -0.471078515 0.878380656
vn 0.119443811 -0.431565374 0.894138992
vn 0.155376881 -0.375112921 0.913864493
vn 0.186920568 -0.301526338 0.934955955
vn 0.211931825 -0.211931691 0.954028249
vn 0.228148997 -0.109560981 0.967442214
vn 0.233783975 4.93418e-08 0.972288549
vn -0.32957238 -0 0.944130421
vn -0.322414547 -0.095980674 0.941720068
vn -0.301526368 -0.186920553 0.934955835
vn -0.268505841 -0.268505841 0.925099611
vn -0.225572258 -0.337592691 0.913864493
vn -0.175129578 -0.392260313 0.903029025
vn -0.119443774 -0.431565404 0.894138992
vn -0.0604971759 -0.455177605 0.888343036
vn 1.35241836e-08 -0.463045716 0.88633436
vn 0.0604971983 -0.455177605 0.888343036
vn 0.119443797 -0.431565404 0.894138992
vn 0.175129652 -0.392260253 0.903029025
vn 0.225572258 -0.337592691 0.913864493
vn 0.268505841 -0.268505812 0.925099611
vn 0.301526427 -0.186920479 0.934955955
vn 0.322414547 -0.0959806591 0.941719949
vn 0.32957238 4.3120405e-08 0.944130421
vn -0.4060193 -0 0.913864493
vn -0.398217738 -0.0792104304 0.913864493
vn -0.375112921 -0.155376881 0.913864493
vn -0.337592721 -0.225572243 0.913864493
vn -0.287099004 -0.287099004 0.913864493
vn -0.225572214 -0.337592721 0.913864493
vn -0.155376852 -0.375112921 0.913864493
vn -0.0792104006 -0.398217797 0.913864493
vn 1.77476664e-08 -0.4060193 0.913864493
vn 0.0792104304 -0.398217738 0.913864493
vn 0.155376881 -0.375112921 0.913864493
vn 0.225572288 -0.337592691 0.913864493
vn 0.287099004 -0.287099004 0.913864493
vn 0.337592721 -0.225572214 0.913864493
vn 0.375112951 -0.155376792 0.913864493
vn 0.398217797 -0.0792104304 0.913864493
vn 0.4060193 3.54953329e-08 0.913864493
vn -0.463045716 -0 0.88633436
vn -0.455177665 -0.0604971983 0.888343096
vn -0.431565434 -0.119443774 0.894138992
vn -0.392260343 -0.175129578 0.903029025
vn -0.337592721 -0.225572228 0.913864493
vn -0.268505841 -0.268505812 0.925099611
vn -0.186920553 -0.301526368 0.934955955
vn -0.0959806442 -0.322414547 0.941720068
vn 2.15602025e-08 -0.32957235 0.944130421
vn 0.0959806815 -0.322414517 0.941720068
vn 0.186920598 -0.301526338 0.934955835
vn 0.268505931 -0.268505782 0.925099611
vn 0.337592721 -0.225572228 0.913864493
vn 0.392260343 -0.175129563 0.903029025
vn 0.431565493 -0.119443722 0.894138992
vn 0.455177665 -0.0604971908 0.888343036
vn 0.463045716 2.70483635e-08 0.88633436
vn -0.502035558 -0 0.864846945
vn -0.494357258 -0.0407311842 0.868303955
vn -0.471078515 -0.0808243006 0.878380656
vn -0.431565404 -0.119443774 0.894138992
vn -0.375112921 -0.155376866 0.913864493
vn -0.301526338 -0.186920553 0.934955955
vn -0.21193178 -0.211931795 0.954028249
vn -0.109560952 -0.228148967 0.967442214
vn 2.46709e-08 -0.233783945 0.972288549
vn 0.109560989 -0.228148952 0.967442214
vn 0.211931825 -0.211931795 0.954028249
vn 0.301526427 -0.186920524 0.934955835
vn 0.375112921 -0.155376866 0.913864493
vn 0.431565404 -0.119443759 0.894138992
vn 0.471078515 -0.0808242559 0.878380537
vn 0.494357318 -0.0407311805 0.868303955
vn 0.502035558 1.8179561e-08 0.864846945
vn -0.524628937 -0 0.851330936
vn -0.517156541 -0.0204618722 0.855646193
vn -0.494357318 -0.0407311693 0.868303955
vn -0.455177665 -0.0604971759 0.888343096
vn -0.398217767 -0.079210408 0.913864493
vn -0.322414517 -0.0959806368 0.941720068
vn -0.228148952 -0.109560952 0.967442214
vn -0.118522607 -0.118522614 0.985852242
vn 2.67368314e-08 -0.121668153 0.992570817
vn 0.118522659 -0.118522599 0.985852242
vn 0.228149012 -0.109560952 0.967442214
vn 0.322414607 -0.0959806219 0.941719949
vn 0.398217767 -0.079210408 0.913864493
vn 0.455177665 -0.0604971685 0.888343096
vn 0.494357377 -0.0407311507 0.868303955
vn 0.517156541 -0.0204618704 0.855646193
vn 0.524628937 9.12301523e-09 0.851330936
vn -0.532018065 0 0.846733034
vn -0.524628937 4.56151028e-09 0.851330996
vn -0.502035558 9.08978137e-09 0.864846945
vn -0.463045716 1.35241836e-08 0.88633436
vn -0.4060193 1.77476664e-08 0.913864493
vn -0.32957235 2.15602025e-08 0.944130421
vn -0.233783945 2.46709e-08 0.972288549
vn -0.121668153 2.67368332e-08 0.992570817
vn 2.74646759e-08 2.74646759e-08 1
vn 0.121668205 2.67368296e-08 0.992570817
vn 0.233784005 2.46709e-08 0.972288549
vn 0.329572439 2.1560199e-08 0.944130301
vn 0.4060193 1.77476664e-08 0.913864493
vn 0.463045716 1.35241818e-08 0.88633436
vn 0.502035618 9.08977604e-09 0.864846945
vn 0.524628937 4.56150939e-09 0.851330936
vn 0.532018065 -2.03303832e-15 0.846733034
vn -0.524628937 0 0.851330996
vn -0.517156482 0.0204618815 0.855646193
vn -0.494357258 0.0407311879 0.868303955
vn -0.455177665 0.060497202 0.888343096
vn -0.398217767 0.0792104378 0.913864493
vn -0.322414488 0.0959806815 0.941720068
vn -0.228148937 0.109560996 0.967442214
vn -0.118522599 0.118522666 0.985852242
vn 2.67368296e-08 0.121668205 0.992570817
vn 0.118522651 0.118522651 0.985852242
vn 0.228148997 0.109560996 0.967442214
vn 0.322414577 0.0959806591 0.941719949
vn 0.398217767 0.0792104378 0.913864493
vn 0.455177665 0.060497202 0.888343096
vn 0.494357318 0.0407311656 0.868303955
vn 0.517156541 0.0204618797 0.855646193
vn 0.524628937 -9.12302056e-09 0.851330996
vn -0.502035558 0 0.864846945
vn -0.494357258 0.0407311916 0.868303955
vn -0.471078515 0.080824323 0.878380656
vn -0.431565404 0.119443797 0.894138992
vn -0.375112921 0.155376896 0.913864493
vn -0.301526338 0.186920598 0.934955955
vn -0.21193178 0.21193184 0.954028249
vn -0.109560952 0.228149027 0.967442214
vn 2.46709e-08 0.233784005 0.972288549
vn 0.109560989 0.228148997 0.967442214
vn 0.211931825 0.21193184 0.954028249
vn 0.301526427 0.186920568 0.934955835
vn 0.375112921 0.155376896 0.913864493
vn 0.431565404 0.119443797 0.894138992
vn 0.471078515 0.0808242783 0.878380537
vn 0.494357318 0.0407311879 0.868303955
vn 0.502035558 -1.81795645e-08 0.864846945
vn -0.463045657 0 0.88633436
vn -0.455177605 0.0604972169 0.888343096
vn -0.431565374 0.119443811 0.894138992
vn -0.392260283 0.175129637 0.903029025
vn -0.337592691 0.225572288 0.913864493
vn -0.268505782 0.268505931 0.925099611
vn -0.186920509 0.301526427 0.934955835
vn -0.0959806219 0.322414607 0.941719949
vn 2.15601972e-08 0.329572439 0.944130301
vn 0.0959806517 0.322414577 0.941719949
vn 0.186920568 0.301526427 0.934955835
vn 0.268505871 0.268505871 0.925099611
vn 0.337592691 0.225572288 0.913864493
vn 0.392260283 0.175129622 0.903029025
vn 0.431565434 0.119443759 0.894138992
vn 0.455177665 0.0604972169 0.888343096
vn 0.463045657 -2.70483742e-08 0.88633436
vn -0.4060193 0 0.913864493
vn -0.398217738 0.0792104304 0.913864493
vn -0.375112921 0.155376881 0.913864493
vn -0.337592721 0.225572243 0.913864493
vn -0.287099004 0.287099004 0.913864493
vn -0.225572214 0.337592721 0.913864493
vn -0.155376852 0.375112921 0.913864493
vn -0.0792104006 0.398217797 0.913864493
vn 1.77476664e-08 0.4060193 0.913864493
vn 0.0792104304 0.398217738 0.913864493
vn 0.155376881 0.375112921 0.913864493
vn 0.225572288 0.337592691 0.913864493
vn 0.287099004 0.287099004 0.913864493
vn 0.337592721 0.225572214 0.913864493
vn 0.375112951 0.155376792 0.913864493
vn 0.398217797 0.0792104304 0.913864493
vn 0.4060193 -3.54953329e-08 0.913864493
vn -0.32957235 0 0.944130421
vn -0.322414517 0.0959806815 0.941720068
vn -0.301526368 0.186920583 0.934955955
vn -0.268505812 0.268505841 0.925099611
vn -0.225572228 0.337592721 0.913864493
vn -0.175129563 0.392260343 0.903029025
vn -0.119443759 0.431565434 0.894138992
vn -0.0604971685 0.455177665 0.888343036
vn 1.35241818e-08 0.463045716 0.88633436
vn 0.0604971908 0.455177605 0.888343036
vn 0.119443797 0.431565434 0.894138992
vn 0.175129622 0.392260283 0.903029025
vn 0.225572228 0.337592721 0.913864493
vn 0.268505812 0.268505841 0.925099611
vn 0.301526397 0.186920494 0.934955955
vn 0.322414547 0.0959806815 0.941720068
vn 0.32957235 -4.3120405e-08 0.944130421
vn -0.233783886 0 0.972288668
vn -0.228148878 0.109561004 0.967442214
vn -0.211931705 0.211931825 0.954028249
vn -0.186920494 0.301526427 0.934955955
vn -0.155376807 0.375112951 0.913864493
vn -0.119443722 0.431565464 0.894138992
vn -0.0808242559 0.471078515 0.878380537
vn -0.0407311507 0.494357377 0.868303955
vn 9.08977604e-09 0.502035618 0.864846945
vn 0.0407311656 0.494357318 0.868303955
vn 0.0808242783 0.471078515 0.878380537
vn 0.119443759 0.431565434 0.894138992
vn 0.155376807 0.375112951 0.913864493
vn 0.186920494 0.301526397 0.934955955
vn 0.21193172 0.21193172 0.954028249
vn 0.228148893 0.109560996 0.967442214
vn 0.233783886 -4.93418106e-08 0.972288668
vn -0.121668197 0 0.992570817
vn -0.118522644 0.118522659 0.985852242
vn -0.109560989 0.228148982 0.967442214
vn -0.095980674 0.322414547 0.941720068
vn -0.0792104304 0.398217767 0.913864493
vn -0.0604971908 0.455177605 0.888343036
vn -0.0407311805 0.494357318 0.868303955
vn -0.0204618704 0.517156541 0.855646193
vn 4.56150939e-09 0.524628937 0.851330936
vn 0.0204618797 0.517156541 0.855646193
vn 0.0407311879 0.494357318 0.868303955
vn 0.0604972169 0.455177605 0.888343096
vn 0.0792104304 0.398217767 0.913864493
vn 0.095980674 0.322414517 0.941720068
vn 0.109560996 0.228148878 0.967442214
vn 0.118522659 0.118522651 0.985852242
vn 0.121668197 -5.34736628e-08 0.992570817
vn 5.49293517e-08 0 1
vn 5.34736593e-08 0.121668205 0.992570817
vn 4.93418e-08 0.233783975 0.972288549
vn 4.3120405e-08 0.32957238 0.944130421
vn 3.54953329e-08 0.4060193 0.913864493
vn 2.70483635e-08 0.463045716 0.88633436
vn 1.8179561e-08 0.502035558 0.864846945
vn 9.12301523e-09 0.524628937 0.851330936
vn -2.03303832e-15 0.532018065 0.846733034
vn -9.12302056e-09 0.524628937 0.851330996
vn -1.81795645e-08 0.502035558 0.864846945
vn -2.70483742e-08 0.463045657 0.88633436
vn -3.54953329e-08 0.4060193 0.913864493
vn -4.3120405e-08 0.32957235 0.944130421
vn -4.93418106e-08 0.233783886 0.972288668
vn -5.34736664e-08 0.121668197 0.992570817
vn -5.49293517e-08 -5.49293517e-08 1
f 1/1/1 2/2/2 18/18/18
f 3/3/3 4/4/4 21/21/21
f 3/3/3 21/21/21 2/2/2
f 4/4/4 5/5/5 21/21/21
f 7/7/7 8/8/8 43/43/43
f 8/8/8 9/9/9 43/43/43
f 9/9/9 10/10/10 43/43/43
f 11/11/11 12/12/12 46/46/46
f 11/11/11 46/46/46 10/10/10
f 12/12/12 13/13/13 46/46/46
f 13/13/13 14/14/14 46/46/46
f 14/14/14 15/15/15 34/34/34
f 15/15/15 16/16/16 34/34/34
f 16/16/16 17/17/17 34/34/34
f 18/18/18 2/2/2 35/35/35
f 2/2/2 21/21/21 35/35/35
f 21/21/21 5/5/5 73/73/73
f 5/5/5 6/6/6 57/57/57
f 5/5/5 57/57/57 73/73/73
f 6/6/6 7/7/7 57/57/57
f 46/46/46 14/14/14 65/65/65
f 14/14/14 34/34/34 65/65/65
f 34/34/34 51/51/51 65/65/65
f 35/35/35 54/54/54 52/52/52
f 35/35/35 21/21/21 54/54/54
f 21/21/21 73/73/73 54/54/54
f 57/57/57 7/7/7 77/77/77
f 7/7/7 43/43/43 77/77/77
f 10/10/10 46/46/46 43/43/43
f 51/51/51 68/68/68 65/65/65
f 52/52/52 54/54/54 69/69/69
f 54/54/54 73/73/73 69/69/69
f 43/43/43 46/46/46 77/77/77
f 46/46/46 97/97/97 77/77/77
f 46/46/46 65/65/65 97/97/97
f 65/65/65 68/68/68 85/85/85
f 65/65/65 85/85/85 100/100/100
f 69/69/69 105/105/105 86/86/86
f 69/69/69 73/73/73 105/105/105
f 57/57/57 77/77/77 73/73/73
f 65/65/65 100/100/100 97/97/97
f 100/100/100 85/85/85 102/102/102
f 86/86/86 105/105/105 103/103/103
f 105/105/105 73/73/73 124/124/124
f 73/73/73 126/126/126 124/124/124
f 73/73/73 77/77/77 126/126/126
f 77/77/77 128/128/128 126/126/126
f 77/77/77 130/130/130 128/128/128
f 77/77/77 97/97/97 130/130/130
f 100/100/100 102/102/102 119/119/119
f 103/103/103 105/105/105 139/139/139
f 103/103/103 139/139/139 120/120/120
f 105/105/105 124/124/124 139/139/139
f 130/130/130 97/97/97 148/148/148
f 97/97/97 151/151/151 148/148/148
f 97/97/97 100/100/100 151/151/151
f 100/100/100 119/119/119 136/136/136
f 100/100/100 136/136/136 151/151/151
f 120/120/120 139/139/139 137/137/137
f 124/124/124 159/159/159 139/139/139
f 124/124/124 126/126/126 159/159/159
f 126/126/126 161/161/161 159/159/159
f 126/126/126 128/128/128 161/161/161
f 128/128/128 130/130/130 161/161/161
f 151/151/151 136/136/136 153/153/153
f 137/137/137 139/139/139 154/154/154
f 161/161/161 130/130/130 181/181/181
f 130/130/130 148/148/148 181/181/181
f 148/148/148 151/151/151 166/166/166
f 151/151/151 153/153/153 170/170/170
f 154/154/154 139/139/139 190/190/190
f 154/154/154 190/190/190 171/171/171
f 139/139/139 175/175/175 190/190/190
f 139/139/139 159/159/159 175/175/175
f 159/159/159 195/195/195 175/175/175
f 159/159/159 161/161/161 195/195/195
f 161/161/161 197/197/197 195/195/195
f 161/161/161 181/181/181 197/197/197
f 148/148/148 166/166/166 181/181/181
f 166/166/166 151/151/151 185/185/185
f 151/151/151 170/170/170 187/187/187
f 151/151/151 187/187/187 185/185/185
f 171/171/171 190/190/190 188/188/188
f 166/166/166 185/185/185 181/181/181
f 185/185/185 187/187/187 204/204/204
f 188/188/188 190/190/190 205/205/205
f 190/190/190 175/175/175 225/225/225
f 175/175/175 195/195/195 225/225/225
f 197/197/197 233/233/233 195/195/195
f 197/197/197 181/181/181 233/233/233
f 181/181/181 185/185/185 233/233/233
f 185/185/185 221/221/221 233/233/233
f 185/185/185 204/204/204 221/221/221
f 205/205/205 190/190/190 225/225/225
f 205/205/205 225/225/225 222/222/222
f 225/225/225 195/195/195 244/244/244
f 195/195/195 246/246/246 244/244/244
f 195/195/195 248/248/248 246/246/246
f 195/195/195 233/233/233 248/248/248
f 233/233/233 221/221/221 236/236/236
f 221/221/221 238/238/238 236/236/236
f 222/222/222 225/225/225 239/239/239
f 233/233/233 236/236/236 286/286/286
f 236/236/236 255/255/255 286/286/286
f 236/236/236 238/238/238 255/255/255
f 239/239/239 225/225/225 256/256/256
f 246/246/246 248/248/248 280/280/280
f 248/248/248 233/233/233 284/284/284
f 233/233/233 285/285/285 284/284/284
f 233/233/233 286/286/286 285/285/285
f 255/255/255 272/272/272 286/286/286
f 256/256/256 274/274/274 273/273/273
f 256/256/256 275/275/275 274/274/274
f 256/256/256 225/225/225 276/276/276
f 256/256/256 276/276/276 275/275/275
f 225/225/225 244/244/244 277/277/277
f 225/225/225 277/277/277 276/276/276
f 244/244/244 278/278/278 277/277/277
f 244/244/244 246/246/246 279/279/279
f 244/244/244 279/279/279 278/278/278
f 246/246/246 280/280/280 279/279/279
f 280/280/280 248/248/248 282/282/282
f 280/280/280 282/282/282 281/281/281
f 248/248/248 283/283/283 282/282/282
f 248/248/248 284/284/284 283/283/283
f 286/286/286 272/272/272 288/288/288
f 286/286/286 288/288/288 287/287/287
f 272/272/272 289/289/289 288/288/288
