MeshVersionFormatted 1
Dimension 3
Vertices 16
-0.08847377823651412 0.7847102135452696 0.09497701173951859 0
-0.07847377823651412 0.7847102135452696 0.09497701173951859 0
-0.07847377823651412 0.7947102135452696 0.09497701173951859 0
-0.07847377823651412 0.7947102135452696 0.10497701173951858 0
-0.07847377823651412 0.7847102135452696 0.10497701173951858 0
-0.08847377823651412 0.7947102135452696 0.09497701173951859 0
-0.08847377823651412 0.7947102135452696 0.10497701173951858 0
-0.08847377823651412 0.7847102135452696 0.10497701173951858 0
-0.07847377823651412 0.8047102135452696 0.09497701173951859 0
-0.07847377823651412 0.8047102135452696 0.10497701173951858 0
-0.08847377823651412 0.8047102135452696 0.09497701173951859 0
-0.08847377823651412 0.8047102135452696 0.10497701173951858 0
-0.06847377823651411 0.7847102135452696 0.09497701173951859 0
-0.06847377823651411 0.7947102135452696 0.09497701173951859 0
-0.06847377823651411 0.7947102135452696 0.10497701173951858 0
-0.06847377823651411 0.7847102135452696 0.10497701173951858 0
Triangles 0
Tetrahedra 18
1 2 3 4 0
1 5 2 4 0
1 3 6 4 0
1 6 7 4 0
1 8 5 4 0
1 7 8 4 0
6 3 9 10 0
6 4 3 10 0
6 9 11 10 0
6 11 12 10 0
6 7 4 10 0
6 12 7 10 0
2 13 14 15 0
2 16 13 15 0
2 14 3 15 0
2 3 4 15 0
2 5 16 15 0
2 4 5 15 0
End
