# Blender Studio Human Base Meshes v1.4.1; CC0; Y-up metres
v 0.0312954113 0.706141829 0.108544804
v 0.0314636156 0.702780366 0.111548364
v 0.0317611583 0.701025069 0.115858853
v 0.0319319107 0.70089978 0.118230246
v 0.0321056694 0.701290131 0.120453633
v 0.0324210264 0.703457594 0.124297544
v 0.0322863683 0.707903624 0.107589044
v 0.0325982571 0.70627892 0.108460367
v 0.0330297612 0.704561472 0.109727159
v 0.0334820896 0.702992797 0.111419573
v 0.0338492729 0.701905668 0.11341387
v 0.0341375619 0.701272905 0.115710005
v 0.0343124755 0.70115906 0.118060514
v 0.0343751796 0.701538622 0.120288908
v 0.0343307555 0.70238471 0.122375168
v 0.034175273 0.703642607 0.12416292
v 0.0339837 0.705086589 0.125708178
v 0.0337949023 0.706543148 0.126862109
v 0.0336209126 0.708396792 0.128298655
v 0.0332453996 0.708189607 0.107554764
v 0.0338099413 0.706649363 0.108380921
v 0.0345556475 0.705036342 0.109623469
v 0.0353015848 0.703559637 0.111300021
v 0.0358709842 0.702542901 0.113276727
v 0.036269173 0.701957524 0.11555782
v 0.0364822671 0.701837301 0.117908314
v 0.0364706963 0.702194095 0.120139241
v 0.0362599194 0.702992797 0.122231372
v 0.0358719118 0.704171598 0.124031633
v 0.0354103297 0.705521286 0.125606999
v 0.0349522159 0.70689261 0.126772627
v 0.0344813764 0.708662868 0.128197491
v 0.0341375619 0.708610117 0.10753303
v 0.0349195935 0.707242906 0.108312353
v 0.0359614529 0.705795586 0.109533168
v 0.0369841084 0.704476118 0.111179598
v 0.0377365239 0.703559637 0.113154657
v 0.0382559486 0.703023791 0.115420699
v 0.0384748243 0.702924967 0.117767014
v 0.0383996293 0.70324105 0.120002948
v 0.0380493365 0.703951716 0.122107603
v 0.0374396741 0.705004513 0.123926297
v 0.0367215015 0.706219554 0.125509173
v 0.0359998606 0.707444549 0.126696542
v 0.0352455936 0.709053516 0.128103837
v 0.0348675326 0.708960533 0.107589044
v 0.0358793139 0.708010018 0.108263843
v 0.037188869 0.706809103 0.109433673
v 0.0384440534 0.705700159 0.11107257
v 0.0393787883 0.704916716 0.113036752
v 0.0399958529 0.704466939 0.11529693
v 0.0402325429 0.704374194 0.117644928
v 0.0400988124 0.704643488 0.119885869
v 0.0396055318 0.705247819 0.121994719
v 0.0388244241 0.706125975 0.12384101
v 0.0378727987 0.707165182 0.125421375
v 0.0369188599 0.70820117 0.126624644
v 0.0358226299 0.709418714 0.127991796
v 0.0351886749 0.709667087 0.107455254
v 0.0366261788 0.708946288 0.108185254
v 0.0381964855 0.708052516 0.109363414
v 0.0396481045 0.707184494 0.110987283
v 0.0407235101 0.706574142 0.112938084
v 0.0414016582 0.706218779 0.115201615
v 0.0416681953 0.706143439 0.117542073
v 0.0414800905 0.706350982 0.119789705
v 0.0408947244 0.706816494 0.121906899
v 0.0399474949 0.707505763 0.123754032
v 0.0388218798 0.708317518 0.125354484
v 0.0376914069 0.709142029 0.126573622
v 0.03618218 0.710000753 0.128036931
v 0.0355993584 0.710547566 0.107372485
v 0.0372131653 0.710068524 0.108145118
v 0.0389382578 0.709461451 0.10931576
v 0.0405386463 0.70887363 0.110928752
v 0.0417075269 0.708457053 0.112868682
v 0.0424518473 0.708212137 0.115120508
v 0.0427285656 0.708157897 0.117467664
v 0.0425170921 0.708295643 0.11972031
v 0.0418456569 0.708607554 0.121840023
v 0.0407776535 0.709076524 0.123687148
v 0.0395294093 0.709629416 0.125312671
v 0.0382425301 0.710193932 0.126537666
v 0.0365775898 0.71076256 0.128057852
v 0.0358827859 0.711523414 0.107328162
v 0.0375778042 0.71127677 0.108115844
v 0.0393880419 0.710934699 0.109273121
v 0.0410687141 0.710601151 0.110886939
v 0.0423238985 0.710498214 0.112817667
v 0.0431107879 0.710370362 0.115077853
v 0.0433925949 0.710342705 0.117425852
v 0.0431559049 0.7104038 0.119678505
v 0.042445831 0.710551739 0.121804908
v 0.0413044803 0.71077919 0.12365704
v 0.0399657749 0.711058319 0.125279218
v 0.0385986082 0.711336911 0.126525953
v 0.0368277021 0.711632133 0.128087103
v 0.0359730199 0.712578654 0.107318975
v 0.0377080627 0.712581217 0.108102463
v 0.0395518541 0.712602854 0.109253056
v 0.0412602909 0.712624729 0.110866033
v 0.0425312072 0.712634683 0.112798437
v 0.043331515 0.712633848 0.115050256
v 0.0436098538 0.712621391 0.117407456
v 0.0433833413 0.712608039 0.119665131
v 0.0426466577 0.712578654 0.121795699
v 0.0414976738 0.712554395 0.12365704
v 0.0401321277 0.712554395 0.125282556
v 0.0387156829 0.712554395 0.126512587
v 0.0369214043 0.712550461 0.128103837
v 0.0358802415 0.713604808 0.107328162
v 0.0375902988 0.713808775 0.108111657
v 0.0393979922 0.714126408 0.109279796
v 0.0410980992 0.714408934 0.110888608
v 0.0423188098 0.714627206 0.11282102
v 0.043103151 0.714753568 0.115074508
v 0.0433673784 0.714889824 0.117427513
v 0.043154981 0.714720905 0.11967767
v 0.0424416661 0.714572966 0.121804908
v 0.0413061008 0.714320302 0.123652861
v 0.039976649 0.714033663 0.125286758
v 0.038588658 0.713763535 0.126519263
v 0.0368360318 0.713492453 0.12807706
v 0.0355993584 0.714577258 0.107377484
v 0.0372247323 0.715027869 0.108148448
v 0.0389347896 0.715658188 0.10931576
v 0.0405402668 0.71625191 0.110932082
v 0.0417008176 0.716667593 0.112871192
v 0.0424509197 0.716906667 0.115127183
v 0.0427260213 0.716965318 0.117470153
v 0.0425120033 0.716828942 0.119717799
v 0.0418456569 0.716517031 0.121840023
v 0.0407836661 0.716048896 0.123691313
v 0.0395301059 0.715482831 0.125304297
v 0.0382416025 0.714938521 0.126535997
v 0.0365750454 0.714364707 0.128057852
v 0.0351937637 0.715453565 0.107453585
v 0.0366463065 0.716144085 0.108191937
v 0.0381923206 0.717071414 0.109372623
v 0.0396522693 0.717942655 0.110994808
v 0.0407117121 0.718550563 0.112941429
v 0.0413972624 0.718903422 0.115201615
v 0.0416557007 0.718974531 0.117545426
v 0.0414768532 0.71876967 0.119788878
v 0.0408914872 0.718306601 0.121906079
v 0.039931532 0.717613399 0.12373814
v 0.0388235003 0.716816306 0.125371203
v 0.037684001 0.715990245 0.126574442
v 0.0361805595 0.715129852 0.128036931
v 0.0348742418 0.716171861 0.107581526
v 0.0358770005 0.717112482 0.108270541
v 0.0371863246 0.718313158 0.109441191
v 0.0384338722 0.719420075 0.111085117
v 0.0393672213 0.720203698 0.113034233
v 0.0399801172 0.720652819 0.115297779
v 0.0402207449 0.720740616 0.117639065
v 0.0400904827 0.72047627 0.119890049
v 0.0395969711 0.719869375 0.121990539
v 0.0388119295 0.718993068 0.123829283
v 0.037864469 0.717960358 0.12541385
v 0.0369112268 0.716915965 0.126620442
v 0.0358210094 0.715701938 0.127983406
v 0.0341310836 0.7165187 0.10753303
v 0.0349170454 0.717880845 0.108319029
v 0.0359563604 0.71932739 0.109536514
v 0.0369908176 0.720648527 0.111189626
v 0.0377298146 0.721560121 0.113151304
v 0.0382425301 0.722087622 0.115425706
v 0.0384766757 0.722195446 0.117762819
v 0.0383922271 0.72187525 0.120002121
v 0.0380393863 0.721162856 0.122101746
v 0.0374380574 0.720116854 0.123923771
v 0.0367173366 0.718906999 0.125507519
v 0.0360107347 0.717657685 0.126684844
v 0.035244666 0.716067016 0.128097147
v 0.0332495607 0.71693778 0.107550584
v 0.0338064693 0.718472719 0.10838677
v 0.0345514826 0.720088363 0.109635182
v 0.0352983437 0.721553385 0.111304201
v 0.0358686708 0.722570181 0.11328426
v 0.0362631567 0.723157287 0.115553647
v 0.0364774056 0.723280013 0.117911659
v 0.0364621356 0.722915351 0.120135061
v 0.036254134 0.722119451 0.122226335
v 0.0358709842 0.720954597 0.124033324
v 0.0354026929 0.719596565 0.125591114
v 0.0349688753 0.718220413 0.126763433
v 0.0344829969 0.716465235 0.128194958
v 0.032268092 0.717185259 0.107581526
v 0.0325966366 0.71884501 0.108466208
v 0.033030685 0.720565021 0.109734684
v 0.033481162 0.722122669 0.11142794
v 0.033845108 0.723208308 0.113416381
v 0.0341285393 0.723838627 0.115713358
v 0.0343099311 0.723948896 0.118057154
v 0.0343710147 0.723570168 0.120287247
v 0.0343224257 0.722722292 0.122365981
v 0.0341711082 0.721468985 0.124151222
v 0.0339788422 0.720030785 0.125699818
v 0.033803232 0.718581557 0.126857921
v 0.0336192921 0.716720223 0.128295302
v 0.0312428903 0.71728301 0.107631698
v 0.0312995762 0.718972802 0.108551487
v 0.0313750021 0.720730543 0.10984423
v 0.03146616 0.722337723 0.111558385
v 0.0315989666 0.723441362 0.11357525
v 0.0317604654 0.724087954 0.115864694
v 0.031934455 0.724211514 0.118228562
v 0.0321049727 0.723820269 0.120448627
v 0.0322780386 0.722937346 0.122518994
v 0.0324210264 0.7216537 0.124285012
v 0.0325279199 0.72019136 0.125821888
v 0.0326058902 0.718689382 0.126939848
v 0.0327069983 0.716808915 0.128385633
v 0.0302403625 0.717185974 0.107715309
v 0.0300379135 0.71884501 0.108643472
v 0.0297871083 0.720563352 0.109962121
v 0.0295754056 0.722126961 0.111703873
v 0.0294934995 0.723205626 0.113720745
v 0.029532833 0.723832726 0.116031937
v 0.0296767447 0.723955631 0.11838159
v 0.0299282447 0.723570168 0.120597467
v 0.0302662756 0.722716391 0.122647777
v 0.0306633078 0.721466303 0.124396227
v 0.0310656596 0.720028102 0.12590301
v 0.0313967504 0.718559027 0.127017617
v 0.0317863785 0.716720223 0.128423259
v 0.029262824 0.71693778 0.107824028
v 0.0288338643 0.718472719 0.108735457
v 0.0282693207 0.72009021 0.110075012
v 0.0277600754 0.721555948 0.11183013
v 0.0274708625 0.722573519 0.113872081
v 0.0273905769 0.723157287 0.116175756
v 0.0275185239 0.723270893 0.11853043
v 0.0278294869 0.722921371 0.120739602
v 0.0283313282 0.722118735 0.122781552
v 0.0289650504 0.720951259 0.124511607
v 0.0296406522 0.719605982 0.126010865
v 0.0302461479 0.718212783 0.12709792
v 0.0309182778 0.716462672 0.128444165
v 0.0283889398 0.716517866 0.10793522
v 0.0277175028 0.717882514 0.108818226
v 0.0268554185 0.719329119 0.110166147
v 0.026080329 0.720647037 0.111946374
v 0.0256053247 0.721562564 0.114000037
v 0.0254130568 0.722087622 0.116314553
v 0.0255141649 0.722195446 0.118670076
v 0.0259079579 0.721872687 0.120876744
v 0.0265435316 0.721167922 0.122906968
v 0.0273989066 0.720114291 0.124618649
v 0.0283278581 0.718904316 0.126096994
v 0.029195033 0.717668474 0.127168983
v 0.030144807 0.716068089 0.128458381
v 0.0276631303 0.71616596 0.10808824
v 0.0267575476 0.717114925 0.108904362
v 0.0256363284 0.718313992 0.110258982
v 0.0246118214 0.719424427 0.112045035
v 0.023963986 0.72020638 0.114112079
v 0.0236738473 0.7206586 0.116436645
v 0.0237624627 0.720747173 0.118791319
v 0.024203917 0.720481336 0.12100134
v 0.0249806251 0.719878376 0.123018198
v 0.0260208659 0.718992114 0.124723151
v 0.0271747094 0.717961013 0.126173928
v 0.0282862112 0.716928542 0.127228349
v 0.0295612924 0.715705991 0.128423259
v 0.0273269508 0.715460181 0.108002119
v 0.0259917136 0.716144085 0.108935297
v 0.0246236213 0.717074096 0.110322513
v 0.0234170277 0.717945278 0.112128653
v 0.0226218086 0.718552411 0.114199877
v 0.0222497638 0.718905151 0.116534479
v 0.0223217215 0.718981266 0.118896693
v 0.0228140764 0.71877557 0.121095821
v 0.0236911997 0.718310654 0.123111859
v 0.0248936303 0.717618406 0.124797583
v 0.0262274798 0.716813207 0.126239985
v 0.0275243092 0.715983629 0.127281874
v 0.0292126164 0.715130687 0.128524423
v 0.0269114096 0.714576185 0.107985407
v 0.0254112054 0.715029359 0.108971253
v 0.0238795355 0.71566236 0.11036934
v 0.0225098245 0.716253638 0.112188861
v 0.02162599 0.716669321 0.114268452
v 0.0212085992 0.716915011 0.116607234
v 0.0212514028 0.716968596 0.118972771
v 0.0217823964 0.716833115 0.121173583
v 0.0227372609 0.7165187 0.123178743
v 0.0240458902 0.716053188 0.124866977
v 0.0255157854 0.71548605 0.126285985
v 0.0269606914 0.714940012 0.127331197
v 0.0288255345 0.714363933 0.128599674
v 0.026627982 0.713606298 0.107971199
v 0.025040783 0.71380955 0.108981296
v 0.0234096237 0.714127243 0.110392749
v 0.0219570808 0.714416683 0.112223148
v 0.0210096203 0.714627206 0.114303559
v 0.0205431785 0.714751005 0.116655722
v 0.0205873698 0.714782834 0.119022101
v 0.0211317837 0.714722455 0.121218741
v 0.0221394002 0.714603841 0.123230584
v 0.0235241503 0.714332938 0.124902114
v 0.0250669271 0.714036047 0.12633279
v 0.0266113225 0.713764429 0.127359629
v 0.028576348 0.713493407 0.128661558
v 0.0265291855 0.712579608 0.107967012
v 0.0249188505 0.712539315 0.108984634
v 0.0232539102 0.712602139 0.110389411
v 0.0217782315 0.712625504 0.112221479
v 0.0207956042 0.712638855 0.114316106
v 0.0203215256 0.712631404 0.116664916
v 0.0203675684 0.712622166 0.119033813
v 0.0209142957 0.712602854 0.121241316
v 0.0219420418 0.712578654 0.123243138
v 0.02334507 0.712554395 0.124920495
v 0.0249188505 0.712554395 0.126347855
v 0.0264917035 0.712554395 0.127371341
v 0.0284877345 0.712550461 0.128695011
v 0.026632145 0.711519122 0.10797704
v 0.0250516571 0.71127677 0.108987145
v 0.0234246626 0.710936427 0.110383563
v 0.0219846144 0.710601866 0.112217292
v 0.0210080016 0.710496485 0.114306062
v 0.0205364693 0.710371971 0.116661578
v 0.0205866769 0.710341096 0.119022936
v 0.0211317837 0.710401237 0.121218741
v 0.0221336167 0.710550964 0.123230584
v 0.0235199872 0.710777581 0.124909639
v 0.0250710919 0.711053491 0.12633279
v 0.0266180318 0.711337745 0.127360463
v 0.0285738036 0.711632133 0.128671587
v 0.0269139539 0.710555792 0.107992917
v 0.0254204609 0.710061729 0.108962893
v 0.0238728262 0.709461451 0.110361814
v 0.022511445 0.708875239 0.11218302
v 0.0216176622 0.708457053 0.114270106
v 0.0212028157 0.708204627 0.116602205
v 0.0212472379 0.708157897 0.118974447
v 0.0217747614 0.708290696 0.121172749
v 0.0227363352 0.708607554 0.123180419
v 0.0240532942 0.709077597 0.124857798
v 0.0255167112 0.709632039 0.126294345
v 0.0269616172 0.710188031 0.127331197
v 0.0288255345 0.71076417 0.128601342
v 0.027326256 0.70966953 0.108002953
v 0.0260134619 0.708951235 0.108931124
v 0.0246194564 0.708049834 0.110313319
v 0.0234019868 0.707182109 0.112127826
v 0.022616718 0.706570923 0.1141982
v 0.0222398154 0.706213713 0.116537817
v 0.0223224144 0.706141829 0.11889752
v 0.0228082929 0.706345916 0.121099174
v 0.0236972161 0.706818342 0.123109348
v 0.0248920117 0.707508087 0.124802597
v 0.0262214635 0.708310843 0.126251698
v 0.0275159795 0.709138572 0.127290234
v 0.0292126164 0.709995687 0.128526941
v 0.0276598912 0.708956242 0.108083248
v 0.0267566238 0.708012223 0.108894326
v 0.0256194398 0.706808209 0.110240579
v 0.0246053431 0.705693662 0.112044208
v 0.0239588954 0.704916716 0.114107057
v 0.0236611217 0.7044577 0.1164333
v 0.0237497371 0.704374194 0.11879801
v 0.0241937358 0.704636693 0.121000491
v 0.024969751 0.705239475 0.123026572
v 0.0260157753 0.706126809 0.124729849
v 0.027168924 0.707165182 0.126183122
v 0.0282827411 0.708193839 0.127232522
v 0.0295603666 0.709416449 0.128432453
v 0.0283831544 0.708606064 0.107930206
v 0.027724212 0.707242906 0.108819075
v 0.0268586576 0.705788195 0.110156961
v 0.0260743126 0.704472721 0.111944698
v 0.0255976897 0.703556299 0.113994166
v 0.0254047271 0.703016937 0.116324581
v 0.0255042166 0.702915728 0.118675098
v 0.0258987024 0.70324105 0.120878428
v 0.0265393667 0.703950882 0.122912839
v 0.0273956675 0.705008686 0.124623649
v 0.0283236932 0.706217825 0.126107872
v 0.029210072 0.707453012 0.127168164
v 0.0301482771 0.70904994 0.128464222
v 0.0292676836 0.708185434 0.107829869
v 0.0288211387 0.706648529 0.108727098
v 0.0282600652 0.705033123 0.110058278
v 0.0277510509 0.703561366 0.111823462
v 0.0274625327 0.702542901 0.113867909
v 0.0273871068 0.701950908 0.116174094
v 0.0275092702 0.701836288 0.118536279
v 0.0278294869 0.702197433 0.120742954
v 0.0283262376 0.702991962 0.122787423
v 0.0289599597 0.70415926 0.124525838
v 0.0296422709 0.705518782 0.126006708
v 0.0302595664 0.706889272 0.127107099
v 0.0309201274 0.708661258 0.128450841
v 0.030226944 0.707904398 0.107732885
v 0.0300344434 0.706276357 0.108635113
v 0.0297836382 0.704559743 0.109954596
v 0.0295754056 0.702992797 0.111695528
v 0.0294893347 0.701907337 0.113718234
v 0.0295277424 0.701278687 0.116029426
v 0.029675819 0.70116055 0.1183841
v 0.0299240798 0.701540232 0.12059997
v 0.0302611869 0.702388227 0.122657813
v 0.0306600686 0.703644216 0.124407925
v 0.0310672801 0.705086589 0.125915557
v 0.0314191952 0.706542373 0.12702851
v 0.0317838341 0.708392859 0.128433272
v 0.0312377997 0.70780158 0.107648432
v 0.0313648209 0.704394102 0.109823316
v 0.0315957293 0.701662421 0.113564372
v 0.0322771147 0.702173412 0.12252485
v 0.0325288437 0.704926908 0.125831112
v 0.0326065831 0.706426919 0.126945719
v 0.0327069983 0.708298326 0.128384769
v 0.0299358796 0.709740698 0.128728449
v 0.0307771415 0.709368527 0.128833815
v 0.0317310803 0.709115267 0.128855556
v 0.0327204205 0.709013164 0.128827125
v 0.0337338187 0.709112644 0.128715068
v 0.03467457 0.709371209 0.128556207
v 0.0354931578 0.709740698 0.12833713
v 0.0296038631 0.71055764 0.128923282
v 0.0304918624 0.710220695 0.129118949
v 0.031559635 0.709980607 0.129240185
v 0.0327194929 0.709904492 0.129246041
v 0.0339612551 0.709986508 0.129070446
v 0.0349938609 0.710221589 0.128802031
v 0.035848543 0.710560083 0.128485948
v 0.0293588433 0.711526632 0.129056245
v 0.0302912649 0.711292028 0.129353911
v 0.0314083174 0.71111697 0.129573002
v 0.0327194929 0.71104598 0.129624844
v 0.034163706 0.711107075 0.129376501
v 0.035233099 0.711301744 0.129001886
v 0.0361002721 0.711524189 0.128572091
v 0.0292769372 0.712581933 0.129096359
v 0.030208433 0.712617874 0.129457608
v 0.0313581116 0.712642193 0.129738554
v 0.0329376757 0.712682188 0.129810482
v 0.0342078991 0.712652266 0.129533693
v 0.0353274979 0.712624729 0.129098877
v 0.0361988358 0.712581933 0.128611401
v 0.0293655526 0.713627219 0.129042029
v 0.0302903391 0.71382308 0.129349738
v 0.0314159542 0.714003325 0.129563808
v 0.0327095464 0.714067876 0.129620641
v 0.0341569968 0.714009345 0.129368961
v 0.0352263898 0.713821113 0.129004404
v 0.0361051336 0.713627219 0.128571242
v 0.0296047889 0.714564621 0.1289258
v 0.0304953326 0.714900732 0.129113078
v 0.031558942 0.715126514 0.12923184
v 0.0327120908 0.715215921 0.129240185
v 0.0339603312 0.715124786 0.12906377
v 0.0349890031 0.714898169 0.12879619
v 0.0358517803 0.714564621 0.128491804
v 0.0299375001 0.715386569 0.128724262
v 0.0307803806 0.715746105 0.128822103
v 0.0317329317 0.716006994 0.128848016
v 0.032718569 0.716099799 0.128817081
v 0.0337312743 0.716006994 0.128708392
v 0.0346704051 0.715744376 0.128547013
v 0.0354906134 0.715385795 0.128333777
v 0.0283086542 0.70957166 0.107645079
v 0.0292225648 0.709250867 0.107472822
v 0.0301917754 0.709011614 0.107341543
v 0.0312185958 0.708933771 0.107243709
v 0.0322745703 0.709017515 0.10719604
v 0.0332421586 0.709251702 0.107195206
v 0.0341711082 0.709570885 0.107245401
v 0.0279958416 0.710499942 0.107553095
v 0.0289967488 0.710236371 0.107264623
v 0.0300404597 0.710051775 0.10706979
v 0.0311968476 0.709957242 0.106943518
v 0.0323708169 0.71004343 0.106910914
v 0.0334328078 0.710238278 0.106955223
v 0.0344705023 0.710490763 0.107094876
v 0.0277584549 0.711489975 0.107487887
v 0.028786201 0.711337745 0.107145883
v 0.0299435146 0.711244941 0.106872447
v 0.0311658438 0.711205602 0.106714405
v 0.0324501805 0.711248159 0.106699362
v 0.0336116552 0.711337745 0.106805556
v 0.0346835926 0.71148926 0.107003726
v 0.027679095 0.71258539 0.107455254
v 0.0287475623 0.712520123 0.107083172
v 0.0299067274 0.71256882 0.106798857
v 0.0311149415 0.712625504 0.106626622
v 0.0324693806 0.712584436 0.106620766
v 0.0336359516 0.712560177 0.106736995
v 0.0347731337 0.712581933 0.10696359
v 0.0277684052 0.71363914 0.107489556
v 0.0287977699 0.713788629 0.107139193
v 0.0299425889 0.713882327 0.106873281
v 0.0311609842 0.713934839 0.106721945
v 0.0324427746 0.713866472 0.106699362
v 0.0336183682 0.713784337 0.106809728
v 0.0346870646 0.713638127 0.107004568
v 0.0279916767 0.714633942 0.107548073
v 0.0290034581 0.714893997 0.107267141
v 0.0300369877 0.715077937 0.107075654
v 0.0312160496 0.715122342 0.106929317
v 0.0323766023 0.715076327 0.106910914
v 0.0334251709 0.714889824 0.106953554
v 0.0344705023 0.71463567 0.107099041
v 0.028298704 0.715541363 0.107653432
v 0.029217707 0.715869784 0.107480355
v 0.0301866848 0.716110766 0.107339866
v 0.0312109608 0.716199398 0.107238688
v 0.0322655439 0.716115832 0.107198559
v 0.0332472473 0.715874791 0.10719689
v 0.0341852233 0.715541363 0.107236184
v 0.0336669534 0.707598329 0.127676547
v 0.0346000679 0.70789516 0.127603799
v 0.0354746506 0.708375156 0.127543598
v 0.0362106375 0.708979845 0.127497613
v 0.0368411206 0.709748089 0.127437398
v 0.0373135768 0.71061039 0.127414823
v 0.0376152843 0.711555123 0.127391413
v 0.0377189405 0.71254766 0.12739642
v 0.0376169048 0.713576198 0.127407297
v 0.0373151973 0.714506924 0.127405629
v 0.0368392691 0.715385795 0.127436563
v 0.0362154953 0.716140747 0.127488405
v 0.0354714096 0.716746211 0.127531052
v 0.0346016884 0.717216849 0.127595425
v 0.0336634852 0.717527211 0.127668172
v 0.0326635018 0.717635155 0.127750129
v 0.0316500999 0.71753633 0.127814516
v 0.0307109691 0.71723187 0.127878055
v 0.0298514292 0.716751099 0.12793158
v 0.0291138217 0.716144085 0.127996802
v 0.028478479 0.715382397 0.128024384
v 0.0280025508 0.714513481 0.128062844
v 0.0277033895 0.71357137 0.128094628
v 0.0275978856 0.71254766 0.128110513
v 0.0277015381 0.711550951 0.128103837
v 0.0280002374 0.710613668 0.128070384
v 0.0284717698 0.709742308 0.128025219
v 0.0291163661 0.708972335 0.12800765
v 0.0298456457 0.708371878 0.127941608
v 0.0307192989 0.707886934 0.127880558
v 0.0316526443 0.707597613 0.127820373
v 0.0326635018 0.707491398 0.127755135
vn -0.0587970763 -0.537956059 -0.840919912
vn -0.0439214669 -0.811792076 -0.582292557
vn -0.0151196057 -0.987141192 -0.159134239
vn 0.000613210606 -0.998152435 0.0607565269
vn 0.0169468671 -0.95992136 0.279756606
vn 0.0443277285 -0.769123793 0.637560785
vn 0.0324426219 -0.40177688 -0.915162742
vn 0.0545891337 -0.526743352 -0.848269761
vn 0.0856993124 -0.654730797 -0.750988245
vn 0.125931188 -0.79523325 -0.593081415
vn 0.163894117 -0.907221317 -0.38741222
vn 0.191093206 -0.96628046 -0.172584653
vn 0.207780764 -0.977076888 0.0463461578
vn 0.215107009 -0.939851761 0.265344411
vn 0.212433398 -0.85476476 0.473549664
vn 0.202848881 -0.752699554 0.626335204
vn 0.189584196 -0.654382586 0.732011795
vn 0.1792963 -0.590786159 0.786654055
vn 0.194815859 -0.555989146 0.808036506
vn 0.114589542 -0.378588736 -0.918444216
vn 0.15397428 -0.495429486 -0.85489279
vn 0.208784655 -0.616396904 -0.759252191
vn 0.276306957 -0.748563349 -0.602749884
vn 0.335595876 -0.853569984 -0.398489326
vn 0.373242587 -0.908948481 -0.185748965
vn 0.392468125 -0.919144154 0.0338049904
vn 0.392120004 -0.884322047 0.253409535
vn 0.371950835 -0.804810107 0.462529182
vn 0.341014266 -0.709709883 0.616458476
vn 0.308952332 -0.619135082 0.721955836
vn 0.288871676 -0.55659163 0.778947294
vn 0.306470156 -0.523111224 0.795255125
vn 0.18654722 -0.345076889 -0.919848979
vn 0.243675143 -0.44761616 -0.860384941
vn 0.321456641 -0.556050599 -0.766468108
vn 0.413968325 -0.674119174 -0.611713707
vn 0.491432548 -0.76859802 -0.409574419
vn 0.539003372 -0.81888932 -0.197220057
vn 0.560559809 -0.82780081 0.0227696374
vn 0.554442823 -0.796090722 0.242554501
vn 0.518950105 -0.726046741 0.451161742
vn 0.468866855 -0.641143799 0.607534707
vn 0.422251552 -0.557675421 0.714634061
vn 0.391407907 -0.501536369 0.771531701
vn 0.400131106 -0.473065108 0.784923255
vn 0.252461553 -0.319015414 -0.913505495
vn 0.322270274 -0.385388672 -0.8646487
vn 0.420972347 -0.473969281 -0.773392141
vn 0.535237968 -0.573176205 -0.620475113
vn 0.630683661 -0.652543366 -0.420030147
vn 0.688854516 -0.69454056 -0.207588494
vn 0.711157978 -0.702913463 0.0129239261
vn 0.698606074 -0.676350176 0.233452469
vn 0.651642263 -0.617528796 0.440477759
vn 0.586533368 -0.544255674 0.599803746
vn 0.522997618 -0.472742975 0.709216237
vn 0.483392417 -0.426852405 0.764283299
vn 0.475033611 -0.414041907 0.776474297
vn 0.277631968 -0.254568338 -0.926345229
vn 0.387225598 -0.302440435 -0.87096858
vn 0.506095529 -0.369580179 -0.779280305
vn 0.636347413 -0.447986335 -0.627988935
vn 0.746130288 -0.510334969 -0.427607119
vn 0.811248124 -0.543431163 -0.215775803
vn 0.834985971 -0.55026108 0.00334998802
vn 0.816871107 -0.530935347 0.225453734
vn 0.759884059 -0.484280437 0.433645844
vn 0.683288455 -0.425990045 0.593000352
vn 0.605982363 -0.371990263 0.703142047
vn 0.556269705 -0.337144017 0.759537995
vn 0.528689206 -0.347352654 0.774489462
vn 0.31334278 -0.177260056 -0.932949722
vn 0.437041312 -0.2093703 -0.874733627
vn 0.565165401 -0.256064415 -0.784231663
vn 0.709264994 -0.310472101 -0.632890284
vn 0.829418361 -0.353001475 -0.432961047
vn 0.899556458 -0.375955731 -0.222386032
vn 0.924681604 -0.380725712 -0.00345175131
vn 0.903984904 -0.36735481 0.218773127
vn 0.838155448 -0.335648894 0.429924756
vn 0.752472103 -0.296062976 0.588330269
vn 0.667889237 -0.259151191 0.697685182
vn 0.61093086 -0.237137988 0.755333722
vn 0.574862301 -0.250239819 0.779046476
vn 0.339339048 -0.090751186 -0.936276257
vn 0.466112882 -0.108786955 -0.878011525
vn 0.601024389 -0.134174332 -0.787887633
vn 0.753538847 -0.162616804 -0.636973321
vn 0.880178154 -0.180401161 -0.439023882
vn 0.954875529 -0.193052232 -0.225706875
vn 0.980764568 -0.195068151 -0.00701706577
vn 0.958178222 -0.189255401 0.214654952
vn 0.887072086 -0.175167039 0.427106172
vn 0.794915974 -0.157763407 0.585849285
vn 0.704833627 -0.138114244 0.695797384
vn 0.646900713 -0.124900237 0.752276063
vn 0.605750918 -0.133834422 0.784317732
vn 0.347510666 -3.64219377e-05 -0.937676132
vn 0.475961864 -0.000117818381 -0.879465878
vn 0.614081085 0.00087635871 -0.789242446
vn 0.768664062 0.00168227963 -0.639650464
vn 0.897265911 0.00355634862 -0.441476315
vn 0.97392118 0.00517932652 -0.226827666
vn 0.999952376 0.0046926369 -0.0085628517
vn 0.977039397 0.00323971268 0.213034153
vn 0.904431522 0.00142415322 0.42661652
vn 0.811031997 -0.000422951707 0.585001707
vn 0.716973543 -0.000769675826 0.697099984
vn 0.660214841 -0.000128204832 0.751076818
vn 0.616953433 -0.00283966353 0.786994517
vn 0.338264257 0.0931612551 -0.936428487
vn 0.466543347 0.109343112 -0.87771374
vn 0.601261616 0.134069249 -0.787724555
vn 0.754073739 0.160896316 -0.636777222
vn 0.879854918 0.184910119 -0.43779403
vn 0.95397079 0.196941778 -0.226171643
vn 0.979025364 0.203611419 -0.00719960267
vn 0.957636654 0.19159171 0.214999393
vn 0.886781275 0.1759523 0.427387238
vn 0.79568702 0.156270415 0.585202277
vn 0.703757882 0.136766523 0.697151184
vn 0.648100138 0.125164032 0.751199186
vn 0.606743515 0.133992001 0.783523083
vn 0.314410716 0.17774792 -0.932497501
vn 0.438057035 0.210117042 -0.874046266
vn 0.565032542 0.25574553 -0.784431338
vn 0.709632039 0.30991292 -0.632752955
vn 0.82958889 0.353322566 -0.432371795
vn 0.899015188 0.376960278 -0.222873971
vn 0.923723876 0.383043379 -0.00345137087
vn 0.903364599 0.369017065 0.218537778
vn 0.837671518 0.336728215 0.430023789
vn 0.752062201 0.297628015 0.588064551
vn 0.668727517 0.257478416 0.697501481
vn 0.611951709 0.235077873 0.755151391
vn 0.577334225 0.252782136 0.776393294
vn 0.281695396 0.251260608 -0.926021576
vn 0.390898407 0.301674545 -0.869592369
vn 0.504811227 0.371288985 -0.779301107
vn 0.635436833 0.450268507 -0.627278507
vn 0.745204151 0.512237728 -0.426946521
vn 0.81022507 0.545152962 -0.215275407
vn 0.833707511 0.552196503 0.0032909615
vn 0.81614697 0.532627285 0.224081069
vn 0.757543445 0.486437738 0.435323209
vn 0.681689978 0.430379748 0.591668844
vn 0.605142891 0.375544548 0.70197463
vn 0.553358793 0.3380813 0.761245728
vn 0.528652191 0.351936817 0.77244246
vn 0.255018711 0.321528882 -0.91191256
vn 0.325234681 0.38669619 -0.862953365
vn 0.421851873 0.473728597 -0.773060322
vn 0.535431743 0.573245823 -0.620243549
vn 0.630392194 0.653301954 -0.41928795
vn 0.688121736 0.695384741 -0.207192376
vn 0.711220682 0.702874184 0.011538228
vn 0.698010862 0.676945746 0.233506516
vn 0.650623262 0.617484093 0.442043871
vn 0.587651253 0.545184791 0.597862542
vn 0.521880865 0.476027936 0.707840323
vn 0.478376448 0.430880368 0.765178442
vn 0.472660393 0.421709716 0.773791432
vn 0.186493978 0.348106802 -0.918717384
vn 0.244445413 0.450529009 -0.858644366
vn 0.321460336 0.556211174 -0.766350091
vn 0.41434586 0.674351633 -0.611201704
vn 0.491450727 0.76915288 -0.408509403
vn 0.539161921 0.81869781 -0.197581157
vn 0.560996056 0.827530324 0.021839086
vn 0.553516984 0.796247959 0.244147718
vn 0.519215703 0.726501226 0.450123459
vn 0.47083056 0.640831411 0.606344461
vn 0.421600372 0.556489468 0.715941846
vn 0.391108155 0.500985503 0.77204138
vn 0.400504827 0.474396199 0.783928692
vn 0.112572096 0.381382674 -0.917537332
vn 0.153518438 0.497251302 -0.853916466
vn 0.20868808 0.617519736 -0.75836581
vn 0.275188982 0.749472141 -0.602131724
vn 0.334867626 0.854296565 -0.397543877
vn 0.372374833 0.909157693 -0.186465368
vn 0.390862763 0.919800341 0.0345494561
vn 0.390363038 0.884625077 0.255059183
vn 0.37041983 0.806543648 0.460734785
vn 0.338226199 0.711437345 0.616003215
vn 0.307258964 0.619312942 0.722525775
vn 0.292395234 0.555423677 0.778466165
vn 0.307213336 0.522870481 0.795126736
vn 0.0313937664 0.403089195 -0.914622128
vn 0.0524105839 0.528068125 -0.847583175
vn 0.0847182721 0.655739069 -0.750219345
vn 0.125509173 0.796248138 -0.591807723
vn 0.162753984 0.907488585 -0.387266964
vn 0.189814717 0.966514349 -0.172685772
vn 0.207430601 0.977125108 0.0468957275
vn 0.215036765 0.939593017 0.266316056
vn 0.211175069 0.855416656 0.472935021
vn 0.200569302 0.754017353 0.625483632
vn 0.189064875 0.655810118 0.730867684
vn 0.181555867 0.591332138 0.785725057
vn 0.193487063 0.553979635 0.809734106
vn -0.0619154982 0.412049264 -0.909055531
vn -0.0587063581 0.539223492 -0.840114057
vn -0.0533634759 0.668586612 -0.74171716
vn -0.0434344001 0.813022196 -0.580610335
vn -0.0298498869 0.927032292 -0.373791665
vn -0.0147896037 0.987025857 -0.159878939
vn 0.00180278381 0.998127699 0.0611383542
vn 0.0175032597 0.959610164 0.280788153
vn 0.0324422494 0.872634828 0.487294674
vn 0.0438270867 0.769919991 0.636633575
vn 0.0499031693 0.667807519 0.742659271
vn 0.0523859672 0.605187595 0.794357419
vn 0.0593496524 0.564073026 0.823589325
vn -0.158175305 0.402291983 -0.90174371
vn -0.170698315 0.528860629 -0.831365466
vn -0.189769834 0.655024111 -0.731389701
vn -0.208711788 0.795845389 -0.568392038
vn -0.217600971 0.907257318 -0.359908074
vn -0.215358451 0.965754032 -0.144706547
vn -0.202421844 0.976428032 0.0749249458
vn -0.177503377 0.938891411 0.294916153
vn -0.143819109 0.854564965 0.499033898
vn -0.111423112 0.754996836 0.646192431
vn -0.0828551799 0.655103683 0.750982165
vn -0.0683379993 0.594815373 0.800952375
vn -0.0756329373 0.550942659 0.831108749
vn -0.24129799 0.37934649 -0.893236578
vn -0.270260394 0.498316258 -0.823796153
vn -0.310678869 0.618276536 -0.721950769
vn -0.355898499 0.749709249 -0.557917833
vn -0.38607493 0.854713142 -0.347003728
vn -0.394118249 0.909595788 -0.131553218
vn -0.382749885 0.919700384 0.0874860957
vn -0.351461142 0.884881437 0.305712074
vn -0.301229268 0.806060314 0.509438694
vn -0.249469861 0.71266675 0.65564537
vn -0.201243296 0.620061219 0.758304179
vn -0.17598398 0.5590958 0.810210824
vn -0.190280348 0.518467724 0.833657384
vn -0.31275773 0.345296115 -0.884846389
vn -0.361698061 0.449619383 -0.816711068
vn -0.42508626 0.556126356 -0.714160442
vn -0.493908048 0.674701095 -0.548482716
vn -0.542354703 0.769735098 -0.336688638
vn -0.559949815 0.819799244 -0.119938619
vn -0.550313711 0.828965306 0.099856481
vn -0.513086617 0.797712743 0.31685394
vn -0.449493915 0.726980031 0.519090831
vn -0.381001502 0.641950965 0.665384769
vn -0.318986297 0.55897361 0.76537329
vn -0.278497607 0.502315879 0.818607271
vn -0.285691708 0.471434176 0.834344149
vn -0.377191156 0.320089668 -0.869062424
vn -0.443456739 0.385974437 -0.808931351
vn -0.526655078 0.47291255 -0.706390858
vn -0.616399705 0.572207034 -0.540953219
vn -0.681998909 0.653520942 -0.328310758
vn -0.70898056 0.696657121 -0.1096147
vn -0.700660646 0.704849064 0.110736199
vn -0.657384336 0.678729594 0.32737124
vn -0.581038594 0.618654072 0.528829992
vn -0.496595323 0.54577595 0.67492348
vn -0.420269191 0.474925995 0.773187637
vn -0.370675504 0.426897824 0.824838161
vn -0.361321002 0.418217748 0.833391309
vn -0.405857742 0.252588511 -0.878338575
vn -0.507753611 0.302855015 -0.806514263
vn -0.607900918 0.372444063 -0.701243043
vn -0.715126872 0.450261116 -0.534657478
vn -0.796875536 0.51197803 -0.32073012
vn -0.832341433 0.544925451 -0.101311199
vn -0.825050056 0.552345455 0.11919269
vn -0.776951253 0.532454252 0.335915536
vn -0.689808726 0.486115485 0.536521852
vn -0.59153837 0.429518372 0.682346284
vn -0.502003908 0.374005437 0.779815316
vn -0.445078343 0.33749339 0.829459786
vn -0.415015221 0.348781407 0.840305865
vn -0.439826459 0.178809106 -0.880102277
vn -0.554480016 0.212425292 -0.80462873
vn -0.667811811 0.258506477 -0.697998524
vn -0.789144814 0.31167382 -0.529254138
vn -0.88108021 0.353931308 -0.3137362
vn -0.921400666 0.376663864 -0.0956310257
vn -0.915750086 0.3818973 0.124725029
vn -0.863972008 0.369330883 0.342267454
vn -0.769307554 0.33795312 0.542174935
vn -0.661109567 0.298710227 0.688263357
vn -0.562484562 0.260621727 0.784657598
vn -0.499529988 0.238587961 0.832793891
vn -0.461586207 0.251605064 0.850666344
vn -0.462419897 0.0969251469 -0.881347477
vn -0.583406329 0.112770081 -0.804313362
vn -0.704629779 0.13627544 -0.696366251
vn -0.834557056 0.162516385 -0.526405692
vn -0.93224287 0.185040027 -0.31093964
vn -0.976191223 0.196803406 -0.0912097767
vn -0.971638203 0.198226228 0.128940612
vn -0.91838181 0.19089587 0.346603066
vn -0.81822902 0.17518726 0.547549784
vn -0.706052542 0.153606385 0.691299438
vn -0.600532532 0.134696588 0.788173616
vn -0.536493838 0.12396995 0.834748983
vn -0.490255952 0.134878024 0.861079037
vn -0.471755326 -0.00135129644 -0.88172847
vn -0.593392611 -0.00312407687 -0.804907143
vn -0.718095064 0.000257860433 -0.695945024
vn -0.850166559 0.00130652357 -0.526512265
vn -0.950245678 0.00322059169 -0.311485052
vn -0.995953858 0.0039737476 -0.0897778869
vn -0.99141103 0.00321201491 0.130743667
vn -0.937270701 0.00199173763 0.348596752
vn -0.83563298 0.00150728528 0.549286246
vn -0.722119987 0.00106737239 0.691767037
vn -0.613195956 0.000280747015 0.78993082
vn -0.549837291 0.000140203396 0.835271835
vn -0.500077009 0.00417980179 0.86597085
vn -0.463396728 -0.0983614177 -0.880675077
vn -0.581753552 -0.112449616 -0.80555439
vn -0.704922736 -0.135172814 -0.696284652
vn -0.834607124 -0.163219258 -0.526108742
vn -0.932783306 -0.180410832 -0.312037438
vn -0.977118015 -0.192367539 -0.0907474309
vn -0.972310364 -0.194573313 0.129437
vn -0.918955028 -0.188266084 0.346522123
vn -0.818847775 -0.173291802 0.547227919
vn -0.706070781 -0.155578136 0.690839648
vn -0.599690318 -0.136443883 0.788514197
vn -0.53758049 -0.124604911 0.83395499
vn -0.489293993 -0.133492842 0.861841679
vn -0.439866334 -0.17730768 -0.880386055
vn -0.551224053 -0.210791275 -0.807291269
vn -0.667807162 -0.257642299 -0.698322356
vn -0.789853454 -0.310719907 -0.528757751
vn -0.881420076 -0.352567732 -0.314316124
vn -0.921649754 -0.376158088 -0.0952206925
vn -0.915927052 -0.381246865 0.125413015
vn -0.863943338 -0.368686527 0.343033791
vn -0.768216908 -0.338060945 0.543652117
vn -0.662498355 -0.300030351 0.686351061
vn -0.564022183 -0.259791881 0.783828557
vn -0.500594199 -0.236188009 0.832838953
vn -0.45940721 -0.255157679 0.85078758
vn -0.407402217 -0.24620311 -0.879435897
vn -0.505903125 -0.300313145 -0.808624804
vn -0.608994365 -0.370300382 -0.701429665
vn -0.717252374 -0.44878298 -0.533050656
vn -0.797252059 -0.510896981 -0.321517497
vn -0.83311832 -0.543876171 -0.100562073
vn -0.825865388 -0.550966144 0.119927771
vn -0.777756274 -0.530701756 0.336824507
vn -0.691010296 -0.482801765 0.537965834
vn -0.595225632 -0.426518321 0.681020319
vn -0.504207313 -0.372032553 0.779337466
vn -0.445204169 -0.335011393 0.830397964
vn -0.414357275 -0.34392345 0.842629671
vn -0.378791451 -0.318497479 -0.86895138
vn -0.44086197 -0.383994758 -0.811288297
vn -0.525647104 -0.472368598 -0.707504809
vn -0.617157519 -0.572868049 -0.539387345
vn -0.682475865 -0.652354956 -0.32963568
vn -0.710535526 -0.694965661 -0.11028105
vn -0.702683747 -0.70261687 0.112094566
vn -0.659218073 -0.676670015 0.32794705
vn -0.582627237 -0.616372585 0.529745579
vn -0.497743696 -0.544887543 0.674795449
vn -0.419050634 -0.475150675 0.773710847
vn -0.368851811 -0.428568959 0.824789107
vn -0.359819114 -0.411457032 0.837396801
vn -0.311442345 -0.34734416 -0.884508789
vn -0.359784067 -0.448547989 -0.818144381
vn -0.424457014 -0.555841744 -0.714756072
vn -0.494719148 -0.67483151 -0.547590613
vn -0.543058634 -0.768521726 -0.338321954
vn -0.56064862 -0.819237173 -0.120514378
vn -0.550867617 -0.828389883 0.101562984
vn -0.513008535 -0.797418892 0.317718923
vn -0.449920237 -0.72666657 0.51916045
vn -0.381201953 -0.640852451 0.666328251
vn -0.31808728 -0.557954907 0.766489923
vn -0.278589219 -0.503475308 0.817863524
vn -0.285847992 -0.471869648 0.834044397
vn -0.240134493 -0.379216284 -0.893605232
vn -0.271465003 -0.494789541 -0.825524211
vn -0.311341792 -0.616965353 -0.722786367
vn -0.35621807 -0.749487936 -0.558011234
vn -0.386182606 -0.854129434 -0.348318756
vn -0.393093169 -0.909894824 -0.132548928
vn -0.38150999 -0.920058727 0.089117907
vn -0.351699591 -0.88468647 0.306001902
vn -0.303977311 -0.805742323 0.508308053
vn -0.251615644 -0.710003555 0.657711565
vn -0.204499289 -0.618450344 0.758748353
vn -0.178330973 -0.557460308 0.810824335
vn -0.191755101 -0.521326244 0.831534088
vn -0.158294007 -0.401149541 -0.902231753
vn -0.171636581 -0.526408911 -0.832727134
vn -0.190112397 -0.655113757 -0.731220424
vn -0.209371746 -0.795126021 -0.569155633
vn -0.218769655 -0.906716824 -0.360561311
vn -0.215245396 -0.965859115 -0.144171953
vn -0.201855063 -0.976517141 0.0752924308
vn -0.178295568 -0.939173698 0.293536186
vn -0.144400299 -0.855169654 0.497828841
vn -0.111687899 -0.75350064 0.647890985
vn -0.0840005055 -0.65436095 0.751502275
vn -0.0659264624 -0.592068315 0.803186715
vn -0.0774023458 -0.555217564 0.828095615
vn -0.0637056604 -0.409846127 -0.909927368
vn -0.0534425154 -0.667499244 -0.742690146
vn -0.0302208737 -0.926695645 -0.374595672
vn 0.0325173549 -0.873073101 0.48650378
vn 0.0524340086 -0.666505098 0.743654191
vn 0.0564269684 -0.602582097 0.796059549
vn 0.0599271171 -0.568640292 0.820400536
vn -0.32372722 -0.382690251 0.865302801
vn -0.213536933 -0.433199167 0.875637174
vn -0.0845553279 -0.461632371 0.883032322
vn 0.0616626851 -0.470934123 0.880010664
vn 0.20746395 -0.462257087 0.862135231
vn 0.334248602 -0.434145004 0.836538076
vn 0.440296203 -0.384231538 0.811483502
vn -0.367218405 -0.281508774 0.886511981
vn -0.250145972 -0.320774227 0.913526654
vn -0.105992094 -0.350470722 0.930556834
vn 0.061993815 -0.361244023 0.930408299
vn 0.233311251 -0.349277824 0.907508075
vn 0.376133591 -0.320127517 0.869506717
vn 0.486661106 -0.27761808 0.828304946
vn -0.391458571 -0.146138981 0.908517301
vn -0.273323953 -0.17431356 0.945996165
vn -0.128046572 -0.198724449 0.971654594
vn 0.0629273579 -0.210485503 0.975569546
vn 0.26383245 -0.202067196 0.9431656
vn 0.404535085 -0.172490835 0.898108184
vn 0.513696909 -0.146176234 0.845427752
vn -0.399967223 0.00632390566 0.916507602
vn -0.285894275 0.00783974305 0.958229125
vn -0.136215597 0.00905308593 0.990637898
vn 0.0842453837 0.013373767 0.996355295
vn 0.274359524 0.00988383777 0.961576462
vn 0.416431487 0.00562340952 0.909149706
vn 0.525299907 0.00108695973 0.850916445
vn -0.393033594 0.150410444 0.907139003
vn -0.273035914 0.179474354 0.945113897
vn -0.128766716 0.208371118 0.969536304
vn 0.0603876412 0.221317619 0.973330319
vn 0.262912482 0.212340117 0.941163421
vn 0.399927884 0.178615287 0.898974061
vn 0.51626116 0.149842635 0.843221009
vn -0.36462152 0.279767513 0.888133526
vn -0.24458763 0.321840107 0.914656162
vn -0.106718503 0.350676715 0.93039614
vn 0.0608079359 0.36216262 0.930129409
vn 0.232906595 0.349897265 0.907373309
vn 0.368724734 0.322808623 0.871686161
vn 0.483582258 0.281178176 0.828907073
vn -0.320102572 0.387151837 0.864666283
vn -0.209066376 0.432195604 0.877210557
vn -0.0844331011 0.461600661 0.883060455
vn 0.0604080707 0.470053762 0.880568266
vn 0.205529109 0.45953691 0.864050806
vn 0.331038207 0.431589216 0.839133143
vn 0.436151892 0.389553636 0.811183989
vn -0.31468457 -0.250751287 -0.91547668
vn -0.237239838 -0.283012778 -0.92931217
vn -0.157784373 -0.301556379 -0.940301955
vn -0.0662561804 -0.306483686 -0.949567199
vn 0.0271157511 -0.301198959 -0.953175783
vn 0.108119376 -0.28416872 -0.952658594
vn 0.184229672 -0.257966995 -0.948426366
vn -0.344713897 -0.17585519 -0.922088504
vn -0.261538863 -0.200752124 -0.944084823
vn -0.170327201 -0.22063528 -0.960368991
vn -0.0673878118 -0.228253022 -0.971266985
vn 0.0350207351 -0.220991075 -0.974646866
vn 0.126893118 -0.202887401 -0.970945358
vn 0.209203556 -0.178480312 -0.961446047
vn -0.36202693 -0.0981901661 -0.926981747
vn -0.279833376 -0.108132727 -0.953939557
vn -0.180970773 -0.116162956 -0.976604223
vn -0.0693731382 -0.120468393 -0.990290225
vn 0.0423038974 -0.115556911 -0.992399573
vn 0.142295673 -0.106406279 -0.984088242
vn 0.227183685 -0.0920013264 -0.969496429
vn -0.365958571 0.00130704616 -0.930630267
vn -0.282470286 -0.00253652129 -0.959272742
vn -0.185833722 0.000463165954 -0.982581079
vn -0.0726990029 0.00467802119 -0.997342885
vn 0.0455640145 0.00217478536 -0.998959064
vn 0.145330682 0.000519056979 -0.989383042
vn 0.234672993 0.00132246502 -0.972073495
vn -0.358813882 0.0955684483 -0.928503811
vn -0.278641909 0.107385851 -0.954372585
vn -0.181183234 0.117698289 -0.976380885
vn -0.0701476559 0.122608714 -0.989972889
vn 0.0427590907 0.115591325 -0.992376089
vn 0.142717406 0.107016116 -0.983960986
vn 0.226985157 0.0943526775 -0.969316959
vn -0.341425836 0.177963734 -0.922906995
vn -0.260414541 0.204403162 -0.943612039
vn -0.17233713 0.220585272 -0.960021913
vn -0.0665785894 0.223215252 -0.972492754
vn 0.0362311564 0.219142452 -0.975019932
vn 0.12520124 0.200500712 -0.971660554
vn 0.209894598 0.175730124 -0.961802006
vn -0.313013017 0.255170286 -0.91482836
vn -0.239993125 0.28126511 -0.929135799
vn -0.160964578 0.298474938 -0.940746069
vn -0.0656746626 0.306039333 -0.9497509
vn 0.0281038564 0.301617891 -0.953014612
vn 0.10582941 0.283731103 -0.953046143
vn 0.183293521 0.253679514 -0.949763179
vn 0.185495436 -0.590950191 0.785091996
vn 0.293988824 -0.552581847 0.77988714
vn 0.390538156 -0.499879271 0.773046434
vn 0.483464092 -0.425029308 0.765253246
vn 0.55571574 -0.33697772 0.760017216
vn 0.6073066 -0.241076335 0.757007837
vn 0.645106554 -0.127906919 0.753310978
vn 0.660083473 -0.00231173495 0.751188755
vn 0.646026611 0.129631445 0.752226949
vn 0.608132422 0.242495269 0.755890846
vn 0.554654419 0.33861804 0.76006341
vn 0.479662031 0.430385411 0.764652073
vn 0.391994834 0.5024544 0.770635903
vn 0.298190027 0.553373992 0.777727425
vn 0.18662788 0.590458035 0.785193801
vn 0.0555961691 0.60698694 0.792764723
vn -0.0724635124 0.593860924 0.801297843
vn -0.183651254 0.554535687 0.811641753
vn -0.279451877 0.500814378 0.819201887
vn -0.369880348 0.426878601 0.825204968
vn -0.443989903 0.337972701 0.829847872
vn -0.495593756 0.242161572 0.834113061
vn -0.534166694 0.129128277 0.835459054
vn -0.55000937 0.0020342106 0.835156024
vn -0.535837829 -0.12859413 0.834470689
vn -0.495533377 -0.243054733 0.833889127
vn -0.444217831 -0.334578067 0.831100523
vn -0.369730592 -0.426506221 0.825464606
vn -0.2789644 -0.502051592 0.818610489
vn -0.183525473 -0.553392887 0.812449753
vn -0.0711203292 -0.592704654 0.80227375
vn 0.0571752153 -0.607324421 0.792393863
f 2//2 411//411 9//9
f 2//2 9//9 10//10
f 415//415 414//414 17//17
f 415//415 17//17 18//18
f 412//412 2//2 10//10
f 412//412 10//10 11//11
f 546//546 415//415 18//18
f 546//546 18//18 515//515
f 3//3 412//412 11//11
f 3//3 11//11 12//12
f 4//4 3//3 12//12
f 4//4 12//12 13//13
f 5//5 4//4 13//13
f 5//5 13//13 14//14
f 413//413 5//5 14//14
f 413//413 14//14 15//15
f 1//1 410//410 7//7
f 1//1 7//7 8//8
f 6//6 413//413 15//15
f 6//6 15//15 16//16
f 411//411 1//1 8//8
f 411//411 8//8 9//9
f 414//414 6//6 16//16
f 414//414 16//16 17//17
f 9//9 8//8 21//21
f 9//9 21//21 22//22
f 17//17 16//16 29//29
f 17//17 29//29 30//30
f 10//10 9//9 22//22
f 10//10 22//22 23//23
f 18//18 17//17 30//30
f 18//18 30//30 31//31
f 11//11 10//10 23//23
f 11//11 23//23 24//24
f 515//515 18//18 31//31
f 515//515 31//31 516//516
f 12//12 11//11 24//24
f 12//12 24//24 25//25
f 13//13 12//12 25//25
f 13//13 25//25 26//26
f 14//14 13//13 26//26
f 14//14 26//26 27//27
f 15//15 14//14 27//27
f 15//15 27//27 28//28
f 8//8 7//7 20//20
f 8//8 20//20 21//21
f 16//16 15//15 28//28
f 16//16 28//28 29//29
f 26//26 25//25 38//38
f 26//26 38//38 39//39
f 27//27 26//26 39//39
f 27//27 39//39 40//40
f 28//28 27//27 40//40
f 28//28 40//40 41//41
f 21//21 20//20 33//33
f 21//21 33//33 34//34
f 29//29 28//28 41//41
f 29//29 41//41 42//42
f 22//22 21//21 34//34
f 22//22 34//34 35//35
f 30//30 29//29 42//42
f 30//30 42//42 43//43
f 23//23 22//22 35//35
f 23//23 35//35 36//36
f 31//31 30//30 43//43
f 31//31 43//43 44//44
f 24//24 23//23 36//36
f 24//24 36//36 37//37
f 516//516 31//31 44//44
f 516//516 44//44 517//517
f 25//25 24//24 37//37
f 25//25 37//37 38//38
f 35//35 34//34 47//47
f 35//35 47//47 48//48
f 43//43 42//42 55//55
f 43//43 55//55 56//56
f 36//36 35//35 48//48
f 36//36 48//48 49//49
f 44//44 43//43 56//56
f 44//44 56//56 57//57
f 37//37 36//36 49//49
f 37//37 49//49 50//50
f 517//517 44//44 57//57
f 517//517 57//57 518//518
f 38//38 37//37 50//50
f 38//38 50//50 51//51
f 39//39 38//38 51//51
f 39//39 51//51 52//52
f 40//40 39//39 52//52
f 40//40 52//52 53//53
f 41//41 40//40 53//53
f 41//41 53//53 54//54
f 34//34 33//33 46//46
f 34//34 46//46 47//47
f 42//42 41//41 54//54
f 42//42 54//54 55//55
f 52//52 51//51 64//64
f 52//52 64//64 65//65
f 53//53 52//52 65//65
f 53//53 65//65 66//66
f 54//54 53//53 66//66
f 54//54 66//66 67//67
f 47//47 46//46 59//59
f 47//47 59//59 60//60
f 55//55 54//54 67//67
f 55//55 67//67 68//68
f 48//48 47//47 60//60
f 48//48 60//60 61//61
f 56//56 55//55 68//68
f 56//56 68//68 69//69
f 49//49 48//48 61//61
f 49//49 61//61 62//62
f 57//57 56//56 69//69
f 57//57 69//69 70//70
f 50//50 49//49 62//62
f 50//50 62//62 63//63
f 518//518 57//57 70//70
f 518//518 70//70 519//519
f 51//51 50//50 63//63
f 51//51 63//63 64//64
f 69//69 68//68 81//81
f 69//69 81//81 82//82
f 62//62 61//61 74//74
f 62//62 74//74 75//75
f 70//70 69//69 82//82
f 70//70 82//82 83//83
f 63//63 62//62 75//75
f 63//63 75//75 76//76
f 519//519 70//70 83//83
f 519//519 83//83 520//520
f 64//64 63//63 76//76
f 64//64 76//76 77//77
f 65//65 64//64 77//77
f 65//65 77//77 78//78
f 66//66 65//65 78//78
f 66//66 78//78 79//79
f 67//67 66//66 79//79
f 67//67 79//79 80//80
f 60//60 59//59 72//72
f 60//60 72//72 73//73
f 68//68 67//67 80//80
f 68//68 80//80 81//81
f 61//61 60//60 73//73
f 61//61 73//73 74//74
f 79//79 78//78 91//91
f 79//79 91//91 92//92
f 80//80 79//79 92//92
f 80//80 92//92 93//93
f 73//73 72//72 85//85
f 73//73 85//85 86//86
f 81//81 80//80 93//93
f 81//81 93//93 94//94
f 74//74 73//73 86//86
f 74//74 86//86 87//87
f 82//82 81//81 94//94
f 82//82 94//94 95//95
f 75//75 74//74 87//87
f 75//75 87//87 88//88
f 83//83 82//82 95//95
f 83//83 95//95 96//96
f 76//76 75//75 88//88
f 76//76 88//88 89//89
f 520//520 83//83 96//96
f 520//520 96//96 521//521
f 77//77 76//76 89//89
f 77//77 89//89 90//90
f 78//78 77//77 90//90
f 78//78 90//90 91//91
f 88//88 87//87 100//100
f 88//88 100//100 101//101
f 96//96 95//95 108//108
f 96//96 108//108 109//109
f 89//89 88//88 101//101
f 89//89 101//101 102//102
f 521//521 96//96 109//109
f 521//521 109//109 522//522
f 90//90 89//89 102//102
f 90//90 102//102 103//103
f 91//91 90//90 103//103
f 91//91 103//103 104//104
f 92//92 91//91 104//104
f 92//92 104//104 105//105
f 93//93 92//92 105//105
f 93//93 105//105 106//106
f 86//86 85//85 98//98
f 86//86 98//98 99//99
f 94//94 93//93 106//106
f 94//94 106//106 107//107
f 87//87 86//86 99//99
f 87//87 99//99 100//100
f 95//95 94//94 107//107
f 95//95 107//107 108//108
f 105//105 104//104 117//117
f 105//105 117//117 118//118
f 106//106 105//105 118//118
f 106//106 118//118 119//119
f 99//99 98//98 111//111
f 99//99 111//111 112//112
f 107//107 106//106 119//119
f 107//107 119//119 120//120
f 100//100 99//99 112//112
f 100//100 112//112 113//113
f 108//108 107//107 120//120
f 108//108 120//120 121//121
f 101//101 100//100 113//113
f 101//101 113//113 114//114
f 109//109 108//108 121//121
f 109//109 121//121 122//122
f 102//102 101//101 114//114
f 102//102 114//114 115//115
f 522//522 109//109 122//122
f 522//522 122//122 523//523
f 103//103 102//102 115//115
f 103//103 115//115 116//116
f 104//104 103//103 116//116
f 104//104 116//116 117//117
f 122//122 121//121 134//134
f 122//122 134//134 135//135
f 115//115 114//114 127//127
f 115//115 127//127 128//128
f 523//523 122//122 135//135
f 523//523 135//135 524//524
f 116//116 115//115 128//128
f 116//116 128//128 129//129
f 117//117 116//116 129//129
f 117//117 129//129 130//130
f 118//118 117//117 130//130
f 118//118 130//130 131//131
f 119//119 118//118 131//131
f 119//119 131//131 132//132
f 112//112 111//111 124//124
f 112//112 124//124 125//125
f 120//120 119//119 132//132
f 120//120 132//132 133//133
f 113//113 112//112 125//125
f 113//113 125//125 126//126
f 121//121 120//120 133//133
f 121//121 133//133 134//134
f 114//114 113//113 126//126
f 114//114 126//126 127//127
f 132//132 131//131 144//144
f 132//132 144//144 145//145
f 125//125 124//124 137//137
f 125//125 137//137 138//138
f 133//133 132//132 145//145
f 133//133 145//145 146//146
f 126//126 125//125 138//138
f 126//126 138//138 139//139
f 134//134 133//133 146//146
f 134//134 146//146 147//147
f 127//127 126//126 139//139
f 127//127 139//139 140//140
f 135//135 134//134 147//147
f 135//135 147//147 148//148
f 128//128 127//127 140//140
f 128//128 140//140 141//141
f 524//524 135//135 148//148
f 524//524 148//148 525//525
f 129//129 128//128 141//141
f 129//129 141//141 142//142
f 130//130 129//129 142//142
f 130//130 142//142 143//143
f 131//131 130//130 143//143
f 131//131 143//143 144//144
f 525//525 148//148 161//161
f 525//525 161//161 526//526
f 142//142 141//141 154//154
f 142//142 154//154 155//155
f 143//143 142//142 155//155
f 143//143 155//155 156//156
f 144//144 143//143 156//156
f 144//144 156//156 157//157
f 145//145 144//144 157//157
f 145//145 157//157 158//158
f 138//138 137//137 150//150
f 138//138 150//150 151//151
f 146//146 145//145 158//158
f 146//146 158//158 159//159
f 139//139 138//138 151//151
f 139//139 151//151 152//152
f 147//147 146//146 159//159
f 147//147 159//159 160//160
f 140//140 139//139 152//152
f 140//140 152//152 153//153
f 148//148 147//147 160//160
f 148//148 160//160 161//161
f 141//141 140//140 153//153
f 141//141 153//153 154//154
f 151//151 150//150 163//163
f 151//151 163//163 164//164
f 159//159 158//158 171//171
f 159//159 171//171 172//172
f 152//152 151//151 164//164
f 152//152 164//164 165//165
f 160//160 159//159 172//172
f 160//160 172//172 173//173
f 153//153 152//152 165//165
f 153//153 165//165 166//166
f 161//161 160//160 173//173
f 161//161 173//173 174//174
f 154//154 153//153 166//166
f 154//154 166//166 167//167
f 526//526 161//161 174//174
f 526//526 174//174 527//527
f 155//155 154//154 167//167
f 155//155 167//167 168//168
f 156//156 155//155 168//168
f 156//156 168//168 169//169
f 157//157 156//156 169//169
f 157//157 169//169 170//170
f 158//158 157//157 170//170
f 158//158 170//170 171//171
f 168//168 167//167 180//180
f 168//168 180//180 181//181
f 169//169 168//168 181//181
f 169//169 181//181 182//182
f 170//170 169//169 182//182
f 170//170 182//182 183//183
f 171//171 170//170 183//183
f 171//171 183//183 184//184
f 164//164 163//163 176//176
f 164//164 176//176 177//177
f 172//172 171//171 184//184
f 172//172 184//184 185//185
f 165//165 164//164 177//177
f 165//165 177//177 178//178
f 173//173 172//172 185//185
f 173//173 185//185 186//186
f 166//166 165//165 178//178
f 166//166 178//178 179//179
f 174//174 173//173 186//186
f 174//174 186//186 187//187
f 167//167 166//166 179//179
f 167//167 179//179 180//180
f 527//527 174//174 187//187
f 527//527 187//187 528//528
f 185//185 184//184 197//197
f 185//185 197//197 198//198
f 178//178 177//177 190//190
f 178//178 190//190 191//191
f 186//186 185//185 198//198
f 186//186 198//198 199//199
f 179//179 178//178 191//191
f 179//179 191//191 192//192
f 187//187 186//186 199//199
f 187//187 199//199 200//200
f 180//180 179//179 192//192
f 180//180 192//192 193//193
f 528//528 187//187 200//200
f 528//528 200//200 529//529
f 181//181 180//180 193//193
f 181//181 193//193 194//194
f 182//182 181//181 194//194
f 182//182 194//194 195//195
f 183//183 182//182 195//195
f 183//183 195//195 196//196
f 184//184 183//183 196//196
f 184//184 196//196 197//197
f 177//177 176//176 189//189
f 177//177 189//189 190//190
f 195//195 194//194 207//207
f 195//195 207//207 208//208
f 196//196 195//195 208//208
f 196//196 208//208 209//209
f 197//197 196//196 209//209
f 197//197 209//209 210//210
f 190//190 189//189 202//202
f 190//190 202//202 203//203
f 198//198 197//197 210//210
f 198//198 210//210 211//211
f 191//191 190//190 203//203
f 191//191 203//203 204//204
f 199//199 198//198 211//211
f 199//199 211//211 212//212
f 192//192 191//191 204//204
f 192//192 204//204 205//205
f 200//200 199//199 212//212
f 200//200 212//212 213//213
f 193//193 192//192 205//205
f 193//193 205//205 206//206
f 529//529 200//200 213//213
f 529//529 213//213 530//530
f 194//194 193//193 206//206
f 194//194 206//206 207//207
f 204//204 203//203 216//216
f 204//204 216//216 217//217
f 212//212 211//211 224//224
f 212//212 224//224 225//225
f 205//205 204//204 217//217
f 205//205 217//217 218//218
f 213//213 212//212 225//225
f 213//213 225//225 226//226
f 206//206 205//205 218//218
f 206//206 218//218 219//219
f 530//530 213//213 226//226
f 530//530 226//226 531//531
f 207//207 206//206 219//219
f 207//207 219//219 220//220
f 208//208 207//207 220//220
f 208//208 220//220 221//221
f 209//209 208//208 221//221
f 209//209 221//221 222//222
f 210//210 209//209 222//222
f 210//210 222//222 223//223
f 203//203 202//202 215//215
f 203//203 215//215 216//216
f 211//211 210//210 223//223
f 211//211 223//223 224//224
f 221//221 220//220 233//233
f 221//221 233//233 234//234
f 222//222 221//221 234//234
f 222//222 234//234 235//235
f 223//223 222//222 235//235
f 223//223 235//235 236//236
f 216//216 215//215 228//228
f 216//216 228//228 229//229
f 224//224 223//223 236//236
f 224//224 236//236 237//237
f 217//217 216//216 229//229
f 217//217 229//229 230//230
f 225//225 224//224 237//237
f 225//225 237//237 238//238
f 218//218 217//217 230//230
f 218//218 230//230 231//231
f 226//226 225//225 238//238
f 226//226 238//238 239//239
f 219//219 218//218 231//231
f 219//219 231//231 232//232
f 531//531 226//226 239//239
f 531//531 239//239 532//532
f 220//220 219//219 232//232
f 220//220 232//232 233//233
f 238//238 237//237 250//250
f 238//238 250//250 251//251
f 231//231 230//230 243//243
f 231//231 243//243 244//244
f 239//239 238//238 251//251
f 239//239 251//251 252//252
f 232//232 231//231 244//244
f 232//232 244//244 245//245
f 532//532 239//239 252//252
f 532//532 252//252 533//533
f 233//233 232//232 245//245
f 233//233 245//245 246//246
f 234//234 233//233 246//246
f 234//234 246//246 247//247
f 235//235 234//234 247//247
f 235//235 247//247 248//248
f 236//236 235//235 248//248
f 236//236 248//248 249//249
f 229//229 228//228 241//241
f 229//229 241//241 242//242
f 237//237 236//236 249//249
f 237//237 249//249 250//250
f 230//230 229//229 242//242
f 230//230 242//242 243//243
f 248//248 247//247 260//260
f 248//248 260//260 261//261
f 249//249 248//248 261//261
f 249//249 261//261 262//262
f 242//242 241//241 254//254
f 242//242 254//254 255//255
f 250//250 249//249 262//262
f 250//250 262//262 263//263
f 243//243 242//242 255//255
f 243//243 255//255 256//256
f 251//251 250//250 263//263
f 251//251 263//263 264//264
f 244//244 243//243 256//256
f 244//244 256//256 257//257
f 252//252 251//251 264//264
f 252//252 264//264 265//265
f 245//245 244//244 257//257
f 245//245 257//257 258//258
f 533//533 252//252 265//265
f 533//533 265//265 534//534
f 246//246 245//245 258//258
f 246//246 258//258 259//259
f 247//247 246//246 259//259
f 247//247 259//259 260//260
f 265//265 264//264 277//277
f 265//265 277//277 278//278
f 258//258 257//257 270//270
f 258//258 270//270 271//271
f 534//534 265//265 278//278
f 534//534 278//278 535//535
f 259//259 258//258 271//271
f 259//259 271//271 272//272
f 260//260 259//259 272//272
f 260//260 272//272 273//273
f 261//261 260//260 273//273
f 261//261 273//273 274//274
f 262//262 261//261 274//274
f 262//262 274//274 275//275
f 255//255 254//254 267//267
f 255//255 267//267 268//268
f 263//263 262//262 275//275
f 263//263 275//275 276//276
f 256//256 255//255 268//268
f 256//256 268//268 269//269
f 264//264 263//263 276//276
f 264//264 276//276 277//277
f 257//257 256//256 269//269
f 257//257 269//269 270//270
f 275//275 274//274 287//287
f 275//275 287//287 288//288
f 268//268 267//267 280//280
f 268//268 280//280 281//281
f 276//276 275//275 288//288
f 276//276 288//288 289//289
f 269//269 268//268 281//281
f 269//269 281//281 282//282
f 277//277 276//276 289//289
f 277//277 289//289 290//290
f 270//270 269//269 282//282
f 270//270 282//282 283//283
f 278//278 277//277 290//290
f 278//278 290//290 291//291
f 271//271 270//270 283//283
f 271//271 283//283 284//284
f 535//535 278//278 291//291
f 535//535 291//291 536//536
f 272//272 271//271 284//284
f 272//272 284//284 285//285
f 273//273 272//272 285//285
f 273//273 285//285 286//286
f 274//274 273//273 286//286
f 274//274 286//286 287//287
f 284//284 283//283 296//296
f 284//284 296//296 297//297
f 536//536 291//291 304//304
f 536//536 304//304 537//537
f 285//285 284//284 297//297
f 285//285 297//297 298//298
f 286//286 285//285 298//298
f 286//286 298//298 299//299
f 287//287 286//286 299//299
f 287//287 299//299 300//300
f 288//288 287//287 300//300
f 288//288 300//300 301//301
f 281//281 280//280 293//293
f 281//281 293//293 294//294
f 289//289 288//288 301//301
f 289//289 301//301 302//302
f 282//282 281//281 294//294
f 282//282 294//294 295//295
f 290//290 289//289 302//302
f 290//290 302//302 303//303
f 283//283 282//282 295//295
f 283//283 295//295 296//296
f 291//291 290//290 303//303
f 291//291 303//303 304//304
f 301//301 300//300 313//313
f 301//301 313//313 314//314
f 294//294 293//293 306//306
f 294//294 306//306 307//307
f 302//302 301//301 314//314
f 302//302 314//314 315//315
f 295//295 294//294 307//307
f 295//295 307//307 308//308
f 303//303 302//302 315//315
f 303//303 315//315 316//316
f 296//296 295//295 308//308
f 296//296 308//308 309//309
f 304//304 303//303 316//316
f 304//304 316//316 317//317
f 297//297 296//296 309//309
f 297//297 309//309 310//310
f 537//537 304//304 317//317
f 537//537 317//317 538//538
f 298//298 297//297 310//310
f 298//298 310//310 311//311
f 299//299 298//298 311//311
f 299//299 311//311 312//312
f 300//300 299//299 312//312
f 300//300 312//312 313//313
f 538//538 317//317 330//330
f 538//538 330//330 539//539
f 311//311 310//310 323//323
f 311//311 323//323 324//324
f 312//312 311//311 324//324
f 312//312 324//324 325//325
f 313//313 312//312 325//325
f 313//313 325//325 326//326
f 314//314 313//313 326//326
f 314//314 326//326 327//327
f 307//307 306//306 319//319
f 307//307 319//319 320//320
f 315//315 314//314 327//327
f 315//315 327//327 328//328
f 308//308 307//307 320//320
f 308//308 320//320 321//321
f 316//316 315//315 328//328
f 316//316 328//328 329//329
f 309//309 308//308 321//321
f 309//309 321//321 322//322
f 317//317 316//316 329//329
f 317//317 329//329 330//330
f 310//310 309//309 322//322
f 310//310 322//322 323//323
f 320//320 319//319 332//332
f 320//320 332//332 333//333
f 328//328 327//327 340//340
f 328//328 340//340 341//341
f 321//321 320//320 333//333
f 321//321 333//333 334//334
f 329//329 328//328 341//341
f 329//329 341//341 342//342
f 322//322 321//321 334//334
f 322//322 334//334 335//335
f 330//330 329//329 342//342
f 330//330 342//342 343//343
f 323//323 322//322 335//335
f 323//323 335//335 336//336
f 539//539 330//330 343//343
f 539//539 343//343 540//540
f 324//324 323//323 336//336
f 324//324 336//336 337//337
f 325//325 324//324 337//337
f 325//325 337//337 338//338
f 326//326 325//325 338//338
f 326//326 338//338 339//339
f 327//327 326//326 339//339
f 327//327 339//339 340//340
f 337//337 336//336 349//349
f 337//337 349//349 350//350
f 338//338 337//337 350//350
f 338//338 350//350 351//351
f 339//339 338//338 351//351
f 339//339 351//351 352//352
f 340//340 339//339 352//352
f 340//340 352//352 353//353
f 333//333 332//332 345//345
f 333//333 345//345 346//346
f 341//341 340//340 353//353
f 341//341 353//353 354//354
f 334//334 333//333 346//346
f 334//334 346//346 347//347
f 342//342 341//341 354//354
f 342//342 354//354 355//355
f 335//335 334//334 347//347
f 335//335 347//347 348//348
f 343//343 342//342 355//355
f 343//343 355//355 356//356
f 336//336 335//335 348//348
f 336//336 348//348 349//349
f 540//540 343//343 356//356
f 540//540 356//356 541//541
f 354//354 353//353 366//366
f 354//354 366//366 367//367
f 347//347 346//346 359//359
f 347//347 359//359 360//360
f 355//355 354//354 367//367
f 355//355 367//367 368//368
f 348//348 347//347 360//360
f 348//348 360//360 361//361
f 356//356 355//355 368//368
f 356//356 368//368 369//369
f 349//349 348//348 361//361
f 349//349 361//361 362//362
f 541//541 356//356 369//369
f 541//541 369//369 542//542
f 350//350 349//349 362//362
f 350//350 362//362 363//363
f 351//351 350//350 363//363
f 351//351 363//363 364//364
f 352//352 351//351 364//364
f 352//352 364//364 365//365
f 353//353 352//352 365//365
f 353//353 365//365 366//366
f 346//346 345//345 358//358
f 346//346 358//358 359//359
f 364//364 363//363 376//376
f 364//364 376//376 377//377
f 365//365 364//364 377//377
f 365//365 377//377 378//378
f 366//366 365//365 378//378
f 366//366 378//378 379//379
f 359//359 358//358 371//371
f 359//359 371//371 372//372
f 367//367 366//366 379//379
f 367//367 379//379 380//380
f 360//360 359//359 372//372
f 360//360 372//372 373//373
f 368//368 367//367 380//380
f 368//368 380//380 381//381
f 361//361 360//360 373//373
f 361//361 373//373 374//374
f 369//369 368//368 381//381
f 369//369 381//381 382//382
f 362//362 361//361 374//374
f 362//362 374//374 375//375
f 542//542 369//369 382//382
f 542//542 382//382 543//543
f 363//363 362//362 375//375
f 363//363 375//375 376//376
f 381//381 380//380 393//393
f 381//381 393//393 394//394
f 374//374 373//373 386//386
f 374//374 386//386 387//387
f 382//382 381//381 394//394
f 382//382 394//394 395//395
f 375//375 374//374 387//387
f 375//375 387//387 388//388
f 543//543 382//382 395//395
f 543//543 395//395 544//544
f 376//376 375//375 388//388
f 376//376 388//388 389//389
f 377//377 376//376 389//389
f 377//377 389//389 390//390
f 378//378 377//377 390//390
f 378//378 390//390 391//391
f 379//379 378//378 391//391
f 379//379 391//391 392//392
f 372//372 371//371 384//384
f 372//372 384//384 385//385
f 380//380 379//379 392//392
f 380//380 392//392 393//393
f 373//373 372//372 385//385
f 373//373 385//385 386//386
f 391//391 390//390 403//403
f 391//391 403//403 404//404
f 392//392 391//391 404//404
f 392//392 404//404 405//405
f 385//385 384//384 397//397
f 385//385 397//397 398//398
f 393//393 392//392 405//405
f 393//393 405//405 406//406
f 386//386 385//385 398//398
f 386//386 398//398 399//399
f 394//394 393//393 406//406
f 394//394 406//406 407//407
f 387//387 386//386 399//399
f 387//387 399//399 400//400
f 395//395 394//394 407//407
f 395//395 407//407 408//408
f 388//388 387//387 400//400
f 388//388 400//400 401//401
f 544//544 395//395 408//408
f 544//544 408//408 545//545
f 389//389 388//388 401//401
f 389//389 401//401 402//402
f 390//390 389//389 402//402
f 390//390 402//402 403//403
f 400//400 399//399 411//411
f 400//400 411//411 2//2
f 408//408 407//407 414//414
f 408//408 414//414 415//415
f 401//401 400//400 2//2
f 401//401 2//2 412//412
f 545//545 408//408 415//415
f 545//545 415//415 546//546
f 402//402 401//401 412//412
f 402//402 412//412 3//3
f 403//403 402//402 3//3
f 403//403 3//3 4//4
f 404//404 403//403 4//4
f 404//404 4//4 5//5
f 405//405 404//404 5//5
f 405//405 5//5 413//413
f 398//398 397//397 410//410
f 398//398 410//410 1//1
f 406//406 405//405 413//413
f 406//406 413//413 6//6
f 399//399 398//398 1//1
f 399//399 1//1 411//411
f 407//407 406//406 6//6
f 407//407 6//6 414//414
f 383//383 417//417 357//357
f 383//383 357//357 370//370
f 417//417 424//424 344//344
f 417//417 344//344 357//357
f 424//424 431//431 331//331
f 424//424 331//331 344//344
f 431//431 438//438 318//318
f 431//431 318//318 331//331
f 438//438 445//445 305//305
f 438//438 305//305 318//318
f 445//445 452//452 292//292
f 445//445 292//292 305//305
f 452//452 459//459 279//279
f 452//452 279//279 292//292
f 459//459 253//253 266//266
f 459//459 266//266 279//279
f 396//396 418//418 417//417
f 396//396 417//417 383//383
f 418//418 425//425 424//424
f 418//418 424//424 417//417
f 425//425 432//432 431//431
f 425//425 431//431 424//424
f 432//432 439//439 438//438
f 432//432 438//438 431//431
f 439//439 446//446 445//445
f 439//439 445//445 438//438
f 446//446 453//453 452//452
f 446//446 452//452 445//445
f 453//453 460//460 459//459
f 453//453 459//459 452//452
f 460//460 240//240 253//253
f 460//460 253//253 459//459
f 409//409 419//419 418//418
f 409//409 418//418 396//396
f 419//419 426//426 425//425
f 419//419 425//425 418//418
f 426//426 433//433 432//432
f 426//426 432//432 425//425
f 433//433 440//440 439//439
f 433//433 439//439 432//432
f 440//440 447//447 446//446
f 440//440 446//446 439//439
f 447//447 454//454 453//453
f 447//447 453//453 446//446
f 454//454 461//461 460//460
f 454//454 460//460 453//453
f 461//461 227//227 240//240
f 461//461 240//240 460//460
f 416//416 420//420 419//419
f 416//416 419//419 409//409
f 420//420 427//427 426//426
f 420//420 426//426 419//419
f 427//427 434//434 433//433
f 427//427 433//433 426//426
f 434//434 441//441 440//440
f 434//434 440//440 433//433
f 441//441 448//448 447//447
f 441//441 447//447 440//440
f 448//448 455//455 454//454
f 448//448 454//454 447//447
f 455//455 462//462 461//461
f 455//455 461//461 454//454
f 462//462 214//214 227//227
f 462//462 227//227 461//461
f 19//19 421//421 420//420
f 19//19 420//420 416//416
f 421//421 428//428 427//427
f 421//421 427//427 420//420
f 428//428 435//435 434//434
f 428//428 434//434 427//427
f 435//435 442//442 441//441
f 435//435 441//441 434//434
f 442//442 449//449 448//448
f 442//442 448//448 441//441
f 449//449 456//456 455//455
f 449//449 455//455 448//448
f 456//456 463//463 462//462
f 456//456 462//462 455//455
f 463//463 201//201 214//214
f 463//463 214//214 462//462
f 32//32 422//422 421//421
f 32//32 421//421 19//19
f 422//422 429//429 428//428
f 422//422 428//428 421//421
f 429//429 436//436 435//435
f 429//429 435//435 428//428
f 436//436 443//443 442//442
f 436//436 442//442 435//435
f 443//443 450//450 449//449
f 443//443 449//449 442//442
f 450//450 457//457 456//456
f 450//450 456//456 449//449
f 457//457 464//464 463//463
f 457//457 463//463 456//456
f 464//464 188//188 201//201
f 464//464 201//201 463//463
f 45//45 423//423 422//422
f 45//45 422//422 32//32
f 423//423 430//430 429//429
f 423//423 429//429 422//422
f 430//430 437//437 436//436
f 430//430 436//436 429//429
f 437//437 444//444 443//443
f 437//437 443//443 436//436
f 444//444 451//451 450//450
f 444//444 450//450 443//443
f 451//451 458//458 457//457
f 451//451 457//457 450//450
f 458//458 465//465 464//464
f 458//458 464//464 457//457
f 465//465 175//175 188//188
f 465//465 188//188 464//464
f 58//58 71//71 423//423
f 58//58 423//423 45//45
f 71//71 84//84 430//430
f 71//71 430//430 423//423
f 84//84 97//97 437//437
f 84//84 437//437 430//430
f 97//97 110//110 444//444
f 97//97 444//444 437//437
f 110//110 123//123 451//451
f 110//110 451//451 444//444
f 123//123 136//136 458//458
f 123//123 458//458 451//451
f 136//136 149//149 465//465
f 136//136 465//465 458//458
f 149//149 162//162 175//175
f 149//149 175//175 465//465
f 358//358 345//345 466//466
f 358//358 466//466 371//371
f 345//345 332//332 473//473
f 345//345 473//473 466//466
f 332//332 319//319 480//480
f 332//332 480//480 473//473
f 319//319 306//306 487//487
f 319//319 487//487 480//480
f 306//306 293//293 494//494
f 306//306 494//494 487//487
f 293//293 280//280 501//501
f 293//293 501//501 494//494
f 280//280 267//267 508//508
f 280//280 508//508 501//501
f 267//267 254//254 241//241
f 267//267 241//241 508//508
f 371//371 466//466 467//467
f 371//371 467//467 384//384
f 466//466 473//473 474//474
f 466//466 474//474 467//467
f 473//473 480//480 481//481
f 473//473 481//481 474//474
f 480//480 487//487 488//488
f 480//480 488//488 481//481
f 487//487 494//494 495//495
f 487//487 495//495 488//488
f 494//494 501//501 502//502
f 494//494 502//502 495//495
f 501//501 508//508 509//509
f 501//501 509//509 502//502
f 508//508 241//241 228//228
f 508//508 228//228 509//509
f 384//384 467//467 468//468
f 384//384 468//468 397//397
f 467//467 474//474 475//475
f 467//467 475//475 468//468
f 474//474 481//481 482//482
f 474//474 482//482 475//475
f 481//481 488//488 489//489
f 481//481 489//489 482//482
f 488//488 495//495 496//496
f 488//488 496//496 489//489
f 495//495 502//502 503//503
f 495//495 503//503 496//496
f 502//502 509//509 510//510
f 502//502 510//510 503//503
f 509//509 228//228 215//215
f 509//509 215//215 510//510
f 397//397 468//468 469//469
f 397//397 469//469 410//410
f 468//468 475//475 476//476
f 468//468 476//476 469//469
f 475//475 482//482 483//483
f 475//475 483//483 476//476
f 482//482 489//489 490//490
f 482//482 490//490 483//483
f 489//489 496//496 497//497
f 489//489 497//497 490//490
f 496//496 503//503 504//504
f 496//496 504//504 497//497
f 503//503 510//510 511//511
f 503//503 511//511 504//504
f 510//510 215//215 202//202
f 510//510 202//202 511//511
f 410//410 469//469 470//470
f 410//410 470//470 7//7
f 469//469 476//476 477//477
f 469//469 477//477 470//470
f 476//476 483//483 484//484
f 476//476 484//484 477//477
f 483//483 490//490 491//491
f 483//483 491//491 484//484
f 490//490 497//497 498//498
f 490//490 498//498 491//491
f 497//497 504//504 505//505
f 497//497 505//505 498//498
f 504//504 511//511 512//512
f 504//504 512//512 505//505
f 511//511 202//202 189//189
f 511//511 189//189 512//512
f 7//7 470//470 471//471
f 7//7 471//471 20//20
f 470//470 477//477 478//478
f 470//470 478//478 471//471
f 477//477 484//484 485//485
f 477//477 485//485 478//478
f 484//484 491//491 492//492
f 484//484 492//492 485//485
f 491//491 498//498 499//499
f 491//491 499//499 492//492
f 498//498 505//505 506//506
f 498//498 506//506 499//499
f 505//505 512//512 513//513
f 505//505 513//513 506//506
f 512//512 189//189 176//176
f 512//512 176//176 513//513
f 20//20 471//471 472//472
f 20//20 472//472 33//33
f 471//471 478//478 479//479
f 471//471 479//479 472//472
f 478//478 485//485 486//486
f 478//478 486//486 479//479
f 485//485 492//492 493//493
f 485//485 493//493 486//486
f 492//492 499//499 500//500
f 492//492 500//500 493//493
f 499//499 506//506 507//507
f 499//499 507//507 500//500
f 506//506 513//513 514//514
f 506//506 514//514 507//507
f 513//513 176//176 163//163
f 513//513 163//163 514//514
f 33//33 472//472 59//59
f 33//33 59//59 46//46
f 472//472 479//479 72//72
f 472//472 72//72 59//59
f 479//479 486//486 85//85
f 479//479 85//85 72//72
f 486//486 493//493 98//98
f 486//486 98//98 85//85
f 493//493 500//500 111//111
f 493//493 111//111 98//98
f 500//500 507//507 124//124
f 500//500 124//124 111//111
f 507//507 514//514 137//137
f 507//507 137//137 124//124
f 514//514 163//163 150//150
f 514//514 150//150 137//137
f 409//409 545//545 546//546
f 409//409 546//546 416//416
f 396//396 544//544 545//545
f 396//396 545//545 409//409
f 383//383 543//543 544//544
f 383//383 544//544 396//396
f 370//370 542//542 543//543
f 370//370 543//543 383//383
f 357//357 541//541 542//542
f 357//357 542//542 370//370
f 344//344 540//540 541//541
f 344//344 541//541 357//357
f 331//331 539//539 540//540
f 331//331 540//540 344//344
f 318//318 538//538 539//539
f 318//318 539//539 331//331
f 305//305 537//537 538//538
f 305//305 538//538 318//318
f 292//292 536//536 537//537
f 292//292 537//537 305//305
f 279//279 535//535 536//536
f 279//279 536//536 292//292
f 266//266 534//534 535//535
f 266//266 535//535 279//279
f 253//253 533//533 534//534
f 253//253 534//534 266//266
f 240//240 532//532 533//533
f 240//240 533//533 253//253
f 227//227 531//531 532//532
f 227//227 532//532 240//240
f 214//214 530//530 531//531
f 214//214 531//531 227//227
f 201//201 529//529 530//530
f 201//201 530//530 214//214
f 188//188 528//528 529//529
f 188//188 529//529 201//201
f 175//175 527//527 528//528
f 175//175 528//528 188//188
f 162//162 526//526 527//527
f 162//162 527//527 175//175
f 149//149 525//525 526//526
f 149//149 526//526 162//162
f 136//136 524//524 525//525
f 136//136 525//525 149//149
f 123//123 523//523 524//524
f 123//123 524//524 136//136
f 110//110 522//522 523//523
f 110//110 523//523 123//123
f 97//97 521//521 522//522
f 97//97 522//522 110//110
f 84//84 520//520 521//521
f 84//84 521//521 97//97
f 71//71 519//519 520//520
f 71//71 520//520 84//84
f 58//58 518//518 519//519
f 58//58 519//519 71//71
f 45//45 517//517 518//518
f 45//45 518//518 58//58
f 32//32 516//516 517//517
f 32//32 517//517 45//45
f 19//19 515//515 516//516
f 19//19 516//516 32//32
f 416//416 546//546 515//515
f 416//416 515//515 19//19
