# Blender Studio Human Base Meshes v1.4.1; CC0; Y-up metres
v -0.0312055238 0.706141829 0.108542167
v -0.0314588733 0.702780366 0.111539021
v -0.0317665972 0.701025069 0.115849517
v -0.0319304056 0.70089978 0.118221752
v -0.032068301 0.701290131 0.120446816
v -0.0322925001 0.703457594 0.124297418
v -0.0300907828 0.707903624 0.107735246
v -0.0299042985 0.70627892 0.108640827
v -0.0296534933 0.704561472 0.109955303
v -0.0294427145 0.702992797 0.111693725
v -0.0293575693 0.701905668 0.113720611
v -0.0293934327 0.701272905 0.116034299
v -0.0295482185 0.70115906 0.118385643
v -0.0297980979 0.701538622 0.120601512
v -0.0301333535 0.70238471 0.122660168
v -0.0305373259 0.703642607 0.124410294
v -0.0309436116 0.705086589 0.12591207
v -0.0312915929 0.706543148 0.127028376
v -0.0316645615 0.708396792 0.128427297
v -0.0291368421 0.708189607 0.107833914
v -0.0286926124 0.706649363 0.108731143
v -0.028127376 0.705036342 0.110065691
v -0.0276241452 0.703559637 0.111829162
v -0.0273365527 0.702542901 0.113867775
v -0.0272611249 0.701957524 0.11618147
v -0.0273781996 0.701837301 0.11853949
v -0.0277018864 0.702194095 0.120746166
v -0.0282028019 0.702992797 0.122788116
v -0.0288390703 0.704171598 0.124517336
v -0.0295155961 0.705521286 0.126011565
v -0.0301326606 0.70689261 0.127101943
v -0.0307983123 0.708662868 0.128447354
v -0.0282504633 0.708610117 0.107937612
v -0.0275857374 0.707242906 0.108818091
v -0.0267234221 0.705795586 0.110172704
v -0.0259425472 0.704476118 0.111945406
v -0.0254717097 0.703559637 0.114007421
v -0.0252743512 0.703023791 0.116323628
v -0.0253856387 0.702924967 0.118677467
v -0.0257736463 0.70324105 0.12088079
v -0.0264133848 0.703951716 0.122916035
v -0.0272713061 0.705004513 0.12463104
v -0.0282044206 0.706219554 0.126098529
v -0.0290847849 0.707444549 0.127173036
v -0.0300280806 0.709053516 0.12846157
v -0.0275355298 0.708960533 0.108095631
v -0.0266280975 0.708010018 0.108904228
v -0.0254943836 0.706809103 0.110246278
v -0.0244809818 0.705700159 0.112044074
v -0.0238294434 0.704916716 0.11411947
v -0.0235351417 0.704466939 0.116444036
v -0.0236288458 0.704374194 0.118802056
v -0.024074465 0.704643488 0.12100286
v -0.0248571895 0.705247819 0.123021409
v -0.0258891005 0.706125975 0.124740578
v -0.0270512737 0.707165182 0.12617296
v -0.0281641632 0.70820117 0.127229884
v -0.029441094 0.709418714 0.128430635
v -0.0271984246 0.709667087 0.108007833
v -0.0258773006 0.708946288 0.108930983
v -0.0244867671 0.708052516 0.110317372
v -0.0232767016 0.707184494 0.112127692
v -0.0224840268 0.706574142 0.114210598
v -0.0221295673 0.706218779 0.116546884
v -0.0221922696 0.706143439 0.118901566
v -0.0226922594 0.706350982 0.121100701
v -0.0235686898 0.706816494 0.123115055
v -0.0247644112 0.707505763 0.124811664
v -0.0261031184 0.708317518 0.126239017
v -0.0273916181 0.709142029 0.127288416
v -0.0290908013 0.710000753 0.128525972
v -0.0267796442 0.710547566 0.107983589
v -0.0252903141 0.710068524 0.108973622
v -0.0237459186 0.709461451 0.110374227
v -0.0223861579 0.70887363 0.112194583
v -0.02150001 0.708457053 0.114279166
v -0.0210777596 0.708212137 0.116612941
v -0.0211328249 0.708157897 0.118975155
v -0.0216561854 0.708295643 0.121176802
v -0.0226179902 0.708607554 0.123181954
v -0.0239330977 0.709076524 0.124861829
v -0.0253974386 0.709629416 0.126296714
v -0.0268423464 0.710193932 0.127329394
v -0.0287034865 0.71076256 0.128602043
v -0.0264927447 0.711523414 0.10797774
v -0.0249249823 0.71127677 0.108995356
v -0.0232942849 0.710934699 0.110395126
v -0.0218553934 0.710601151 0.112226337
v -0.0208829455 0.710498214 0.114314295
v -0.0204195119 0.710370362 0.116663106
v -0.0204690248 0.710342705 0.119026996
v -0.0210182965 0.7104038 0.121223636
v -0.022018278 0.710551739 0.123230457
v -0.0234071929 0.71077919 0.124905311
v -0.0249599181 0.711058319 0.126324311
v -0.0264869612 0.711336911 0.127367854
v -0.0284593906 0.711632133 0.128665611
v -0.0264025107 0.712578654 0.107982762
v -0.0247944891 0.712581217 0.109000385
v -0.023128856 0.712602854 0.110396788
v -0.0216628946 0.712624729 0.11223305
v -0.020674713 0.712634683 0.114324316
v -0.0201971643 0.712633848 0.116665609
v -0.020250611 0.712621391 0.119038686
v -0.0207908601 0.712608039 0.121242858
v -0.0218186062 0.712578654 0.123249687
v -0.0232158508 0.712554395 0.124932081
v -0.024795182 0.712554395 0.126350239
v -0.0263698883 0.712554395 0.127371192
v -0.0283682309 0.712550461 0.128694877
v -0.0264959838 0.713604808 0.107978567
v -0.0249122567 0.713808775 0.10899286
v -0.0232852623 0.714126408 0.110402651
v -0.0218269359 0.714408934 0.11223305
v -0.020888729 0.714627206 0.114316791
v -0.0204262212 0.714753568 0.116658092
v -0.0204930864 0.714889824 0.11902447
v -0.0210192222 0.714720905 0.121223636
v -0.02202175 0.714572966 0.1232296
v -0.0234055743 0.714320302 0.124901131
v -0.024949275 0.714033663 0.12633267
v -0.0264969096 0.713763535 0.127359495
v -0.028450137 0.713492453 0.128656402
v -0.026780339 0.714577258 0.107987769
v -0.02527944 0.715027869 0.108978644
v -0.0237491578 0.715658188 0.110373385
v -0.0223854631 0.71625191 0.112197921
v -0.0215067193 0.716667593 0.11428085
v -0.0210793782 0.716906667 0.116618805
v -0.0211353712 0.716965318 0.118978485
v -0.0216605812 0.716828942 0.121173441
v -0.0226179902 0.716517031 0.123181954
v -0.0239282399 0.716048896 0.124866836
v -0.0253948942 0.715482831 0.126288339
v -0.0268423464 0.714938521 0.127327725
v -0.028705338 0.714364707 0.128601223
v -0.0271926392 0.715453565 0.108006999
v -0.0258580968 0.716144085 0.108940177
v -0.0244925506 0.717071414 0.110324889
v -0.0232734624 0.717942655 0.112136044
v -0.0224967524 0.718550563 0.114211448
v -0.0221328065 0.718903422 0.116546042
v -0.0222056881 0.718974531 0.118902408
v -0.0226957314 0.71876967 0.12109904
v -0.0235712342 0.718306601 0.123113394
v -0.0247778296 0.717613399 0.124794111
v -0.0261031184 0.716816306 0.126254916
v -0.0274008736 0.715990245 0.127287582
v -0.0290933456 0.715129852 0.128525972
v -0.0275278948 0.716171861 0.108088955
v -0.0266306419 0.717112482 0.108910091
v -0.0254985485 0.718313158 0.110252976
v -0.0244925506 0.719420075 0.112054937
v -0.0238412432 0.720203698 0.114115275
v -0.0235501807 0.720652819 0.116442367
v -0.0236387942 0.720740616 0.118794531
v -0.0240827948 0.72047627 0.121004537
v -0.0248645935 0.719869375 0.123016395
v -0.0258990489 0.718993068 0.124727204
v -0.0270589087 0.717960358 0.126163766
v -0.0281717982 0.716915965 0.127225712
v -0.0294420198 0.715701938 0.128422275
v -0.0282562487 0.7165187 0.10793677
v -0.0275889765 0.717880845 0.10882479
v -0.0267285109 0.71932739 0.110176049
v -0.025935838 0.720648527 0.111957118
v -0.0254777241 0.721560121 0.114003241
v -0.0252886955 0.722087622 0.116326116
v -0.0253840201 0.722195446 0.118673287
v -0.0257794317 0.72187525 0.120878287
v -0.0264224093 0.721162856 0.12290936
v -0.0272729248 0.720116854 0.124628522
v -0.0282076597 0.718906999 0.12609601
v -0.0290722903 0.717657685 0.127162993
v -0.0300280806 0.716067016 0.128454044
v -0.0291317534 0.71693778 0.107830569
v -0.0286970083 0.718472719 0.10873615
v -0.0281333905 0.720088363 0.110076539
v -0.0276273843 0.721553385 0.111834191
v -0.0273397919 0.722570181 0.113873631
v -0.0272671413 0.723157287 0.116176449
v -0.0273849089 0.723280013 0.118542001
v -0.0277092885 0.722915351 0.120741144
v -0.0282076597 0.722119451 0.122783102
v -0.0288399942 0.720954597 0.124518171
v -0.0295213796 0.719596565 0.125994831
v -0.0301150754 0.718220413 0.127094403
v -0.0307964608 0.716465235 0.12844485
v -0.0301074404 0.717185259 0.107723534
v -0.0299059171 0.71884501 0.108645849
v -0.0296534933 0.720565021 0.109962814
v -0.029444566 0.722122669 0.111702919
v -0.0293617342 0.723208308 0.113723122
v -0.0294026881 0.723838627 0.116035976
v -0.0295514576 0.723948896 0.118382297
v -0.0298015699 0.723570168 0.120599002
v -0.0301400647 0.722722292 0.122650973
v -0.030540565 0.721468985 0.124396905
v -0.0309470836 0.720030785 0.125903696
v -0.0312823392 0.718581557 0.127025858
v -0.031666182 0.716720223 0.12842311
v -0.0311310217 0.71728301 0.107630722
v -0.0312029775 0.718972802 0.108549677
v -0.0313082524 0.720730543 0.109839901
v -0.0314579494 0.722337723 0.11154905
v -0.0316085704 0.723441362 0.113565914
v -0.031768214 0.724087954 0.115854532
v -0.0319262408 0.724211514 0.118220903
v -0.0320676081 0.723820269 0.120442629
v -0.0321862996 0.722937346 0.122516342
v -0.0322915763 0.7216537 0.124284863
v -0.0324003175 0.72019136 0.125821739
v -0.0324789844 0.718689382 0.126939729
v -0.0325810201 0.716808915 0.128385484
v -0.0321344733 0.717185974 0.107573025
v -0.0324639454 0.71884501 0.10846439
v -0.0328970701 0.720563352 0.10973455
v -0.0333503224 0.722126961 0.111429483
v -0.0337131135 0.723205626 0.113415405
v -0.0339974649 0.723832726 0.115709037
v -0.0341839492 0.723955631 0.118056178
v -0.0342441052 0.723570168 0.120285429
v -0.03419552 0.722716391 0.122362502
v -0.0340467468 0.721466303 0.124149412
v -0.0338602625 0.720028102 0.125697181
v -0.0336872004 0.718559027 0.126847744
v -0.033498168 0.716720223 0.128294334
v -0.0331177972 0.71693778 0.107543774
v -0.0336696133 0.718472719 0.108386628
v -0.0344164781 0.72009021 0.109634206
v -0.0351656526 0.721555948 0.11129988
v -0.0357376002 0.722573519 0.113281623
v -0.0361381024 0.723157287 0.115552664
v -0.0363412462 0.723270893 0.117902331
v -0.0363428667 0.722921371 0.120132409
v -0.0361304656 0.722118735 0.122224532
v -0.0357450061 0.720951259 0.1240265
v -0.0352850407 0.719605982 0.125605196
v -0.0348387286 0.718212783 0.126766622
v -0.0343611799 0.716462672 0.128193155
v -0.0339981616 0.716517866 0.107532896
v -0.0347859748 0.717882514 0.108312212
v -0.0358287618 0.719329119 0.109528005
v -0.0368454009 0.720647037 0.111181125
v -0.0376022123 0.721562564 0.113148659
v -0.0381156243 0.722087622 0.115413025
v -0.0383456051 0.722195446 0.117759347
v -0.0382643938 0.721872687 0.120000295
v -0.0379173383 0.721167922 0.122099936
v -0.0373111479 0.720114291 0.123913601
v -0.0365980677 0.718904316 0.12550737
v -0.0358889177 0.717668474 0.126689717
v -0.0351279415 0.716068089 0.128098682
v -0.0347383134 0.71616596 0.107582226
v -0.0357491709 0.717114925 0.108263709
v -0.0370494686 0.718313992 0.109448574
v -0.0383129828 0.719424427 0.11107327
v -0.0392435528 0.72020638 0.113029927
v -0.039854832 0.7206586 0.115290947
v -0.0400973074 0.720747173 0.117634743
v -0.0399686657 0.720481336 0.119884908
v -0.0394811705 0.719878376 0.121990412
v -0.0386891887 0.718992114 0.1238233
v -0.0377502888 0.717961013 0.12542206
v -0.0367970429 0.716928542 0.126621157
v -0.0357015058 0.715705991 0.127984121
v -0.0350594558 0.715460181 0.107450105
v -0.0365117639 0.716144085 0.108186781
v -0.0380603261 0.717074096 0.109369136
v -0.0395070836 0.717945278 0.110989638
v -0.0405848064 0.718552411 0.112928748
v -0.0412796102 0.718905151 0.115188926
v -0.0415389761 0.718981266 0.117537759
v -0.0413592011 0.71877557 0.119785398
v -0.0407712907 0.718310654 0.121902592
v -0.0398164243 0.717618406 0.123740509
v -0.0386968255 0.716813207 0.125355184
v -0.0375587158 0.715983629 0.126568481
v -0.0360603631 0.715130687 0.128035128
v -0.0354692116 0.714576185 0.107374854
v -0.0370913483 0.715029359 0.108141631
v -0.038803719 0.71566236 0.109312274
v -0.0404142849 0.716253638 0.110921919
v -0.0415806212 0.716669321 0.112856828
v -0.042320773 0.716915011 0.115115352
v -0.0426083691 0.716968596 0.117462493
v -0.0423908792 0.716833115 0.119716831
v -0.0417254604 0.7165187 0.121835709
v -0.040666014 0.716053188 0.123690344
v -0.0394082889 0.71548605 0.125300825
v -0.0381239504 0.714940012 0.126537547
v -0.0364548489 0.714363933 0.128054351
v -0.0357475504 0.713606298 0.107321329
v -0.0374592245 0.71380955 0.108099811
v -0.0392729379 0.714127243 0.109269634
v -0.040966101 0.714416683 0.110878423
v -0.0421960652 0.714627206 0.112806663
v -0.0429864265 0.714751005 0.115070194
v -0.0432723984 0.714782834 0.117419846
v -0.0430414937 0.714722455 0.119670838
v -0.042324014 0.714603841 0.121803939
v -0.0411868282 0.714332938 0.123652719
v -0.0398599207 0.714036047 0.125284955
v -0.0384742469 0.713764429 0.12651746
v -0.03671005 0.713493407 0.128081128
v -0.0358444937 0.712579608 0.107303783
v -0.0375813879 0.712539315 0.108086444
v -0.0394258723 0.712602139 0.10924454
v -0.0411433317 0.712625504 0.110852517
v -0.0424084626 0.712638855 0.112789094
v -0.0432071537 0.712631404 0.115048453
v -0.0434922017 0.712622166 0.117400616
v -0.0432596728 0.712602854 0.119661652
v -0.0425222963 0.712578654 0.121788889
v -0.0413666032 0.712554395 0.123646021
v -0.0400086939 0.712554395 0.125279099
v -0.0385938659 0.712554395 0.126512438
v -0.0368028283 0.712550461 0.128102019
v -0.0357433856 0.711519122 0.107328035
v -0.0374499708 0.71127677 0.108107336
v -0.0392560475 0.710936427 0.109262958
v -0.0409385711 0.710601866 0.110877603
v -0.0421969928 0.710496485 0.112808332
v -0.0429938287 0.710371971 0.115075216
v -0.0432747118 0.710341096 0.117419846
v -0.0430414937 0.710401237 0.119670838
v -0.0423307233 0.710550964 0.12180309
v -0.0411928445 0.710777581 0.123659402
v -0.039854832 0.711053491 0.125285789
v -0.0384675376 0.711337745 0.126519129
v -0.0367142148 0.711632133 0.128090307
v -0.0354673602 0.710555792 0.107383221
v -0.0370804742 0.710061729 0.108134933
v -0.0388097316 0.709461451 0.109303914
v -0.0404117405 0.708875239 0.110916078
v -0.041588258 0.708457053 0.11285767
v -0.0423258655 0.708204627 0.115109511
v -0.0426134579 0.708157897 0.117464177
v -0.0423975885 0.708290696 0.119714335
v -0.0417270772 0.708607554 0.121838212
v -0.0406567603 0.709077597 0.123682827
v -0.0394082889 0.709632039 0.125309199
v -0.0381230265 0.710188031 0.126538366
v -0.0364548489 0.71076417 0.12805602
v -0.0350594558 0.70966953 0.107450947
v -0.0364900157 0.708951235 0.108186781
v -0.0380628705 0.708049834 0.109359927
v -0.0395221226 0.707182109 0.110986315
v -0.0405889712 0.706570923 0.112927064
v -0.0412897877 0.706213713 0.115190618
v -0.0415380485 0.706141829 0.117538594
v -0.0413640589 0.706345916 0.119787082
v -0.0407645777 0.706818342 0.121900931
v -0.0398189686 0.707508087 0.123745538
v -0.0387051553 0.708310843 0.125365213
v -0.0375686623 0.709138572 0.126575172
v -0.036061056 0.709995687 0.128036812
v -0.0347408578 0.708956242 0.107577205
v -0.0357484743 0.708012223 0.10825368
v -0.0370628871 0.706808209 0.109427676
v -0.0383187644 0.705693662 0.111071594
v -0.0392477177 0.704916716 0.113024078
v -0.0398673266 0.7044577 0.115286767
v -0.0401107259 0.704374194 0.117640607
v -0.0399795398 0.704636693 0.119883239
v -0.0394927375 0.705239475 0.121996254
v -0.0386958979 0.706126809 0.123829991
v -0.0377569981 0.707165182 0.12543042
v -0.0368012078 0.708193839 0.126625329
v -0.0357040539 0.709416449 0.127991647
v -0.0340032503 0.708606064 0.10752704
v -0.0347792655 0.707242906 0.108313888
v -0.0358245969 0.705788195 0.109518811
v -0.0368504897 0.704472721 0.111179464
v -0.0376079977 0.703556299 0.113141969
v -0.0381264985 0.703016937 0.115422219
v -0.0383564793 0.702915728 0.117763519
v -0.0382736474 0.70324105 0.120000295
v -0.0379233547 0.703950882 0.122104116
v -0.0373146199 0.705008686 0.123917796
v -0.0366029255 0.706217825 0.125516564
v -0.0358729511 0.707453012 0.126690567
v -0.035126321 0.70904994 0.128105357
v -0.0331136324 0.708185434 0.107550442
v -0.0336804874 0.706648529 0.108377427
v -0.0344222635 0.705033123 0.109615803
v -0.0351739824 0.703561366 0.111293182
v -0.0357450061 0.702542901 0.113276586
v -0.0361422673 0.701950908 0.115550153
v -0.0363504998 0.701836288 0.117906511
v -0.0363428667 0.702197433 0.120135747
v -0.0361371785 0.702991962 0.122229561
v -0.0357517153 0.70415926 0.124039873
v -0.0352827273 0.705518782 0.125601009
v -0.034826003 0.706889272 0.12677668
v -0.0343595594 0.708661258 0.128199831
v -0.0321511328 0.707904398 0.10758891
v -0.0324664898 0.706276357 0.108455203
v -0.0328996144 0.704559743 0.109726183
v -0.0333484747 0.702992797 0.111421116
v -0.0337172784 0.701907337 0.11341206
v -0.0340016298 0.701278687 0.115705684
v -0.0341855697 0.70116055 0.118057847
v -0.0342482701 0.701540232 0.120287105
v -0.0342031531 0.702388227 0.122371696
v -0.0340518393 0.703644216 0.12416029
v -0.0338602625 0.705086589 0.125710547
v -0.0336670689 0.706542373 0.12686114
v -0.0335023329 0.708392859 0.128303543
v -0.0311377309 0.70780158 0.107646614
v -0.0313149616 0.704394102 0.109818168
v -0.0316108838 0.701662421 0.113554217
v -0.0321869962 0.702173412 0.122522205
v -0.0324003175 0.704926908 0.125830963
v -0.0324796773 0.706426919 0.1269456
v -0.0325810201 0.708298326 0.12838465
v -0.0353729613 0.709740698 0.128336996
v -0.0345550701 0.709368527 0.128559411
v -0.0336136222 0.709115267 0.1287141
v -0.032630302 0.709013164 0.128824472
v -0.0316108838 0.709112644 0.128854588
v -0.0306560192 0.709371209 0.12882866
v -0.0298156831 0.709740698 0.128725812
v -0.0357290395 0.71055764 0.12848416
v -0.0348771363 0.710220695 0.128802747
v -0.0338378213 0.709980607 0.129071981
v -0.0326888375 0.709904492 0.129240051
v -0.0314352736 0.709986508 0.129238382
v -0.0303751361 0.710221589 0.129117116
v -0.0294845924 0.710560083 0.128923148
v -0.0359900258 0.711526632 0.128581986
v -0.0351087376 0.711292028 0.129005924
v -0.0340326354 0.71111697 0.129379705
v -0.0327422842 0.71104598 0.129613832
v -0.0312781744 0.711107075 0.129570335
v -0.0301659778 0.711301744 0.129349604
v -0.0292472057 0.711524189 0.129043534
v -0.0360770226 0.712581933 0.128609583
v -0.035204988 0.712617874 0.129097894
v -0.0341069028 0.712642193 0.129536077
v -0.0325516351 0.712682188 0.129827872
v -0.0312554985 0.712652266 0.12973173
v -0.0300856922 0.712624729 0.129458293
v -0.029156046 0.712581933 0.129097074
v -0.0359816961 0.713627219 0.128567755
v -0.0351096615 0.71382308 0.129001737
v -0.0340249985 0.714003325 0.129371345
v -0.0327515379 0.714067876 0.12960881
v -0.0312832631 0.714009345 0.12956199
v -0.0301736128 0.713821113 0.129349604
v -0.0292430427 0.713627219 0.129044399
v -0.0357283466 0.714564621 0.128486663
v -0.0348729715 0.714900732 0.128796041
v -0.0338368937 0.715126514 0.129062787
v -0.0326955467 0.715215921 0.129232541
v -0.0314352736 0.715124786 0.129232541
v -0.0303793009 0.714898169 0.12911129
v -0.029482048 0.714564621 0.128930673
v -0.0353713408 0.715386569 0.128334478
v -0.0345502086 0.715746105 0.128548533
v -0.0336103849 0.716006994 0.128706574
v -0.0326312259 0.716099799 0.128813609
v -0.0316127352 0.716006994 0.128848732
v -0.0306601841 0.715744376 0.128819466
v -0.0298182275 0.715385795 0.128723294
v -0.0340374932 0.70957166 0.107234374
v -0.0331085436 0.709250867 0.1071909
v -0.0321303084 0.709011614 0.107195914
v -0.0311000179 0.708933771 0.107243575
v -0.0300482102 0.709017515 0.107342228
v -0.0290891808 0.709251702 0.107477702
v -0.0281768888 0.709570885 0.107657477
v -0.0343343429 0.710499942 0.107098907
v -0.0333033577 0.710236371 0.106953412
v -0.0322422944 0.710051775 0.106905758
v -0.0310782697 0.709957242 0.106942557
v -0.0299119335 0.71004343 0.10707467
v -0.0288666021 0.710238278 0.107266158
v -0.0278599113 0.710490763 0.107550442
v -0.0345601588 0.711489975 0.107001081
v -0.0334949307 0.711337745 0.106805421
v -0.0323107764 0.711244941 0.106696717
v -0.0310782697 0.711205602 0.10671176
v -0.0298031885 0.711248159 0.1068765
v -0.0286685508 0.711337745 0.107143231
v -0.027635714 0.71148926 0.107490256
v -0.0346346609 0.71258539 0.1069576
v -0.0335233882 0.712520123 0.106739365
v -0.0323366933 0.71256882 0.10661979
v -0.0311159827 0.712625504 0.106617272
v -0.0297738053 0.712584436 0.106801242
v -0.0286350008 0.712560177 0.10707885
v -0.0275413152 0.712581933 0.107462652
v -0.0345502086 0.71363914 0.107003585
v -0.0334815122 0.713788629 0.106801242
v -0.032311704 0.713882327 0.106697567
v -0.031084286 0.713934839 0.106718466
v -0.0298115183 0.713866472 0.106873982
v -0.0286634602 0.713784337 0.10714826
v -0.0276315492 0.713638127 0.107491083
v -0.0343368873 0.714633942 0.107093051
v -0.0332959518 0.714893997 0.106955931
v -0.0322464556 0.715077937 0.106911615
v -0.0310590658 0.715122342 0.106931679
v -0.0299068429 0.715076327 0.10707467
v -0.0288749319 0.714889824 0.107263647
v -0.0278599113 0.71463567 0.107553795
v -0.0340483673 0.715541363 0.107240237
v -0.0331143253 0.715869784 0.107197575
v -0.03213517 0.716110766 0.107193403
v -0.0311067272 0.716199398 0.107236885
v -0.0300565399 0.716115832 0.107344754
v -0.0290857106 0.715874791 0.107480213
v -0.0281609241 0.715541363 0.107649945
v -0.0315315239 0.707598329 0.127816886
v -0.0305974819 0.70789516 0.127876252
v -0.0297229029 0.708375156 0.127938107
v -0.0289878398 0.708979845 0.127996668
v -0.0283557381 0.709748089 0.128023416
v -0.0278842058 0.71061039 0.128067732
v -0.0275822673 0.711555123 0.128086969
v -0.0274802335 0.71254766 0.128106207
v -0.027583193 0.713576198 0.128102854
v -0.0278816596 0.714506924 0.128058538
v -0.0283573568 0.715385795 0.128023416
v -0.0289820563 0.716140747 0.12798579
v -0.0297245234 0.716746211 0.127924755
v -0.0305949375 0.717216849 0.127867892
v -0.0315340683 0.717527211 0.127809361
v -0.0325365961 0.717635155 0.127749979
v -0.0335474499 0.71753633 0.127672225
v -0.0344865844 0.71723187 0.12760365
v -0.0353454277 0.716751099 0.127536774
v -0.0360844247 0.716144085 0.127498314
v -0.0367174521 0.715382397 0.127437264
v -0.0371950008 0.714513481 0.127407983
v -0.0374960154 0.71357137 0.127397969
v -0.0376012884 0.71254766 0.127398804
v -0.0374985598 0.711550951 0.127406329
v -0.0371982418 0.710613668 0.127415508
v -0.036725089 0.709742308 0.127437264
v -0.0360837318 0.708972335 0.127509147
v -0.0353521369 0.708371878 0.127545968
v -0.0344791785 0.707886934 0.127607003
v -0.033546757 0.707597613 0.127678081
v -0.0325365961 0.707491398 0.127755001
vn 0.05951114 -0.53789866 -0.840906382
vn 0.0379443429 -0.811772883 -0.582739234
vn 0.00731494278 -0.987141311 -0.159682885
vn -0.00793373212 -0.998150289 0.0602750443
vn -0.0223355535 -0.959920943 0.279379547
vn -0.0452403091 -0.769128859 0.637490571
vn 0.159851819 -0.402077913 -0.901543498
vn 0.17245926 -0.526708364 -0.832367718
vn 0.189712152 -0.654673696 -0.731718302
vn 0.20753932 -0.795262039 -0.569636524
vn 0.216458589 -0.907249272 -0.360616803
vn 0.213314459 -0.966283321 -0.144199744
vn 0.199245945 -0.977082908 0.0749013275
vn 0.175843939 -0.93985039 0.292848319
vn 0.144127265 -0.854836345 0.498479903
vn 0.113239139 -0.752684414 0.648570061
vn 0.0853182971 -0.654287398 0.751417935
vn 0.0675728396 -0.590866685 0.803934336
vn 0.079896085 -0.555889785 0.827407479
vn 0.241761774 -0.378773779 -0.893354118
vn 0.271781713 -0.495395958 -0.825056136
vn 0.312825143 -0.616337538 -0.722681463
vn 0.357865244 -0.748577595 -0.5581792
vn 0.388001591 -0.85359925 -0.347596198
vn 0.395506829 -0.908958435 -0.131790847
vn 0.383895725 -0.919136047 0.088391766
vn 0.352835655 -0.884317219 0.305761367
vn 0.303637564 -0.804861605 0.509904087
vn 0.251454622 -0.709679425 0.658122957
vn 0.204900548 -0.619070053 0.758134604
vn 0.177034438 -0.556684017 0.811641455
vn 0.192171216 -0.522852659 0.830478966
vn 0.313576728 -0.344996065 -0.884673655
vn 0.361640692 -0.447432756 -0.81793642
vn 0.425565034 -0.555942893 -0.714018166
vn 0.495434523 -0.674095035 -0.547850907
vn 0.543884218 -0.76858902 -0.336839467
vn 0.561342061 -0.81885004 -0.119915664
vn 0.551959038 -0.827737272 0.100956745
vn 0.51513052 -0.796079099 0.317645252
vn 0.450875193 -0.726024628 0.519229889
vn 0.379390001 -0.641123533 0.667101145
vn 0.318123847 -0.557671309 0.766681075
vn 0.279653966 -0.501597762 0.818653405
vn 0.286302984 -0.472664505 0.83343792
vn 0.377726585 -0.319005132 -0.869228661
vn 0.439890265 -0.385302156 -0.81119591
vn 0.52496469 -0.473967671 -0.706941783
vn 0.61668545 -0.573180437 -0.539595425
vn 0.68321836 -0.652532816 -0.327740014
vn 0.711132884 -0.694523275 -0.109212823
vn 0.702342212 -0.702947259 0.11216376
vn 0.659053028 -0.676421583 0.328790337
vn 0.583678305 -0.617543757 0.52721864
vn 0.496943325 -0.544288456 0.675867975
vn 0.418660283 -0.47279954 0.775360644
vn 0.371672422 -0.426880449 0.824398398
vn 0.361607701 -0.413674027 0.835532069
vn 0.404364258 -0.254533231 -0.87846595
vn 0.505088091 -0.302408695 -0.808353364
vn 0.610051453 -0.369547009 -0.700908184
vn 0.717837632 -0.447982222 -0.532936335
vn 0.798567533 -0.510400832 -0.319031239
vn 0.833402216 -0.543516695 -0.100151069
vn 0.82630688 -0.550293148 0.119976662
vn 0.777338028 -0.530943394 0.337409079
vn 0.691753447 -0.484315455 0.535645187
vn 0.593705058 -0.426002473 0.682668507
vn 0.50179404 -0.371919721 0.780947208
vn 0.444601268 -0.336917073 0.829949796
vn 0.415078461 -0.347030729 0.840999186
vn 0.44047603 -0.17754072 -0.880034208
vn 0.555061102 -0.209537074 -0.804985285
vn 0.669192076 -0.25606373 -0.697576821
vn 0.790706277 -0.310548753 -0.527582347
vn 0.881789327 -0.353072256 -0.312710106
vn 0.921814561 -0.375974476 -0.0943460017
vn 0.916104972 -0.380685359 0.125818685
vn 0.864597738 -0.367224008 0.342953742
vn 0.769864559 -0.335558325 0.542871356
vn 0.66283375 -0.296009123 0.687771738
vn 0.563802302 -0.259101599 0.784215152
vn 0.49926132 -0.237134725 0.833369851
vn 0.460135221 -0.250247031 0.851852119
vn 0.466643304 -0.0907079205 -0.879781842
vn 0.584338963 -0.108901396 -0.804169416
vn 0.705150545 -0.134356245 -0.696211994
vn 0.835112751 -0.16271019 -0.525463641
vn 0.932928324 -0.180413008 -0.311602116
vn 0.977052689 -0.193083987 -0.0899262354
vn 0.972091138 -0.195152715 0.13020882
vn 0.918773115 -0.189287812 0.346447676
vn 0.818727612 -0.17513302 0.546821296
vn 0.705214441 -0.157712609 0.691230416
vn 0.600665927 -0.138110444 0.787480772
vn 0.535346746 -0.124957912 0.835337937
vn 0.490019649 -0.133847088 0.861374319
vn 0.47513172 0.000212803439 -0.879914701
vn 0.594147682 1.41100591e-05 -0.804356039
vn 0.718275428 0.000898795493 -0.695758283
vn 0.850544274 0.0017868143 -0.525900543
vn 0.950182378 0.00361730088 -0.311673611
vn 0.996058881 0.00511603756 -0.0885466635
vn 0.991327226 0.00459141796 0.131336704
vn 0.937645912 0.00314666075 0.347577661
vn 0.835933089 0.00137770583 0.548829615
vn 0.721286833 -0.000393535156 0.692636371
vn 0.612560153 -0.000688490982 0.790423691
vn 0.548716784 5.27593875e-05 0.83600831
vn 0.500921905 -0.00270858407 0.865488291
vn 0.465928495 0.0929621756 -0.87992543
vn 0.584554434 0.109391034 -0.803946316
vn 0.705402315 0.134258941 -0.695975661
vn 0.835680842 0.161009654 -0.525084317
vn 0.93239361 0.184895054 -0.310573876
vn 0.976218224 0.196918428 -0.090670608
vn 0.970415652 0.203617677 0.129743576
vn 0.91816926 0.191547737 0.346806288
vn 0.818357944 0.175890729 0.54713136
vn 0.706058919 0.15622291 0.690706313
vn 0.599478304 0.136715487 0.78862828
vn 0.536651075 0.125178337 0.83446753
vn 0.49142018 0.134026781 0.860548079
vn 0.441856563 0.177653059 -0.879319251
vn 0.555982232 0.209988728 -0.804231644
vn 0.669157207 0.255660176 -0.697758257
vn 0.791103005 0.309889436 -0.527375102
vn 0.881875455 0.353290975 -0.312219918
vn 0.921331584 0.376993567 -0.0949940756
vn 0.915097535 0.383113503 0.125780284
vn 0.863970339 0.36900267 0.342625648
vn 0.769338369 0.336631775 0.542952657
vn 0.662480354 0.297498196 0.687469721
vn 0.564582586 0.257442296 0.784200132
vn 0.500260711 0.235096544 0.833347976
vn 0.463558197 0.252534688 0.849317372
vn 0.408538431 0.251417786 -0.877431154
vn 0.508582175 0.301535845 -0.806486487
vn 0.608810842 0.371235788 -0.701094449
vn 0.716858089 0.450302511 -0.532299042
vn 0.797495067 0.512294829 -0.318677932
vn 0.832351506 0.545182943 -0.0998324081
vn 0.825050294 0.552213073 0.119803153
vn 0.776813507 0.532674193 0.335885316
vn 0.689286828 0.486464977 0.536875665
vn 0.592267811 0.430322289 0.681205928
vn 0.501039028 0.375484049 0.779725432
vn 0.441372782 0.338087887 0.831195951
vn 0.415711224 0.352324426 0.838481843
vn 0.37998426 0.321609139 -0.867282867
vn 0.442441076 0.386756241 -0.809114039
vn 0.525680423 0.473864049 -0.706479371
vn 0.616855919 0.573242128 -0.539335132
vn 0.682812154 0.653273404 -0.327110738
vn 0.710324943 0.695385695 -0.10898263
vn 0.702621818 0.702877164 0.110843465
vn 0.658568919 0.676959932 0.328652173
vn 0.58249855 0.61749655 0.528576791
vn 0.498264551 0.545163929 0.674187362
vn 0.417799294 0.475964189 0.773887575
vn 0.366553664 0.430670738 0.824718773
vn 0.360026628 0.422413379 0.831833959
vn 0.313177347 0.348131448 -0.883586049
vn 0.362122536 0.450477391 -0.816049933
vn 0.425534129 0.556198359 -0.713837564
vn 0.495773882 0.674299717 -0.547291636
vn 0.543780267 0.769134998 -0.335759252
vn 0.561442912 0.818735361 -0.120226309
vn 0.552379787 0.827574074 0.099988848
vn 0.51405561 0.796250165 0.318955392
vn 0.451261729 0.726447165 0.5183025
vn 0.381385416 0.640777111 0.666295528
vn 0.317241997 0.556542933 0.767865598
vn 0.279140979 0.500891805 0.819260538
vn 0.287321776 0.474611163 0.831979871
vn 0.23991394 0.381187856 -0.892825365
vn 0.271577001 0.497161597 -0.824060917
vn 0.31272468 0.617518961 -0.721715808
vn 0.356621206 0.749502301 -0.55773443
vn 0.38709259 0.854309082 -0.346864879
vn 0.394729227 0.909194469 -0.132492423
vn 0.382142574 0.919824839 0.0888217762
vn 0.350880235 0.884663284 0.307008147
vn 0.302310586 0.806531191 0.508050859
vn 0.248673871 0.711382866 0.657339811
vn 0.203183725 0.619287491 0.758419037
vn 0.180835456 0.555441499 0.811654687
vn 0.193266839 0.522882223 0.830206096
vn 0.158763364 0.40299201 -0.901327729
vn 0.170157224 0.528127253 -0.831942379
vn 0.188705117 0.655786932 -0.730981469
vn 0.207008421 0.796304166 -0.568372488
vn 0.215305537 0.907502949 -0.360668808
vn 0.212116644 0.966510952 -0.144440547
vn 0.198839277 0.97712785 0.0753934756
vn 0.17571038 0.939611256 0.293694586
vn 0.142920613 0.855396569 0.497865915
vn 0.111064456 0.753993452 0.647424638
vn 0.0851017386 0.655791283 0.750130355
vn 0.0701304302 0.591388285 0.803331554
vn 0.0782944262 0.553911626 0.828886032
vn 0.0655999556 0.412167817 -0.908743262
vn 0.0591234565 0.539268613 -0.840055823
vn 0.050848864 0.668513238 -0.74195981
vn 0.0382184461 0.813019216 -0.580981195
vn 0.0227244254 0.927042484 -0.374267161
vn 0.00773409195 0.987019181 -0.160415903
vn -0.00672128145 0.998125434 0.0608307309
vn -0.021891037 0.959598958 0.280518562
vn -0.0360342525 0.872610569 0.487085581
vn -0.0456345268 0.769907832 0.636521399
vn -0.0544317551 0.667830348 0.742320657
vn -0.059203621 0.605251193 0.793829918
vn -0.056334544 0.563902438 0.823917747
vn -0.0304031782 0.402477592 -0.91492486
vn -0.0526401177 0.528927386 -0.847033024
vn -0.0855625942 0.654934704 -0.750826001
vn -0.127142176 0.79586792 -0.591970563
vn -0.165120915 0.907294571 -0.386719197
vn -0.19303368 0.965748787 -0.173398957
vn -0.210927442 0.976424873 0.045871038
vn -0.216983572 0.938876569 0.267262131
vn -0.212147579 0.854555607 0.474054992
vn -0.20063895 0.755001605 0.624272943
vn -0.18703258 0.6551525 0.731979549
vn -0.179581359 0.594861686 0.7835114
vn -0.191026643 0.550778031 0.812497675
vn -0.114221498 0.379382432 -0.918162584
vn -0.152501807 0.498339176 -0.853464186
vn -0.206762314 0.618148148 -0.758381367
vn -0.274438649 0.749619424 -0.602290809
vn -0.333833754 0.854726374 -0.397489548
vn -0.371873915 0.909596205 -0.185322508
vn -0.391227663 0.919699907 0.033058092
vn -0.390749991 0.884870052 0.253612876
vn -0.369398862 0.806083977 0.46235615
vn -0.338552713 0.71272409 0.614334047
vn -0.305130631 0.620136321 0.722721457
vn -0.287456244 0.559098363 0.777674735
vn -0.305050403 0.518489003 0.798820019
vn -0.18618305 0.345366031 -0.919814229
vn -0.244048834 0.449623764 -0.859231472
vn -0.321122587 0.556099772 -0.766572535
vn -0.41245386 0.674630046 -0.612173319
vn -0.490049571 0.76976651 -0.409036726
vn -0.537651896 0.819813669 -0.197068945
vn -0.558871031 0.828968287 0.0217867456
vn -0.552394509 0.797650218 0.242104083
vn -0.517666042 0.72688669 0.451284498
vn -0.470407009 0.64188683 0.605556428
vn -0.422931612 0.558906317 0.713268995
vn -0.390263051 0.502224624 0.771663964
vn -0.399404526 0.471960545 0.785957575
vn -0.251789808 0.320260137 -0.913255394
vn -0.32583034 0.386141032 -0.862977207
vn -0.422638237 0.473043025 -0.773050666
vn -0.534690261 0.572204888 -0.621842444
vn -0.629395962 0.653587759 -0.420337766
vn -0.686577082 0.696763098 -0.207685545
vn -0.709182501 0.704929829 0.0115800705
vn -0.696598291 0.678790331 0.232367471
vn -0.649197221 0.618632853 0.442534
vn -0.58617264 0.545767784 0.598781407
vn -0.524348617 0.474894017 0.706777334
vn -0.482345045 0.42693314 0.764899611
vn -0.473940194 0.418598056 0.774697602
vn -0.278995961 0.252815336 -0.926415503
vn -0.389971912 0.302878201 -0.869589984
vn -0.503976345 0.372400284 -0.779311061
vn -0.633324862 0.450250536 -0.629423618
vn -0.744132519 0.512059569 -0.429024279
vn -0.80995971 0.545010686 -0.216630176
vn -0.833611548 0.552345097 0.00259586726
vn -0.816255748 0.532429516 0.224154845
vn -0.757910669 0.486175627 0.434976637
vn -0.68103534 0.429641366 0.592958033
vn -0.606058717 0.374052644 0.701981068
vn -0.556717873 0.337528914 0.759038508
vn -0.528530836 0.348492503 0.774085402
vn -0.312501103 0.17889291 -0.932920396
vn -0.436677486 0.212375775 -0.874190688
vn -0.563722551 0.258487225 -0.784475088
vn -0.707285762 0.31170848 -0.634495676
vn -0.828503132 0.353949785 -0.433938026
vn -0.899051845 0.376604497 -0.223327085
vn -0.924259424 0.381736964 -0.00462349737
vn -0.903410435 0.36916852 0.218092322
vn -0.837539554 0.337857097 0.42939499
vn -0.750846088 0.29873836 0.589054823
vn -0.666613698 0.260726184 0.698318064
vn -0.611119449 0.23873654 0.754677355
vn -0.575860977 0.251363367 0.777946472
vn -0.334801763 0.0967792869 -0.93730551
vn -0.465325028 0.112709284 -0.877934575
vn -0.600360692 0.136252955 -0.788036883
vn -0.752728403 0.162371963 -0.637993217
vn -0.879653573 0.184839755 -0.438228101
vn -0.95391655 0.196715668 -0.226596788
vn -0.980121732 0.198229805 -0.00814855937
vn -0.957832217 0.190913796 0.214731157
vn -0.886694312 0.175230235 0.427864075
vn -0.79577136 0.153700247 0.585767984
vn -0.704797447 0.134845898 0.696474731
vn -0.647888303 0.124076828 0.751562119
vn -0.60556668 0.134893611 0.784278452
vn -0.343985707 -0.00152126502 -0.938973725
vn -0.47511667 -0.00320862257 -0.879917026
vn -0.613770843 0.000148771476 -0.789484262
vn -0.768243134 0.0011767745 -0.640157044
vn -0.897342622 0.00310902717 -0.441323668
vn -0.973624527 0.00401565852 -0.228121132
vn -0.999952674 0.00338885421 -0.00912670791
vn -0.976827443 0.00212467555 0.214017943
vn -0.904202878 0.00163381745 0.427100211
vn -0.811716557 0.00114490965 0.584050477
vn -0.717625439 0.000225172378 0.696429312
vn -0.661124229 -1.53521864e-06 0.750276446
vn -0.616204083 0.00413527898 0.787575662
vn -0.335771471 -0.0984246954 -0.936787069
vn -0.46347928 -0.112530075 -0.87893343
vn -0.600683808 -0.135163292 -0.787978411
vn -0.752919436 -0.163127586 -0.637574971
vn -0.879978657 -0.180336639 -0.439449906
vn -0.954817057 -0.192303434 -0.226591855
vn -0.9808653 -0.19453378 -0.00774372462
vn -0.958373606 -0.188277006 0.214643404
vn -0.887322605 -0.173280448 0.4273552
vn -0.795624554 -0.155597031 0.585466623
vn -0.703965902 -0.136591554 0.69697541
vn -0.648869514 -0.124607049 0.750627458
vn -0.605059803 -0.133501202 0.784907699
vn -0.312542677 -0.177500218 -0.933172405
vn -0.432912618 -0.210872069 -0.876424372
vn -0.563594997 -0.257588118 -0.784862518
vn -0.708162725 -0.310691297 -0.634016097
vn -0.828777254 -0.35258925 -0.434521616
vn -0.899241745 -0.376190215 -0.223260418
vn -0.92443651 -0.38131699 -0.00380082917
vn -0.90336585 -0.368814439 0.218874827
vn -0.83663559 -0.338207364 0.430878848
vn -0.75181818 -0.300067127 0.587136388
vn -0.668058515 -0.259818882 0.697274625
vn -0.612281203 -0.23617205 0.75454253
vn -0.573798478 -0.255029261 0.778277278
vn -0.280377299 -0.246397391 -0.927726746
vn -0.387911648 -0.300257921 -0.871418238
vn -0.504917383 -0.370237797 -0.779732347
vn -0.635684907 -0.448815078 -0.628068268
vn -0.744462192 -0.510930657 -0.42979756
vn -0.810828447 -0.54391253 -0.216139674
vn -0.834547758 -0.550925732 0.00329137826
vn -0.81720674 -0.530630469 0.224954471
vn -0.759360969 -0.482936293 0.436054468
vn -0.684529483 -0.426623613 0.591110587
vn -0.608259022 -0.371999085 0.701168716
vn -0.557046235 -0.335108638 0.759869516
vn -0.527780592 -0.343855947 0.776666462
vn -0.253485739 -0.318320245 -0.913464427
vn -0.323101521 -0.383856595 -0.865019917
vn -0.421561062 -0.47239536 -0.774034202
vn -0.535615265 -0.572944641 -0.620363355
vn -0.629646897 -0.652393222 -0.421814919
vn -0.688117445 -0.694977999 -0.208566293
vn -0.711469293 -0.702602029 0.0127263851
vn -0.698617339 -0.676567614 0.232787549
vn -0.650964618 -0.61634028 0.443136364
vn -0.587194622 -0.544982791 0.598495007
vn -0.522935987 -0.475271463 0.707569778
vn -0.480351686 -0.428857058 0.76507771
vn -0.473043889 -0.411283463 0.779150426
vn -0.184895441 -0.347233862 -0.919370651
vn -0.241787583 -0.448499143 -0.86045754
vn -0.320418 -0.555899501 -0.767012417
vn -0.413374096 -0.674862504 -0.61129576
vn -0.490434885 -0.768507421 -0.410938114
vn -0.538318813 -0.819212317 -0.197747737
vn -0.559600472 -0.828428388 0.0235295631
vn -0.552351832 -0.797421217 0.242954835
vn -0.518128455 -0.726578057 0.451250613
vn -0.47063005 -0.640806615 0.606526375
vn -0.421977162 -0.558008254 0.71453625
vn -0.390036434 -0.503702104 0.770815015
vn -0.399565518 -0.471833885 0.785951793
vn -0.113063365 -0.379257232 -0.918357551
vn -0.15344578 -0.494749784 -0.85538125
vn -0.207351029 -0.616866529 -0.759263694
vn -0.274894744 -0.749434829 -0.602312505
vn -0.333785266 -0.854064822 -0.398949325
vn -0.370741963 -0.909881055 -0.186190575
vn -0.390169173 -0.920080304 0.0349331088
vn -0.39102003 -0.884698093 0.253796458
vn -0.372065037 -0.805723131 0.460844725
vn -0.34109816 -0.709934175 0.616153896
vn -0.308662564 -0.618342459 0.722758591
vn -0.290096521 -0.557460308 0.777870297
vn -0.306165159 -0.521389961 0.796501935
vn -0.0305777732 -0.401228309 -0.91546762
vn -0.0535158366 -0.526345372 -0.848585069
vn -0.0859753788 -0.655043364 -0.750684023
vn -0.127729356 -0.795121551 -0.592846453
vn -0.166231692 -0.90672034 -0.387589157
vn -0.192960009 -0.965860248 -0.172859788
vn -0.210467488 -0.97650367 0.0463046543
vn -0.217564717 -0.939176261 0.26573202
vn -0.212570265 -0.855166316 0.472762614
vn -0.201140881 -0.753503442 0.625919282
vn -0.188333094 -0.654310882 0.732398689
vn -0.177746832 -0.592011452 0.786084294
vn -0.192579642 -0.555242896 0.809084892
vn 0.0642476603 -0.409935564 -0.909848928
vn 0.0510108359 -0.667446434 -0.742908657
vn 0.0224082321 -0.926713884 -0.375099093
vn -0.0357843488 -0.873081625 0.486259222
vn -0.0519658104 -0.666461706 0.743726075
vn -0.0552892908 -0.602566063 0.796151519
vn -0.0552605614 -0.568638742 0.820729196
vn -0.441655606 -0.382870734 0.811387956
vn -0.334109038 -0.433645487 0.836852908
vn -0.207294971 -0.462056696 0.86228323
vn -0.0618098229 -0.471113741 0.879904211
vn 0.0850942656 -0.462108493 0.882731438
vn 0.214015648 -0.433774829 0.87523526
vn 0.322337478 -0.383881211 0.865294039
vn -0.487696856 -0.281615824 0.826343954
vn -0.375710785 -0.320858598 0.869420052
vn -0.235140502 -0.350498408 0.906564832
vn -0.0683337227 -0.361320853 0.929934263
vn 0.104324676 -0.349477947 0.931118488
vn 0.251145959 -0.320589632 0.913317025
vn 0.366110742 -0.277717143 0.888164461
vn -0.514660358 -0.146128803 0.844849765
vn -0.402810186 -0.174042523 0.898583949
vn -0.262515545 -0.198263943 0.944339454
vn -0.0739751011 -0.210110381 0.974875033
vn 0.129112229 -0.202077329 0.970821679
vn 0.275326669 -0.172770038 0.945698619
vn 0.390827477 -0.146328777 0.908758342
vn -0.52411288 0.00645567058 0.85162431
vn -0.417035341 0.00787260756 0.908856273
vn -0.273342043 0.00897903927 0.961875081
vn -0.0558861196 0.0132620921 0.998349071
vn 0.137019292 0.00996751059 0.990518212
vn 0.285405189 0.00586671615 0.958389044
vn 0.401470304 0.00121025578 0.915871263
vn -0.515949547 0.150507778 0.84329325
vn -0.402619213 0.179576918 0.897580028
vn -0.263160646 0.208322003 0.941991746
vn -0.0763536468 0.22107026 0.972264469
vn 0.128842577 0.212108254 0.968715429
vn 0.270221949 0.178432092 0.946119547
vn 0.393488735 0.149719417 0.907056153
vn -0.485107213 0.279290736 0.82865411
vn -0.369838476 0.321464628 0.871711016
vn -0.23584795 0.350777268 0.906273246
vn -0.0699752942 0.362347662 0.929412544
vn 0.103836879 0.349936604 0.931000769
vn 0.243301272 0.32276085 0.914674819
vn 0.363000512 0.280934751 0.888429046
vn -0.437446505 0.386924833 0.811744869
vn -0.3295618 0.43229109 0.839353025
vn -0.206917867 0.46150592 0.862668753
vn -0.0635563955 0.470109791 0.880316734
vn 0.0826551318 0.459816486 0.884158909
vn 0.210673705 0.431896418 0.876973271
vn 0.318438739 0.389970183 0.86401391
vn -0.18382217 -0.250933558 -0.950390399
vn -0.105454087 -0.283022314 -0.95329839
vn -0.0246453434 -0.301663846 -0.953095734
vn 0.0671114698 -0.3067123 -0.949433267
vn 0.159788638 -0.301487952 -0.939985514
vn 0.240491822 -0.28432402 -0.928075194
vn 0.315519899 -0.258112848 -0.913140178
vn -0.212589234 -0.176209465 -0.961122334
vn -0.127321005 -0.201055974 -0.971270263
vn -0.0343850181 -0.22073099 -0.974728405
vn 0.0691629648 -0.228180781 -0.971159101
vn 0.170688629 -0.220784917 -0.960270524
vn 0.261663228 -0.202886701 -0.9435938
vn 0.341904998 -0.178581655 -0.922610223
vn -0.228943706 -0.0981190577 -0.968482077
vn -0.143808708 -0.107945859 -0.983700514
vn -0.0426566228 -0.115947559 -0.992339015
vn 0.0698300526 -0.120354302 -0.990272045
vn 0.180392727 -0.115463763 -0.976794064
vn 0.278720915 -0.106376454 -0.954462469
vn 0.360599697 -0.0920505524 -0.928167284
vn -0.23210004 0.00121869915 -0.972691119
vn -0.145376965 -0.00235990039 -0.989373565
vn -0.0467546657 0.000573255995 -0.998906314
vn 0.0673202649 0.00455055758 -0.997721016
vn 0.184595406 0.00194429467 -0.982812762
vn 0.282408923 0.000363391009 -0.959294081
vn 0.368455231 0.00135623699 -0.929644465
vn -0.225199297 0.0953355059 -0.969637275
vn -0.142286673 0.10703402 -0.984021485
vn -0.0429208763 0.11752297 -0.9921422
vn 0.0686218664 0.12260972 -0.990079761
vn 0.18089579 0.115527347 -0.976693511
vn 0.279052556 0.106887944 -0.95430851
vn 0.360513866 0.0941428691 -0.927990735
vn -0.208952382 0.178019226 -0.961586237
vn -0.125877887 0.204356223 -0.970769465
vn -0.0362478904 0.2204732 -0.974719286
vn 0.0697861761 0.223230392 -0.972264469
vn 0.172013015 0.219467953 -0.96033603
vn 0.259895086 0.200748593 -0.944539309
vn 0.342376024 0.17578508 -0.9229725
vn -0.182194158 0.255453706 -0.94949919
vn -0.107952379 0.281333655 -0.95351851
vn -0.0277234651 0.298365086 -0.95404917
vn 0.0677237585 0.305951744 -0.949635208
vn 0.160987869 0.301584154 -0.939749956
vn 0.238033876 0.283850074 -0.928853631
vn 0.314368695 0.253997862 -0.914689839
vn 0.0738945752 -0.591122329 0.803189933
vn 0.182044446 -0.552731335 0.813233078
vn 0.278707027 -0.500003397 0.8199507
vn 0.371777952 -0.424984992 0.825329602
vn 0.444134116 -0.336819261 0.830239534
vn 0.495406568 -0.241137609 0.834520817
vn 0.533273697 -0.127926081 0.836214125
vn 0.548392117 -0.00208634557 0.836218774
vn 0.53434062 0.129724741 0.835255504
vn 0.496470153 0.242350489 0.833536863
vn 0.442923069 0.338801444 0.830080032
vn 0.368007898 0.430619568 0.824097633
vn 0.280629069 0.502366602 0.817847848
vn 0.186825335 0.553314924 0.811750531
vn 0.0751219392 0.590415835 0.803595543
vn -0.0558905564 0.606998086 0.792735577
vn -0.183742017 0.593901575 0.783275068
vn -0.295341253 0.55445832 0.778042078
vn -0.391162753 0.50081569 0.772123873
vn -0.481538117 0.427152365 0.765285552
vn -0.555748403 0.337956339 0.759558678
vn -0.607278764 0.242187083 0.756675661
vn -0.645625412 0.129081294 0.752665877
vn -0.661302924 0.00184219552 0.750116706
vn -0.647157013 -0.128452629 0.751457155
vn -0.607156277 -0.242746383 0.756594658
vn -0.555831373 -0.334525526 0.761015236
vn -0.481236786 -0.426760107 0.765693843
vn -0.390518278 -0.502247274 0.771520019
vn -0.295396954 -0.55346334 0.778729141
vn -0.182781741 -0.592736661 0.78438133
vn -0.0540970564 -0.607412219 0.792542636
f 2//2 411//411 9//9
f 2//2 9//9 10//10
f 415//415 414//414 17//17
f 415//415 17//17 18//18
f 412//412 2//2 10//10
f 412//412 10//10 11//11
f 546//546 415//415 18//18
f 546//546 18//18 515//515
f 3//3 412//412 11//11
f 3//3 11//11 12//12
f 4//4 3//3 12//12
f 4//4 12//12 13//13
f 5//5 4//4 13//13
f 5//5 13//13 14//14
f 413//413 5//5 14//14
f 413//413 14//14 15//15
f 1//1 410//410 7//7
f 1//1 7//7 8//8
f 6//6 413//413 15//15
f 6//6 15//15 16//16
f 411//411 1//1 8//8
f 411//411 8//8 9//9
f 414//414 6//6 16//16
f 414//414 16//16 17//17
f 9//9 8//8 21//21
f 9//9 21//21 22//22
f 17//17 16//16 29//29
f 17//17 29//29 30//30
f 10//10 9//9 22//22
f 10//10 22//22 23//23
f 18//18 17//17 30//30
f 18//18 30//30 31//31
f 11//11 10//10 23//23
f 11//11 23//23 24//24
f 515//515 18//18 31//31
f 515//515 31//31 516//516
f 12//12 11//11 24//24
f 12//12 24//24 25//25
f 13//13 12//12 25//25
f 13//13 25//25 26//26
f 14//14 13//13 26//26
f 14//14 26//26 27//27
f 15//15 14//14 27//27
f 15//15 27//27 28//28
f 8//8 7//7 20//20
f 8//8 20//20 21//21
f 16//16 15//15 28//28
f 16//16 28//28 29//29
f 26//26 25//25 38//38
f 26//26 38//38 39//39
f 27//27 26//26 39//39
f 27//27 39//39 40//40
f 28//28 27//27 40//40
f 28//28 40//40 41//41
f 21//21 20//20 33//33
f 21//21 33//33 34//34
f 29//29 28//28 41//41
f 29//29 41//41 42//42
f 22//22 21//21 34//34
f 22//22 34//34 35//35
f 30//30 29//29 42//42
f 30//30 42//42 43//43
f 23//23 22//22 35//35
f 23//23 35//35 36//36
f 31//31 30//30 43//43
f 31//31 43//43 44//44
f 24//24 23//23 36//36
f 24//24 36//36 37//37
f 516//516 31//31 44//44
f 516//516 44//44 517//517
f 25//25 24//24 37//37
f 25//25 37//37 38//38
f 35//35 34//34 47//47
f 35//35 47//47 48//48
f 43//43 42//42 55//55
f 43//43 55//55 56//56
f 36//36 35//35 48//48
f 36//36 48//48 49//49
f 44//44 43//43 56//56
f 44//44 56//56 57//57
f 37//37 36//36 49//49
f 37//37 49//49 50//50
f 517//517 44//44 57//57
f 517//517 57//57 518//518
f 38//38 37//37 50//50
f 38//38 50//50 51//51
f 39//39 38//38 51//51
f 39//39 51//51 52//52
f 40//40 39//39 52//52
f 40//40 52//52 53//53
f 41//41 40//40 53//53
f 41//41 53//53 54//54
f 34//34 33//33 46//46
f 34//34 46//46 47//47
f 42//42 41//41 54//54
f 42//42 54//54 55//55
f 52//52 51//51 64//64
f 52//52 64//64 65//65
f 53//53 52//52 65//65
f 53//53 65//65 66//66
f 54//54 53//53 66//66
f 54//54 66//66 67//67
f 47//47 46//46 59//59
f 47//47 59//59 60//60
f 55//55 54//54 67//67
f 55//55 67//67 68//68
f 48//48 47//47 60//60
f 48//48 60//60 61//61
f 56//56 55//55 68//68
f 56//56 68//68 69//69
f 49//49 48//48 61//61
f 49//49 61//61 62//62
f 57//57 56//56 69//69
f 57//57 69//69 70//70
f 50//50 49//49 62//62
f 50//50 62//62 63//63
f 518//518 57//57 70//70
f 518//518 70//70 519//519
f 51//51 50//50 63//63
f 51//51 63//63 64//64
f 69//69 68//68 81//81
f 69//69 81//81 82//82
f 62//62 61//61 74//74
f 62//62 74//74 75//75
f 70//70 69//69 82//82
f 70//70 82//82 83//83
f 63//63 62//62 75//75
f 63//63 75//75 76//76
f 519//519 70//70 83//83
f 519//519 83//83 520//520
f 64//64 63//63 76//76
f 64//64 76//76 77//77
f 65//65 64//64 77//77
f 65//65 77//77 78//78
f 66//66 65//65 78//78
f 66//66 78//78 79//79
f 67//67 66//66 79//79
f 67//67 79//79 80//80
f 60//60 59//59 72//72
f 60//60 72//72 73//73
f 68//68 67//67 80//80
f 68//68 80//80 81//81
f 61//61 60//60 73//73
f 61//61 73//73 74//74
f 79//79 78//78 91//91
f 79//79 91//91 92//92
f 80//80 79//79 92//92
f 80//80 92//92 93//93
f 73//73 72//72 85//85
f 73//73 85//85 86//86
f 81//81 80//80 93//93
f 81//81 93//93 94//94
f 74//74 73//73 86//86
f 74//74 86//86 87//87
f 82//82 81//81 94//94
f 82//82 94//94 95//95
f 75//75 74//74 87//87
f 75//75 87//87 88//88
f 83//83 82//82 95//95
f 83//83 95//95 96//96
f 76//76 75//75 88//88
f 76//76 88//88 89//89
f 520//520 83//83 96//96
f 520//520 96//96 521//521
f 77//77 76//76 89//89
f 77//77 89//89 90//90
f 78//78 77//77 90//90
f 78//78 90//90 91//91
f 88//88 87//87 100//100
f 88//88 100//100 101//101
f 96//96 95//95 108//108
f 96//96 108//108 109//109
f 89//89 88//88 101//101
f 89//89 101//101 102//102
f 521//521 96//96 109//109
f 521//521 109//109 522//522
f 90//90 89//89 102//102
f 90//90 102//102 103//103
f 91//91 90//90 103//103
f 91//91 103//103 104//104
f 92//92 91//91 104//104
f 92//92 104//104 105//105
f 93//93 92//92 105//105
f 93//93 105//105 106//106
f 86//86 85//85 98//98
f 86//86 98//98 99//99
f 94//94 93//93 106//106
f 94//94 106//106 107//107
f 87//87 86//86 99//99
f 87//87 99//99 100//100
f 95//95 94//94 107//107
f 95//95 107//107 108//108
f 105//105 104//104 117//117
f 105//105 117//117 118//118
f 106//106 105//105 118//118
f 106//106 118//118 119//119
f 99//99 98//98 111//111
f 99//99 111//111 112//112
f 107//107 106//106 119//119
f 107//107 119//119 120//120
f 100//100 99//99 112//112
f 100//100 112//112 113//113
f 108//108 107//107 120//120
f 108//108 120//120 121//121
f 101//101 100//100 113//113
f 101//101 113//113 114//114
f 109//109 108//108 121//121
f 109//109 121//121 122//122
f 102//102 101//101 114//114
f 102//102 114//114 115//115
f 522//522 109//109 122//122
f 522//522 122//122 523//523
f 103//103 102//102 115//115
f 103//103 115//115 116//116
f 104//104 103//103 116//116
f 104//104 116//116 117//117
f 122//122 121//121 134//134
f 122//122 134//134 135//135
f 115//115 114//114 127//127
f 115//115 127//127 128//128
f 523//523 122//122 135//135
f 523//523 135//135 524//524
f 116//116 115//115 128//128
f 116//116 128//128 129//129
f 117//117 116//116 129//129
f 117//117 129//129 130//130
f 118//118 117//117 130//130
f 118//118 130//130 131//131
f 119//119 118//118 131//131
f 119//119 131//131 132//132
f 112//112 111//111 124//124
f 112//112 124//124 125//125
f 120//120 119//119 132//132
f 120//120 132//132 133//133
f 113//113 112//112 125//125
f 113//113 125//125 126//126
f 121//121 120//120 133//133
f 121//121 133//133 134//134
f 114//114 113//113 126//126
f 114//114 126//126 127//127
f 132//132 131//131 144//144
f 132//132 144//144 145//145
f 125//125 124//124 137//137
f 125//125 137//137 138//138
f 133//133 132//132 145//145
f 133//133 145//145 146//146
f 126//126 125//125 138//138
f 126//126 138//138 139//139
f 134//134 133//133 146//146
f 134//134 146//146 147//147
f 127//127 126//126 139//139
f 127//127 139//139 140//140
f 135//135 134//134 147//147
f 135//135 147//147 148//148
f 128//128 127//127 140//140
f 128//128 140//140 141//141
f 524//524 135//135 148//148
f 524//524 148//148 525//525
f 129//129 128//128 141//141
f 129//129 141//141 142//142
f 130//130 129//129 142//142
f 130//130 142//142 143//143
f 131//131 130//130 143//143
f 131//131 143//143 144//144
f 525//525 148//148 161//161
f 525//525 161//161 526//526
f 142//142 141//141 154//154
f 142//142 154//154 155//155
f 143//143 142//142 155//155
f 143//143 155//155 156//156
f 144//144 143//143 156//156
f 144//144 156//156 157//157
f 145//145 144//144 157//157
f 145//145 157//157 158//158
f 138//138 137//137 150//150
f 138//138 150//150 151//151
f 146//146 145//145 158//158
f 146//146 158//158 159//159
f 139//139 138//138 151//151
f 139//139 151//151 152//152
f 147//147 146//146 159//159
f 147//147 159//159 160//160
f 140//140 139//139 152//152
f 140//140 152//152 153//153
f 148//148 147//147 160//160
f 148//148 160//160 161//161
f 141//141 140//140 153//153
f 141//141 153//153 154//154
f 151//151 150//150 163//163
f 151//151 163//163 164//164
f 159//159 158//158 171//171
f 159//159 171//171 172//172
f 152//152 151//151 164//164
f 152//152 164//164 165//165
f 160//160 159//159 172//172
f 160//160 172//172 173//173
f 153//153 152//152 165//165
f 153//153 165//165 166//166
f 161//161 160//160 173//173
f 161//161 173//173 174//174
f 154//154 153//153 166//166
f 154//154 166//166 167//167
f 526//526 161//161 174//174
f 526//526 174//174 527//527
f 155//155 154//154 167//167
f 155//155 167//167 168//168
f 156//156 155//155 168//168
f 156//156 168//168 169//169
f 157//157 156//156 169//169
f 157//157 169//169 170//170
f 158//158 157//157 170//170
f 158//158 170//170 171//171
f 168//168 167//167 180//180
f 168//168 180//180 181//181
f 169//169 168//168 181//181
f 169//169 181//181 182//182
f 170//170 169//169 182//182
f 170//170 182//182 183//183
f 171//171 170//170 183//183
f 171//171 183//183 184//184
f 164//164 163//163 176//176
f 164//164 176//176 177//177
f 172//172 171//171 184//184
f 172//172 184//184 185//185
f 165//165 164//164 177//177
f 165//165 177//177 178//178
f 173//173 172//172 185//185
f 173//173 185//185 186//186
f 166//166 165//165 178//178
f 166//166 178//178 179//179
f 174//174 173//173 186//186
f 174//174 186//186 187//187
f 167//167 166//166 179//179
f 167//167 179//179 180//180
f 527//527 174//174 187//187
f 527//527 187//187 528//528
f 185//185 184//184 197//197
f 185//185 197//197 198//198
f 178//178 177//177 190//190
f 178//178 190//190 191//191
f 186//186 185//185 198//198
f 186//186 198//198 199//199
f 179//179 178//178 191//191
f 179//179 191//191 192//192
f 187//187 186//186 199//199
f 187//187 199//199 200//200
f 180//180 179//179 192//192
f 180//180 192//192 193//193
f 528//528 187//187 200//200
f 528//528 200//200 529//529
f 181//181 180//180 193//193
f 181//181 193//193 194//194
f 182//182 181//181 194//194
f 182//182 194//194 195//195
f 183//183 182//182 195//195
f 183//183 195//195 196//196
f 184//184 183//183 196//196
f 184//184 196//196 197//197
f 177//177 176//176 189//189
f 177//177 189//189 190//190
f 195//195 194//194 207//207
f 195//195 207//207 208//208
f 196//196 195//195 208//208
f 196//196 208//208 209//209
f 197//197 196//196 209//209
f 197//197 209//209 210//210
f 190//190 189//189 202//202
f 190//190 202//202 203//203
f 198//198 197//197 210//210
f 198//198 210//210 211//211
f 191//191 190//190 203//203
f 191//191 203//203 204//204
f 199//199 198//198 211//211
f 199//199 211//211 212//212
f 192//192 191//191 204//204
f 192//192 204//204 205//205
f 200//200 199//199 212//212
f 200//200 212//212 213//213
f 193//193 192//192 205//205
f 193//193 205//205 206//206
f 529//529 200//200 213//213
f 529//529 213//213 530//530
f 194//194 193//193 206//206
f 194//194 206//206 207//207
f 204//204 203//203 216//216
f 204//204 216//216 217//217
f 212//212 211//211 224//224
f 212//212 224//224 225//225
f 205//205 204//204 217//217
f 205//205 217//217 218//218
f 213//213 212//212 225//225
f 213//213 225//225 226//226
f 206//206 205//205 218//218
f 206//206 218//218 219//219
f 530//530 213//213 226//226
f 530//530 226//226 531//531
f 207//207 206//206 219//219
f 207//207 219//219 220//220
f 208//208 207//207 220//220
f 208//208 220//220 221//221
f 209//209 208//208 221//221
f 209//209 221//221 222//222
f 210//210 209//209 222//222
f 210//210 222//222 223//223
f 203//203 202//202 215//215
f 203//203 215//215 216//216
f 211//211 210//210 223//223
f 211//211 223//223 224//224
f 221//221 220//220 233//233
f 221//221 233//233 234//234
f 222//222 221//221 234//234
f 222//222 234//234 235//235
f 223//223 222//222 235//235
f 223//223 235//235 236//236
f 216//216 215//215 228//228
f 216//216 228//228 229//229
f 224//224 223//223 236//236
f 224//224 236//236 237//237
f 217//217 216//216 229//229
f 217//217 229//229 230//230
f 225//225 224//224 237//237
f 225//225 237//237 238//238
f 218//218 217//217 230//230
f 218//218 230//230 231//231
f 226//226 225//225 238//238
f 226//226 238//238 239//239
f 219//219 218//218 231//231
f 219//219 231//231 232//232
f 531//531 226//226 239//239
f 531//531 239//239 532//532
f 220//220 219//219 232//232
f 220//220 232//232 233//233
f 238//238 237//237 250//250
f 238//238 250//250 251//251
f 231//231 230//230 243//243
f 231//231 243//243 244//244
f 239//239 238//238 251//251
f 239//239 251//251 252//252
f 232//232 231//231 244//244
f 232//232 244//244 245//245
f 532//532 239//239 252//252
f 532//532 252//252 533//533
f 233//233 232//232 245//245
f 233//233 245//245 246//246
f 234//234 233//233 246//246
f 234//234 246//246 247//247
f 235//235 234//234 247//247
f 235//235 247//247 248//248
f 236//236 235//235 248//248
f 236//236 248//248 249//249
f 229//229 228//228 241//241
f 229//229 241//241 242//242
f 237//237 236//236 249//249
f 237//237 249//249 250//250
f 230//230 229//229 242//242
f 230//230 242//242 243//243
f 248//248 247//247 260//260
f 248//248 260//260 261//261
f 249//249 248//248 261//261
f 249//249 261//261 262//262
f 242//242 241//241 254//254
f 242//242 254//254 255//255
f 250//250 249//249 262//262
f 250//250 262//262 263//263
f 243//243 242//242 255//255
f 243//243 255//255 256//256
f 251//251 250//250 263//263
f 251//251 263//263 264//264
f 244//244 243//243 256//256
f 244//244 256//256 257//257
f 252//252 251//251 264//264
f 252//252 264//264 265//265
f 245//245 244//244 257//257
f 245//245 257//257 258//258
f 533//533 252//252 265//265
f 533//533 265//265 534//534
f 246//246 245//245 258//258
f 246//246 258//258 259//259
f 247//247 246//246 259//259
f 247//247 259//259 260//260
f 265//265 264//264 277//277
f 265//265 277//277 278//278
f 258//258 257//257 270//270
f 258//258 270//270 271//271
f 534//534 265//265 278//278
f 534//534 278//278 535//535
f 259//259 258//258 271//271
f 259//259 271//271 272//272
f 260//260 259//259 272//272
f 260//260 272//272 273//273
f 261//261 260//260 273//273
f 261//261 273//273 274//274
f 262//262 261//261 274//274
f 262//262 274//274 275//275
f 255//255 254//254 267//267
f 255//255 267//267 268//268
f 263//263 262//262 275//275
f 263//263 275//275 276//276
f 256//256 255//255 268//268
f 256//256 268//268 269//269
f 264//264 263//263 276//276
f 264//264 276//276 277//277
f 257//257 256//256 269//269
f 257//257 269//269 270//270
f 275//275 274//274 287//287
f 275//275 287//287 288//288
f 268//268 267//267 280//280
f 268//268 280//280 281//281
f 276//276 275//275 288//288
f 276//276 288//288 289//289
f 269//269 268//268 281//281
f 269//269 281//281 282//282
f 277//277 276//276 289//289
f 277//277 289//289 290//290
f 270//270 269//269 282//282
f 270//270 282//282 283//283
f 278//278 277//277 290//290
f 278//278 290//290 291//291
f 271//271 270//270 283//283
f 271//271 283//283 284//284
f 535//535 278//278 291//291
f 535//535 291//291 536//536
f 272//272 271//271 284//284
f 272//272 284//284 285//285
f 273//273 272//272 285//285
f 273//273 285//285 286//286
f 274//274 273//273 286//286
f 274//274 286//286 287//287
f 284//284 283//283 296//296
f 284//284 296//296 297//297
f 536//536 291//291 304//304
f 536//536 304//304 537//537
f 285//285 284//284 297//297
f 285//285 297//297 298//298
f 286//286 285//285 298//298
f 286//286 298//298 299//299
f 287//287 286//286 299//299
f 287//287 299//299 300//300
f 288//288 287//287 300//300
f 288//288 300//300 301//301
f 281//281 280//280 293//293
f 281//281 293//293 294//294
f 289//289 288//288 301//301
f 289//289 301//301 302//302
f 282//282 281//281 294//294
f 282//282 294//294 295//295
f 290//290 289//289 302//302
f 290//290 302//302 303//303
f 283//283 282//282 295//295
f 283//283 295//295 296//296
f 291//291 290//290 303//303
f 291//291 303//303 304//304
f 301//301 300//300 313//313
f 301//301 313//313 314//314
f 294//294 293//293 306//306
f 294//294 306//306 307//307
f 302//302 301//301 314//314
f 302//302 314//314 315//315
f 295//295 294//294 307//307
f 295//295 307//307 308//308
f 303//303 302//302 315//315
f 303//303 315//315 316//316
f 296//296 295//295 308//308
f 296//296 308//308 309//309
f 304//304 303//303 316//316
f 304//304 316//316 317//317
f 297//297 296//296 309//309
f 297//297 309//309 310//310
f 537//537 304//304 317//317
f 537//537 317//317 538//538
f 298//298 297//297 310//310
f 298//298 310//310 311//311
f 299//299 298//298 311//311
f 299//299 311//311 312//312
f 300//300 299//299 312//312
f 300//300 312//312 313//313
f 538//538 317//317 330//330
f 538//538 330//330 539//539
f 311//311 310//310 323//323
f 311//311 323//323 324//324
f 312//312 311//311 324//324
f 312//312 324//324 325//325
f 313//313 312//312 325//325
f 313//313 325//325 326//326
f 314//314 313//313 326//326
f 314//314 326//326 327//327
f 307//307 306//306 319//319
f 307//307 319//319 320//320
f 315//315 314//314 327//327
f 315//315 327//327 328//328
f 308//308 307//307 320//320
f 308//308 320//320 321//321
f 316//316 315//315 328//328
f 316//316 328//328 329//329
f 309//309 308//308 321//321
f 309//309 321//321 322//322
f 317//317 316//316 329//329
f 317//317 329//329 330//330
f 310//310 309//309 322//322
f 310//310 322//322 323//323
f 320//320 319//319 332//332
f 320//320 332//332 333//333
f 328//328 327//327 340//340
f 328//328 340//340 341//341
f 321//321 320//320 333//333
f 321//321 333//333 334//334
f 329//329 328//328 341//341
f 329//329 341//341 342//342
f 322//322 321//321 334//334
f 322//322 334//334 335//335
f 330//330 329//329 342//342
f 330//330 342//342 343//343
f 323//323 322//322 335//335
f 323//323 335//335 336//336
f 539//539 330//330 343//343
f 539//539 343//343 540//540
f 324//324 323//323 336//336
f 324//324 336//336 337//337
f 325//325 324//324 337//337
f 325//325 337//337 338//338
f 326//326 325//325 338//338
f 326//326 338//338 339//339
f 327//327 326//326 339//339
f 327//327 339//339 340//340
f 337//337 336//336 349//349
f 337//337 349//349 350//350
f 338//338 337//337 350//350
f 338//338 350//350 351//351
f 339//339 338//338 351//351
f 339//339 351//351 352//352
f 340//340 339//339 352//352
f 340//340 352//352 353//353
f 333//333 332//332 345//345
f 333//333 345//345 346//346
f 341//341 340//340 353//353
f 341//341 353//353 354//354
f 334//334 333//333 346//346
f 334//334 346//346 347//347
f 342//342 341//341 354//354
f 342//342 354//354 355//355
f 335//335 334//334 347//347
f 335//335 347//347 348//348
f 343//343 342//342 355//355
f 343//343 355//355 356//356
f 336//336 335//335 348//348
f 336//336 348//348 349//349
f 540//540 343//343 356//356
f 540//540 356//356 541//541
f 354//354 353//353 366//366
f 354//354 366//366 367//367
f 347//347 346//346 359//359
f 347//347 359//359 360//360
f 355//355 354//354 367//367
f 355//355 367//367 368//368
f 348//348 347//347 360//360
f 348//348 360//360 361//361
f 356//356 355//355 368//368
f 356//356 368//368 369//369
f 349//349 348//348 361//361
f 349//349 361//361 362//362
f 541//541 356//356 369//369
f 541//541 369//369 542//542
f 350//350 349//349 362//362
f 350//350 362//362 363//363
f 351//351 350//350 363//363
f 351//351 363//363 364//364
f 352//352 351//351 364//364
f 352//352 364//364 365//365
f 353//353 352//352 365//365
f 353//353 365//365 366//366
f 346//346 345//345 358//358
f 346//346 358//358 359//359
f 364//364 363//363 376//376
f 364//364 376//376 377//377
f 365//365 364//364 377//377
f 365//365 377//377 378//378
f 366//366 365//365 378//378
f 366//366 378//378 379//379
f 359//359 358//358 371//371
f 359//359 371//371 372//372
f 367//367 366//366 379//379
f 367//367 379//379 380//380
f 360//360 359//359 372//372
f 360//360 372//372 373//373
f 368//368 367//367 380//380
f 368//368 380//380 381//381
f 361//361 360//360 373//373
f 361//361 373//373 374//374
f 369//369 368//368 381//381
f 369//369 381//381 382//382
f 362//362 361//361 374//374
f 362//362 374//374 375//375
f 542//542 369//369 382//382
f 542//542 382//382 543//543
f 363//363 362//362 375//375
f 363//363 375//375 376//376
f 381//381 380//380 393//393
f 381//381 393//393 394//394
f 374//374 373//373 386//386
f 374//374 386//386 387//387
f 382//382 381//381 394//394
f 382//382 394//394 395//395
f 375//375 374//374 387//387
f 375//375 387//387 388//388
f 543//543 382//382 395//395
f 543//543 395//395 544//544
f 376//376 375//375 388//388
f 376//376 388//388 389//389
f 377//377 376//376 389//389
f 377//377 389//389 390//390
f 378//378 377//377 390//390
f 378//378 390//390 391//391
f 379//379 378//378 391//391
f 379//379 391//391 392//392
f 372//372 371//371 384//384
f 372//372 384//384 385//385
f 380//380 379//379 392//392
f 380//380 392//392 393//393
f 373//373 372//372 385//385
f 373//373 385//385 386//386
f 391//391 390//390 403//403
f 391//391 403//403 404//404
f 392//392 391//391 404//404
f 392//392 404//404 405//405
f 385//385 384//384 397//397
f 385//385 397//397 398//398
f 393//393 392//392 405//405
f 393//393 405//405 406//406
f 386//386 385//385 398//398
f 386//386 398//398 399//399
f 394//394 393//393 406//406
f 394//394 406//406 407//407
f 387//387 386//386 399//399
f 387//387 399//399 400//400
f 395//395 394//394 407//407
f 395//395 407//407 408//408
f 388//388 387//387 400//400
f 388//388 400//400 401//401
f 544//544 395//395 408//408
f 544//544 408//408 545//545
f 389//389 388//388 401//401
f 389//389 401//401 402//402
f 390//390 389//389 402//402
f 390//390 402//402 403//403
f 400//400 399//399 411//411
f 400//400 411//411 2//2
f 408//408 407//407 414//414
f 408//408 414//414 415//415
f 401//401 400//400 2//2
f 401//401 2//2 412//412
f 545//545 408//408 415//415
f 545//545 415//415 546//546
f 402//402 401//401 412//412
f 402//402 412//412 3//3
f 403//403 402//402 3//3
f 403//403 3//3 4//4
f 404//404 403//403 4//4
f 404//404 4//4 5//5
f 405//405 404//404 5//5
f 405//405 5//5 413//413
f 398//398 397//397 410//410
f 398//398 410//410 1//1
f 406//406 405//405 413//413
f 406//406 413//413 6//6
f 399//399 398//398 1//1
f 399//399 1//1 411//411
f 407//407 406//406 6//6
f 407//407 6//6 414//414
f 383//383 417//417 357//357
f 383//383 357//357 370//370
f 417//417 424//424 344//344
f 417//417 344//344 357//357
f 424//424 431//431 331//331
f 424//424 331//331 344//344
f 431//431 438//438 318//318
f 431//431 318//318 331//331
f 438//438 445//445 305//305
f 438//438 305//305 318//318
f 445//445 452//452 292//292
f 445//445 292//292 305//305
f 452//452 459//459 279//279
f 452//452 279//279 292//292
f 459//459 253//253 266//266
f 459//459 266//266 279//279
f 396//396 418//418 417//417
f 396//396 417//417 383//383
f 418//418 425//425 424//424
f 418//418 424//424 417//417
f 425//425 432//432 431//431
f 425//425 431//431 424//424
f 432//432 439//439 438//438
f 432//432 438//438 431//431
f 439//439 446//446 445//445
f 439//439 445//445 438//438
f 446//446 453//453 452//452
f 446//446 452//452 445//445
f 453//453 460//460 459//459
f 453//453 459//459 452//452
f 460//460 240//240 253//253
f 460//460 253//253 459//459
f 409//409 419//419 418//418
f 409//409 418//418 396//396
f 419//419 426//426 425//425
f 419//419 425//425 418//418
f 426//426 433//433 432//432
f 426//426 432//432 425//425
f 433//433 440//440 439//439
f 433//433 439//439 432//432
f 440//440 447//447 446//446
f 440//440 446//446 439//439
f 447//447 454//454 453//453
f 447//447 453//453 446//446
f 454//454 461//461 460//460
f 454//454 460//460 453//453
f 461//461 227//227 240//240
f 461//461 240//240 460//460
f 416//416 420//420 419//419
f 416//416 419//419 409//409
f 420//420 427//427 426//426
f 420//420 426//426 419//419
f 427//427 434//434 433//433
f 427//427 433//433 426//426
f 434//434 441//441 440//440
f 434//434 440//440 433//433
f 441//441 448//448 447//447
f 441//441 447//447 440//440
f 448//448 455//455 454//454
f 448//448 454//454 447//447
f 455//455 462//462 461//461
f 455//455 461//461 454//454
f 462//462 214//214 227//227
f 462//462 227//227 461//461
f 19//19 421//421 420//420
f 19//19 420//420 416//416
f 421//421 428//428 427//427
f 421//421 427//427 420//420
f 428//428 435//435 434//434
f 428//428 434//434 427//427
f 435//435 442//442 441//441
f 435//435 441//441 434//434
f 442//442 449//449 448//448
f 442//442 448//448 441//441
f 449//449 456//456 455//455
f 449//449 455//455 448//448
f 456//456 463//463 462//462
f 456//456 462//462 455//455
f 463//463 201//201 214//214
f 463//463 214//214 462//462
f 32//32 422//422 421//421
f 32//32 421//421 19//19
f 422//422 429//429 428//428
f 422//422 428//428 421//421
f 429//429 436//436 435//435
f 429//429 435//435 428//428
f 436//436 443//443 442//442
f 436//436 442//442 435//435
f 443//443 450//450 449//449
f 443//443 449//449 442//442
f 450//450 457//457 456//456
f 450//450 456//456 449//449
f 457//457 464//464 463//463
f 457//457 463//463 456//456
f 464//464 188//188 201//201
f 464//464 201//201 463//463
f 45//45 423//423 422//422
f 45//45 422//422 32//32
f 423//423 430//430 429//429
f 423//423 429//429 422//422
f 430//430 437//437 436//436
f 430//430 436//436 429//429
f 437//437 444//444 443//443
f 437//437 443//443 436//436
f 444//444 451//451 450//450
f 444//444 450//450 443//443
f 451//451 458//458 457//457
f 451//451 457//457 450//450
f 458//458 465//465 464//464
f 458//458 464//464 457//457
f 465//465 175//175 188//188
f 465//465 188//188 464//464
f 58//58 71//71 423//423
f 58//58 423//423 45//45
f 71//71 84//84 430//430
f 71//71 430//430 423//423
f 84//84 97//97 437//437
f 84//84 437//437 430//430
f 97//97 110//110 444//444
f 97//97 444//444 437//437
f 110//110 123//123 451//451
f 110//110 451//451 444//444
f 123//123 136//136 458//458
f 123//123 458//458 451//451
f 136//136 149//149 465//465
f 136//136 465//465 458//458
f 149//149 162//162 175//175
f 149//149 175//175 465//465
f 358//358 345//345 466//466
f 358//358 466//466 371//371
f 345//345 332//332 473//473
f 345//345 473//473 466//466
f 332//332 319//319 480//480
f 332//332 480//480 473//473
f 319//319 306//306 487//487
f 319//319 487//487 480//480
f 306//306 293//293 494//494
f 306//306 494//494 487//487
f 293//293 280//280 501//501
f 293//293 501//501 494//494
f 280//280 267//267 508//508
f 280//280 508//508 501//501
f 267//267 254//254 241//241
f 267//267 241//241 508//508
f 371//371 466//466 467//467
f 371//371 467//467 384//384
f 466//466 473//473 474//474
f 466//466 474//474 467//467
f 473//473 480//480 481//481
f 473//473 481//481 474//474
f 480//480 487//487 488//488
f 480//480 488//488 481//481
f 487//487 494//494 495//495
f 487//487 495//495 488//488
f 494//494 501//501 502//502
f 494//494 502//502 495//495
f 501//501 508//508 509//509
f 501//501 509//509 502//502
f 508//508 241//241 228//228
f 508//508 228//228 509//509
f 384//384 467//467 468//468
f 384//384 468//468 397//397
f 467//467 474//474 475//475
f 467//467 475//475 468//468
f 474//474 481//481 482//482
f 474//474 482//482 475//475
f 481//481 488//488 489//489
f 481//481 489//489 482//482
f 488//488 495//495 496//496
f 488//488 496//496 489//489
f 495//495 502//502 503//503
f 495//495 503//503 496//496
f 502//502 509//509 510//510
f 502//502 510//510 503//503
f 509//509 228//228 215//215
f 509//509 215//215 510//510
f 397//397 468//468 469//469
f 397//397 469//469 410//410
f 468//468 475//475 476//476
f 468//468 476//476 469//469
f 475//475 482//482 483//483
f 475//475 483//483 476//476
f 482//482 489//489 490//490
f 482//482 490//490 483//483
f 489//489 496//496 497//497
f 489//489 497//497 490//490
f 496//496 503//503 504//504
f 496//496 504//504 497//497
f 503//503 510//510 511//511
f 503//503 511//511 504//504
f 510//510 215//215 202//202
f 510//510 202//202 511//511
f 410//410 469//469 470//470
f 410//410 470//470 7//7
f 469//469 476//476 477//477
f 469//469 477//477 470//470
f 476//476 483//483 484//484
f 476//476 484//484 477//477
f 483//483 490//490 491//491
f 483//483 491//491 484//484
f 490//490 497//497 498//498
f 490//490 498//498 491//491
f 497//497 504//504 505//505
f 497//497 505//505 498//498
f 504//504 511//511 512//512
f 504//504 512//512 505//505
f 511//511 202//202 189//189
f 511//511 189//189 512//512
f 7//7 470//470 471//471
f 7//7 471//471 20//20
f 470//470 477//477 478//478
f 470//470 478//478 471//471
f 477//477 484//484 485//485
f 477//477 485//485 478//478
f 484//484 491//491 492//492
f 484//484 492//492 485//485
f 491//491 498//498 499//499
f 491//491 499//499 492//492
f 498//498 505//505 506//506
f 498//498 506//506 499//499
f 505//505 512//512 513//513
f 505//505 513//513 506//506
f 512//512 189//189 176//176
f 512//512 176//176 513//513
f 20//20 471//471 472//472
f 20//20 472//472 33//33
f 471//471 478//478 479//479
f 471//471 479//479 472//472
f 478//478 485//485 486//486
f 478//478 486//486 479//479
f 485//485 492//492 493//493
f 485//485 493//493 486//486
f 492//492 499//499 500//500
f 492//492 500//500 493//493
f 499//499 506//506 507//507
f 499//499 507//507 500//500
f 506//506 513//513 514//514
f 506//506 514//514 507//507
f 513//513 176//176 163//163
f 513//513 163//163 514//514
f 33//33 472//472 59//59
f 33//33 59//59 46//46
f 472//472 479//479 72//72
f 472//472 72//72 59//59
f 479//479 486//486 85//85
f 479//479 85//85 72//72
f 486//486 493//493 98//98
f 486//486 98//98 85//85
f 493//493 500//500 111//111
f 493//493 111//111 98//98
f 500//500 507//507 124//124
f 500//500 124//124 111//111
f 507//507 514//514 137//137
f 507//507 137//137 124//124
f 514//514 163//163 150//150
f 514//514 150//150 137//137
f 409//409 545//545 546//546
f 409//409 546//546 416//416
f 396//396 544//544 545//545
f 396//396 545//545 409//409
f 383//383 543//543 544//544
f 383//383 544//544 396//396
f 370//370 542//542 543//543
f 370//370 543//543 383//383
f 357//357 541//541 542//542
f 357//357 542//542 370//370
f 344//344 540//540 541//541
f 344//344 541//541 357//357
f 331//331 539//539 540//540
f 331//331 540//540 344//344
f 318//318 538//538 539//539
f 318//318 539//539 331//331
f 305//305 537//537 538//538
f 305//305 538//538 318//318
f 292//292 536//536 537//537
f 292//292 537//537 305//305
f 279//279 535//535 536//536
f 279//279 536//536 292//292
f 266//266 534//534 535//535
f 266//266 535//535 279//279
f 253//253 533//533 534//534
f 253//253 534//534 266//266
f 240//240 532//532 533//533
f 240//240 533//533 253//253
f 227//227 531//531 532//532
f 227//227 532//532 240//240
f 214//214 530//530 531//531
f 214//214 531//531 227//227
f 201//201 529//529 530//530
f 201//201 530//530 214//214
f 188//188 528//528 529//529
f 188//188 529//529 201//201
f 175//175 527//527 528//528
f 175//175 528//528 188//188
f 162//162 526//526 527//527
f 162//162 527//527 175//175
f 149//149 525//525 526//526
f 149//149 526//526 162//162
f 136//136 524//524 525//525
f 136//136 525//525 149//149
f 123//123 523//523 524//524
f 123//123 524//524 136//136
f 110//110 522//522 523//523
f 110//110 523//523 123//123
f 97//97 521//521 522//522
f 97//97 522//522 110//110
f 84//84 520//520 521//521
f 84//84 521//521 97//97
f 71//71 519//519 520//520
f 71//71 520//520 84//84
f 58//58 518//518 519//519
f 58//58 519//519 71//71
f 45//45 517//517 518//518
f 45//45 518//518 58//58
f 32//32 516//516 517//517
f 32//32 517//517 45//45
f 19//19 515//515 516//516
f 19//19 516//516 32//32
f 416//416 546//546 515//515
f 416//416 515//515 19//19
