v -0.0884737782365141 0.78471021354527 0.0949770117395186
v -0.0884737782365141 0.78471021354527 0.104977011739519
v -0.0884737782365141 0.795144496023061 0.0949770117395186
v -0.0884737782365141 0.79471021354527 0.104977011739519
v -0.0884737782365141 0.80471021354527 0.0949770117395186
v -0.0884737782365141 0.80471021354527 0.104977011739519
v -0.0784737782365141 0.78471021354527 0.0949770117395186
v -0.0784737782365141 0.78471021354527 0.104977011739519
v -0.0784737782365141 0.79471021354527 0.0949770117395186
v -0.0784737782365141 0.79471021354527 0.104977011739519
v -0.0784737782365141 0.80471021354527 0.0949770117395186
v -0.0784737782365141 0.80471021354527 0.104977011739519
v -0.0684737782365141 0.78471021354527 0.0949770117395186
v -0.0684737782365141 0.78471021354527 0.104977011739519
v -0.0684737782365141 0.79471021354527 0.0949770117395186
v -0.0684737782365141 0.79471021354527 0.104977011739519
v -0.0862423018313248 0.793948482070774 0.104977011739519
v -0.0856710081030794 0.79815010440473 0.104977011739519
v -0.0835478490404663 0.794909770184241 0.104977011739519
v -0.0835834424174573 0.798692378799433 0.104977011739519
v -0.0841949753701676 0.800888497436358 0.104977011739519
v -0.0814148090261317 0.794927922052277 0.104977011739519
v -0.081322087117414 0.798282735927892 0.104977011739519
v -0.081528010912895 0.800746161112112 0.104977011739519
v -0.0795404449031808 0.793255668090724 0.104977011739519
v -0.0800178145422493 0.796430276421679 0.104977011739519
v -0.0770403089293469 0.788157463666841 0.104977011739519
v -0.077047248792617 0.792077610996124 0.104977011739519
v -0.0746605476402873 0.787055139313691 0.104977011739519
v -0.0752737782365141 0.79071021354527 0.104977011739519
v -0.0737681557654946 0.792931443625731 0.104977011739519
v -0.0710071115698474 0.793255668090724 0.104977011739519
v -0.0784737782365141 0.79671021354527 0.0966770117395186
v -0.0784737782365141 0.796861262719151 0.102564523896966
v -0.0784737782365141 0.79871021354527 0.0977770117395186
v -0.0784737782365141 0.79971021354527 0.102177011739519
v -0.0784737782365141 0.800612141962205 0.0999300417625147
v -0.0784737782365141 0.80271021354527 0.102177011739519
v -0.0784737782365141 0.79671021354527 0.104977011739519
v -0.0784737782365141 0.79871021354527 0.104977011739519
v -0.0784737782365141 0.80071021354527 0.104977011739519
v -0.0795404449031808 0.78671021354527 0.0949770117395186
v -0.0795404449031808 0.788164758999815 0.0949770117395186
v -0.0779889297516656 0.788164758999815 0.0949770117395186
v -0.0779426639410989 0.790203197364749 0.0949770117395186
v -0.0795404449031808 0.792164758999815 0.0949770117395186
v -0.0778684173169137 0.786379938346751 0.0949770117395186
v -0.0758555964183323 0.788164758999815 0.0949770117395186
v -0.0771778974987143 0.792213406723894 0.0949770117395186
v -0.0752040654136822 0.786246085069405 0.0949770117395186
v -0.0749592774657067 0.791926314895647 0.0949770117395186
v -0.0731404449031808 0.78871021354527 0.0949770117395186
v -0.0708563761465334 0.791186616683389 0.0949770117395186
v -0.0884737782365141 0.794996856253694 0.0976285201658642
v -0.0884737782365141 0.79471021354527 0.0999770117395186
v -0.0884737782365141 0.79633521354527 0.101764511739519
v -0.0884737782365141 0.794444553984613 0.10246860373183
v -0.0884737782365141 0.796276913428892 0.103595342054691
v -0.0884737782365141 0.79833521354527 0.0977770117395186
v -0.0884737782365141 0.798727937309547 0.0999048240415726
v -0.0884737782365141 0.798702103078437 0.102225186982829
v -0.0884737782365141 0.80233521354527 0.101764511739519
v -0.0884737782365141 0.78671021354527 0.0977770117395186
v -0.0884737782365141 0.78873610752828 0.0977126114226014
v -0.0884737782365141 0.790432684970563 0.0975067469967968
v -0.0884737782365141 0.788136663396653 0.100013178767293
v -0.0884737782365141 0.79033521354527 0.0999770117395186
v -0.0884737782365141 0.792586817225911 0.0975153107411805
v -0.0884737782365141 0.792720653817436 0.100129032865166
v -0.0884737782365141 0.790355687737859 0.10253150344044
v -0.0884737782365141 0.792369319778485 0.102474195041049
v -0.0859404449031808 0.78471021354527 0.0977770117395186
v -0.0827404449031808 0.78471021354527 0.0966770117395186
v -0.0841616255899866 0.78471021354527 0.0995743295186367
v -0.0823805263640148 0.78471021354527 0.100471377607605
v -0.0816737782365141 0.78471021354527 0.102177011739519
v -0.0798335518371422 0.78471021354527 0.0973562895746685
v -0.0798038912498422 0.78471021354527 0.0998701806931507
v -0.0774071115698474 0.78471021354527 0.0977770117395186
v -0.0774071115698474 0.78471021354527 0.102177011739519
v -0.0862066549557315 0.800383784459714 0.0949770117395186
v -0.0858601193005565 0.797101786678617 0.0949770117395186
v -0.0843889297516656 0.800164758999815 0.0949770117395186
v -0.0858191149879994 0.803041986989671 0.0949770117395186
v -0.0838236736495423 0.798579707785035 0.0949770117395186
v -0.0816972633955483 0.800717658783824 0.0949770117395186
v -0.0858722498137131 0.786449948838933 0.104977011739519
v -0.0859404449031808 0.78871021354527 0.104977011739519
v -0.0829308812912878 0.787762367055825 0.104977011739519
v -0.0843544467006826 0.790556969704061 0.104977011739519
v -0.0816737782365141 0.79071021354527 0.104977011739519
v -0.0818857459294982 0.792776282005662 0.104977011739519
v -0.0792358695543766 0.788643061763665 0.104977011739519
v -0.0793680900475972 0.79093955889589 0.104977011739519
v -0.0753578804314782 0.78471021354527 0.097547805942101
v -0.0756397613495536 0.78471021354527 0.100244970167046
v -0.0742084386347912 0.78471021354527 0.102596914472291
v -0.0727598493678086 0.78471021354527 0.0987266978425594
v -0.0725998049958186 0.78471021354527 0.10068853303157
v -0.0708808031666405 0.78471021354527 0.102179603607332
v -0.0884737782365141 0.802364875636926 0.098095716113628
v -0.0884737782365141 0.798663725941964 0.0949770117395186
v -0.0884737782365141 0.802740293759173 0.0949770117395186
v -0.0847046386231876 0.794226858212633 0.0949770117395186
v -0.0821643784699161 0.79677439336372 0.0949770117395186
v -0.0816282427738523 0.79404864244321 0.0949770117395186
v -0.0802731045830032 0.798274196090399 0.0949770117395186
v -0.080122263084999 0.800164758999815 0.0949770117395186
v -0.0802006384955809 0.802244326678496 0.0949770117395186
v -0.0884737782365141 0.78633521354527 0.101764511739519
v -0.0884737782365141 0.78816897475948 0.103578351065954
v -0.085862278057447 0.80471021354527 0.0980949455807034
v -0.0827404449031808 0.80471021354527 0.0988770117395186
v -0.0811358417827834 0.80471021354527 0.102215383706606
v -0.0856495358122717 0.80471021354527 0.0949770117395186
v -0.0835162024789384 0.80471021354527 0.0949770117395186
v -0.0859404449031808 0.78471021354527 0.102177011739519
v -0.0840903494612983 0.78471021354527 0.101464283500925
v -0.0838071115698475 0.78471021354527 0.103277011739519
v -0.0851646873274232 0.78471021354527 0.104977011739519
v -0.0830313539940899 0.78471021354527 0.104977011739519
v -0.0884737782365141 0.78471021354527 0.0995645117395186
v -0.0865224562773897 0.791430922702118 0.104977011739519
v -0.0884737782365141 0.792584339419395 0.104977011739519
v -0.0884737782365141 0.78833521354527 0.104977011739519
v -0.0884737782365141 0.79033521354527 0.104977011739519
v -0.084534376271551 0.80471021354527 0.102317482902831
v -0.0884737782365141 0.80471021354527 0.101970761739519
v -0.0884737782365141 0.80471021354527 0.0995645117395186
v -0.0736576166203525 0.78471021354527 0.104977011739519
v -0.0710071115698474 0.78471021354527 0.104977011739519
v -0.0710071115698474 0.78871021354527 0.104977011739519
v -0.0710071115698474 0.78471021354527 0.0966770117395186
v -0.0699404449031808 0.78471021354527 0.0988770117395186
v -0.0859615628427264 0.788529228955797 0.0949770117395186
v -0.0838071115698475 0.78471021354527 0.0949770117395186
v -0.0839727659038378 0.790820923427572 0.0949770117395186
v -0.0822555964183323 0.790164758999815 0.0949770117395186
v -0.0816737782365141 0.786164758999815 0.0949770117395186
v -0.0823330388964731 0.78471021354527 0.0949770117395186
v -0.0861340881432492 0.790986472587178 0.0949770117395186
v -0.0884737782365141 0.78833521354527 0.0949770117395186
v -0.0884737782365141 0.79033521354527 0.0949770117395186
v -0.0884737782365141 0.79233521354527 0.0949770117395186
v -0.0763334489826042 0.79471021354527 0.0983634717619793
v -0.0742071115698474 0.79471021354527 0.0977770117395186
v -0.0748026465546524 0.79471021354527 0.0995730972084104
v -0.0745246597547015 0.79471021354527 0.102332944158421
v -0.0724564722936223 0.79471021354527 0.100417174320469
v -0.071886439252142 0.79471021354527 0.103117798200387
v -0.0708817552919345 0.79471021354527 0.0981135594079574
v -0.0702456596352824 0.79471021354527 0.10101842617787
v -0.074982869145605 0.79471021354527 0.0949770117395186
v -0.0720737782365141 0.79471021354527 0.0949770117395186
v -0.0684737782365141 0.786463070603871 0.0975752476298264
v -0.0684737782365141 0.787239973574558 0.100133029403681
v -0.0684737782365141 0.78633521354527 0.102177011739519
v -0.0684737782365141 0.789428808376844 0.0975731106658237
v -0.0684737782365141 0.789318589459187 0.102586733777432
v -0.0684737782365141 0.78471021354527 0.0983728450728519
v -0.0684737782365141 0.78471021354527 0.102177011739519
v -0.0684737782365141 0.791389596662153 0.104977011739519
v -0.0684737782365141 0.78871021354527 0.104977011739519
v -0.086687024709247 0.80085223860562 0.104977011739519
v -0.0852167014981671 0.802942493768916 0.104977011739519
v -0.0859404449031808 0.80471021354527 0.104977011739519
v -0.0822555964183323 0.80471021354527 0.104977011739519
v -0.0819107987724127 0.802883222760131 0.104977011739519
v -0.0884737782365141 0.797255668090724 0.104977011739519
v -0.0884737782365141 0.80033521354527 0.104977011739519
v -0.0884737782365141 0.80233521354527 0.104977011739519
v -0.0784737782365141 0.802352739481001 0.09741292197419
v -0.0784737782365141 0.803049309270563 0.0997828995236457
v -0.0784737782365141 0.80471021354527 0.0983270117395186
v -0.0784737782365141 0.80471021354527 0.100527011739519
v -0.0784737782365141 0.79771021354527 0.0949770117395186
v -0.0784737782365141 0.800164758999815 0.0949770117395186
v -0.0784737782365141 0.802164758999815 0.0949770117395186
v -0.0684737782365141 0.79271021354527 0.0981895117395186
v -0.0684737782365141 0.791788142078456 0.10213487726375
v -0.0684737782365141 0.79471021354527 0.0995301367395186
v -0.0765085443422478 0.79471021354527 0.101426690398729
v -0.0734772870084439 0.79471021354527 0.104977011739519
v -0.0784737782365141 0.79471021354527 0.0977770117395186
v -0.0784737782365141 0.79471021354527 0.101077011739519
v -0.0713045312817758 0.786609971947224 0.0949770117395186
v -0.0736576166203525 0.78471021354527 0.0949770117395186
v -0.0710071115698474 0.78471021354527 0.0949770117395186
v -0.0684737782365141 0.78871021354527 0.0949770117395186
v -0.0684737782365141 0.79071021354527 0.0949770117395186
f 1 122 63
f 1 63 142
f 1 72 122
f 1 136 72
f 1 135 136
f 1 142 135
f 2 87 88
f 2 120 87
f 2 88 125
f 2 111 110
f 2 110 122
f 2 125 111
f 2 117 120
f 2 122 117
f 3 54 59
f 3 144 54
f 3 59 102
f 3 102 82
f 3 82 104
f 3 104 144
f 4 124 17
f 4 17 169
f 4 58 124
f 4 169 58
f 5 84 103
f 5 115 84
f 5 103 101
f 5 101 129
f 5 112 115
f 5 129 112
f 6 128 62
f 6 62 171
f 6 166 128
f 6 165 166
f 6 171 165
f 7 42 47
f 7 139 42
f 7 47 50
f 7 50 187
f 7 77 73
f 7 73 140
f 7 79 77
f 7 95 79
f 7 187 95
f 7 140 139
f 8 29 27
f 8 27 93
f 8 130 29
f 8 76 78
f 8 121 76
f 8 78 80
f 8 80 97
f 8 93 89
f 8 89 121
f 8 97 130
f 9 176 33
f 9 33 184
f 9 49 46
f 9 46 106
f 9 51 49
f 9 153 51
f 9 106 105
f 9 105 107
f 9 107 176
f 9 145 153
f 9 184 145
f 10 26 25
f 10 25 28
f 10 39 26
f 10 28 31
f 10 31 183
f 10 34 39
f 10 185 34
f 10 148 182
f 10 183 148
f 10 182 185
f 11 109 116
f 11 178 109
f 11 116 113
f 11 113 174
f 11 174 172
f 11 172 178
f 12 41 38
f 12 38 175
f 12 168 41
f 12 114 167
f 12 175 114
f 12 167 168
f 13 134 133
f 13 133 188
f 13 160 134
f 13 155 160
f 13 189 155
f 13 188 186
f 13 186 189
f 14 131 100
f 14 100 161
f 14 132 131
f 14 163 132
f 14 161 157
f 14 157 163
f 15 53 154
f 15 190 53
f 15 154 151
f 15 151 181
f 15 181 179
f 15 179 190
f 16 32 162
f 16 183 32
f 16 152 150
f 16 150 183
f 16 181 152
f 16 162 180
f 16 180 181
f 17 19 18
f 17 18 169
f 17 90 19
f 17 123 90
f 17 124 123
f 18 19 20
f 18 20 21
f 18 21 164
f 18 164 170
f 18 170 169
f 19 23 20
f 19 22 23
f 19 92 22
f 19 90 92
f 20 24 21
f 20 23 24
f 21 24 168
f 21 165 164
f 21 168 165
f 22 26 23
f 22 25 26
f 22 92 25
f 23 41 24
f 23 26 40
f 23 40 41
f 24 41 168
f 25 94 28
f 25 92 91
f 25 91 94
f 26 39 40
f 27 30 28
f 27 28 93
f 27 29 30
f 28 30 31
f 28 94 93
f 29 132 30
f 29 130 132
f 30 132 31
f 31 132 32
f 31 32 183
f 32 132 162
f 33 176 35
f 33 35 184
f 34 35 36
f 34 185 35
f 34 36 40
f 34 40 39
f 35 37 36
f 35 172 37
f 35 178 172
f 35 176 177
f 35 177 178
f 35 185 184
f 36 37 38
f 36 38 41
f 36 41 40
f 37 173 38
f 37 172 173
f 38 173 175
f 42 43 44
f 42 139 43
f 42 44 47
f 43 45 44
f 43 138 45
f 43 139 138
f 44 45 48
f 44 48 47
f 45 46 49
f 45 138 46
f 45 51 48
f 45 49 51
f 46 138 106
f 47 48 50
f 48 52 50
f 48 51 52
f 50 52 186
f 50 186 187
f 51 53 52
f 51 154 53
f 51 153 154
f 52 53 189
f 52 189 186
f 53 190 189
f 54 55 60
f 54 68 55
f 54 60 59
f 54 144 68
f 55 57 56
f 55 56 60
f 55 69 57
f 55 68 69
f 56 57 58
f 56 58 61
f 56 61 60
f 57 124 58
f 57 69 71
f 57 71 124
f 58 170 61
f 58 169 170
f 59 60 101
f 59 101 103
f 59 103 102
f 60 61 62
f 60 62 101
f 61 170 62
f 62 129 101
f 62 128 129
f 62 170 171
f 63 66 64
f 63 64 142
f 63 122 66
f 64 67 65
f 64 65 142
f 64 66 67
f 65 67 69
f 65 69 68
f 65 68 143
f 65 143 142
f 66 70 67
f 66 111 70
f 66 110 111
f 66 122 110
f 67 71 69
f 67 70 71
f 68 144 143
f 70 124 71
f 70 111 126
f 70 126 124
f 72 73 74
f 72 136 73
f 72 74 117
f 72 117 122
f 73 75 74
f 73 78 75
f 73 77 78
f 73 136 140
f 74 75 118
f 74 118 117
f 75 78 76
f 75 76 118
f 76 119 118
f 76 121 119
f 77 79 78
f 78 79 96
f 78 96 80
f 79 95 96
f 80 96 97
f 81 85 82
f 81 82 102
f 81 84 83
f 81 83 85
f 81 103 84
f 81 102 103
f 82 85 105
f 82 105 104
f 83 84 116
f 83 86 85
f 83 116 86
f 84 115 116
f 85 86 107
f 85 107 105
f 86 108 107
f 86 109 108
f 86 116 109
f 87 89 88
f 87 120 89
f 88 89 90
f 88 90 123
f 88 123 126
f 88 126 125
f 89 91 90
f 89 94 91
f 89 93 94
f 89 120 121
f 90 91 92
f 95 98 96
f 95 187 98
f 96 99 97
f 96 98 99
f 97 99 100
f 97 100 131
f 97 131 130
f 98 134 99
f 98 133 134
f 98 187 133
f 99 134 100
f 100 134 161
f 104 105 106
f 104 106 137
f 104 137 141
f 104 141 144
f 106 138 137
f 107 108 177
f 107 177 176
f 108 109 178
f 108 178 177
f 111 125 126
f 112 113 116
f 112 127 113
f 112 116 115
f 112 128 127
f 112 129 128
f 113 127 114
f 113 114 175
f 113 175 174
f 114 127 167
f 117 118 119
f 117 119 120
f 119 121 120
f 123 124 126
f 127 128 166
f 127 166 167
f 130 131 132
f 132 163 162
f 133 187 188
f 134 160 161
f 135 138 136
f 135 137 138
f 135 141 137
f 135 142 141
f 136 138 139
f 136 139 140
f 141 142 143
f 141 143 144
f 145 147 146
f 145 146 153
f 145 182 147
f 145 185 182
f 145 184 185
f 146 147 149
f 146 149 151
f 146 151 154
f 146 154 153
f 147 148 149
f 147 182 148
f 148 150 149
f 148 183 150
f 149 150 152
f 149 152 151
f 151 152 181
f 155 158 156
f 155 156 160
f 155 189 158
f 156 159 157
f 156 157 161
f 156 158 180
f 156 180 159
f 156 161 160
f 157 159 163
f 158 179 180
f 158 190 179
f 158 189 190
f 159 162 163
f 159 180 162
f 164 165 171
f 164 171 170
f 165 167 166
f 165 168 167
f 172 174 173
f 173 174 175
f 179 181 180
f 186 188 187
