solid artifacts/general-tissue-mesher-2026-10-07/exact-control-volume.mesh__tracked_surface.stl
facet normal 0 0 0
outer loop
vertex -8.167378e-02 7.861648e-01 9.497701e-02
vertex -8.380711e-02 7.847102e-01 9.497701e-02
vertex -8.225559e-02 7.901648e-01 9.497701e-02
endloop
endfacet
facet normal 0 0 0
outer loop
vertex -8.847378e-02 7.883352e-01 9.497701e-02
vertex -8.847378e-02 7.867102e-01 9.777701e-02
vertex -8.847378e-02 7.887361e-01 9.771261e-02
endloop
endfacet
facet normal 0 0 0
outer loop
vertex -8.152801e-02 8.007461e-01 1.049770e-01
vertex -8.358344e-02 7.986924e-01 1.049770e-01
vertex -8.132209e-02 7.982827e-01 1.049770e-01
endloop
endfacet
facet normal 0 0 0
outer loop
vertex -7.847378e-02 8.030493e-01 9.978290e-02
vertex -7.847378e-02 8.027102e-01 1.021770e-01
vertex -7.847378e-02 8.006122e-01 9.993004e-02
endloop
endfacet
facet normal 0 0 0
outer loop
vertex -7.847378e-02 8.023527e-01 9.741292e-02
vertex -7.847378e-02 8.021647e-01 9.497701e-02
vertex -7.847378e-02 8.047102e-01 9.497701e-02
endloop
endfacet
facet normal 0 0 0
outer loop
vertex -6.847378e-02 7.894288e-01 9.757311e-02
vertex -6.847378e-02 7.917882e-01 1.021349e-01
vertex -6.847378e-02 7.872400e-01 1.001330e-01
endloop
endfacet
facet normal 0 0 0
outer loop
vertex -6.847378e-02 7.927102e-01 9.818951e-02
vertex -6.847378e-02 7.907102e-01 9.497701e-02
vertex -6.847378e-02 7.947102e-01 9.497701e-02
endloop
endfacet
facet normal 0 0 0
outer loop
vertex -6.847378e-02 7.927102e-01 9.818951e-02
vertex -6.847378e-02 7.894288e-01 9.757311e-02
vertex -6.847378e-02 7.907102e-01 9.497701e-02
endloop
endfacet
facet normal 0 0 0
outer loop
vertex -7.188644e-02 7.947102e-01 1.031178e-01
vertex -7.452466e-02 7.947102e-01 1.023329e-01
vertex -7.347729e-02 7.947102e-01 1.049770e-01
endloop
endfacet
facet normal 0 0 0
outer loop
vertex -7.024566e-02 7.947102e-01 1.010184e-01
vertex -7.088175e-02 7.947102e-01 9.811356e-02
vertex -7.245647e-02 7.947102e-01 1.004172e-01
endloop
endfacet
facet normal 0 0 0
outer loop
vertex -8.470464e-02 7.942269e-01 9.497701e-02
vertex -8.613409e-02 7.909865e-01 9.497701e-02
vertex -8.847378e-02 7.923352e-01 9.497701e-02
endloop
endfacet
facet normal 0 0 0
outer loop
vertex -6.847378e-02 7.947102e-01 9.497701e-02
vertex -7.085638e-02 7.911866e-01 9.497701e-02
vertex -7.207378e-02 7.947102e-01 9.497701e-02
endloop
endfacet
facet normal 0 0 0
outer loop
vertex -7.794266e-02 7.902032e-01 9.497701e-02
vertex -7.585560e-02 7.881647e-01 9.497701e-02
vertex -7.798893e-02 7.881647e-01 9.497701e-02
endloop
endfacet
facet normal 0 0 0
outer loop
vertex -6.847378e-02 7.947102e-01 9.953014e-02
vertex -6.847378e-02 7.927102e-01 9.818951e-02
vertex -6.847378e-02 7.947102e-01 9.497701e-02
endloop
endfacet
facet normal 0 0 0
outer loop
vertex -7.847378e-02 7.847102e-01 9.497701e-02
vertex -7.786842e-02 7.863799e-01 9.497701e-02
vertex -7.520407e-02 7.862461e-01 9.497701e-02
endloop
endfacet
facet normal 0 0 0
outer loop
vertex -8.847378e-02 7.863352e-01 1.017645e-01
vertex -8.847378e-02 7.881690e-01 1.035784e-01
vertex -8.847378e-02 7.881367e-01 1.000132e-01
endloop
endfacet
facet normal 0 0 0
outer loop
vertex -7.847378e-02 7.847102e-01 1.049770e-01
vertex -7.740711e-02 7.847102e-01 1.021770e-01
vertex -7.420844e-02 7.847102e-01 1.025969e-01
endloop
endfacet
facet normal 0 0 0
outer loop
vertex -8.188575e-02 7.927763e-01 1.049770e-01
vertex -7.954045e-02 7.932557e-01 1.049770e-01
vertex -8.141481e-02 7.949279e-01 1.049770e-01
endloop
endfacet
facet normal 0 0 0
outer loop
vertex -8.435445e-02 7.905570e-01 1.049770e-01
vertex -8.167378e-02 7.907102e-01 1.049770e-01
vertex -8.188575e-02 7.927763e-01 1.049770e-01
endloop
endfacet
facet normal 0 0 0
outer loop
vertex -8.594044e-02 7.847102e-01 1.021770e-01
vertex -8.380711e-02 7.847102e-01 1.032770e-01
vertex -8.516469e-02 7.847102e-01 1.049770e-01
endloop
endfacet
facet normal 0 0 0
outer loop
vertex -7.923587e-02 7.886431e-01 1.049770e-01
vertex -7.936809e-02 7.909396e-01 1.049770e-01
vertex -8.293088e-02 7.877623e-01 1.049770e-01
endloop
endfacet
facet normal 0 0 0
outer loop
vertex -8.293088e-02 7.877623e-01 1.049770e-01
vertex -7.936809e-02 7.909396e-01 1.049770e-01
vertex -8.167378e-02 7.907102e-01 1.049770e-01
endloop
endfacet
facet normal 0 0 0
outer loop
vertex -8.167378e-02 7.907102e-01 1.049770e-01
vertex -7.936809e-02 7.909396e-01 1.049770e-01
vertex -7.954045e-02 7.932557e-01 1.049770e-01
endloop
endfacet
facet normal 0 0 0
outer loop
vertex -8.293088e-02 7.877623e-01 1.049770e-01
vertex -8.516469e-02 7.847102e-01 1.049770e-01
vertex -8.303136e-02 7.847102e-01 1.049770e-01
endloop
endfacet
facet normal 0 0 0
outer loop
vertex -8.624230e-02 7.939485e-01 1.049770e-01
vertex -8.435445e-02 7.905570e-01 1.049770e-01
vertex -8.354785e-02 7.949098e-01 1.049770e-01
endloop
endfacet
facet normal 0 0 0
outer loop
vertex -8.847378e-02 7.883352e-01 9.497701e-02
vertex -8.847378e-02 7.904327e-01 9.750675e-02
vertex -8.847378e-02 7.903352e-01 9.497701e-02
endloop
endfacet
facet normal 0 0 0
outer loop
vertex -8.847378e-02 7.881690e-01 1.035784e-01
vertex -8.847378e-02 7.863352e-01 1.017645e-01
vertex -8.847378e-02 7.847102e-01 1.049770e-01
endloop
endfacet
facet normal 0 0 0
outer loop
vertex -8.516469e-02 7.847102e-01 1.049770e-01
vertex -8.380711e-02 7.847102e-01 1.032770e-01
vertex -8.303136e-02 7.847102e-01 1.049770e-01
endloop
endfacet
facet normal 0 0 0
outer loop
vertex -8.225559e-02 7.901648e-01 9.497701e-02
vertex -8.380711e-02 7.847102e-01 9.497701e-02
vertex -8.596157e-02 7.885292e-01 9.497701e-02
endloop
endfacet
facet normal 0 0 0
outer loop
vertex -7.717790e-02 7.922134e-01 9.497701e-02
vertex -7.954045e-02 7.921647e-01 9.497701e-02
vertex -7.847378e-02 7.947102e-01 9.497701e-02
endloop
endfacet
facet normal 0 0 0
outer loop
vertex -8.847378e-02 7.904327e-01 9.750675e-02
vertex -8.847378e-02 7.887361e-01 9.771261e-02
vertex -8.847378e-02 7.903352e-01 9.997701e-02
endloop
endfacet
facet normal 0 0 0
outer loop
vertex -7.983355e-02 7.847102e-01 9.735629e-02
vertex -7.980389e-02 7.847102e-01 9.987018e-02
vertex -8.274045e-02 7.847102e-01 9.667701e-02
endloop
endfacet
facet normal 0 0 0
outer loop
vertex -7.495928e-02 7.919263e-01 9.497701e-02
vertex -7.085638e-02 7.911866e-01 9.497701e-02
vertex -7.314044e-02 7.887102e-01 9.497701e-02
endloop
endfacet
facet normal 0 0 0
outer loop
vertex -8.238053e-02 7.847102e-01 1.004714e-01
vertex -8.416162e-02 7.847102e-01 9.957433e-02
vertex -8.274045e-02 7.847102e-01 9.667701e-02
endloop
endfacet
facet normal 0 0 0
outer loop
vertex -8.847378e-02 7.903352e-01 9.497701e-02
vertex -8.847378e-02 7.925868e-01 9.751531e-02
vertex -8.847378e-02 7.923352e-01 9.497701e-02
endloop
endfacet
facet normal 0 0 0
outer loop
vertex -8.847378e-02 7.881690e-01 1.035784e-01
vertex -8.847378e-02 7.903557e-01 1.025315e-01
vertex -8.847378e-02 7.881367e-01 1.000132e-01
endloop
endfacet
facet normal 0 0 0
outer loop
vertex -8.438893e-02 8.001648e-01 9.497701e-02
vertex -8.581912e-02 8.030420e-01 9.497701e-02
vertex -8.351620e-02 8.047102e-01 9.497701e-02
endloop
endfacet
facet normal 0 0 0
outer loop
vertex -8.847378e-02 7.983352e-01 9.777701e-02
vertex -8.847378e-02 7.949969e-01 9.762852e-02
vertex -8.847378e-02 7.987279e-01 9.990482e-02
endloop
endfacet
facet normal 0 0 0
outer loop
vertex -8.027311e-02 7.982742e-01 9.497701e-02
vertex -7.847378e-02 7.947102e-01 9.497701e-02
vertex -8.216438e-02 7.967744e-01 9.497701e-02
endloop
endfacet
facet normal 0 0 0
outer loop
vertex -8.351620e-02 8.047102e-01 9.497701e-02
vertex -8.169726e-02 8.007177e-01 9.497701e-02
vertex -8.438893e-02 8.001648e-01 9.497701e-02
endloop
endfacet
facet normal 0 0 0
outer loop
vertex -8.586012e-02 7.971018e-01 9.497701e-02
vertex -8.620665e-02 8.003838e-01 9.497701e-02
vertex -8.382367e-02 7.985797e-01 9.497701e-02
endloop
endfacet
facet normal 0 0 0
outer loop
vertex -8.847378e-02 7.923352e-01 9.497701e-02
vertex -8.847378e-02 7.951445e-01 9.497701e-02
vertex -8.470464e-02 7.942269e-01 9.497701e-02
endloop
endfacet
facet normal 0 0 0
outer loop
vertex -8.847378e-02 7.987279e-01 9.990482e-02
vertex -8.847378e-02 8.023352e-01 1.017645e-01
vertex -8.847378e-02 8.023649e-01 9.809572e-02
endloop
endfacet
facet normal 0 0 0
outer loop
vertex -8.847378e-02 7.987279e-01 9.990482e-02
vertex -8.847378e-02 7.963352e-01 1.017645e-01
vertex -8.847378e-02 7.987021e-01 1.022252e-01
endloop
endfacet
facet normal 0 0 0
outer loop
vertex -8.624230e-02 7.939485e-01 1.049770e-01
vertex -8.652246e-02 7.914310e-01 1.049770e-01
vertex -8.435445e-02 7.905570e-01 1.049770e-01
endloop
endfacet
facet normal 0 0 0
outer loop
vertex -8.847378e-02 7.987021e-01 1.022252e-01
vertex -8.847378e-02 8.023352e-01 1.017645e-01
vertex -8.847378e-02 7.987279e-01 9.990482e-02
endloop
endfacet
facet normal 0 0 0
outer loop
vertex -8.847378e-02 7.987021e-01 1.022252e-01
vertex -8.847378e-02 7.963352e-01 1.017645e-01
vertex -8.847378e-02 7.962769e-01 1.035953e-01
endloop
endfacet
facet normal 0 0 0
outer loop
vertex -8.847378e-02 8.047102e-01 9.497701e-02
vertex -8.847378e-02 8.047102e-01 9.956452e-02
vertex -8.586228e-02 8.047102e-01 9.809495e-02
endloop
endfacet
facet normal 0 0 0
outer loop
vertex -8.847378e-02 7.963352e-01 1.017645e-01
vertex -8.847378e-02 7.944446e-01 1.024686e-01
vertex -8.847378e-02 7.962769e-01 1.035953e-01
endloop
endfacet
facet normal 0 0 0
outer loop
vertex -7.847378e-02 7.968613e-01 1.025645e-01
vertex -7.847378e-02 7.997102e-01 1.021770e-01
vertex -7.847378e-02 7.987102e-01 1.049770e-01
endloop
endfacet
facet normal 0 0 0
outer loop
vertex -8.419497e-02 8.008885e-01 1.049770e-01
vertex -8.358344e-02 7.986924e-01 1.049770e-01
vertex -8.152801e-02 8.007461e-01 1.049770e-01
endloop
endfacet
facet normal 0 0 0
outer loop
vertex -7.847378e-02 8.030493e-01 9.978290e-02
vertex -7.847378e-02 8.006122e-01 9.993004e-02
vertex -7.847378e-02 8.023527e-01 9.741292e-02
endloop
endfacet
facet normal 0 0 0
outer loop
vertex -8.847378e-02 7.949969e-01 9.762852e-02
vertex -8.847378e-02 7.983352e-01 9.777701e-02
vertex -8.847378e-02 7.951445e-01 9.497701e-02
endloop
endfacet
facet normal 0 0 0
outer loop
vertex -7.847378e-02 8.047102e-01 1.049770e-01
vertex -8.113584e-02 8.047102e-01 1.022154e-01
vertex -8.225559e-02 8.047102e-01 1.049770e-01
endloop
endfacet
facet normal 0 0 0
outer loop
vertex -8.847378e-02 8.047102e-01 1.019708e-01
vertex -8.453438e-02 8.047102e-01 1.023175e-01
vertex -8.586228e-02 8.047102e-01 9.809495e-02
endloop
endfacet
facet normal 0 0 0
outer loop
vertex -8.419497e-02 8.008885e-01 1.049770e-01
vertex -8.567101e-02 7.981501e-01 1.049770e-01
vertex -8.358344e-02 7.986924e-01 1.049770e-01
endloop
endfacet
facet normal 0 0 0
outer loop
vertex -8.358344e-02 7.986924e-01 1.049770e-01
vertex -8.354785e-02 7.949098e-01 1.049770e-01
vertex -8.132209e-02 7.982827e-01 1.049770e-01
endloop
endfacet
facet normal 0 0 0
outer loop
vertex -8.191080e-02 8.028832e-01 1.049770e-01
vertex -8.152801e-02 8.007461e-01 1.049770e-01
vertex -7.847378e-02 8.007102e-01 1.049770e-01
endloop
endfacet
facet normal 0 0 0
outer loop
vertex -8.132209e-02 7.982827e-01 1.049770e-01
vertex -8.354785e-02 7.949098e-01 1.049770e-01
vertex -8.141481e-02 7.949279e-01 1.049770e-01
endloop
endfacet
facet normal 0 0 0
outer loop
vertex -7.847378e-02 7.947102e-01 1.049770e-01
vertex -7.452466e-02 7.947102e-01 1.023329e-01
vertex -7.650854e-02 7.947102e-01 1.014267e-01
endloop
endfacet
facet normal 0 0 0
outer loop
vertex -8.152801e-02 8.007461e-01 1.049770e-01
vertex -8.132209e-02 7.982827e-01 1.049770e-01
vertex -7.847378e-02 8.007102e-01 1.049770e-01
endloop
endfacet
facet normal 0 0 0
outer loop
vertex -7.847378e-02 7.967102e-01 1.049770e-01
vertex -7.847378e-02 7.987102e-01 1.049770e-01
vertex -8.001781e-02 7.964303e-01 1.049770e-01
endloop
endfacet
facet normal 0 0 0
outer loop
vertex -8.141481e-02 7.949279e-01 1.049770e-01
vertex -7.954045e-02 7.932557e-01 1.049770e-01
vertex -8.001781e-02 7.964303e-01 1.049770e-01
endloop
endfacet
facet normal 0 0 0
outer loop
vertex -8.001781e-02 7.964303e-01 1.049770e-01
vertex -7.954045e-02 7.932557e-01 1.049770e-01
vertex -7.847378e-02 7.947102e-01 1.049770e-01
endloop
endfacet
facet normal 0 0 0
outer loop
vertex -8.001781e-02 7.964303e-01 1.049770e-01
vertex -7.847378e-02 7.947102e-01 1.049770e-01
vertex -7.847378e-02 7.967102e-01 1.049770e-01
endloop
endfacet
facet normal 0 0 0
outer loop
vertex -8.132209e-02 7.982827e-01 1.049770e-01
vertex -8.001781e-02 7.964303e-01 1.049770e-01
vertex -7.847378e-02 7.987102e-01 1.049770e-01
endloop
endfacet
facet normal 0 0 0
outer loop
vertex -7.847378e-02 7.987102e-01 1.049770e-01
vertex -7.847378e-02 8.007102e-01 1.049770e-01
vertex -8.132209e-02 7.982827e-01 1.049770e-01
endloop
endfacet
facet normal 0 0 0
outer loop
vertex -8.132209e-02 7.982827e-01 1.049770e-01
vertex -8.141481e-02 7.949279e-01 1.049770e-01
vertex -8.001781e-02 7.964303e-01 1.049770e-01
endloop
endfacet
facet normal 0 0 0
outer loop
vertex -8.624230e-02 7.939485e-01 1.049770e-01
vertex -8.354785e-02 7.949098e-01 1.049770e-01
vertex -8.567101e-02 7.981501e-01 1.049770e-01
endloop
endfacet
facet normal 0 0 0
outer loop
vertex -8.652246e-02 7.914310e-01 1.049770e-01
vertex -8.624230e-02 7.939485e-01 1.049770e-01
vertex -8.847378e-02 7.925844e-01 1.049770e-01
endloop
endfacet
facet normal 0 0 0
outer loop
vertex -8.624230e-02 7.939485e-01 1.049770e-01
vertex -8.847378e-02 7.972557e-01 1.049770e-01
vertex -8.847378e-02 7.947102e-01 1.049770e-01
endloop
endfacet
facet normal 0 0 0
outer loop
vertex -8.191080e-02 8.028832e-01 1.049770e-01
vertex -7.847378e-02 8.047102e-01 1.049770e-01
vertex -8.225559e-02 8.047102e-01 1.049770e-01
endloop
endfacet
facet normal 0 0 0
outer loop
vertex -7.376815e-02 7.929314e-01 1.049770e-01
vertex -7.100711e-02 7.887102e-01 1.049770e-01
vertex -7.100711e-02 7.932557e-01 1.049770e-01
endloop
endfacet
facet normal 0 0 0
outer loop
vertex -7.704031e-02 7.881575e-01 1.049770e-01
vertex -7.466055e-02 7.870551e-01 1.049770e-01
vertex -7.527377e-02 7.907102e-01 1.049770e-01
endloop
endfacet
facet normal 0 0 0
outer loop
vertex -7.704725e-02 7.920776e-01 1.049770e-01
vertex -7.527377e-02 7.907102e-01 1.049770e-01
vertex -7.376815e-02 7.929314e-01 1.049770e-01
endloop
endfacet
facet normal 0 0 0
outer loop
vertex -7.188644e-02 7.947102e-01 1.031178e-01
vertex -6.847378e-02 7.947102e-01 1.049770e-01
vertex -7.024566e-02 7.947102e-01 1.010184e-01
endloop
endfacet
facet normal 0 0 0
outer loop
vertex -7.847378e-02 7.947102e-01 1.010770e-01
vertex -7.650854e-02 7.947102e-01 1.014267e-01
vertex -7.633345e-02 7.947102e-01 9.836347e-02
endloop
endfacet
facet normal 0 0 0
outer loop
vertex -7.704031e-02 7.881575e-01 1.049770e-01
vertex -7.527377e-02 7.907102e-01 1.049770e-01
vertex -7.704725e-02 7.920776e-01 1.049770e-01
endloop
endfacet
facet normal 0 0 0
outer loop
vertex -7.100711e-02 7.887102e-01 1.049770e-01
vertex -7.527377e-02 7.907102e-01 1.049770e-01
vertex -7.466055e-02 7.870551e-01 1.049770e-01
endloop
endfacet
facet normal 0 0 0
outer loop
vertex -7.704725e-02 7.920776e-01 1.049770e-01
vertex -7.847378e-02 7.947102e-01 1.049770e-01
vertex -7.954045e-02 7.932557e-01 1.049770e-01
endloop
endfacet
facet normal 0 0 0
outer loop
vertex -7.704725e-02 7.920776e-01 1.049770e-01
vertex -7.376815e-02 7.929314e-01 1.049770e-01
vertex -7.847378e-02 7.947102e-01 1.049770e-01
endloop
endfacet
facet normal 0 0 0
outer loop
vertex -7.245647e-02 7.947102e-01 1.004172e-01
vertex -7.188644e-02 7.947102e-01 1.031178e-01
vertex -7.024566e-02 7.947102e-01 1.010184e-01
endloop
endfacet
facet normal 0 0 0
outer loop
vertex -7.923587e-02 7.886431e-01 1.049770e-01
vertex -7.704031e-02 7.881575e-01 1.049770e-01
vertex -7.704725e-02 7.920776e-01 1.049770e-01
endloop
endfacet
facet normal 0 0 0
outer loop
vertex -7.466055e-02 7.870551e-01 1.049770e-01
vertex -7.365762e-02 7.847102e-01 1.049770e-01
vertex -7.100711e-02 7.887102e-01 1.049770e-01
endloop
endfacet
facet normal 0 0 0
outer loop
vertex -7.100711e-02 7.887102e-01 1.049770e-01
vertex -6.847378e-02 7.847102e-01 1.049770e-01
vertex -6.847378e-02 7.887102e-01 1.049770e-01
endloop
endfacet
facet normal 0 0 0
outer loop
vertex -7.847378e-02 7.847102e-01 1.049770e-01
vertex -7.466055e-02 7.870551e-01 1.049770e-01
vertex -7.704031e-02 7.881575e-01 1.049770e-01
endloop
endfacet
facet normal 0 0 0
outer loop
vertex -7.923587e-02 7.886431e-01 1.049770e-01
vertex -7.847378e-02 7.847102e-01 1.049770e-01
vertex -7.704031e-02 7.881575e-01 1.049770e-01
endloop
endfacet
facet normal 0 0 0
outer loop
vertex -7.847378e-02 7.947102e-01 1.010770e-01
vertex -7.847378e-02 7.947102e-01 9.777701e-02
vertex -7.847378e-02 7.987102e-01 9.777701e-02
endloop
endfacet
facet normal 0 0 0
outer loop
vertex -7.847378e-02 7.987102e-01 9.777701e-02
vertex -7.847378e-02 8.021647e-01 9.497701e-02
vertex -7.847378e-02 8.023527e-01 9.741292e-02
endloop
endfacet
facet normal 0 0 0
outer loop
vertex -7.847378e-02 7.997102e-01 1.021770e-01
vertex -7.847378e-02 7.987102e-01 9.777701e-02
vertex -7.847378e-02 8.006122e-01 9.993004e-02
endloop
endfacet
facet normal 0 0 0
outer loop
vertex -7.847378e-02 7.947102e-01 1.010770e-01
vertex -7.847378e-02 7.987102e-01 9.777701e-02
vertex -7.847378e-02 7.968613e-01 1.025645e-01
endloop
endfacet
facet normal 0 0 0
outer loop
vertex -7.847378e-02 7.987102e-01 9.777701e-02
vertex -7.847378e-02 7.997102e-01 1.021770e-01
vertex -7.847378e-02 7.968613e-01 1.025645e-01
endloop
endfacet
facet normal 0 0 0
outer loop
vertex -7.847378e-02 7.987102e-01 9.777701e-02
vertex -7.847378e-02 7.947102e-01 9.777701e-02
vertex -7.847378e-02 7.967102e-01 9.667701e-02
endloop
endfacet
facet normal 0 0 0
outer loop
vertex -8.012226e-02 8.001648e-01 9.497701e-02
vertex -7.847378e-02 8.001648e-01 9.497701e-02
vertex -8.027311e-02 7.982742e-01 9.497701e-02
endloop
endfacet
facet normal 0 0 0
outer loop
vertex -7.847378e-02 8.007102e-01 1.049770e-01
vertex -7.847378e-02 7.987102e-01 1.049770e-01
vertex -7.847378e-02 7.997102e-01 1.021770e-01
endloop
endfacet
facet normal 0 0 0
outer loop
vertex -7.847378e-02 7.947102e-01 1.049770e-01
vertex -7.847378e-02 7.968613e-01 1.025645e-01
vertex -7.847378e-02 7.967102e-01 1.049770e-01
endloop
endfacet
facet normal 0 0 0
outer loop
vertex -7.847378e-02 7.968613e-01 1.025645e-01
vertex -7.847378e-02 7.987102e-01 1.049770e-01
vertex -7.847378e-02 7.967102e-01 1.049770e-01
endloop
endfacet
facet normal 0 0 0
outer loop
vertex -8.191080e-02 8.028832e-01 1.049770e-01
vertex -7.847378e-02 8.007102e-01 1.049770e-01
vertex -7.847378e-02 8.047102e-01 1.049770e-01
endloop
endfacet
facet normal 0 0 0
outer loop
vertex -7.314044e-02 7.887102e-01 9.497701e-02
vertex -7.585560e-02 7.881647e-01 9.497701e-02
vertex -7.495928e-02 7.919263e-01 9.497701e-02
endloop
endfacet
facet normal 0 0 0
outer loop
vertex -7.717790e-02 7.922134e-01 9.497701e-02
vertex -7.495928e-02 7.919263e-01 9.497701e-02
vertex -7.794266e-02 7.902032e-01 9.497701e-02
endloop
endfacet
facet normal 0 0 0
outer loop
vertex -7.786842e-02 7.863799e-01 9.497701e-02
vertex -7.798893e-02 7.881647e-01 9.497701e-02
vertex -7.585560e-02 7.881647e-01 9.497701e-02
endloop
endfacet
facet normal 0 0 0
outer loop
vertex -7.314044e-02 7.887102e-01 9.497701e-02
vertex -7.520407e-02 7.862461e-01 9.497701e-02
vertex -7.585560e-02 7.881647e-01 9.497701e-02
endloop
endfacet
facet normal 0 0 0
outer loop
vertex -7.495928e-02 7.919263e-01 9.497701e-02
vertex -7.585560e-02 7.881647e-01 9.497701e-02
vertex -7.794266e-02 7.902032e-01 9.497701e-02
endloop
endfacet
facet normal 0 0 0
outer loop
vertex -7.847378e-02 7.947102e-01 9.497701e-02
vertex -7.495928e-02 7.919263e-01 9.497701e-02
vertex -7.717790e-02 7.922134e-01 9.497701e-02
endloop
endfacet
facet normal 0 0 0
outer loop
vertex -8.225559e-02 7.901648e-01 9.497701e-02
vertex -7.794266e-02 7.902032e-01 9.497701e-02
vertex -7.954045e-02 7.881647e-01 9.497701e-02
endloop
endfacet
facet normal 0 0 0
outer loop
vertex -7.954045e-02 7.921647e-01 9.497701e-02
vertex -7.794266e-02 7.902032e-01 9.497701e-02
vertex -8.225559e-02 7.901648e-01 9.497701e-02
endloop
endfacet
facet normal 0 0 0
outer loop
vertex -7.847378e-02 7.847102e-01 9.497701e-02
vertex -7.954045e-02 7.867102e-01 9.497701e-02
vertex -7.786842e-02 7.863799e-01 9.497701e-02
endloop
endfacet
facet normal 0 0 0
outer loop
vertex -8.668703e-02 8.008522e-01 1.049770e-01
vertex -8.419497e-02 8.008885e-01 1.049770e-01
vertex -8.521670e-02 8.029425e-01 1.049770e-01
endloop
endfacet
facet normal 0 0 0
outer loop
vertex -8.847378e-02 7.987279e-01 9.990482e-02
vertex -8.847378e-02 7.949969e-01 9.762852e-02
vertex -8.847378e-02 7.947102e-01 9.997701e-02
endloop
endfacet
facet normal 0 0 0
outer loop
vertex -8.847378e-02 7.944446e-01 1.024686e-01
vertex -8.847378e-02 7.963352e-01 1.017645e-01
vertex -8.847378e-02 7.947102e-01 9.997701e-02
endloop
endfacet
facet normal 0 0 0
outer loop
vertex -8.847378e-02 7.963352e-01 1.017645e-01
vertex -8.847378e-02 7.987279e-01 9.990482e-02
vertex -8.847378e-02 7.947102e-01 9.997701e-02
endloop
endfacet
facet normal 0 0 0
outer loop
vertex -8.847378e-02 7.962769e-01 1.035953e-01
vertex -8.847378e-02 7.925844e-01 1.049770e-01
vertex -8.847378e-02 7.947102e-01 1.049770e-01
endloop
endfacet
facet normal 0 0 0
outer loop
vertex -8.847378e-02 8.047102e-01 1.019708e-01
vertex -8.594044e-02 8.047102e-01 1.049770e-01
vertex -8.453438e-02 8.047102e-01 1.023175e-01
endloop
endfacet
facet normal 0 0 0
outer loop
vertex -8.847378e-02 8.003352e-01 1.049770e-01
vertex -8.847378e-02 8.023352e-01 1.017645e-01
vertex -8.847378e-02 7.987021e-01 1.022252e-01
endloop
endfacet
facet normal 0 0 0
outer loop
vertex -8.847378e-02 7.987021e-01 1.022252e-01
vertex -8.847378e-02 7.962769e-01 1.035953e-01
vertex -8.847378e-02 8.003352e-01 1.049770e-01
endloop
endfacet
facet normal 0 0 0
outer loop
vertex -8.847378e-02 7.972557e-01 1.049770e-01
vertex -8.624230e-02 7.939485e-01 1.049770e-01
vertex -8.567101e-02 7.981501e-01 1.049770e-01
endloop
endfacet
facet normal 0 0 0
outer loop
vertex -8.847378e-02 8.023649e-01 9.809572e-02
vertex -8.847378e-02 7.983352e-01 9.777701e-02
vertex -8.847378e-02 7.987279e-01 9.990482e-02
endloop
endfacet
facet normal 0 0 0
outer loop
vertex -8.847378e-02 7.927207e-01 1.001290e-01
vertex -8.847378e-02 7.925868e-01 9.751531e-02
vertex -8.847378e-02 7.904327e-01 9.750675e-02
endloop
endfacet
facet normal 0 0 0
outer loop
vertex -8.521670e-02 8.029425e-01 1.049770e-01
vertex -8.225559e-02 8.047102e-01 1.049770e-01
vertex -8.594044e-02 8.047102e-01 1.049770e-01
endloop
endfacet
facet normal 0 0 0
outer loop
vertex -8.847378e-02 7.923693e-01 1.024742e-01
vertex -8.847378e-02 7.927207e-01 1.001290e-01
vertex -8.847378e-02 7.903352e-01 9.997701e-02
endloop
endfacet
facet normal 0 0 0
outer loop
vertex -8.847378e-02 7.903352e-01 9.497701e-02
vertex -8.847378e-02 7.923352e-01 9.497701e-02
vertex -8.613409e-02 7.909865e-01 9.497701e-02
endloop
endfacet
facet normal 0 0 0
outer loop
vertex -8.847378e-02 7.903352e-01 9.997701e-02
vertex -8.847378e-02 7.927207e-01 1.001290e-01
vertex -8.847378e-02 7.904327e-01 9.750675e-02
endloop
endfacet
facet normal 0 0 0
outer loop
vertex -8.847378e-02 7.904327e-01 9.750675e-02
vertex -8.847378e-02 7.925868e-01 9.751531e-02
vertex -8.847378e-02 7.903352e-01 9.497701e-02
endloop
endfacet
facet normal 0 0 0
outer loop
vertex -8.847378e-02 7.883352e-01 9.497701e-02
vertex -8.847378e-02 7.903352e-01 9.497701e-02
vertex -8.613409e-02 7.909865e-01 9.497701e-02
endloop
endfacet
facet normal 0 0 0
outer loop
vertex -8.847378e-02 7.887361e-01 9.771261e-02
vertex -8.847378e-02 7.904327e-01 9.750675e-02
vertex -8.847378e-02 7.883352e-01 9.497701e-02
endloop
endfacet
facet normal 0 0 0
outer loop
vertex -8.847378e-02 7.903557e-01 1.025315e-01
vertex -8.847378e-02 7.881690e-01 1.035784e-01
vertex -8.847378e-02 7.903352e-01 1.049770e-01
endloop
endfacet
facet normal 0 0 0
outer loop
vertex -8.847378e-02 7.962769e-01 1.035953e-01
vertex -8.847378e-02 7.944446e-01 1.024686e-01
vertex -8.847378e-02 7.925844e-01 1.049770e-01
endloop
endfacet
facet normal 0 0 0
outer loop
vertex -8.847378e-02 7.947102e-01 9.997701e-02
vertex -8.847378e-02 7.925868e-01 9.751531e-02
vertex -8.847378e-02 7.927207e-01 1.001290e-01
endloop
endfacet
facet normal 0 0 0
outer loop
vertex -8.847378e-02 7.923693e-01 1.024742e-01
vertex -8.847378e-02 7.925844e-01 1.049770e-01
vertex -8.847378e-02 7.944446e-01 1.024686e-01
endloop
endfacet
facet normal 0 0 0
outer loop
vertex -8.847378e-02 7.923352e-01 9.497701e-02
vertex -8.847378e-02 7.949969e-01 9.762852e-02
vertex -8.847378e-02 7.951445e-01 9.497701e-02
endloop
endfacet
facet normal 0 0 0
outer loop
vertex -8.847378e-02 7.925868e-01 9.751531e-02
vertex -8.847378e-02 7.949969e-01 9.762852e-02
vertex -8.847378e-02 7.923352e-01 9.497701e-02
endloop
endfacet
facet normal 0 0 0
outer loop
vertex -8.847378e-02 7.925868e-01 9.751531e-02
vertex -8.847378e-02 7.947102e-01 9.997701e-02
vertex -8.847378e-02 7.949969e-01 9.762852e-02
endloop
endfacet
facet normal 0 0 0
outer loop
vertex -8.847378e-02 7.944446e-01 1.024686e-01
vertex -8.847378e-02 7.927207e-01 1.001290e-01
vertex -8.847378e-02 7.923693e-01 1.024742e-01
endloop
endfacet
facet normal 0 0 0
outer loop
vertex -8.847378e-02 7.927207e-01 1.001290e-01
vertex -8.847378e-02 7.944446e-01 1.024686e-01
vertex -8.847378e-02 7.947102e-01 9.997701e-02
endloop
endfacet
facet normal 0 0 0
outer loop
vertex -7.563976e-02 7.847102e-01 1.002450e-01
vertex -7.420844e-02 7.847102e-01 1.025969e-01
vertex -7.740711e-02 7.847102e-01 1.021770e-01
endloop
endfacet
facet normal 0 0 0
outer loop
vertex -8.847378e-02 7.847102e-01 1.049770e-01
vertex -8.594044e-02 7.847102e-01 1.021770e-01
vertex -8.516469e-02 7.847102e-01 1.049770e-01
endloop
endfacet
facet normal 0 0 0
outer loop
vertex -8.594044e-02 7.847102e-01 9.777701e-02
vertex -8.274045e-02 7.847102e-01 9.667701e-02
vertex -8.416162e-02 7.847102e-01 9.957433e-02
endloop
endfacet
facet normal 0 0 0
outer loop
vertex -7.847378e-02 7.847102e-01 9.497701e-02
vertex -7.983355e-02 7.847102e-01 9.735629e-02
vertex -8.274045e-02 7.847102e-01 9.667701e-02
endloop
endfacet
facet normal 0 0 0
outer loop
vertex -8.167378e-02 7.847102e-01 1.021770e-01
vertex -8.380711e-02 7.847102e-01 1.032770e-01
vertex -8.409035e-02 7.847102e-01 1.014643e-01
endloop
endfacet
facet normal 0 0 0
outer loop
vertex -8.225559e-02 7.901648e-01 9.497701e-02
vertex -8.162824e-02 7.940487e-01 9.497701e-02
vertex -7.954045e-02 7.921647e-01 9.497701e-02
endloop
endfacet
facet normal 0 0 0
outer loop
vertex -8.274045e-02 7.847102e-01 9.667701e-02
vertex -7.980389e-02 7.847102e-01 9.987018e-02
vertex -8.238053e-02 7.847102e-01 1.004714e-01
endloop
endfacet
facet normal 0 0 0
outer loop
vertex -7.088080e-02 7.847102e-01 1.021796e-01
vertex -6.994045e-02 7.847102e-01 9.887701e-02
vertex -6.847378e-02 7.847102e-01 1.021770e-01
endloop
endfacet
facet normal 0 0 0
outer loop
vertex -7.088080e-02 7.847102e-01 1.021796e-01
vertex -7.420844e-02 7.847102e-01 1.025969e-01
vertex -7.259981e-02 7.847102e-01 1.006885e-01
endloop
endfacet
facet normal 0 0 0
outer loop
vertex -7.847378e-02 7.847102e-01 1.049770e-01
vertex -8.303136e-02 7.847102e-01 1.049770e-01
vertex -8.167378e-02 7.847102e-01 1.021770e-01
endloop
endfacet
facet normal 0 0 0
outer loop
vertex -8.587225e-02 7.864500e-01 1.049770e-01
vertex -8.516469e-02 7.847102e-01 1.049770e-01
vertex -8.293088e-02 7.877623e-01 1.049770e-01
endloop
endfacet
facet normal 0 0 0
outer loop
vertex -8.169726e-02 8.007177e-01 9.497701e-02
vertex -8.382367e-02 7.985797e-01 9.497701e-02
vertex -8.438893e-02 8.001648e-01 9.497701e-02
endloop
endfacet
facet normal 0 0 0
outer loop
vertex -8.438893e-02 8.001648e-01 9.497701e-02
vertex -8.382367e-02 7.985797e-01 9.497701e-02
vertex -8.620665e-02 8.003838e-01 9.497701e-02
endloop
endfacet
facet normal 0 0 0
outer loop
vertex -8.581912e-02 8.030420e-01 9.497701e-02
vertex -8.438893e-02 8.001648e-01 9.497701e-02
vertex -8.620665e-02 8.003838e-01 9.497701e-02
endloop
endfacet
facet normal 0 0 0
outer loop
vertex -7.847378e-02 7.977102e-01 9.497701e-02
vertex -7.847378e-02 8.001648e-01 9.497701e-02
vertex -7.847378e-02 7.987102e-01 9.777701e-02
endloop
endfacet
facet normal 0 0 0
outer loop
vertex -8.020063e-02 8.022443e-01 9.497701e-02
vertex -8.169726e-02 8.007177e-01 9.497701e-02
vertex -8.351620e-02 8.047102e-01 9.497701e-02
endloop
endfacet
facet normal 0 0 0
outer loop
vertex -8.847378e-02 7.983352e-01 9.777701e-02
vertex -8.847378e-02 7.986637e-01 9.497701e-02
vertex -8.847378e-02 7.951445e-01 9.497701e-02
endloop
endfacet
facet normal 0 0 0
outer loop
vertex -8.847378e-02 7.983352e-01 9.777701e-02
vertex -8.847378e-02 8.027403e-01 9.497701e-02
vertex -8.847378e-02 7.986637e-01 9.497701e-02
endloop
endfacet
facet normal 0 0 0
outer loop
vertex -8.594044e-02 7.887102e-01 1.049770e-01
vertex -8.587225e-02 7.864500e-01 1.049770e-01
vertex -8.293088e-02 7.877623e-01 1.049770e-01
endloop
endfacet
facet normal 0 0 0
outer loop
vertex -8.293088e-02 7.877623e-01 1.049770e-01
vertex -8.167378e-02 7.907102e-01 1.049770e-01
vertex -8.435445e-02 7.905570e-01 1.049770e-01
endloop
endfacet
facet normal 0 0 0
outer loop
vertex -7.954045e-02 7.932557e-01 1.049770e-01
vertex -8.188575e-02 7.927763e-01 1.049770e-01
vertex -8.167378e-02 7.907102e-01 1.049770e-01
endloop
endfacet
facet normal 0 0 0
outer loop
vertex -8.847378e-02 7.847102e-01 1.049770e-01
vertex -8.516469e-02 7.847102e-01 1.049770e-01
vertex -8.587225e-02 7.864500e-01 1.049770e-01
endloop
endfacet
facet normal 0 0 0
outer loop
vertex -8.293088e-02 7.877623e-01 1.049770e-01
vertex -7.847378e-02 7.847102e-01 1.049770e-01
vertex -7.923587e-02 7.886431e-01 1.049770e-01
endloop
endfacet
facet normal 0 0 0
outer loop
vertex -8.847378e-02 7.947102e-01 1.049770e-01
vertex -8.847378e-02 7.925844e-01 1.049770e-01
vertex -8.624230e-02 7.939485e-01 1.049770e-01
endloop
endfacet
facet normal 0 0 0
outer loop
vertex -7.954045e-02 7.932557e-01 1.049770e-01
vertex -7.936809e-02 7.909396e-01 1.049770e-01
vertex -7.704725e-02 7.920776e-01 1.049770e-01
endloop
endfacet
facet normal 0 0 0
outer loop
vertex -7.704725e-02 7.920776e-01 1.049770e-01
vertex -7.936809e-02 7.909396e-01 1.049770e-01
vertex -7.923587e-02 7.886431e-01 1.049770e-01
endloop
endfacet
facet normal 0 0 0
outer loop
vertex -8.141481e-02 7.949279e-01 1.049770e-01
vertex -8.354785e-02 7.949098e-01 1.049770e-01
vertex -8.188575e-02 7.927763e-01 1.049770e-01
endloop
endfacet
facet normal 0 0 0
outer loop
vertex -8.188575e-02 7.927763e-01 1.049770e-01
vertex -8.354785e-02 7.949098e-01 1.049770e-01
vertex -8.435445e-02 7.905570e-01 1.049770e-01
endloop
endfacet
facet normal 0 0 0
outer loop
vertex -8.435445e-02 7.905570e-01 1.049770e-01
vertex -8.594044e-02 7.887102e-01 1.049770e-01
vertex -8.293088e-02 7.877623e-01 1.049770e-01
endloop
endfacet
facet normal 0 0 0
outer loop
vertex -8.587225e-02 7.864500e-01 1.049770e-01
vertex -8.594044e-02 7.887102e-01 1.049770e-01
vertex -8.847378e-02 7.847102e-01 1.049770e-01
endloop
endfacet
facet normal 0 0 0
outer loop
vertex -7.259981e-02 7.847102e-01 1.006885e-01
vertex -7.420844e-02 7.847102e-01 1.025969e-01
vertex -7.563976e-02 7.847102e-01 1.002450e-01
endloop
endfacet
facet normal 0 0 0
outer loop
vertex -6.847378e-02 7.847102e-01 9.497701e-02
vertex -6.994045e-02 7.847102e-01 9.887701e-02
vertex -7.100711e-02 7.847102e-01 9.667701e-02
endloop
endfacet
facet normal 0 0 0
outer loop
vertex -7.563976e-02 7.847102e-01 1.002450e-01
vertex -7.740711e-02 7.847102e-01 1.021770e-01
vertex -7.980389e-02 7.847102e-01 9.987018e-02
endloop
endfacet
facet normal 0 0 0
outer loop
vertex -7.980389e-02 7.847102e-01 9.987018e-02
vertex -7.740711e-02 7.847102e-01 9.777701e-02
vertex -7.563976e-02 7.847102e-01 1.002450e-01
endloop
endfacet
facet normal 0 0 0
outer loop
vertex -6.847378e-02 7.907102e-01 9.497701e-02
vertex -7.085638e-02 7.911866e-01 9.497701e-02
vertex -6.847378e-02 7.947102e-01 9.497701e-02
endloop
endfacet
facet normal 0 0 0
outer loop
vertex -7.847378e-02 7.847102e-01 1.049770e-01
vertex -7.980389e-02 7.847102e-01 9.987018e-02
vertex -7.740711e-02 7.847102e-01 1.021770e-01
endloop
endfacet
facet normal 0 0 0
outer loop
vertex -7.535788e-02 7.847102e-01 9.754781e-02
vertex -7.740711e-02 7.847102e-01 9.777701e-02
vertex -7.847378e-02 7.847102e-01 9.497701e-02
endloop
endfacet
facet normal 0 0 0
outer loop
vertex -7.983355e-02 7.847102e-01 9.735629e-02
vertex -7.740711e-02 7.847102e-01 9.777701e-02
vertex -7.980389e-02 7.847102e-01 9.987018e-02
endloop
endfacet
facet normal 0 0 0
outer loop
vertex -8.847378e-02 7.847102e-01 9.497701e-02
vertex -8.847378e-02 7.847102e-01 9.956452e-02
vertex -8.847378e-02 7.867102e-01 9.777701e-02
endloop
endfacet
facet normal 0 0 0
outer loop
vertex -8.167378e-02 7.847102e-01 1.021770e-01
vertex -7.980389e-02 7.847102e-01 9.987018e-02
vertex -7.847378e-02 7.847102e-01 1.049770e-01
endloop
endfacet
facet normal 0 0 0
outer loop
vertex -7.847378e-02 7.847102e-01 9.497701e-02
vertex -7.740711e-02 7.847102e-01 9.777701e-02
vertex -7.983355e-02 7.847102e-01 9.735629e-02
endloop
endfacet
facet normal 0 0 0
outer loop
vertex -7.275985e-02 7.847102e-01 9.872670e-02
vertex -7.100711e-02 7.847102e-01 9.667701e-02
vertex -6.994045e-02 7.847102e-01 9.887701e-02
endloop
endfacet
facet normal 0 0 0
outer loop
vertex -8.847378e-02 8.047102e-01 1.049770e-01
vertex -8.594044e-02 8.047102e-01 1.049770e-01
vertex -8.847378e-02 8.047102e-01 1.019708e-01
endloop
endfacet
facet normal 0 0 0
outer loop
vertex -8.847378e-02 8.027403e-01 9.497701e-02
vertex -8.847378e-02 7.983352e-01 9.777701e-02
vertex -8.847378e-02 8.023649e-01 9.809572e-02
endloop
endfacet
facet normal 0 0 0
outer loop
vertex -8.847378e-02 8.027403e-01 9.497701e-02
vertex -8.620665e-02 8.003838e-01 9.497701e-02
vertex -8.847378e-02 7.986637e-01 9.497701e-02
endloop
endfacet
facet normal 0 0 0
outer loop
vertex -8.620665e-02 8.003838e-01 9.497701e-02
vertex -8.847378e-02 8.027403e-01 9.497701e-02
vertex -8.581912e-02 8.030420e-01 9.497701e-02
endloop
endfacet
facet normal 0 0 0
outer loop
vertex -8.581912e-02 8.030420e-01 9.497701e-02
vertex -8.847378e-02 8.027403e-01 9.497701e-02
vertex -8.847378e-02 8.047102e-01 9.497701e-02
endloop
endfacet
facet normal 0 0 0
outer loop
vertex -8.847378e-02 8.047102e-01 9.497701e-02
vertex -8.847378e-02 8.027403e-01 9.497701e-02
vertex -8.847378e-02 8.023649e-01 9.809572e-02
endloop
endfacet
facet normal 0 0 0
outer loop
vertex -8.847378e-02 7.951445e-01 9.497701e-02
vertex -8.847378e-02 7.986637e-01 9.497701e-02
vertex -8.586012e-02 7.971018e-01 9.497701e-02
endloop
endfacet
facet normal 0 0 0
outer loop
vertex -8.620665e-02 8.003838e-01 9.497701e-02
vertex -8.586012e-02 7.971018e-01 9.497701e-02
vertex -8.847378e-02 7.986637e-01 9.497701e-02
endloop
endfacet
facet normal 0 0 0
outer loop
vertex -8.470464e-02 7.942269e-01 9.497701e-02
vertex -8.586012e-02 7.971018e-01 9.497701e-02
vertex -8.216438e-02 7.967744e-01 9.497701e-02
endloop
endfacet
facet normal 0 0 0
outer loop
vertex -8.382367e-02 7.985797e-01 9.497701e-02
vertex -8.216438e-02 7.967744e-01 9.497701e-02
vertex -8.586012e-02 7.971018e-01 9.497701e-02
endloop
endfacet
facet normal 0 0 0
outer loop
vertex -8.169726e-02 8.007177e-01 9.497701e-02
vertex -8.012226e-02 8.001648e-01 9.497701e-02
vertex -8.027311e-02 7.982742e-01 9.497701e-02
endloop
endfacet
facet normal 0 0 0
outer loop
vertex -7.847378e-02 7.947102e-01 9.497701e-02
vertex -8.162824e-02 7.940487e-01 9.497701e-02
vertex -8.216438e-02 7.967744e-01 9.497701e-02
endloop
endfacet
facet normal 0 0 0
outer loop
vertex -8.382367e-02 7.985797e-01 9.497701e-02
vertex -8.027311e-02 7.982742e-01 9.497701e-02
vertex -8.216438e-02 7.967744e-01 9.497701e-02
endloop
endfacet
facet normal 0 0 0
outer loop
vertex -8.470464e-02 7.942269e-01 9.497701e-02
vertex -8.216438e-02 7.967744e-01 9.497701e-02
vertex -8.162824e-02 7.940487e-01 9.497701e-02
endloop
endfacet
facet normal 0 0 0
outer loop
vertex -7.847378e-02 8.047102e-01 9.497701e-02
vertex -8.020063e-02 8.022443e-01 9.497701e-02
vertex -8.351620e-02 8.047102e-01 9.497701e-02
endloop
endfacet
facet normal 0 0 0
outer loop
vertex -8.012226e-02 8.001648e-01 9.497701e-02
vertex -8.169726e-02 8.007177e-01 9.497701e-02
vertex -8.020063e-02 8.022443e-01 9.497701e-02
endloop
endfacet
facet normal 0 0 0
outer loop
vertex -8.169726e-02 8.007177e-01 9.497701e-02
vertex -8.027311e-02 7.982742e-01 9.497701e-02
vertex -8.382367e-02 7.985797e-01 9.497701e-02
endloop
endfacet
facet normal 0 0 0
outer loop
vertex -8.586012e-02 7.971018e-01 9.497701e-02
vertex -8.470464e-02 7.942269e-01 9.497701e-02
vertex -8.847378e-02 7.951445e-01 9.497701e-02
endloop
endfacet
facet normal 0 0 0
outer loop
vertex -8.225559e-02 7.901648e-01 9.497701e-02
vertex -8.596157e-02 7.885292e-01 9.497701e-02
vertex -8.397277e-02 7.908209e-01 9.497701e-02
endloop
endfacet
facet normal 0 0 0
outer loop
vertex -8.847378e-02 7.881367e-01 1.000132e-01
vertex -8.847378e-02 7.887361e-01 9.771261e-02
vertex -8.847378e-02 7.867102e-01 9.777701e-02
endloop
endfacet
facet normal 0 0 0
outer loop
vertex -8.847378e-02 7.925844e-01 1.049770e-01
vertex -8.847378e-02 7.923693e-01 1.024742e-01
vertex -8.847378e-02 7.903557e-01 1.025315e-01
endloop
endfacet
facet normal 0 0 0
outer loop
vertex -8.847378e-02 7.847102e-01 9.956452e-02
vertex -8.847378e-02 7.863352e-01 1.017645e-01
vertex -8.847378e-02 7.881367e-01 1.000132e-01
endloop
endfacet
facet normal 0 0 0
outer loop
vertex -8.847378e-02 7.881367e-01 1.000132e-01
vertex -8.847378e-02 7.903352e-01 9.997701e-02
vertex -8.847378e-02 7.887361e-01 9.771261e-02
endloop
endfacet
facet normal 0 0 0
outer loop
vertex -8.847378e-02 7.903557e-01 1.025315e-01
vertex -8.847378e-02 7.923693e-01 1.024742e-01
vertex -8.847378e-02 7.903352e-01 9.997701e-02
endloop
endfacet
facet normal 0 0 0
outer loop
vertex -8.847378e-02 7.903557e-01 1.025315e-01
vertex -8.847378e-02 7.903352e-01 9.997701e-02
vertex -8.847378e-02 7.881367e-01 1.000132e-01
endloop
endfacet
facet normal 0 0 0
outer loop
vertex -8.847378e-02 7.903352e-01 1.049770e-01
vertex -8.847378e-02 7.925844e-01 1.049770e-01
vertex -8.847378e-02 7.903557e-01 1.025315e-01
endloop
endfacet
facet normal 0 0 0
outer loop
vertex -8.847378e-02 7.847102e-01 9.956452e-02
vertex -8.847378e-02 7.881367e-01 1.000132e-01
vertex -8.847378e-02 7.867102e-01 9.777701e-02
endloop
endfacet
facet normal 0 0 0
outer loop
vertex -8.351620e-02 8.047102e-01 9.497701e-02
vertex -8.274045e-02 8.047102e-01 9.887701e-02
vertex -7.847378e-02 8.047102e-01 9.497701e-02
endloop
endfacet
facet normal 0 0 0
outer loop
vertex -8.586228e-02 8.047102e-01 9.809495e-02
vertex -8.274045e-02 8.047102e-01 9.887701e-02
vertex -8.351620e-02 8.047102e-01 9.497701e-02
endloop
endfacet
facet normal 0 0 0
outer loop
vertex -8.586228e-02 8.047102e-01 9.809495e-02
vertex -8.351620e-02 8.047102e-01 9.497701e-02
vertex -8.564954e-02 8.047102e-01 9.497701e-02
endloop
endfacet
facet normal 0 0 0
outer loop
vertex -8.847378e-02 8.047102e-01 9.497701e-02
vertex -8.564954e-02 8.047102e-01 9.497701e-02
vertex -8.581912e-02 8.030420e-01 9.497701e-02
endloop
endfacet
facet normal 0 0 0
outer loop
vertex -8.274045e-02 8.047102e-01 9.887701e-02
vertex -8.586228e-02 8.047102e-01 9.809495e-02
vertex -8.453438e-02 8.047102e-01 1.023175e-01
endloop
endfacet
facet normal 0 0 0
outer loop
vertex -8.581912e-02 8.030420e-01 9.497701e-02
vertex -8.564954e-02 8.047102e-01 9.497701e-02
vertex -8.351620e-02 8.047102e-01 9.497701e-02
endloop
endfacet
facet normal 0 0 0
outer loop
vertex -8.409035e-02 7.847102e-01 1.014643e-01
vertex -8.380711e-02 7.847102e-01 1.032770e-01
vertex -8.594044e-02 7.847102e-01 1.021770e-01
endloop
endfacet
facet normal 0 0 0
outer loop
vertex -8.847378e-02 7.863352e-01 1.017645e-01
vertex -8.847378e-02 7.847102e-01 9.956452e-02
vertex -8.847378e-02 7.847102e-01 1.049770e-01
endloop
endfacet
facet normal 0 0 0
outer loop
vertex -8.847378e-02 7.847102e-01 9.956452e-02
vertex -8.594044e-02 7.847102e-01 1.021770e-01
vertex -8.847378e-02 7.847102e-01 1.049770e-01
endloop
endfacet
facet normal 0 0 0
outer loop
vertex -8.409035e-02 7.847102e-01 1.014643e-01
vertex -8.594044e-02 7.847102e-01 1.021770e-01
vertex -8.416162e-02 7.847102e-01 9.957433e-02
endloop
endfacet
facet normal 0 0 0
outer loop
vertex -8.847378e-02 7.847102e-01 9.956452e-02
vertex -8.594044e-02 7.847102e-01 9.777701e-02
vertex -8.594044e-02 7.847102e-01 1.021770e-01
endloop
endfacet
facet normal 0 0 0
outer loop
vertex -8.594044e-02 7.847102e-01 9.777701e-02
vertex -8.847378e-02 7.847102e-01 9.956452e-02
vertex -8.847378e-02 7.847102e-01 9.497701e-02
endloop
endfacet
facet normal 0 0 0
outer loop
vertex -8.238053e-02 7.847102e-01 1.004714e-01
vertex -8.409035e-02 7.847102e-01 1.014643e-01
vertex -8.416162e-02 7.847102e-01 9.957433e-02
endloop
endfacet
facet normal 0 0 0
outer loop
vertex -8.167378e-02 7.847102e-01 1.021770e-01
vertex -8.409035e-02 7.847102e-01 1.014643e-01
vertex -8.238053e-02 7.847102e-01 1.004714e-01
endloop
endfacet
facet normal 0 0 0
outer loop
vertex -8.380711e-02 7.847102e-01 1.032770e-01
vertex -8.167378e-02 7.847102e-01 1.021770e-01
vertex -8.303136e-02 7.847102e-01 1.049770e-01
endloop
endfacet
facet normal 0 0 0
outer loop
vertex -8.416162e-02 7.847102e-01 9.957433e-02
vertex -8.594044e-02 7.847102e-01 1.021770e-01
vertex -8.594044e-02 7.847102e-01 9.777701e-02
endloop
endfacet
facet normal 0 0 0
outer loop
vertex -8.293088e-02 7.877623e-01 1.049770e-01
vertex -8.303136e-02 7.847102e-01 1.049770e-01
vertex -7.847378e-02 7.847102e-01 1.049770e-01
endloop
endfacet
facet normal 0 0 0
outer loop
vertex -8.167378e-02 7.847102e-01 1.021770e-01
vertex -8.238053e-02 7.847102e-01 1.004714e-01
vertex -7.980389e-02 7.847102e-01 9.987018e-02
endloop
endfacet
facet normal 0 0 0
outer loop
vertex -8.847378e-02 7.925844e-01 1.049770e-01
vertex -8.847378e-02 7.903352e-01 1.049770e-01
vertex -8.652246e-02 7.914310e-01 1.049770e-01
endloop
endfacet
facet normal 0 0 0
outer loop
vertex -8.847378e-02 7.883352e-01 1.049770e-01
vertex -8.847378e-02 7.903352e-01 1.049770e-01
vertex -8.847378e-02 7.881690e-01 1.035784e-01
endloop
endfacet
facet normal 0 0 0
outer loop
vertex -8.847378e-02 7.903352e-01 1.049770e-01
vertex -8.594044e-02 7.887102e-01 1.049770e-01
vertex -8.652246e-02 7.914310e-01 1.049770e-01
endloop
endfacet
facet normal 0 0 0
outer loop
vertex -8.847378e-02 7.903352e-01 1.049770e-01
vertex -8.847378e-02 7.883352e-01 1.049770e-01
vertex -8.594044e-02 7.887102e-01 1.049770e-01
endloop
endfacet
facet normal 0 0 0
outer loop
vertex -8.847378e-02 7.881690e-01 1.035784e-01
vertex -8.847378e-02 7.847102e-01 1.049770e-01
vertex -8.847378e-02 7.883352e-01 1.049770e-01
endloop
endfacet
facet normal 0 0 0
outer loop
vertex -8.594044e-02 7.887102e-01 1.049770e-01
vertex -8.847378e-02 7.883352e-01 1.049770e-01
vertex -8.847378e-02 7.847102e-01 1.049770e-01
endloop
endfacet
facet normal 0 0 0
outer loop
vertex -8.652246e-02 7.914310e-01 1.049770e-01
vertex -8.594044e-02 7.887102e-01 1.049770e-01
vertex -8.435445e-02 7.905570e-01 1.049770e-01
endloop
endfacet
facet normal 0 0 0
outer loop
vertex -8.586228e-02 8.047102e-01 9.809495e-02
vertex -8.847378e-02 8.047102e-01 9.956452e-02
vertex -8.847378e-02 8.047102e-01 1.019708e-01
endloop
endfacet
facet normal 0 0 0
outer loop
vertex -8.847378e-02 8.023649e-01 9.809572e-02
vertex -8.847378e-02 8.047102e-01 9.956452e-02
vertex -8.847378e-02 8.047102e-01 9.497701e-02
endloop
endfacet
facet normal 0 0 0
outer loop
vertex -8.847378e-02 8.047102e-01 1.019708e-01
vertex -8.847378e-02 8.047102e-01 9.956452e-02
vertex -8.847378e-02 8.023352e-01 1.017645e-01
endloop
endfacet
facet normal 0 0 0
outer loop
vertex -8.847378e-02 8.023352e-01 1.017645e-01
vertex -8.847378e-02 8.047102e-01 9.956452e-02
vertex -8.847378e-02 8.023649e-01 9.809572e-02
endloop
endfacet
facet normal 0 0 0
outer loop
vertex -8.847378e-02 8.047102e-01 1.049770e-01
vertex -8.847378e-02 8.047102e-01 1.019708e-01
vertex -8.847378e-02 8.023352e-01 1.017645e-01
endloop
endfacet
facet normal 0 0 0
outer loop
vertex -8.564954e-02 8.047102e-01 9.497701e-02
vertex -8.847378e-02 8.047102e-01 9.497701e-02
vertex -8.586228e-02 8.047102e-01 9.809495e-02
endloop
endfacet
facet normal 0 0 0
outer loop
vertex -8.274045e-02 8.047102e-01 9.887701e-02
vertex -8.453438e-02 8.047102e-01 1.023175e-01
vertex -8.113584e-02 8.047102e-01 1.022154e-01
endloop
endfacet
facet normal 0 0 0
outer loop
vertex -7.100711e-02 7.887102e-01 1.049770e-01
vertex -7.365762e-02 7.847102e-01 1.049770e-01
vertex -7.100711e-02 7.847102e-01 1.049770e-01
endloop
endfacet
facet normal 0 0 0
outer loop
vertex -7.420844e-02 7.847102e-01 1.025969e-01
vertex -7.100711e-02 7.847102e-01 1.049770e-01
vertex -7.365762e-02 7.847102e-01 1.049770e-01
endloop
endfacet
facet normal 0 0 0
outer loop
vertex -6.847378e-02 7.847102e-01 1.049770e-01
vertex -7.100711e-02 7.887102e-01 1.049770e-01
vertex -7.100711e-02 7.847102e-01 1.049770e-01
endloop
endfacet
facet normal 0 0 0
outer loop
vertex -7.376815e-02 7.929314e-01 1.049770e-01
vertex -7.527377e-02 7.907102e-01 1.049770e-01
vertex -7.100711e-02 7.887102e-01 1.049770e-01
endloop
endfacet
facet normal 0 0 0
outer loop
vertex -7.365762e-02 7.847102e-01 1.049770e-01
vertex -7.466055e-02 7.870551e-01 1.049770e-01
vertex -7.847378e-02 7.847102e-01 1.049770e-01
endloop
endfacet
facet normal 0 0 0
outer loop
vertex -7.365762e-02 7.847102e-01 1.049770e-01
vertex -7.847378e-02 7.847102e-01 1.049770e-01
vertex -7.420844e-02 7.847102e-01 1.025969e-01
endloop
endfacet
facet normal 0 0 0
outer loop
vertex -6.847378e-02 7.947102e-01 9.953014e-02
vertex -6.847378e-02 7.947102e-01 9.497701e-02
vertex -7.088175e-02 7.947102e-01 9.811356e-02
endloop
endfacet
facet normal 0 0 0
outer loop
vertex -7.275985e-02 7.847102e-01 9.872670e-02
vertex -7.365762e-02 7.847102e-01 9.497701e-02
vertex -7.100711e-02 7.847102e-01 9.667701e-02
endloop
endfacet
facet normal 0 0 0
outer loop
vertex -7.259981e-02 7.847102e-01 1.006885e-01
vertex -7.563976e-02 7.847102e-01 1.002450e-01
vertex -7.275985e-02 7.847102e-01 9.872670e-02
endloop
endfacet
facet normal 0 0 0
outer loop
vertex -7.535788e-02 7.847102e-01 9.754781e-02
vertex -7.275985e-02 7.847102e-01 9.872670e-02
vertex -7.563976e-02 7.847102e-01 1.002450e-01
endloop
endfacet
facet normal 0 0 0
outer loop
vertex -7.535788e-02 7.847102e-01 9.754781e-02
vertex -7.563976e-02 7.847102e-01 1.002450e-01
vertex -7.740711e-02 7.847102e-01 9.777701e-02
endloop
endfacet
facet normal 0 0 0
outer loop
vertex -7.535788e-02 7.847102e-01 9.754781e-02
vertex -7.365762e-02 7.847102e-01 9.497701e-02
vertex -7.275985e-02 7.847102e-01 9.872670e-02
endloop
endfacet
facet normal 0 0 0
outer loop
vertex -7.847378e-02 7.847102e-01 9.497701e-02
vertex -7.365762e-02 7.847102e-01 9.497701e-02
vertex -7.535788e-02 7.847102e-01 9.754781e-02
endloop
endfacet
facet normal 0 0 0
outer loop
vertex -7.259981e-02 7.847102e-01 1.006885e-01
vertex -7.275985e-02 7.847102e-01 9.872670e-02
vertex -6.994045e-02 7.847102e-01 9.887701e-02
endloop
endfacet
facet normal 0 0 0
outer loop
vertex -7.259981e-02 7.847102e-01 1.006885e-01
vertex -6.994045e-02 7.847102e-01 9.887701e-02
vertex -7.088080e-02 7.847102e-01 1.021796e-01
endloop
endfacet
facet normal 0 0 0
outer loop
vertex -7.088080e-02 7.847102e-01 1.021796e-01
vertex -7.100711e-02 7.847102e-01 1.049770e-01
vertex -7.420844e-02 7.847102e-01 1.025969e-01
endloop
endfacet
facet normal 0 0 0
outer loop
vertex -6.847378e-02 7.847102e-01 1.049770e-01
vertex -7.100711e-02 7.847102e-01 1.049770e-01
vertex -7.088080e-02 7.847102e-01 1.021796e-01
endloop
endfacet
facet normal 0 0 0
outer loop
vertex -8.167378e-02 7.861648e-01 9.497701e-02
vertex -7.954045e-02 7.881647e-01 9.497701e-02
vertex -7.954045e-02 7.867102e-01 9.497701e-02
endloop
endfacet
facet normal 0 0 0
outer loop
vertex -7.847378e-02 7.847102e-01 9.497701e-02
vertex -8.167378e-02 7.861648e-01 9.497701e-02
vertex -7.954045e-02 7.867102e-01 9.497701e-02
endloop
endfacet
facet normal 0 0 0
outer loop
vertex -8.225559e-02 7.901648e-01 9.497701e-02
vertex -7.954045e-02 7.881647e-01 9.497701e-02
vertex -8.167378e-02 7.861648e-01 9.497701e-02
endloop
endfacet
facet normal 0 0 0
outer loop
vertex -7.798893e-02 7.881647e-01 9.497701e-02
vertex -7.954045e-02 7.881647e-01 9.497701e-02
vertex -7.794266e-02 7.902032e-01 9.497701e-02
endloop
endfacet
facet normal 0 0 0
outer loop
vertex -7.954045e-02 7.921647e-01 9.497701e-02
vertex -7.717790e-02 7.922134e-01 9.497701e-02
vertex -7.794266e-02 7.902032e-01 9.497701e-02
endloop
endfacet
facet normal 0 0 0
outer loop
vertex -7.798893e-02 7.881647e-01 9.497701e-02
vertex -7.786842e-02 7.863799e-01 9.497701e-02
vertex -7.954045e-02 7.867102e-01 9.497701e-02
endloop
endfacet
facet normal 0 0 0
outer loop
vertex -7.954045e-02 7.881647e-01 9.497701e-02
vertex -7.798893e-02 7.881647e-01 9.497701e-02
vertex -7.954045e-02 7.867102e-01 9.497701e-02
endloop
endfacet
facet normal 0 0 0
outer loop
vertex -8.233304e-02 7.847102e-01 9.497701e-02
vertex -7.847378e-02 7.847102e-01 9.497701e-02
vertex -8.274045e-02 7.847102e-01 9.667701e-02
endloop
endfacet
facet normal 0 0 0
outer loop
vertex -7.847378e-02 7.847102e-01 9.497701e-02
vertex -8.233304e-02 7.847102e-01 9.497701e-02
vertex -8.167378e-02 7.861648e-01 9.497701e-02
endloop
endfacet
facet normal 0 0 0
outer loop
vertex -8.274045e-02 7.847102e-01 9.667701e-02
vertex -8.380711e-02 7.847102e-01 9.497701e-02
vertex -8.233304e-02 7.847102e-01 9.497701e-02
endloop
endfacet
facet normal 0 0 0
outer loop
vertex -8.380711e-02 7.847102e-01 9.497701e-02
vertex -8.167378e-02 7.861648e-01 9.497701e-02
vertex -8.233304e-02 7.847102e-01 9.497701e-02
endloop
endfacet
facet normal 0 0 0
outer loop
vertex -8.596157e-02 7.885292e-01 9.497701e-02
vertex -8.380711e-02 7.847102e-01 9.497701e-02
vertex -8.847378e-02 7.847102e-01 9.497701e-02
endloop
endfacet
facet normal 0 0 0
outer loop
vertex -8.594044e-02 7.847102e-01 9.777701e-02
vertex -8.847378e-02 7.847102e-01 9.497701e-02
vertex -8.380711e-02 7.847102e-01 9.497701e-02
endloop
endfacet
facet normal 0 0 0
outer loop
vertex -8.274045e-02 7.847102e-01 9.667701e-02
vertex -8.594044e-02 7.847102e-01 9.777701e-02
vertex -8.380711e-02 7.847102e-01 9.497701e-02
endloop
endfacet
facet normal 0 0 0
outer loop
vertex -8.225559e-02 7.901648e-01 9.497701e-02
vertex -8.397277e-02 7.908209e-01 9.497701e-02
vertex -8.162824e-02 7.940487e-01 9.497701e-02
endloop
endfacet
facet normal 0 0 0
outer loop
vertex -7.847378e-02 7.947102e-01 9.497701e-02
vertex -7.954045e-02 7.921647e-01 9.497701e-02
vertex -8.162824e-02 7.940487e-01 9.497701e-02
endloop
endfacet
facet normal 0 0 0
outer loop
vertex -8.613409e-02 7.909865e-01 9.497701e-02
vertex -8.397277e-02 7.908209e-01 9.497701e-02
vertex -8.596157e-02 7.885292e-01 9.497701e-02
endloop
endfacet
facet normal 0 0 0
outer loop
vertex -8.613409e-02 7.909865e-01 9.497701e-02
vertex -8.596157e-02 7.885292e-01 9.497701e-02
vertex -8.847378e-02 7.883352e-01 9.497701e-02
endloop
endfacet
facet normal 0 0 0
outer loop
vertex -8.470464e-02 7.942269e-01 9.497701e-02
vertex -8.397277e-02 7.908209e-01 9.497701e-02
vertex -8.613409e-02 7.909865e-01 9.497701e-02
endloop
endfacet
facet normal 0 0 0
outer loop
vertex -8.470464e-02 7.942269e-01 9.497701e-02
vertex -8.162824e-02 7.940487e-01 9.497701e-02
vertex -8.397277e-02 7.908209e-01 9.497701e-02
endloop
endfacet
facet normal 0 0 0
outer loop
vertex -8.596157e-02 7.885292e-01 9.497701e-02
vertex -8.847378e-02 7.847102e-01 9.497701e-02
vertex -8.847378e-02 7.883352e-01 9.497701e-02
endloop
endfacet
facet normal 0 0 0
outer loop
vertex -8.847378e-02 7.867102e-01 9.777701e-02
vertex -8.847378e-02 7.883352e-01 9.497701e-02
vertex -8.847378e-02 7.847102e-01 9.497701e-02
endloop
endfacet
facet normal 0 0 0
outer loop
vertex -7.245647e-02 7.947102e-01 1.004172e-01
vertex -7.088175e-02 7.947102e-01 9.811356e-02
vertex -7.420711e-02 7.947102e-01 9.777701e-02
endloop
endfacet
facet normal 0 0 0
outer loop
vertex -7.088175e-02 7.947102e-01 9.811356e-02
vertex -6.847378e-02 7.947102e-01 9.497701e-02
vertex -7.207378e-02 7.947102e-01 9.497701e-02
endloop
endfacet
facet normal 0 0 0
outer loop
vertex -7.207378e-02 7.947102e-01 9.497701e-02
vertex -7.420711e-02 7.947102e-01 9.777701e-02
vertex -7.088175e-02 7.947102e-01 9.811356e-02
endloop
endfacet
facet normal 0 0 0
outer loop
vertex -7.420711e-02 7.947102e-01 9.777701e-02
vertex -7.207378e-02 7.947102e-01 9.497701e-02
vertex -7.498287e-02 7.947102e-01 9.497701e-02
endloop
endfacet
facet normal 0 0 0
outer loop
vertex -7.420711e-02 7.947102e-01 9.777701e-02
vertex -7.498287e-02 7.947102e-01 9.497701e-02
vertex -7.633345e-02 7.947102e-01 9.836347e-02
endloop
endfacet
facet normal 0 0 0
outer loop
vertex -7.847378e-02 7.947102e-01 9.497701e-02
vertex -7.498287e-02 7.947102e-01 9.497701e-02
vertex -7.495928e-02 7.919263e-01 9.497701e-02
endloop
endfacet
facet normal 0 0 0
outer loop
vertex -7.498287e-02 7.947102e-01 9.497701e-02
vertex -7.847378e-02 7.947102e-01 9.497701e-02
vertex -7.633345e-02 7.947102e-01 9.836347e-02
endloop
endfacet
facet normal 0 0 0
outer loop
vertex -7.495928e-02 7.919263e-01 9.497701e-02
vertex -7.498287e-02 7.947102e-01 9.497701e-02
vertex -7.207378e-02 7.947102e-01 9.497701e-02
endloop
endfacet
facet normal 0 0 0
outer loop
vertex -7.633345e-02 7.947102e-01 9.836347e-02
vertex -7.847378e-02 7.947102e-01 9.497701e-02
vertex -7.847378e-02 7.947102e-01 9.777701e-02
endloop
endfacet
facet normal 0 0 0
outer loop
vertex -6.847378e-02 7.863352e-01 1.021770e-01
vertex -6.847378e-02 7.893186e-01 1.025867e-01
vertex -6.847378e-02 7.887102e-01 1.049770e-01
endloop
endfacet
facet normal 0 0 0
outer loop
vertex -6.847378e-02 7.917882e-01 1.021349e-01
vertex -6.847378e-02 7.893186e-01 1.025867e-01
vertex -6.847378e-02 7.872400e-01 1.001330e-01
endloop
endfacet
facet normal 0 0 0
outer loop
vertex -6.847378e-02 7.893186e-01 1.025867e-01
vertex -6.847378e-02 7.863352e-01 1.021770e-01
vertex -6.847378e-02 7.872400e-01 1.001330e-01
endloop
endfacet
facet normal 0 0 0
outer loop
vertex -6.847378e-02 7.847102e-01 1.049770e-01
vertex -6.847378e-02 7.863352e-01 1.021770e-01
vertex -6.847378e-02 7.887102e-01 1.049770e-01
endloop
endfacet
facet normal 0 0 0
outer loop
vertex -6.847378e-02 7.847102e-01 9.497701e-02
vertex -6.847378e-02 7.847102e-01 9.837285e-02
vertex -6.994045e-02 7.847102e-01 9.887701e-02
endloop
endfacet
facet normal 0 0 0
outer loop
vertex -6.847378e-02 7.847102e-01 9.497701e-02
vertex -6.847378e-02 7.864631e-01 9.757525e-02
vertex -6.847378e-02 7.847102e-01 9.837285e-02
endloop
endfacet
facet normal 0 0 0
outer loop
vertex -6.847378e-02 7.887102e-01 1.049770e-01
vertex -6.847378e-02 7.913896e-01 1.049770e-01
vertex -7.100711e-02 7.887102e-01 1.049770e-01
endloop
endfacet
facet normal 0 0 0
outer loop
vertex -6.847378e-02 7.913896e-01 1.049770e-01
vertex -6.847378e-02 7.887102e-01 1.049770e-01
vertex -6.847378e-02 7.893186e-01 1.025867e-01
endloop
endfacet
facet normal 0 0 0
outer loop
vertex -7.100711e-02 7.932557e-01 1.049770e-01
vertex -7.100711e-02 7.887102e-01 1.049770e-01
vertex -6.847378e-02 7.913896e-01 1.049770e-01
endloop
endfacet
facet normal 0 0 0
outer loop
vertex -6.847378e-02 7.947102e-01 1.049770e-01
vertex -7.100711e-02 7.932557e-01 1.049770e-01
vertex -6.847378e-02 7.913896e-01 1.049770e-01
endloop
endfacet
facet normal 0 0 0
outer loop
vertex -6.847378e-02 7.893186e-01 1.025867e-01
vertex -6.847378e-02 7.917882e-01 1.021349e-01
vertex -6.847378e-02 7.913896e-01 1.049770e-01
endloop
endfacet
facet normal 0 0 0
outer loop
vertex -6.847378e-02 7.917882e-01 1.021349e-01
vertex -6.847378e-02 7.947102e-01 1.049770e-01
vertex -6.847378e-02 7.913896e-01 1.049770e-01
endloop
endfacet
facet normal 0 0 0
outer loop
vertex -6.847378e-02 7.847102e-01 1.021770e-01
vertex -6.847378e-02 7.847102e-01 1.049770e-01
vertex -7.088080e-02 7.847102e-01 1.021796e-01
endloop
endfacet
facet normal 0 0 0
outer loop
vertex -6.847378e-02 7.847102e-01 1.049770e-01
vertex -6.847378e-02 7.847102e-01 1.021770e-01
vertex -6.847378e-02 7.863352e-01 1.021770e-01
endloop
endfacet
facet normal 0 0 0
outer loop
vertex -6.847378e-02 7.864631e-01 9.757525e-02
vertex -6.847378e-02 7.872400e-01 1.001330e-01
vertex -6.847378e-02 7.847102e-01 9.837285e-02
endloop
endfacet
facet normal 0 0 0
outer loop
vertex -6.994045e-02 7.847102e-01 9.887701e-02
vertex -6.847378e-02 7.847102e-01 9.837285e-02
vertex -6.847378e-02 7.847102e-01 1.021770e-01
endloop
endfacet
facet normal 0 0 0
outer loop
vertex -6.847378e-02 7.847102e-01 9.837285e-02
vertex -6.847378e-02 7.872400e-01 1.001330e-01
vertex -6.847378e-02 7.847102e-01 1.021770e-01
endloop
endfacet
facet normal 0 0 0
outer loop
vertex -6.847378e-02 7.872400e-01 1.001330e-01
vertex -6.847378e-02 7.863352e-01 1.021770e-01
vertex -6.847378e-02 7.847102e-01 1.021770e-01
endloop
endfacet
facet normal 0 0 0
outer loop
vertex -6.847378e-02 7.887102e-01 9.497701e-02
vertex -6.847378e-02 7.907102e-01 9.497701e-02
vertex -6.847378e-02 7.894288e-01 9.757311e-02
endloop
endfacet
facet normal 0 0 0
outer loop
vertex -8.358344e-02 7.986924e-01 1.049770e-01
vertex -8.567101e-02 7.981501e-01 1.049770e-01
vertex -8.354785e-02 7.949098e-01 1.049770e-01
endloop
endfacet
facet normal 0 0 0
outer loop
vertex -8.191080e-02 8.028832e-01 1.049770e-01
vertex -8.419497e-02 8.008885e-01 1.049770e-01
vertex -8.152801e-02 8.007461e-01 1.049770e-01
endloop
endfacet
facet normal 0 0 0
outer loop
vertex -8.521670e-02 8.029425e-01 1.049770e-01
vertex -8.419497e-02 8.008885e-01 1.049770e-01
vertex -8.191080e-02 8.028832e-01 1.049770e-01
endloop
endfacet
facet normal 0 0 0
outer loop
vertex -8.567101e-02 7.981501e-01 1.049770e-01
vertex -8.419497e-02 8.008885e-01 1.049770e-01
vertex -8.668703e-02 8.008522e-01 1.049770e-01
endloop
endfacet
facet normal 0 0 0
outer loop
vertex -8.113584e-02 8.047102e-01 1.022154e-01
vertex -8.453438e-02 8.047102e-01 1.023175e-01
vertex -8.225559e-02 8.047102e-01 1.049770e-01
endloop
endfacet
facet normal 0 0 0
outer loop
vertex -8.453438e-02 8.047102e-01 1.023175e-01
vertex -8.594044e-02 8.047102e-01 1.049770e-01
vertex -8.225559e-02 8.047102e-01 1.049770e-01
endloop
endfacet
facet normal 0 0 0
outer loop
vertex -8.847378e-02 7.972557e-01 1.049770e-01
vertex -8.847378e-02 8.003352e-01 1.049770e-01
vertex -8.847378e-02 7.962769e-01 1.035953e-01
endloop
endfacet
facet normal 0 0 0
outer loop
vertex -8.847378e-02 8.003352e-01 1.049770e-01
vertex -8.567101e-02 7.981501e-01 1.049770e-01
vertex -8.668703e-02 8.008522e-01 1.049770e-01
endloop
endfacet
facet normal 0 0 0
outer loop
vertex -8.847378e-02 8.003352e-01 1.049770e-01
vertex -8.847378e-02 7.972557e-01 1.049770e-01
vertex -8.567101e-02 7.981501e-01 1.049770e-01
endloop
endfacet
facet normal 0 0 0
outer loop
vertex -8.847378e-02 8.023352e-01 1.017645e-01
vertex -8.847378e-02 8.003352e-01 1.049770e-01
vertex -8.847378e-02 8.023352e-01 1.049770e-01
endloop
endfacet
facet normal 0 0 0
outer loop
vertex -8.847378e-02 8.003352e-01 1.049770e-01
vertex -8.668703e-02 8.008522e-01 1.049770e-01
vertex -8.847378e-02 8.023352e-01 1.049770e-01
endloop
endfacet
facet normal 0 0 0
outer loop
vertex -8.847378e-02 8.023352e-01 1.049770e-01
vertex -8.668703e-02 8.008522e-01 1.049770e-01
vertex -8.521670e-02 8.029425e-01 1.049770e-01
endloop
endfacet
facet normal 0 0 0
outer loop
vertex -8.847378e-02 8.023352e-01 1.049770e-01
vertex -8.847378e-02 8.047102e-01 1.049770e-01
vertex -8.847378e-02 8.023352e-01 1.017645e-01
endloop
endfacet
facet normal 0 0 0
outer loop
vertex -8.847378e-02 8.047102e-01 1.049770e-01
vertex -8.847378e-02 8.023352e-01 1.049770e-01
vertex -8.521670e-02 8.029425e-01 1.049770e-01
endloop
endfacet
facet normal 0 0 0
outer loop
vertex -8.847378e-02 7.947102e-01 1.049770e-01
vertex -8.847378e-02 7.972557e-01 1.049770e-01
vertex -8.847378e-02 7.962769e-01 1.035953e-01
endloop
endfacet
facet normal 0 0 0
outer loop
vertex -8.225559e-02 8.047102e-01 1.049770e-01
vertex -8.521670e-02 8.029425e-01 1.049770e-01
vertex -8.191080e-02 8.028832e-01 1.049770e-01
endloop
endfacet
facet normal 0 0 0
outer loop
vertex -8.847378e-02 8.047102e-01 1.049770e-01
vertex -8.521670e-02 8.029425e-01 1.049770e-01
vertex -8.594044e-02 8.047102e-01 1.049770e-01
endloop
endfacet
facet normal 0 0 0
outer loop
vertex -7.847378e-02 7.967102e-01 9.667701e-02
vertex -7.847378e-02 7.947102e-01 9.777701e-02
vertex -7.847378e-02 7.947102e-01 9.497701e-02
endloop
endfacet
facet normal 0 0 0
outer loop
vertex -7.847378e-02 8.027102e-01 1.021770e-01
vertex -7.847378e-02 8.007102e-01 1.049770e-01
vertex -7.847378e-02 7.997102e-01 1.021770e-01
endloop
endfacet
facet normal 0 0 0
outer loop
vertex -7.847378e-02 8.006122e-01 9.993004e-02
vertex -7.847378e-02 8.027102e-01 1.021770e-01
vertex -7.847378e-02 7.997102e-01 1.021770e-01
endloop
endfacet
facet normal 0 0 0
outer loop
vertex -7.847378e-02 8.047102e-01 1.049770e-01
vertex -7.847378e-02 8.007102e-01 1.049770e-01
vertex -7.847378e-02 8.027102e-01 1.021770e-01
endloop
endfacet
facet normal 0 0 0
outer loop
vertex -7.847378e-02 7.987102e-01 9.777701e-02
vertex -7.847378e-02 8.023527e-01 9.741292e-02
vertex -7.847378e-02 8.006122e-01 9.993004e-02
endloop
endfacet
facet normal 0 0 0
outer loop
vertex -7.847378e-02 7.967102e-01 9.667701e-02
vertex -7.847378e-02 7.977102e-01 9.497701e-02
vertex -7.847378e-02 7.987102e-01 9.777701e-02
endloop
endfacet
facet normal 0 0 0
outer loop
vertex -7.847378e-02 8.027102e-01 1.021770e-01
vertex -7.847378e-02 8.047102e-01 1.005270e-01
vertex -7.847378e-02 8.047102e-01 1.049770e-01
endloop
endfacet
facet normal 0 0 0
outer loop
vertex -8.027311e-02 7.982742e-01 9.497701e-02
vertex -7.847378e-02 8.001648e-01 9.497701e-02
vertex -7.847378e-02 7.977102e-01 9.497701e-02
endloop
endfacet
facet normal 0 0 0
outer loop
vertex -7.847378e-02 7.977102e-01 9.497701e-02
vertex -7.847378e-02 7.947102e-01 9.497701e-02
vertex -8.027311e-02 7.982742e-01 9.497701e-02
endloop
endfacet
facet normal 0 0 0
outer loop
vertex -7.847378e-02 8.047102e-01 1.049770e-01
vertex -7.847378e-02 8.047102e-01 1.005270e-01
vertex -8.113584e-02 8.047102e-01 1.022154e-01
endloop
endfacet
facet normal 0 0 0
outer loop
vertex -8.274045e-02 8.047102e-01 9.887701e-02
vertex -7.847378e-02 8.047102e-01 9.832701e-02
vertex -7.847378e-02 8.047102e-01 9.497701e-02
endloop
endfacet
facet normal 0 0 0
outer loop
vertex -7.847378e-02 8.021647e-01 9.497701e-02
vertex -8.020063e-02 8.022443e-01 9.497701e-02
vertex -7.847378e-02 8.047102e-01 9.497701e-02
endloop
endfacet
facet normal 0 0 0
outer loop
vertex -8.020063e-02 8.022443e-01 9.497701e-02
vertex -7.847378e-02 8.021647e-01 9.497701e-02
vertex -8.012226e-02 8.001648e-01 9.497701e-02
endloop
endfacet
facet normal 0 0 0
outer loop
vertex -8.012226e-02 8.001648e-01 9.497701e-02
vertex -7.847378e-02 8.021647e-01 9.497701e-02
vertex -7.847378e-02 8.001648e-01 9.497701e-02
endloop
endfacet
facet normal 0 0 0
outer loop
vertex -7.847378e-02 7.987102e-01 9.777701e-02
vertex -7.847378e-02 8.001648e-01 9.497701e-02
vertex -7.847378e-02 8.021647e-01 9.497701e-02
endloop
endfacet
facet normal 0 0 0
outer loop
vertex -7.847378e-02 7.977102e-01 9.497701e-02
vertex -7.847378e-02 7.967102e-01 9.667701e-02
vertex -7.847378e-02 7.947102e-01 9.497701e-02
endloop
endfacet
facet normal 0 0 0
outer loop
vertex -7.847378e-02 8.030493e-01 9.978290e-02
vertex -7.847378e-02 8.023527e-01 9.741292e-02
vertex -7.847378e-02 8.047102e-01 9.832701e-02
endloop
endfacet
facet normal 0 0 0
outer loop
vertex -7.847378e-02 8.047102e-01 9.832701e-02
vertex -7.847378e-02 8.023527e-01 9.741292e-02
vertex -7.847378e-02 8.047102e-01 9.497701e-02
endloop
endfacet
facet normal 0 0 0
outer loop
vertex -8.274045e-02 8.047102e-01 9.887701e-02
vertex -7.847378e-02 8.047102e-01 1.005270e-01
vertex -7.847378e-02 8.047102e-01 9.832701e-02
endloop
endfacet
facet normal 0 0 0
outer loop
vertex -7.847378e-02 8.047102e-01 1.005270e-01
vertex -7.847378e-02 8.030493e-01 9.978290e-02
vertex -7.847378e-02 8.047102e-01 9.832701e-02
endloop
endfacet
facet normal 0 0 0
outer loop
vertex -7.847378e-02 8.027102e-01 1.021770e-01
vertex -7.847378e-02 8.030493e-01 9.978290e-02
vertex -7.847378e-02 8.047102e-01 1.005270e-01
endloop
endfacet
facet normal 0 0 0
outer loop
vertex -8.274045e-02 8.047102e-01 9.887701e-02
vertex -8.113584e-02 8.047102e-01 1.022154e-01
vertex -7.847378e-02 8.047102e-01 1.005270e-01
endloop
endfacet
facet normal 0 0 0
outer loop
vertex -6.847378e-02 7.917882e-01 1.021349e-01
vertex -6.847378e-02 7.894288e-01 9.757311e-02
vertex -6.847378e-02 7.927102e-01 9.818951e-02
endloop
endfacet
facet normal 0 0 0
outer loop
vertex -6.847378e-02 7.917882e-01 1.021349e-01
vertex -6.847378e-02 7.927102e-01 9.818951e-02
vertex -6.847378e-02 7.947102e-01 9.953014e-02
endloop
endfacet
facet normal 0 0 0
outer loop
vertex -7.024566e-02 7.947102e-01 1.010184e-01
vertex -6.847378e-02 7.947102e-01 9.953014e-02
vertex -7.088175e-02 7.947102e-01 9.811356e-02
endloop
endfacet
facet normal 0 0 0
outer loop
vertex -6.847378e-02 7.947102e-01 1.049770e-01
vertex -6.847378e-02 7.917882e-01 1.021349e-01
vertex -6.847378e-02 7.947102e-01 9.953014e-02
endloop
endfacet
facet normal 0 0 0
outer loop
vertex -6.847378e-02 7.947102e-01 1.049770e-01
vertex -6.847378e-02 7.947102e-01 9.953014e-02
vertex -7.024566e-02 7.947102e-01 1.010184e-01
endloop
endfacet
facet normal 0 0 0
outer loop
vertex -6.847378e-02 7.864631e-01 9.757525e-02
vertex -6.847378e-02 7.894288e-01 9.757311e-02
vertex -6.847378e-02 7.872400e-01 1.001330e-01
endloop
endfacet
facet normal 0 0 0
outer loop
vertex -6.847378e-02 7.887102e-01 9.497701e-02
vertex -6.847378e-02 7.894288e-01 9.757311e-02
vertex -6.847378e-02 7.864631e-01 9.757525e-02
endloop
endfacet
facet normal 0 0 0
outer loop
vertex -7.847378e-02 7.947102e-01 1.010770e-01
vertex -7.633345e-02 7.947102e-01 9.836347e-02
vertex -7.847378e-02 7.947102e-01 9.777701e-02
endloop
endfacet
facet normal 0 0 0
outer loop
vertex -7.847378e-02 7.968613e-01 1.025645e-01
vertex -7.847378e-02 7.947102e-01 1.049770e-01
vertex -7.847378e-02 7.947102e-01 1.010770e-01
endloop
endfacet
facet normal 0 0 0
outer loop
vertex -7.847378e-02 7.947102e-01 1.049770e-01
vertex -7.650854e-02 7.947102e-01 1.014267e-01
vertex -7.847378e-02 7.947102e-01 1.010770e-01
endloop
endfacet
facet normal 0 0 0
outer loop
vertex -7.376815e-02 7.929314e-01 1.049770e-01
vertex -7.347729e-02 7.947102e-01 1.049770e-01
vertex -7.847378e-02 7.947102e-01 1.049770e-01
endloop
endfacet
facet normal 0 0 0
outer loop
vertex -7.347729e-02 7.947102e-01 1.049770e-01
vertex -7.452466e-02 7.947102e-01 1.023329e-01
vertex -7.847378e-02 7.947102e-01 1.049770e-01
endloop
endfacet
facet normal 0 0 0
outer loop
vertex -7.100711e-02 7.932557e-01 1.049770e-01
vertex -7.347729e-02 7.947102e-01 1.049770e-01
vertex -7.376815e-02 7.929314e-01 1.049770e-01
endloop
endfacet
facet normal 0 0 0
outer loop
vertex -6.847378e-02 7.947102e-01 1.049770e-01
vertex -7.347729e-02 7.947102e-01 1.049770e-01
vertex -7.100711e-02 7.932557e-01 1.049770e-01
endloop
endfacet
facet normal 0 0 0
outer loop
vertex -7.245647e-02 7.947102e-01 1.004172e-01
vertex -7.420711e-02 7.947102e-01 9.777701e-02
vertex -7.480264e-02 7.947102e-01 9.957310e-02
endloop
endfacet
facet normal 0 0 0
outer loop
vertex -7.420711e-02 7.947102e-01 9.777701e-02
vertex -7.633345e-02 7.947102e-01 9.836347e-02
vertex -7.480264e-02 7.947102e-01 9.957310e-02
endloop
endfacet
facet normal 0 0 0
outer loop
vertex -7.452466e-02 7.947102e-01 1.023329e-01
vertex -7.188644e-02 7.947102e-01 1.031178e-01
vertex -7.245647e-02 7.947102e-01 1.004172e-01
endloop
endfacet
facet normal 0 0 0
outer loop
vertex -7.347729e-02 7.947102e-01 1.049770e-01
vertex -6.847378e-02 7.947102e-01 1.049770e-01
vertex -7.188644e-02 7.947102e-01 1.031178e-01
endloop
endfacet
facet normal 0 0 0
outer loop
vertex -7.480264e-02 7.947102e-01 9.957310e-02
vertex -7.650854e-02 7.947102e-01 1.014267e-01
vertex -7.452466e-02 7.947102e-01 1.023329e-01
endloop
endfacet
facet normal 0 0 0
outer loop
vertex -7.245647e-02 7.947102e-01 1.004172e-01
vertex -7.480264e-02 7.947102e-01 9.957310e-02
vertex -7.452466e-02 7.947102e-01 1.023329e-01
endloop
endfacet
facet normal 0 0 0
outer loop
vertex -7.480264e-02 7.947102e-01 9.957310e-02
vertex -7.633345e-02 7.947102e-01 9.836347e-02
vertex -7.650854e-02 7.947102e-01 1.014267e-01
endloop
endfacet
facet normal 0 0 0
outer loop
vertex -6.847378e-02 7.887102e-01 9.497701e-02
vertex -7.130453e-02 7.866099e-01 9.497701e-02
vertex -7.314044e-02 7.887102e-01 9.497701e-02
endloop
endfacet
facet normal 0 0 0
outer loop
vertex -7.314044e-02 7.887102e-01 9.497701e-02
vertex -7.130453e-02 7.866099e-01 9.497701e-02
vertex -7.520407e-02 7.862461e-01 9.497701e-02
endloop
endfacet
facet normal 0 0 0
outer loop
vertex -7.520407e-02 7.862461e-01 9.497701e-02
vertex -7.130453e-02 7.866099e-01 9.497701e-02
vertex -7.365762e-02 7.847102e-01 9.497701e-02
endloop
endfacet
facet normal 0 0 0
outer loop
vertex -7.085638e-02 7.911866e-01 9.497701e-02
vertex -6.847378e-02 7.907102e-01 9.497701e-02
vertex -6.847378e-02 7.887102e-01 9.497701e-02
endloop
endfacet
facet normal 0 0 0
outer loop
vertex -7.207378e-02 7.947102e-01 9.497701e-02
vertex -7.085638e-02 7.911866e-01 9.497701e-02
vertex -7.495928e-02 7.919263e-01 9.497701e-02
endloop
endfacet
facet normal 0 0 0
outer loop
vertex -7.520407e-02 7.862461e-01 9.497701e-02
vertex -7.786842e-02 7.863799e-01 9.497701e-02
vertex -7.585560e-02 7.881647e-01 9.497701e-02
endloop
endfacet
facet normal 0 0 0
outer loop
vertex -7.085638e-02 7.911866e-01 9.497701e-02
vertex -6.847378e-02 7.887102e-01 9.497701e-02
vertex -7.314044e-02 7.887102e-01 9.497701e-02
endloop
endfacet
facet normal 0 0 0
outer loop
vertex -7.130453e-02 7.866099e-01 9.497701e-02
vertex -7.100711e-02 7.847102e-01 9.497701e-02
vertex -7.365762e-02 7.847102e-01 9.497701e-02
endloop
endfacet
facet normal 0 0 0
outer loop
vertex -7.365762e-02 7.847102e-01 9.497701e-02
vertex -7.100711e-02 7.847102e-01 9.497701e-02
vertex -7.100711e-02 7.847102e-01 9.667701e-02
endloop
endfacet
facet normal 0 0 0
outer loop
vertex -7.847378e-02 7.847102e-01 9.497701e-02
vertex -7.520407e-02 7.862461e-01 9.497701e-02
vertex -7.365762e-02 7.847102e-01 9.497701e-02
endloop
endfacet
facet normal 0 0 0
outer loop
vertex -7.100711e-02 7.847102e-01 9.497701e-02
vertex -7.130453e-02 7.866099e-01 9.497701e-02
vertex -6.847378e-02 7.847102e-01 9.497701e-02
endloop
endfacet
facet normal 0 0 0
outer loop
vertex -7.100711e-02 7.847102e-01 9.497701e-02
vertex -6.847378e-02 7.847102e-01 9.497701e-02
vertex -7.100711e-02 7.847102e-01 9.667701e-02
endloop
endfacet
facet normal 0 0 0
outer loop
vertex -6.847378e-02 7.847102e-01 9.497701e-02
vertex -6.847378e-02 7.887102e-01 9.497701e-02
vertex -6.847378e-02 7.864631e-01 9.757525e-02
endloop
endfacet
facet normal 0 0 0
outer loop
vertex -6.847378e-02 7.847102e-01 9.497701e-02
vertex -7.130453e-02 7.866099e-01 9.497701e-02
vertex -6.847378e-02 7.887102e-01 9.497701e-02
endloop
endfacet
endsolid artifacts/general-tissue-mesher-2026-10-07/exact-control-volume.mesh__tracked_surface.stl
