MeshVersionFormatted 1
Dimension 3
Vertices
278
-0.08847377823651412 0.7847102135452696 0.09497701173951859 0
-0.08847377823651412 0.7847102135452696 0.1049770117395186 0
-0.08847377823651412 0.7951444960230614 0.09497701173951859 0
-0.08847377823651412 0.7947102135452696 0.1049770117395186 0
-0.08847377823651412 0.8047102135452696 0.09497701173951859 0
-0.08847377823651412 0.8047102135452696 0.1049770117395186 0
-0.07847377823651412 0.7847102135452696 0.09497701173951859 0
-0.07847377823651412 0.7847102135452696 0.1049770117395186 0
-0.07847377823651412 0.7947102135452696 0.09497701173951859 0
-0.07847377823651412 0.7947102135452696 0.1049770117395186 0
-0.07847377823651412 0.8047102135452696 0.09497701173951859 0
-0.07847377823651412 0.8047102135452696 0.1049770117395186 0
-0.06847377823651411 0.7847102135452696 0.09497701173951859 0
-0.06847377823651411 0.7847102135452696 0.1049770117395186 0
-0.06847377823651411 0.7947102135452696 0.09497701173951859 0
-0.06847377823651411 0.7947102135452696 0.1049770117395186 0
-0.08555476167154634 0.787150354887307 0.09811182476811064 0
-0.0860497334954929 0.7868473894794058 0.1004111013650649 0
-0.08554059683400211 0.7890703461452491 0.09817966060050749 0
-0.08592442999681658 0.7889180276074486 0.1001443711371304 0
-0.08616260059105861 0.7886142448506945 0.102545765088331 0
-0.08628987979096539 0.7908956797296358 0.0974343454896419 0
-0.08586443391364386 0.7908419956255938 0.1000263438850303 0
-0.08585428817481801 0.7910128542563153 0.102458012822679 0
-0.08593129456852222 0.7927656946571863 0.09982037604689578 0
-0.08612789549270951 0.792618466728966 0.1019167777444321 0
-0.08542802872025188 0.7950212829844924 0.09768591120569889 0
-0.08589273421529793 0.7948897985068302 0.1000477543843999 0
-0.08599249779505752 0.794420297612272 0.1022472673284876 0
-0.08628607347569235 0.7967814423755724 0.09983115882872984 0
-0.08620663854795525 0.7964242805979067 0.1026961892128782 0
-0.08581761146093446 0.7990638100657009 0.09763005505729198 0
-0.08585840064216146 0.7999383335278719 0.1000536874034557 0
-0.08657949643097336 0.7988258024471648 0.10257907769649 0
-0.08370717567546722 0.7865592229698107 0.1001096446363406 0
-0.08375423507416206 0.7866356810798442 0.1025737990862452 0
-0.08358308737954005 0.7889763570207977 0.0980994924193633 0
-0.08374054439067045 0.7887366549661654 0.1001129831891476 0
-0.08385763680885802 0.7887469958732335 0.1023107291385058 0
-0.08386037836771837 0.7907145437448182 0.09767435331375453 0
-0.08377110172133727 0.7907580220512304 0.1000116367678035 0
-0.08378293327298611 0.7907744712118675 0.1022756763803409 0
-0.08374394645308442 0.7933549002884139 0.09729995311675055 0
-0.08421287075801562 0.7925568432686914 0.09933794637752497 0
-0.08430023591927745 0.7923739781933572 0.1014022483569046 0
-0.084199559438799 0.7925593811187041 0.1035240392847607 0
-0.08350552607593804 0.7945326979991802 0.1002183465661705 0
-0.08366806553533815 0.7942517520416207 0.1024495344134265 0
-0.08359650061523591 0.7980871641431735 0.100242225859045 0
-0.08390451421401954 0.7967035577457343 0.102250950981137 0
-0.0835604144874169 0.7981937760257121 0.09771729100263486 0
-0.08392329380128878 0.7988612116108634 0.1026089630120953 0
-0.08390096034265944 0.8018880360720303 0.0976678688487421 0
-0.0841166738969629 0.801076529686529 0.1023970262303578 0
-0.08407582438302394 0.8026377832738024 0.1005062133185946 0
-0.08166014849096842 0.7865456522531521 0.1019805079512981 0
-0.08144020574703709 0.7867745892669901 0.1035873502835895 0
-0.08163235699764328 0.7882382846934761 0.09730849137889329 0
-0.08197123173341046 0.788414055136252 0.1023882329498318 0
-0.08202822142687835 0.7903340491115555 0.09940028793659196 0
-0.08112613970823157 0.792936798600457 0.09773580232888765 0
-0.0818792171532232 0.7926941308950317 0.101903449763784 0
-0.0817866196130511 0.7965557272248747 0.09762527191104786 0
-0.08123963763480987 0.7959728539232591 0.09992768565049669 0
-0.08182361016414182 0.7960201572156705 0.1026037152173807 0
-0.08119205011428542 0.7991048242449622 0.09728551150884045 0
-0.0813712946009231 0.798876762510022 0.09995624519250024 0
-0.08091507057227743 0.7982258127056889 0.1023005386150196 0
-0.08258124799352128 0.8005845731298583 0.09987620551100598 0
-0.08191797366696585 0.8004108806243013 0.1024140534072739 0
-0.08172509833841372 0.8028407481669122 0.09751958226693745 0
-0.08157233250226043 0.802438705330727 0.1018440876553017 0
-0.07960568142749123 0.7867260506915299 0.09656991682632041 0
-0.07953729415964027 0.7872542774694729 0.09930656317014251 0
-0.07888454883567063 0.7866411006431601 0.1021557997036348 0
-0.07896323334715596 0.7889038332961085 0.09750006208802228 0
-0.07964076184329955 0.788607950152564 0.1018868546886948 0
-0.07943428720912513 0.7912884408679676 0.0976036928749681 0
-0.0797371880090291 0.790886270623364 0.1003303762650492 0
-0.07999605123130177 0.7943301786291457 0.1024818870702897 0
-0.08016305453287347 0.8003317343967327 0.1024361770237776 0
-0.08014532654138457 0.8028625006246756 0.09948888084951686 0
-0.07733616013207913 0.7866946510727069 0.09726659776556359 0
-0.07721126697929689 0.7888041274487758 0.1000208842760837 0
-0.0766878109085861 0.790844390315422 0.09767681127989185 0
-0.07725455845848514 0.7909782541101009 0.1000722560073669 0
-0.07762667525028337 0.7902966441704613 0.1027555417759884 0
-0.07681111488467918 0.7930363230865719 0.0972335271879373 0
-0.07781594188932062 0.7928911217661874 0.09944953461076639 0
-0.0771220362783866 0.7926795864598627 0.1024136876729831 0
-0.07595621895863798 0.7869144282320233 0.1002237903660645 0
-0.07549479769263462 0.7885977715147613 0.09751647812984855 0
-0.07553426992705702 0.788444995139881 0.1022348400721032 0
-0.0750588842596752 0.7899862008310252 0.09985321549735714 0
-0.0757105694972298 0.7908545243973035 0.1018580818221289 0
-0.07531185180941596 0.7925813061501001 0.100045078607727 0
-0.07233066451827805 0.7872303545816717 0.09768576788369907 0
-0.07371194962028826 0.7864219712402131 0.1000029640408347 0
-0.07296496270739221 0.7872392462872473 0.1022156130480388 0
-0.07365408170722315 0.7920299094482104 0.09808308491992775 0
-0.07301161251224901 0.792670053793606 0.1019318834856901 0
-0.07095162088188263 0.7875196859405549 0.1006192681728637 0
-0.07109056296954233 0.7906208902124628 0.09757706779815652 0
-0.07101732971685037 0.791343326529335 0.09973962128350332 0
-0.08624230183132484 0.7939484820707738 0.1049770117395186 0
-0.08567100810307937 0.7981501044047303 0.1049770117395186 0
-0.08354784904046629 0.794909770184241 0.1049770117395186 0
-0.0835834424174573 0.798692378799433 0.1049770117395186 0
-0.08419497537016761 0.8008884974363578 0.1049770117395186 0
-0.08141480902613167 0.7949279220522774 0.1049770117395186 0
-0.08132208711741397 0.7982827359278923 0.1049770117395186 0
-0.08152801091289495 0.8007461611121118 0.1049770117395186 0
-0.07954044490318078 0.7932556680907241 0.1049770117395186 0
-0.08001781454224932 0.7964302764216792 0.1049770117395186 0
-0.07704030892934685 0.7881574636668406 0.1049770117395186 0
-0.07704724879261697 0.7920776109961237 0.1049770117395186 0
-0.07466054764028726 0.7870551393136906 0.1049770117395186 0
-0.07527377823651411 0.7907102135452696 0.1049770117395186 0
-0.07376815576549461 0.7929314436257306 0.1049770117395186 0
-0.07100711156984744 0.7932556680907241 0.1049770117395186 0
-0.07847377823651412 0.7967102135452696 0.09667701173951856 0
-0.07847377823651412 0.7968612627191506 0.1025645238969664 0
-0.07847377823651412 0.7987102135452696 0.09777701173951858 0
-0.07847377823651412 0.7997102135452696 0.1021770117395186 0
-0.07847377823651412 0.800612141962205 0.0999300417625147 0
-0.07847377823651412 0.8027102135452696 0.1021770117395186 0
-0.07847377823651412 0.7967102135452696 0.1049770117395186 0
-0.07847377823651412 0.7987102135452696 0.1049770117395186 0
-0.07847377823651412 0.8007102135452696 0.1049770117395186 0
-0.07954044490318078 0.7867102135452696 0.09497701173951859 0
-0.07954044490318078 0.7881647589998151 0.09497701173951859 0
-0.07798892975166562 0.7881647589998151 0.09497701173951859 0
-0.07794266394109887 0.7902031973647492 0.09497701173951859 0
-0.07954044490318078 0.7921647589998151 0.09497701173951859 0
-0.07786841731691374 0.7863799383467515 0.09497701173951859 0
-0.07585559641833228 0.7881647589998151 0.09497701173951859 0
-0.07717789749871433 0.7922134067238935 0.09497701173951859 0
-0.07520406541368224 0.786246085069405 0.09497701173951859 0
-0.07495927746570666 0.791926314895647 0.09497701173951859 0
-0.07314044490318078 0.7887102135452696 0.09497701173951859 0
-0.07085637614653342 0.791186616683389 0.09497701173951859 0
-0.08847377823651412 0.7949968562536944 0.09762852016586425 0
-0.08847377823651412 0.7947102135452696 0.09997701173951859 0
-0.08847377823651412 0.7963352135452696 0.1017645117395186 0
-0.08847377823651412 0.7944445539846134 0.1024686037318301 0
-0.08847377823651412 0.7962769134288915 0.1035953420546908 0
-0.08847377823651412 0.7983352135452696 0.09777701173951858 0
-0.08847377823651412 0.7987279373095468 0.09990482404157258 0
-0.08847377823651412 0.7987021030784366 0.1022251869828293 0
-0.08847377823651412 0.8023352135452696 0.1017645117395186 0
-0.08847377823651412 0.7867102135452696 0.09777701173951858 0
-0.08847377823651412 0.7887361075282802 0.09771261142260139 0
-0.08847377823651412 0.7904326849705625 0.09750674699679679 0
-0.08847377823651412 0.7881366633966533 0.1000131787672931 0
-0.08847377823651412 0.7903352135452696 0.09997701173951859 0
-0.08847377823651412 0.7925868172259108 0.09751531074118046 0
-0.08847377823651412 0.7927206538174364 0.1001290328651663 0
-0.08847377823651412 0.7903556877378589 0.1025315034404402 0
-0.08847377823651412 0.7923693197784846 0.1024741950410493 0
-0.08594044490318078 0.7847102135452696 0.09777701173951858 0
-0.08274044490318078 0.7847102135452696 0.09667701173951858 0
-0.08416162558998656 0.7847102135452696 0.09957432951863675 0
-0.08238052636401477 0.7847102135452696 0.1004713776076053 0
-0.08167377823651412 0.7847102135452696 0.1021770117395186 0
-0.07983355183714218 0.7847102135452696 0.09735628957466846 0
-0.0798038912498422 0.7847102135452696 0.09987018069315072 0
-0.07740711156984745 0.7847102135452696 0.09777701173951858 0
-0.07740711156984745 0.7847102135452696 0.1021770117395186 0
-0.08620665495573149 0.8003837844597145 0.09497701173951859 0
-0.08586011930055651 0.7971017866786169 0.09497701173951859 0
-0.08438892975166562 0.8001647589998151 0.09497701173951859 0
-0.08581911498799943 0.8030419869896707 0.09497701173951859 0
-0.08382367364954232 0.7985797077850347 0.09497701173951859 0
-0.08169726339554834 0.8007176587838241 0.09497701173951859 0
-0.08587224981371308 0.786449948838933 0.1049770117395186 0
-0.08594044490318078 0.7887102135452696 0.1049770117395186 0
-0.08293088129128783 0.7877623670558253 0.1049770117395186 0
-0.08435444670068259 0.7905569697040605 0.1049770117395186 0
-0.08167377823651412 0.7907102135452696 0.1049770117395186 0
-0.08188574592949815 0.7927762820056615 0.1049770117395186 0
-0.07923586955437663 0.7886430617636649 0.1049770117395186 0
-0.07936809004759725 0.7909395588958903 0.1049770117395186 0
-0.07535788043147822 0.7847102135452696 0.09754780594210102 0
-0.07563976134955365 0.7847102135452696 0.1002449701670465 0
-0.07420843863479119 0.7847102135452696 0.1025969144722908 0
-0.07275984936780862 0.7847102135452696 0.09872669784255943 0
-0.07259980499581858 0.7847102135452696 0.1006885330315703 0
-0.0708808031666405 0.7847102135452696 0.1021796036073324 0
-0.08847377823651412 0.8023648756369264 0.09809571611362798 0
-0.08847377823651412 0.7986637259419638 0.09497701173951859 0
-0.08847377823651412 0.8027402937591733 0.09497701173951859 0
-0.08470463862318758 0.7942268582126332 0.09497701173951859 0
-0.0821643784699161 0.7967743933637204 0.09497701173951859 0
-0.08162824277385226 0.7940486424432097 0.09497701173951859 0
-0.08027310458300319 0.7982741960903991 0.09497701173951859 0
-0.08012226308499895 0.8001647589998151 0.09497701173951859 0
-0.08020063849558086 0.8022443266784964 0.09497701173951859 0
-0.08847377823651412 0.7863352135452696 0.1017645117395186 0
-0.08847377823651412 0.7881689747594801 0.103578351065954 0
-0.08586227805744705 0.8047102135452696 0.0980949455807034 0
-0.08274044490318078 0.8047102135452696 0.09887701173951859 0
-0.08113584178278342 0.8047102135452696 0.1022153837066061 0
-0.08564953581227169 0.8047102135452696 0.09497701173951859 0
-0.08351620247893837 0.8047102135452696 0.09497701173951859 0
-0.08594044490318078 0.7847102135452696 0.1021770117395186 0
-0.08409034946129829 0.7847102135452696 0.1014642835009249 0
-0.08380711156984745 0.7847102135452696 0.1032770117395186 0
-0.08516468732742322 0.7847102135452696 0.1049770117395186 0
-0.08303135399408987 0.7847102135452696 0.1049770117395186 0
-0.08847377823651412 0.7847102135452696 0.09956451173951859 0
-0.08652245627738966 0.7914309227021178 0.1049770117395186 0
-0.08847377823651412 0.7925843394193954 0.1049770117395186 0
-0.08847377823651412 0.7883352135452696 0.1049770117395186 0
-0.08847377823651412 0.7903352135452696 0.1049770117395186 0
-0.08453437627155098 0.8047102135452696 0.1023174829028306 0
-0.08847377823651412 0.8047102135452696 0.1019707617395186 0
-0.08847377823651412 0.8047102135452696 0.09956451173951859 0
-0.0736576166203525 0.7847102135452696 0.1049770117395186 0
-0.07100711156984744 0.7847102135452696 0.1049770117395186 0
-0.07100711156984744 0.7887102135452696 0.1049770117395186 0
-0.07100711156984744 0.7847102135452696 0.09667701173951858 0
-0.06994044490318077 0.7847102135452696 0.09887701173951859 0
-0.08596156284272645 0.7885292289557971 0.09497701173951859 0
-0.08380711156984745 0.7847102135452696 0.09497701173951859 0
-0.08397276590383779 0.7908209234275716 0.09497701173951859 0
-0.08225559641833229 0.7901647589998151 0.09497701173951859 0
-0.08167377823651412 0.7861647589998151 0.09497701173951859 0
-0.08233303889647306 0.7847102135452696 0.09497701173951859 0
-0.08613408814324924 0.7909864725871777 0.09497701173951859 0
-0.08847377823651412 0.7883352135452696 0.09497701173951859 0
-0.08847377823651412 0.7903352135452696 0.09497701173951859 0
-0.08847377823651412 0.7923352135452696 0.09497701173951859 0
-0.07633344898260416 0.7947102135452696 0.09836347176197929 0
-0.07420711156984744 0.7947102135452696 0.09777701173951858 0
-0.07480264655465244 0.7947102135452696 0.09957309720841044 0
-0.07452465975470154 0.7947102135452696 0.1023329441584207 0
-0.07245647229362234 0.7947102135452696 0.1004171743204689 0
-0.071886439252142 0.7947102135452696 0.1031177982003872 0
-0.07088175529193445 0.7947102135452696 0.09811355940795737 0
-0.07024565963528238 0.7947102135452696 0.1010184261778698 0
-0.07498286914560504 0.7947102135452696 0.09497701173951859 0
-0.07207377823651412 0.7947102135452696 0.09497701173951859 0
-0.06847377823651411 0.7864630706038708 0.0975752476298264 0
-0.06847377823651411 0.7872399735745584 0.100133029403681 0
-0.06847377823651411 0.7863352135452696 0.1021770117395186 0
-0.06847377823651411 0.7894288083768443 0.09757311066582375 0
-0.06847377823651411 0.7893185894591872 0.1025867337774317 0
-0.06847377823651411 0.7847102135452696 0.09837284507285192 0
-0.06847377823651411 0.7847102135452696 0.1021770117395186 0
-0.06847377823651411 0.7913895966621527 0.1049770117395186 0
-0.06847377823651411 0.7887102135452696 0.1049770117395186 0
-0.08668702470924704 0.8008522386056204 0.1049770117395186 0
-0.08521670149816714 0.8029424937689165 0.1049770117395186 0
-0.08594044490318078 0.8047102135452696 0.1049770117395186 0
-0.0822555964183323 0.8047102135452696 0.1049770117395186 0
-0.0819107987724127 0.8028832227601315 0.1049770117395186 0
-0.08847377823651412 0.7972556680907241 0.1049770117395186 0
-0.08847377823651412 0.8003352135452696 0.1049770117395186 0
-0.08847377823651412 0.8023352135452696 0.1049770117395186 0
-0.07847377823651412 0.8023527394810015 0.09741292197419002 0
-0.07847377823651412 0.8030493092705628 0.09978289952364572 0
-0.07847377823651412 0.8047102135452696 0.09832701173951858 0
-0.07847377823651412 0.8047102135452696 0.1005270117395186 0
-0.07847377823651412 0.7977102135452696 0.09497701173951859 0
-0.07847377823651412 0.8001647589998151 0.09497701173951859 0
-0.07847377823651412 0.8021647589998151 0.09497701173951859 0
-0.06847377823651411 0.7927102135452696 0.09818951173951858 0
-0.06847377823651411 0.7917881420784564 0.1021348772637498 0
-0.06847377823651411 0.7947102135452696 0.09953013673951859 0
-0.07650854434224784 0.7947102135452696 0.1014266903987291 0
-0.07347728700844393 0.7947102135452696 0.1049770117395186 0
-0.07847377823651412 0.7947102135452696 0.09777701173951858 0
-0.07847377823651412 0.7947102135452696 0.1010770117395186 0
-0.07130453128177577 0.7866099719472243 0.09497701173951859 0
-0.0736576166203525 0.7847102135452696 0.09497701173951859 0
-0.07100711156984744 0.7847102135452696 0.09497701173951859 0
-0.06847377823651411 0.7887102135452696 0.09497701173951859 0
-0.06847377823651411 0.7907102135452696 0.09497701173951859 0
Triangles
0
Tetrahedra
992
90 118 87 95 0
111 65 68 114 0
111 68 65 50 0
181 182 87 77 0
73 76 74 83 0
84 93 75 91 0
92 83 183 91 0
230 223 229 22 0
27 44 25 22 0
74 75 84 77 0
51 53 66 171 0
176 175 21 177 0
36 56 59 57 0
98 94 99 102 0
99 94 101 102 0
131 58 73 76 0
159 105 211 24 0
134 137 88 85 0
151 223 19 17 0
233 88 100 96 0
32 171 51 173 0
98 185 99 91 0
74 58 165 166 0
48 180 46 62 0
42 178 21 39 0
205 35 36 206 0
48 26 29 25 0
260 66 125 82 0
72 82 69 55 0
253 72 54 55 0
83 76 84 92 0
73 76 83 132 0
181 75 115 8 0
246 277 243 274 0
134 78 133 85 0
170 3 27 147 0
243 102 246 97 0
31 143 30 28 0
85 89 86 96 0
61 60 79 62 0
141 15 239 267 0
246 102 244 268 0
100 104 103 239 0
181 59 182 77 0
47 45 25 44 0
79 87 86 90 0
81 70 68 111 0
38 58 37 60 0
57 56 59 77 0
85 78 76 86 0
161 227 224 58 0
101 94 96 100 0
41 60 40 61 0
62 79 59 60 0
70 49 68 52 0
61 60 40 226 0
42 39 179 178 0
152 23 19 22 0
155 153 23 152 0
85 88 100 139 0
61 44 47 43 0
50 52 30 31 0
140 141 246 277 0
22 44 25 23 0
153 23 22 25 0
54 49 52 33 0
194 61 63 43 0
31 146 34 144 0
58 79 226 60 0
126 125 82 261 0
61 62 80 64 0
54 33 69 49 0
150 148 189 33 0
63 64 67 51 0
71 66 171 174 0
150 215 253 55 0
12 202 126 256 0
202 72 126 256 0
71 82 66 260 0
149 34 144 148 0
200 189 191 147 0
22 19 40 41 0
145 29 157 143 0
170 173 169 32 0
46 26 48 45 0
28 25 27 47 0
37 223 58 17 0
170 173 32 51 0
169 53 32 171 0
169 172 200 53 0
71 174 204 197 0
81 128 111 68 0
111 65 110 107 0
37 223 40 226 0
69 67 70 49 0
100 239 237 104 0
267 240 239 104 0
128 122 68 124 0
69 67 125 81 0
71 196 66 174 0
253 54 252 150 0
113 110 80 62 0
220 247 102 268 0
171 53 32 51 0
72 69 82 125 0
111 112 52 108 0
47 62 48 45 0
87 93 84 95 0
61 43 47 64 0
119 118 116 90 0
116 87 118 115 0
104 97 102 94 0
237 104 240 101 0
263 202 201 82 0
169 171 32 173 0
92 85 133 76 0
61 134 78 226 0
170 32 27 51 0
95 93 84 94 0
204 171 71 172 0
126 202 263 82 0
64 47 27 43 0
51 66 63 193 0
134 78 85 88 0
188 102 99 220 0
226 40 61 225 0
41 44 45 62 0
278 267 15 141 0
97 100 103 140 0
267 141 278 246 0
97 103 246 140 0
100 239 103 141 0
188 102 220 245 0
139 141 242 100 0
139 141 100 140 0
271 238 119 236 0
85 96 88 89 0
97 104 103 100 0
104 102 97 246 0
85 86 89 78 0
97 103 104 246 0
133 139 137 85 0
92 100 139 85 0
85 78 89 88 0
139 100 241 88 0
85 86 94 96 0
85 100 96 94 0
85 96 100 88 0
226 225 223 40 0
84 92 94 91 0
92 85 139 133 0
43 232 22 27 0
133 78 226 76 0
223 225 229 40 0
97 92 100 140 0
141 267 239 103 0
139 100 92 140 0
246 243 97 274 0
246 277 274 140 0
141 267 103 246 0
141 103 140 246 0
118 95 93 87 0
100 140 141 103 0
237 101 240 238 0
13 221 243 274 0
41 42 59 62 0
75 91 93 168 0
274 140 97 246 0
102 97 243 222 0
138 97 274 140 0
133 92 132 136 0
138 140 92 97 0
138 92 83 183 0
138 92 136 83 0
136 133 92 139 0
226 79 78 61 0
74 84 79 77 0
157 29 159 26 0
84 83 92 91 0
118 115 87 93 0
198 176 2 175 0
29 26 48 46 0
275 274 97 221 0
238 16 120 268 0
77 93 75 84 0
269 267 239 15 0
237 100 101 96 0
96 94 95 86 0
77 87 84 79 0
267 104 268 240 0
267 104 103 246 0
94 104 100 101 0
267 104 246 268 0
118 117 115 93 0
267 239 103 104 0
101 104 240 268 0
101 104 100 237 0
41 37 60 38 0
99 220 93 117 0
102 97 98 94 0
94 91 92 98 0
94 100 97 92 0
94 97 98 92 0
94 93 91 99 0
94 100 104 97 0
96 86 90 89 0
102 268 246 104 0
102 268 104 101 0
220 101 268 102 0
99 93 220 101 0
99 93 101 94 0
102 94 101 104 0
84 87 86 79 0
118 101 220 93 0
118 93 95 101 0
79 76 78 86 0
87 84 86 95 0
21 211 176 178 0
90 118 116 87 0
101 90 96 95 0
35 56 163 58 0
95 93 94 101 0
95 86 94 84 0
118 220 117 93 0
95 96 101 94 0
90 101 119 118 0
95 86 87 90 0
37 226 58 223 0
79 86 78 89 0
95 90 96 86 0
101 118 90 95 0
113 10 90 80 0
35 59 39 36 0
61 79 60 226 0
18 205 210 160 0
220 245 14 188 0
179 182 59 62 0
220 99 101 102 0
87 182 90 79 0
183 91 98 92 0
84 93 91 94 0
91 83 183 167 0
77 182 87 79 0
168 185 117 8 0
99 94 98 91 0
99 91 185 93 0
177 182 59 179 0
43 192 194 225 0
178 42 180 179 0
74 79 84 76 0
113 90 79 80 0
21 36 177 175 0
75 93 77 115 0
58 76 226 79 0
18 198 210 205 0
198 21 154 199 0
22 223 40 19 0
47 45 44 62 0
21 177 39 178 0
181 87 116 115 0
77 87 181 115 0
8 168 75 115 0
181 75 57 77 0
175 205 207 208 0
89 273 90 270 0
180 110 113 62 0
79 89 90 86 0
181 182 116 87 0
36 59 39 177 0
20 38 17 19 0
57 56 77 75 0
36 57 59 177 0
177 175 207 208 0
46 211 24 178 0
181 115 75 77 0
182 90 116 87 0
48 25 45 26 0
24 158 211 159 0
21 36 39 177 0
207 205 175 36 0
111 108 52 50 0
35 56 59 36 0
46 105 26 24 0
42 59 62 179 0
177 59 182 181 0
69 125 67 66 0
46 62 45 48 0
70 256 112 81 0
65 62 64 80 0
179 62 113 182 0
79 62 59 182 0
46 24 45 42 0
46 62 42 45 0
55 54 150 33 0
31 143 28 29 0
46 45 24 26 0
84 76 79 86 0
79 182 90 113 0
34 54 150 252 0
69 67 49 51 0
24 26 159 105 0
42 179 62 180 0
41 62 60 61 0
76 79 78 226 0
46 26 105 29 0
73 74 76 58 0
50 49 30 52 0
41 40 37 19 0
41 59 42 38 0
65 48 47 62 0
77 182 79 59 0
37 226 60 58 0
37 40 60 226 0
77 115 93 87 0
84 93 87 77 0
83 166 91 74 0
177 57 59 181 0
207 36 175 177 0
117 115 168 8 0
21 178 176 177 0
177 59 39 179 0
57 181 77 59 0
42 59 179 39 0
48 110 62 65 0
178 179 177 39 0
23 24 42 45 0
62 79 113 182 0
24 211 21 178 0
46 211 105 24 0
175 208 2 205 0
35 163 162 161 0
36 21 18 205 0
84 86 94 85 0
28 156 142 27 0
180 48 107 110 0
43 47 27 44 0
31 105 146 145 0
21 18 39 36 0
17 35 161 58 0
24 178 21 42 0
65 80 110 62 0
43 225 40 229 0
92 76 84 85 0
62 80 113 79 0
48 47 45 25 0
122 67 123 64 0
23 45 42 41 0
107 29 48 46 0
166 75 74 56 0
46 42 178 24 0
31 145 146 144 0
46 180 42 62 0
46 48 107 180 0
63 67 66 51 0
20 17 151 19 0
41 40 44 61 0
22 40 44 41 0
159 29 105 26 0
105 29 107 46 0
31 30 143 144 0
107 29 105 31 0
20 151 17 18 0
199 21 214 176 0
61 225 43 194 0
41 44 62 61 0
50 28 31 30 0
20 17 38 18 0
43 27 22 44 0
65 48 110 107 0
41 38 19 37 0
28 25 47 48 0
28 29 25 48 0
212 159 105 211 0
34 30 148 33 0
158 24 211 21 0
105 46 107 178 0
209 208 177 207 0
198 176 21 199 0
198 205 21 175 0
198 176 199 2 0
198 205 175 2 0
41 59 38 60 0
198 175 21 176 0
58 227 226 131 0
27 22 25 156 0
152 19 223 22 0
73 74 165 83 0
152 22 153 23 0
35 18 36 39 0
17 224 223 58 0
122 68 67 64 0
92 94 100 85 0
161 58 163 166 0
58 56 163 166 0
134 226 133 78 0
161 73 58 165 0
73 135 83 7 0
43 40 225 61 0
152 22 223 230 0
58 76 79 74 0
230 22 229 231 0
230 231 153 22 0
111 68 50 52 0
152 230 223 151 0
23 42 20 41 0
153 25 156 157 0
153 25 22 156 0
232 142 27 3 0
20 42 39 38 0
258 106 146 34 0
151 19 223 152 0
165 73 58 74 0
32 147 170 27 0
32 27 30 147 0
43 40 44 22 0
28 25 157 156 0
58 224 226 227 0
74 56 75 77 0
28 156 27 25 0
61 225 194 226 0
131 133 226 76 0
43 44 40 61 0
152 153 22 230 0
41 45 42 62 0
137 139 88 85 0
43 232 229 22 0
123 260 196 66 0
20 39 21 18 0
152 151 19 20 0
43 229 192 225 0
232 27 142 156 0
28 30 27 142 0
157 26 25 29 0
43 229 232 192 0
80 64 122 273 0
149 258 146 34 0
63 121 123 272 0
20 18 38 39 0
38 35 18 17 0
134 61 194 226 0
84 86 85 76 0
27 47 25 44 0
20 21 39 42 0
22 41 44 23 0
58 79 60 59 0
20 42 24 21 0
134 137 85 133 0
38 58 17 37 0
89 78 79 61 0
133 78 76 85 0
38 35 17 58 0
27 3 142 147 0
23 45 41 44 0
23 45 44 25 0
61 80 62 79 0
89 61 272 78 0
272 194 134 61 0
258 252 106 34 0
272 134 78 61 0
61 80 79 273 0
71 53 66 82 0
108 34 52 31 0
58 224 223 226 0
123 67 66 63 0
92 94 85 84 0
132 135 83 73 0
58 79 59 77 0
58 79 77 74 0
58 77 59 56 0
58 77 56 74 0
58 35 56 59 0
19 37 38 17 0
28 49 47 27 0
23 25 26 45 0
41 60 62 59 0
23 24 45 26 0
41 19 38 20 0
41 40 60 37 0
43 229 40 22 0
41 38 42 20 0
19 40 37 223 0
23 24 20 42 0
38 39 59 42 0
38 60 59 58 0
38 59 39 35 0
38 35 58 59 0
38 18 35 39 0
28 29 157 25 0
155 25 26 23 0
28 157 29 143 0
28 142 143 30 0
22 41 23 19 0
18 21 198 205 0
22 229 40 223 0
23 20 19 41 0
231 156 22 232 0
27 142 30 147 0
28 142 156 143 0
154 20 151 152 0
28 156 157 143 0
28 49 27 30 0
232 156 22 27 0
170 51 192 193 0
231 232 22 229 0
193 9 121 194 0
155 26 24 23 0
152 20 19 23 0
155 23 153 25 0
153 156 22 231 0
19 17 223 37 0
155 157 25 153 0
155 26 25 157 0
155 159 24 26 0
155 26 157 159 0
20 152 155 23 0
20 24 23 155 0
199 21 154 158 0
33 30 148 147 0
145 29 105 159 0
126 72 82 125 0
33 32 147 200 0
33 30 147 32 0
69 32 49 33 0
194 272 63 61 0
147 30 148 142 0
109 54 52 34 0
145 159 157 29 0
43 27 192 232 0
143 148 30 142 0
64 47 49 27 0
69 32 53 51 0
70 112 111 81 0
32 49 30 27 0
171 174 66 173 0
49 32 30 33 0
200 147 191 32 0
194 192 63 193 0
34 33 148 150 0
51 49 64 67 0
69 82 125 66 0
64 61 63 272 0
107 29 31 50 0
111 50 107 108 0
63 27 43 64 0
61 47 44 62 0
64 49 68 67 0
63 192 43 27 0
51 27 64 49 0
51 49 32 27 0
63 194 43 192 0
63 192 27 51 0
63 61 64 43 0
63 27 64 51 0
9 137 88 134 0
9 134 272 194 0
194 63 272 121 0
171 66 71 53 0
173 51 66 171 0
9 193 121 195 0
194 121 193 63 0
51 63 192 193 0
193 195 66 63 0
193 63 121 195 0
55 69 54 33 0
32 200 169 191 0
53 32 200 169 0
204 71 171 174 0
71 197 196 174 0
71 260 66 196 0
201 82 55 53 0
150 33 200 55 0
260 71 197 196 0
53 172 171 169 0
53 71 171 172 0
5 191 172 200 0
5 191 200 189 0
202 256 253 72 0
189 5 217 200 0
50 48 29 28 0
65 47 64 62 0
72 81 69 125 0
69 49 32 51 0
72 256 54 70 0
33 148 189 147 0
31 105 145 29 0
108 52 34 109 0
149 34 146 144 0
70 69 49 54 0
189 200 33 147 0
34 52 33 54 0
146 105 212 145 0
34 30 33 52 0
34 54 33 150 0
70 52 54 49 0
52 30 33 49 0
108 112 52 109 0
144 30 143 148 0
144 30 148 34 0
107 29 50 48 0
111 107 50 65 0
50 30 49 28 0
114 65 110 111 0
31 52 30 34 0
31 144 34 30 0
31 29 145 143 0
122 65 64 80 0
31 144 143 145 0
64 273 80 61 0
50 28 29 31 0
64 47 61 62 0
50 48 28 47 0
50 49 47 28 0
50 68 49 52 0
50 31 108 52 0
107 108 50 31 0
65 47 49 64 0
65 49 47 50 0
65 49 68 64 0
65 68 49 50 0
65 47 48 50 0
107 48 50 65 0
111 68 52 70 0
253 54 150 55 0
114 110 65 80 0
70 68 67 81 0
128 111 68 114 0
123 196 260 266 0
69 82 66 53 0
72 54 69 70 0
72 69 81 70 0
126 72 125 81 0
69 66 67 51 0
70 67 68 49 0
69 53 66 51 0
70 111 112 52 0
70 52 112 54 0
70 54 112 256 0
69 81 70 67 0
55 32 200 53 0
55 32 53 69 0
55 53 82 69 0
55 200 32 33 0
55 33 32 69 0
126 81 256 72 0
72 70 81 256 0
253 256 54 72 0
55 69 72 54 0
216 200 215 150 0
215 200 55 150 0
21 211 214 176 0
202 253 55 72 0
105 106 31 146 0
105 106 146 257 0
106 109 108 34 0
109 52 54 112 0
256 81 129 112 0
180 113 179 62 0
122 68 64 65 0
105 46 178 211 0
106 108 31 34 0
272 121 9 194 0
111 81 129 128 0
112 81 129 111 0
270 96 90 89 0
113 114 80 110 0
114 113 80 10 0
31 106 105 107 0
106 34 31 146 0
109 34 106 252 0
109 54 34 252 0
256 54 109 253 0
252 109 54 253 0
257 146 105 4 0
101 220 119 118 0
101 238 268 240 0
273 89 233 270 0
220 101 120 268 0
220 245 251 14 0
273 61 64 272 0
64 273 272 123 0
63 64 272 123 0
64 67 123 63 0
124 68 128 81 0
66 125 67 123 0
122 68 65 114 0
123 64 273 122 0
80 114 122 65 0
122 114 80 10 0
122 128 68 114 0
124 123 67 125 0
129 126 81 256 0
67 123 124 122 0
68 67 124 122 0
124 68 81 67 0
124 125 67 81 0
81 124 125 126 0
256 126 12 129 0
129 81 124 128 0
128 114 122 127 0
127 114 122 10 0
113 90 116 182 0
195 265 196 123 0
123 66 125 260 0
113 90 10 116 0
272 88 89 78 0
273 89 90 79 0
123 195 121 63 0
90 273 79 80 0
272 88 78 134 0
273 89 79 61 0
89 61 273 272 0
123 63 66 195 0
272 88 134 9 0
132 136 83 135 0
138 83 136 135 0
138 92 140 136 0
76 133 92 132 0
132 92 83 136 0
132 76 83 92 0
131 76 73 132 0
258 34 149 150 0
258 252 34 150 0
189 200 150 33 0
146 212 105 4 0
150 34 149 148 0
190 169 32 170 0
150 253 215 216 0
212 145 105 159 0
158 199 21 214 0
154 20 152 155 0
158 155 159 24 0
21 24 20 155 0
158 214 21 211 0
158 211 212 214 0
154 151 20 18 0
154 155 158 21 0
158 155 24 21 0
83 76 74 84 0
74 83 166 165 0
161 73 227 58 0
35 17 161 160 0
166 168 75 8 0
164 57 75 56 0
117 168 93 185 0
164 75 57 8 0
185 117 220 99 0
75 56 166 164 0
83 74 91 84 0
161 163 58 35 0
73 7 165 161 0
160 224 223 17 0
74 56 58 166 0
161 227 73 7 0
164 36 206 207 0
164 56 36 57 0
160 151 223 1 0
224 17 160 161 0
161 224 17 58 0
165 73 83 7 0
163 56 35 36 0
177 57 209 207 0
167 91 83 166 0
166 74 75 91 0
168 115 93 75 0
160 35 17 18 0
170 51 27 192 0
264 195 123 265 0
123 195 66 196 0
82 260 261 125 0
66 195 193 173 0
147 32 190 191 0
207 36 177 57 0
177 57 181 8 0
181 57 75 8 0
46 180 107 178 0
180 42 178 46 0
99 188 185 187 0
188 185 220 99 0
184 185 187 98 0
168 93 115 117 0
91 74 75 84 0
185 99 187 98 0
183 184 98 91 0
99 102 187 98 0
168 184 91 185 0
91 166 184 168 0
117 93 99 185 0
168 91 93 185 0
167 184 91 166 0
166 91 75 168 0
186 97 222 221 0
165 83 166 167 0
164 166 75 8 0
165 83 167 7 0
222 221 97 243 0
187 186 98 102 0
187 99 188 102 0
222 221 243 13 0
7 135 83 138 0
183 92 98 97 0
275 138 97 274 0
190 191 32 169 0
150 6 253 216 0
191 172 200 169 0
190 170 147 3 0
190 32 147 170 0
193 170 51 173 0
173 51 193 66 0
196 195 66 174 0
66 173 174 195 0
192 27 3 232 0
159 158 211 212 0
18 21 154 198 0
210 18 154 198 0
154 18 20 21 0
21 20 154 155 0
48 180 62 110 0
210 18 151 154 0
202 72 82 126 0
204 71 11 201 0
11 71 204 197 0
204 71 201 172 0
11 71 197 260 0
201 53 172 71 0
172 204 200 201 0
53 172 200 201 0
201 82 53 71 0
201 55 200 53 0
55 202 72 82 0
55 202 82 201 0
172 204 203 200 0
200 215 55 201 0
36 206 207 205 0
36 21 205 175 0
210 205 198 2 0
205 18 36 35 0
162 163 35 206 0
151 18 210 160 0
160 18 17 151 0
160 210 151 1 0
160 151 17 223 0
161 162 35 160 0
58 161 165 166 0
206 163 35 36 0
164 206 36 163 0
164 36 56 163 0
57 164 209 207 0
209 164 57 8 0
207 36 57 164 0
205 18 35 160 0
205 160 35 162 0
205 162 35 206 0
209 57 177 8 0
163 166 56 164 0
214 199 176 213 0
199 213 2 176 0
253 55 215 202 0
254 216 253 6 0
254 215 253 216 0
253 215 254 255 0
200 150 216 217 0
217 200 150 189 0
172 203 5 200 0
55 201 215 202 0
220 185 219 218 0
120 119 101 220 0
245 251 247 220 0
220 185 218 117 0
218 117 185 8 0
183 138 92 97 0
221 274 97 243 0
97 221 186 275 0
186 102 97 98 0
102 244 222 243 0
102 186 97 222 0
102 188 222 244 0
98 184 185 91 0
98 186 184 183 0
184 98 187 186 0
184 167 91 183 0
167 7 83 183 0
183 83 138 7 0
186 97 275 183 0
186 98 97 183 0
275 183 138 7 0
275 97 138 183 0
222 188 102 187 0
102 187 186 222 0
220 188 219 185 0
219 188 220 14 0
227 73 130 131 0
58 131 226 76 0
130 73 227 7 0
131 227 73 58 0
131 133 76 132 0
132 73 130 135 0
131 73 130 132 0
130 135 73 7 0
228 227 161 7 0
227 161 224 228 0
224 1 160 223 0
170 27 3 192 0
230 151 1 223 0
237 100 234 239 0
239 237 104 240 0
141 239 15 242 0
241 100 139 242 0
236 90 101 119 0
100 96 237 235 0
100 242 234 239 0
100 141 242 239 0
100 242 241 234 0
240 238 268 16 0
101 238 237 236 0
270 236 90 96 0
236 101 90 96 0
241 139 88 9 0
100 88 233 241 0
88 241 9 233 0
233 88 96 89 0
238 120 101 268 0
236 119 10 90 0
10 119 116 90 0
238 119 101 120 0
233 100 234 235 0
233 241 234 100 0
236 96 237 101 0
270 90 236 10 0
139 137 88 9 0
268 102 244 247 0
243 102 244 246 0
245 220 247 102 0
245 247 244 102 0
245 102 244 188 0
248 222 243 13 0
250 247 251 220 0
250 268 220 120 0
250 268 120 16 0
220 268 250 247 0
245 188 249 14 0
243 222 248 244 0
244 222 248 249 0
244 222 249 188 0
244 188 249 245 0
277 141 246 278 0
255 253 215 202 0
108 31 107 106 0
109 112 54 256 0
257 258 106 146 0
252 259 150 258 0
252 150 259 253 0
150 6 259 253 0
253 202 255 256 0
255 256 202 12 0
81 124 126 129 0
195 121 264 123 0
121 195 264 9 0
263 202 126 12 0
71 201 262 11 0
197 266 11 260 0
196 266 197 260 0
265 266 196 123 0
82 201 262 71 0
82 71 262 260 0
261 82 262 260 0
262 71 11 260 0
82 263 126 261 0
261 82 263 262 0
82 201 263 262 0
268 240 269 267 0
267 240 269 239 0
269 240 268 16 0
233 272 89 273 0
88 272 89 233 0
80 90 273 10 0
270 273 90 10 0
119 271 236 10 0
100 237 234 235 0
235 233 100 96 0
271 120 238 16 0
271 120 119 238 0
236 119 101 238 0
270 236 96 235 0
237 96 236 235 0
270 96 89 233 0
96 235 233 270 0
272 233 88 9 0
10 122 273 80 0
136 139 92 140 0
276 274 275 221 0
276 274 221 13 0
277 243 274 13 0
End