v -0.088473778236514117 0.7847102135452696 0.094977011739518585
v -0.078473778236514122 0.7847102135452696 0.094977011739518585
v -0.078473778236514122 0.79471021354526961 0.094977011739518585
v -0.078473778236514122 0.79471021354526961 0.10497701173951858
v -0.078473778236514122 0.7847102135452696 0.10497701173951858
v -0.088473778236514117 0.79471021354526961 0.094977011739518585
v -0.088473778236514117 0.79471021354526961 0.10497701173951858
v -0.088473778236514117 0.7847102135452696 0.10497701173951858
v -0.078473778236514122 0.80471021354526961 0.094977011739518585
v -0.078473778236514122 0.80471021354526961 0.10497701173951858
v -0.088473778236514117 0.80471021354526961 0.094977011739518585
v -0.088473778236514117 0.80471021354526961 0.10497701173951858
v -0.068473778236514113 0.7847102135452696 0.094977011739518585
v -0.068473778236514113 0.79471021354526961 0.094977011739518585
v -0.068473778236514113 0.79471021354526961 0.10497701173951858
v -0.068473778236514113 0.7847102135452696 0.10497701173951858
f 1 3 2
f 1 2 5
f 1 6 3
f 1 5 8
f 1 7 6
f 1 8 7
f 2 3 14
f 2 16 5
f 2 14 13
f 2 13 16
f 4 3 10
f 3 4 15
f 6 9 3
f 3 9 10
f 14 3 15
f 8 5 4
f 4 5 15
f 7 8 4
f 7 4 10
f 5 16 15
f 6 7 12
f 6 11 9
f 6 12 11
f 12 7 10
f 9 11 10
f 11 12 10
f 13 14 15
f 16 13 15
