# Closed outward-wound handle for skeletal grasp preview
v 0.02000000 0.00000000 -0.06000000
v 0.01961571 0.00390181 -0.06000000
v 0.01847759 0.00765367 -0.06000000
v 0.01662939 0.01111140 -0.06000000
v 0.01414214 0.01414214 -0.06000000
v 0.01111140 0.01662939 -0.06000000
v 0.00765367 0.01847759 -0.06000000
v 0.00390181 0.01961571 -0.06000000
v 0.00000000 0.02000000 -0.06000000
v -0.00390181 0.01961571 -0.06000000
v -0.00765367 0.01847759 -0.06000000
v -0.01111140 0.01662939 -0.06000000
v -0.01414214 0.01414214 -0.06000000
v -0.01662939 0.01111140 -0.06000000
v -0.01847759 0.00765367 -0.06000000
v -0.01961571 0.00390181 -0.06000000
v -0.02000000 0.00000000 -0.06000000
v -0.01961571 -0.00390181 -0.06000000
v -0.01847759 -0.00765367 -0.06000000
v -0.01662939 -0.01111140 -0.06000000
v -0.01414214 -0.01414214 -0.06000000
v -0.01111140 -0.01662939 -0.06000000
v -0.00765367 -0.01847759 -0.06000000
v -0.00390181 -0.01961571 -0.06000000
v -0.00000000 -0.02000000 -0.06000000
v 0.00390181 -0.01961571 -0.06000000
v 0.00765367 -0.01847759 -0.06000000
v 0.01111140 -0.01662939 -0.06000000
v 0.01414214 -0.01414214 -0.06000000
v 0.01662939 -0.01111140 -0.06000000
v 0.01847759 -0.00765367 -0.06000000
v 0.01961571 -0.00390181 -0.06000000
v 0.01200000 0.00000000 -0.03500000
v 0.01176942 0.00234108 -0.03500000
v 0.01108655 0.00459220 -0.03500000
v 0.00997764 0.00666684 -0.03500000
v 0.00848528 0.00848528 -0.03500000
v 0.00666684 0.00997764 -0.03500000
v 0.00459220 0.01108655 -0.03500000
v 0.00234108 0.01176942 -0.03500000
v 0.00000000 0.01200000 -0.03500000
v -0.00234108 0.01176942 -0.03500000
v -0.00459220 0.01108655 -0.03500000
v -0.00666684 0.00997764 -0.03500000
v -0.00848528 0.00848528 -0.03500000
v -0.00997764 0.00666684 -0.03500000
v -0.01108655 0.00459220 -0.03500000
v -0.01176942 0.00234108 -0.03500000
v -0.01200000 0.00000000 -0.03500000
v -0.01176942 -0.00234108 -0.03500000
v -0.01108655 -0.00459220 -0.03500000
v -0.00997764 -0.00666684 -0.03500000
v -0.00848528 -0.00848528 -0.03500000
v -0.00666684 -0.00997764 -0.03500000
v -0.00459220 -0.01108655 -0.03500000
v -0.00234108 -0.01176942 -0.03500000
v -0.00000000 -0.01200000 -0.03500000
v 0.00234108 -0.01176942 -0.03500000
v 0.00459220 -0.01108655 -0.03500000
v 0.00666684 -0.00997764 -0.03500000
v 0.00848528 -0.00848528 -0.03500000
v 0.00997764 -0.00666684 -0.03500000
v 0.01108655 -0.00459220 -0.03500000
v 0.01176942 -0.00234108 -0.03500000
v 0.01200000 0.00000000 0.03500000
v 0.01176942 0.00234108 0.03500000
v 0.01108655 0.00459220 0.03500000
v 0.00997764 0.00666684 0.03500000
v 0.00848528 0.00848528 0.03500000
v 0.00666684 0.00997764 0.03500000
v 0.00459220 0.01108655 0.03500000
v 0.00234108 0.01176942 0.03500000
v 0.00000000 0.01200000 0.03500000
v -0.00234108 0.01176942 0.03500000
v -0.00459220 0.01108655 0.03500000
v -0.00666684 0.00997764 0.03500000
v -0.00848528 0.00848528 0.03500000
v -0.00997764 0.00666684 0.03500000
v -0.01108655 0.00459220 0.03500000
v -0.01176942 0.00234108 0.03500000
v -0.01200000 0.00000000 0.03500000
v -0.01176942 -0.00234108 0.03500000
v -0.01108655 -0.00459220 0.03500000
v -0.00997764 -0.00666684 0.03500000
v -0.00848528 -0.00848528 0.03500000
v -0.00666684 -0.00997764 0.03500000
v -0.00459220 -0.01108655 0.03500000
v -0.00234108 -0.01176942 0.03500000
v -0.00000000 -0.01200000 0.03500000
v 0.00234108 -0.01176942 0.03500000
v 0.00459220 -0.01108655 0.03500000
v 0.00666684 -0.00997764 0.03500000
v 0.00848528 -0.00848528 0.03500000
v 0.00997764 -0.00666684 0.03500000
v 0.01108655 -0.00459220 0.03500000
v 0.01176942 -0.00234108 0.03500000
v 0.02500000 0.00000000 0.06000000
v 0.02451963 0.00487726 0.06000000
v 0.02309699 0.00956709 0.06000000
v 0.02078674 0.01388926 0.06000000
v 0.01767767 0.01767767 0.06000000
v 0.01388926 0.02078674 0.06000000
v 0.00956709 0.02309699 0.06000000
v 0.00487726 0.02451963 0.06000000
v 0.00000000 0.02500000 0.06000000
v -0.00487726 0.02451963 0.06000000
v -0.00956709 0.02309699 0.06000000
v -0.01388926 0.02078674 0.06000000
v -0.01767767 0.01767767 0.06000000
v -0.02078674 0.01388926 0.06000000
v -0.02309699 0.00956709 0.06000000
v -0.02451963 0.00487726 0.06000000
v -0.02500000 0.00000000 0.06000000
v -0.02451963 -0.00487726 0.06000000
v -0.02309699 -0.00956709 0.06000000
v -0.02078674 -0.01388926 0.06000000
v -0.01767767 -0.01767767 0.06000000
v -0.01388926 -0.02078674 0.06000000
v -0.00956709 -0.02309699 0.06000000
v -0.00487726 -0.02451963 0.06000000
v -0.00000000 -0.02500000 0.06000000
v 0.00487726 -0.02451963 0.06000000
v 0.00956709 -0.02309699 0.06000000
v 0.01388926 -0.02078674 0.06000000
v 0.01767767 -0.01767767 0.06000000
v 0.02078674 -0.01388926 0.06000000
v 0.02309699 -0.00956709 0.06000000
v 0.02451963 -0.00487726 0.06000000
v 0.00000000 0.00000000 -0.06000000
v 0.00000000 0.00000000 0.06000000
f 1 2 33
f 2 34 33
f 2 3 34
f 3 35 34
f 3 4 35
f 4 36 35
f 4 5 36
f 5 37 36
f 5 6 37
f 6 38 37
f 6 7 38
f 7 39 38
f 7 8 39
f 8 40 39
f 8 9 40
f 9 41 40
f 9 10 41
f 10 42 41
f 10 11 42
f 11 43 42
f 11 12 43
f 12 44 43
f 12 13 44
f 13 45 44
f 13 14 45
f 14 46 45
f 14 15 46
f 15 47 46
f 15 16 47
f 16 48 47
f 16 17 48
f 17 49 48
f 17 18 49
f 18 50 49
f 18 19 50
f 19 51 50
f 19 20 51
f 20 52 51
f 20 21 52
f 21 53 52
f 21 22 53
f 22 54 53
f 22 23 54
f 23 55 54
f 23 24 55
f 24 56 55
f 24 25 56
f 25 57 56
f 25 26 57
f 26 58 57
f 26 27 58
f 27 59 58
f 27 28 59
f 28 60 59
f 28 29 60
f 29 61 60
f 29 30 61
f 30 62 61
f 30 31 62
f 31 63 62
f 31 32 63
f 32 64 63
f 32 1 64
f 1 33 64
f 33 34 65
f 34 66 65
f 34 35 66
f 35 67 66
f 35 36 67
f 36 68 67
f 36 37 68
f 37 69 68
f 37 38 69
f 38 70 69
f 38 39 70
f 39 71 70
f 39 40 71
f 40 72 71
f 40 41 72
f 41 73 72
f 41 42 73
f 42 74 73
f 42 43 74
f 43 75 74
f 43 44 75
f 44 76 75
f 44 45 76
f 45 77 76
f 45 46 77
f 46 78 77
f 46 47 78
f 47 79 78
f 47 48 79
f 48 80 79
f 48 49 80
f 49 81 80
f 49 50 81
f 50 82 81
f 50 51 82
f 51 83 82
f 51 52 83
f 52 84 83
f 52 53 84
f 53 85 84
f 53 54 85
f 54 86 85
f 54 55 86
f 55 87 86
f 55 56 87
f 56 88 87
f 56 57 88
f 57 89 88
f 57 58 89
f 58 90 89
f 58 59 90
f 59 91 90
f 59 60 91
f 60 92 91
f 60 61 92
f 61 93 92
f 61 62 93
f 62 94 93
f 62 63 94
f 63 95 94
f 63 64 95
f 64 96 95
f 64 33 96
f 33 65 96
f 65 66 97
f 66 98 97
f 66 67 98
f 67 99 98
f 67 68 99
f 68 100 99
f 68 69 100
f 69 101 100
f 69 70 101
f 70 102 101
f 70 71 102
f 71 103 102
f 71 72 103
f 72 104 103
f 72 73 104
f 73 105 104
f 73 74 105
f 74 106 105
f 74 75 106
f 75 107 106
f 75 76 107
f 76 108 107
f 76 77 108
f 77 109 108
f 77 78 109
f 78 110 109
f 78 79 110
f 79 111 110
f 79 80 111
f 80 112 111
f 80 81 112
f 81 113 112
f 81 82 113
f 82 114 113
f 82 83 114
f 83 115 114
f 83 84 115
f 84 116 115
f 84 85 116
f 85 117 116
f 85 86 117
f 86 118 117
f 86 87 118
f 87 119 118
f 87 88 119
f 88 120 119
f 88 89 120
f 89 121 120
f 89 90 121
f 90 122 121
f 90 91 122
f 91 123 122
f 91 92 123
f 92 124 123
f 92 93 124
f 93 125 124
f 93 94 125
f 94 126 125
f 94 95 126
f 95 127 126
f 95 96 127
f 96 128 127
f 96 65 128
f 65 97 128
f 129 2 1
f 130 97 98
f 129 3 2
f 130 98 99
f 129 4 3
f 130 99 100
f 129 5 4
f 130 100 101
f 129 6 5
f 130 101 102
f 129 7 6
f 130 102 103
f 129 8 7
f 130 103 104
f 129 9 8
f 130 104 105
f 129 10 9
f 130 105 106
f 129 11 10
f 130 106 107
f 129 12 11
f 130 107 108
f 129 13 12
f 130 108 109
f 129 14 13
f 130 109 110
f 129 15 14
f 130 110 111
f 129 16 15
f 130 111 112
f 129 17 16
f 130 112 113
f 129 18 17
f 130 113 114
f 129 19 18
f 130 114 115
f 129 20 19
f 130 115 116
f 129 21 20
f 130 116 117
f 129 22 21
f 130 117 118
f 129 23 22
f 130 118 119
f 129 24 23
f 130 119 120
f 129 25 24
f 130 120 121
f 129 26 25
f 130 121 122
f 129 27 26
f 130 122 123
f 129 28 27
f 130 123 124
f 129 29 28
f 130 124 125
f 129 30 29
f 130 125 126
f 129 31 30
f 130 126 127
f 129 32 31
f 130 127 128
f 129 1 32
f 130 128 97
