v 0.008 0 0
v 0.007391036260090294 0.0009184402376762154 0
v 0.005656854249492381 0.0016970562748477138 0
v 0.0030614674589207187 0.0022173108780270878 0
v 0.0000000000000000004898587196589413 0.0024 0
v -0.003061467458920718 0.0022173108780270878 0
v -0.00565685424949238 0.001697056274847714 0
v -0.007391036260090294 0.0009184402376762157 0
v -0.008 0.00000000000000000029391523179536474 0
v -0.007391036260090295 -0.0009184402376762152 0
v -0.005656854249492382 -0.0016970562748477138 0
v -0.0030614674589207226 -0.0022173108780270873 0
v -0.0000000000000000014695761589768239 -0.0024 0
v 0.00306146745892072 -0.0022173108780270878 0
v 0.005656854249492379 -0.0016970562748477142 0
v 0.007391036260090292 -0.0009184402376762169 0
v 0.009 0 0
v 0.00831491579260158 0.0010332452673857424 0
v 0.006363961030678928 0.0019091883092036779 0
v 0.003444150891285808 0.002494474737780474 0
v 0.0000000000000000005510910596163089 0.0026999999999999997 0
v -0.0034441508912858073 0.002494474737780474 0
v -0.006363961030678927 0.0019091883092036783 0
v -0.00831491579260158 0.0010332452673857426 0
v -0.009 0.00000000000000000033065463576978533 0
v -0.00831491579260158 -0.001033245267385742 0
v -0.006363961030678929 -0.0019091883092036779 0
v -0.003444150891285813 -0.0024944747377804734 0
v -0.0000000000000000016532731788489266 -0.0026999999999999997 0
v 0.00344415089128581 -0.0024944747377804734 0
v 0.006363961030678926 -0.0019091883092036785 0
v 0.008314915792601577 -0.0010332452673857439 0
v 0.01 0 0
v 0.009238795325112868 0.0011480502970952695 0
v 0.007071067811865476 0.0021213203435596424 0
v 0.0038268343236508985 0.0027716385975338604 0
v 0.0000000000000000006123233995736766 0.003 0
v -0.003826834323650897 0.0027716385975338604 0
v -0.0070710678118654745 0.002121320343559643 0
v -0.009238795325112868 0.0011480502970952697 0
v -0.01 0.00000000000000000036739403974420597 0
v -0.009238795325112868 -0.001148050297095269 0
v -0.007071067811865477 -0.0021213203435596424 0
v -0.0038268343236509033 -0.0027716385975338595 0
v -0.0000000000000000018369701987210296 -0.003 0
v 0.0038268343236509002 -0.00277163859753386 0
v 0.007071067811865474 -0.0021213203435596433 0
v 0.009238795325112865 -0.0011480502970952712 0
v 0.011 0 0
v 0.010162674857624154 0.0012628553268047961 0
v 0.007778174593052023 0.002333452377915606 0
v 0.004209517756015988 0.003048802457287246 0
v 0.0000000000000000006735557395310442 0.0032999999999999995 0
v -0.004209517756015987 0.003048802457287246 0
v -0.007778174593052021 0.0023334523779156065 0
v -0.010162674857624154 0.0012628553268047966 0
v -0.011 0.0000000000000000004041334437186265 0
v -0.010162674857624154 -0.0012628553268047957 0
v -0.007778174593052024 -0.002333452377915606 0
v -0.004209517756015993 -0.003048802457287245 0
v -0.0000000000000000020206672185931326 -0.0032999999999999995 0
v 0.00420951775601599 -0.0030488024572872456 0
v 0.00777817459305202 -0.002333452377915607 0
v 0.01016267485762415 -0.001262855326804798 0
v 0.012 0 0
v 0.011086554390135442 0.0013776603565143232 0
v 0.008485281374238571 0.0025455844122715707 0
v 0.004592201188381078 0.003325966317040632 0
v 0.0000000000000000007347880794884119 0.0036 0
v -0.004592201188381077 0.003325966317040632 0
v -0.00848528137423857 0.002545584412271571 0
v -0.011086554390135442 0.0013776603565143237 0
v -0.012 0.0000000000000000004408728476930471 0
v -0.011086554390135443 -0.0013776603565143228 0
v -0.008485281374238573 -0.0025455844122715707 0
v -0.004592201188381084 -0.0033259663170406312 0
v -0.0000000000000000022043642384652355 -0.0036 0
v 0.0045922011883810804 -0.0033259663170406317 0
v 0.008485281374238568 -0.0025455844122715715 0
v 0.011086554390135438 -0.0013776603565143254 0
v 0.007929595613464267 -0.00042324288917839915 0.004885854409863845
v 0.007364981841884465 0.0003755644641500377 0.004925020008478946
v 0.005687530004402841 0.0010616006951811845 0.00495164847498868
v 0.0031303994071050193 0.0014996832034276054 0.004963848131523033
v 0.00009913124503960118 0.0016400536837542002 0.00496405130546689
v -0.002867923349146167 0.0018792984228344274 0.004881992116710308
v -0.005466924860463973 0.0017350651405538416 0.00482654030877635
v -0.0072568966490854005 0.0012033805416724439 0.004838244412685151
v -0.007929136337945411 0.0004229922998571537 0.004886198129249713
v -0.0073645004774285 -0.0003757808183079646 0.004925412254383603
v -0.005687057661112693 -0.0010617948116619692 0.004952050603742976
v -0.0031300022956957147 -0.0014998582183899816 0.004964203214089214
v -0.00009870132271769389 -0.001640258842127726 0.004964285626627363
v 0.002868231984583156 -0.0018795207383983305 0.004882129553791778
v 0.00546731134232075 -0.0017353643056906831 0.004826469065144798
v 0.007257326595433053 -0.0012036800477381662 0.004838009066671567
v 0.008937960291943338 -0.00046788895463430305 0.0048887934445756235
v 0.008289104475018103 0.0005157048162498951 0.004954900409713405
v 0.0063771442142795225 0.0012964666411393458 0.004992959742595851
v 0.003505286340806 0.0017803591865813932 0.005004480107803575
v 0.0001270812112961075 0.0019388321608040198 0.004999085364485627
v -0.0032005093683715145 0.0022093044149342337 0.004890988280326687
v -0.006136941617655448 0.0020349671315798875 0.00481623252544286
v -0.008167050869879866 0.0014046304011275169 0.004825511751650425
v -0.008937493196714214 0.0004676337141555755 0.004889201316130691
v -0.008288610003155976 -0.0005159217537720829 0.004955329093343373
v -0.006376665535520472 -0.0012966586951838673 0.00499338028026848
v -0.003504880373926422 -0.0017805225492282123 0.005004849266840721
v -0.00012665547096254935 -0.0019390314647419497 0.0049993250422617295
v 0.0032008120484071363 -0.0022095338550118925 0.004891103306743333
v 0.006137325958710655 -0.002035275927818367 0.004816096274354095
v 0.008167484779663711 -0.0014049338021070135 0.004825197047741518
v 0.00993114932357457 -0.000509743518610675 0.004888623700820451
v 0.009213477428052553 0.0006284896075348105 0.004979359959226712
v 0.007072312277849549 0.0015259229031942187 0.00503145271053372
v 0.0038792362701019793 0.002060860013887917 0.005043868106677612
v 0.00015484230651459716 0.0022371996210480386 0.005032988104445035
v -0.0035348417685408954 0.00253668350528078 0.004896625528914774
v -0.0068115881263235865 0.0023248813053445457 0.004799356659205782
v -0.009077045481113901 0.0015900784031076904 0.004806103279271352
v -0.009930661799858648 0.0005094828980985618 0.004889095767648494
v -0.009212965102196203 -0.0006287025723384806 0.004979838424910437
v -0.007071820194567924 -0.0015261142973790717 0.005031906511649087
v -0.0038788203526499802 -0.002061014182385522 0.005044257387930826
v -0.0001544193103508854 -0.002237392656791721 0.005033231156294281
v 0.0035351370848832123 -0.0025369189760771297 0.004896713920740372
v 0.006811973080147299 -0.002325199309517585 0.0047991644528599265
v 0.009077499774620258 -0.0015903833041228583 0.004805728942952961
v 0.01091683795079775 -0.0005538196323395746 0.004878957871644723
v 0.010132251557556635 0.0007341975409380956 0.0050001141663918456
v 0.007769479806347213 0.0017491518372701666 0.005069288947404371
v 0.0042521746996209975 0.0023405489299924117 0.005082903556482302
v 0.0001825979354810014 0.0025349006928450713 0.005066578988069314
v -0.003870235356530306 0.0028616045857473927 0.004899556955552752
v -0.007488032872061019 0.002608161424037212 0.004775524054611338
v -0.009984429844207828 0.001769834992277024 0.0047764724567949035
v -0.010916323780742707 0.0005535707295943139 0.004879469672574612
v -0.010131734617289246 -0.0007343938079022227 0.005000632717690334
v -0.007768986503039573 -0.0017493370844606346 0.005069773659267856
v -0.004251742609644054 -0.0023406928787478697 0.005083313960326472
v -0.00018218043441093864 -0.0025350872915905877 0.005066827010041417
v 0.0038705196324425105 -0.0028618478122822305 0.004899615889574939
v 0.00748842633564409 -0.0026084894794544994 0.004775270982956036
v 0.009984901324087294 -0.0017701396602663052 0.004776043302239876
v 0.011894473453127217 -0.0006082361841692421 0.004854257356586887
v 0.011044021911760207 0.0008418318802767006 0.005016897285602772
v 0.008465782431670711 0.0019683358655431466 0.005107714888555856
v 0.0046236696499461095 0.0026190693001977615 0.005122479457934525
v 0.00021055146224121661 0.0028317758904599474 0.00510057872613205
v -0.004205964585095077 0.003184538327751673 0.004900137644843044
v -0.008164871518412834 0.0028875646730165986 0.004743686947340005
v -0.010890027847614754 0.0019490637512141714 0.00473302374333252
v -0.011893937053038383 0.0006079973096776979 0.004854834089473431
v -0.011043487527774043 -0.0008420069447540159 0.005017463235293171
v -0.008465284635108166 -0.0019685145380321616 0.00510822931373401
v -0.004623222357070199 -0.0026191993436946582 0.005122910461449495
v -0.00021014148484474577 -0.002831954643031807 0.005100833915991328
v 0.004206250938518364 -0.0031847885621711022 0.004900171714746571
v 0.008165282620095315 -0.002887899848800481 0.0047433794175179645
v 0.010890526771245064 -0.0019493622376111227 0.004732530226633761
v 0.007968265312984347 -0.0009355407877079731 0.00987932955447001
v 0.00742331558381672 -0.00022181224783387893 0.009964532992755718
v 0.005752837214068381 0.00042467869754411487 0.010022726547733611
v 0.0031960534924356473 0.0008539294723801316 0.010031873364682774
v 0.00013098110878486112 0.0010376560774460492 0.010017145121690666
v -0.0028019697809846954 0.0016700963535429374 0.009860740489811722
v -0.005407912409160073 0.0018678963879139253 0.009790308459107284
v -0.007241155514000123 0.001577102984239129 0.009804367464728908
v -0.007967132031262269 0.0009353347988640678 0.009880020998682524
v -0.007422205043401558 0.0002216395408757146 0.0099653468064201
v -0.00575171590036052 -0.0004247841829126999 0.010023504207320861
v -0.0031948665718401392 -0.0008539387002822409 0.01003255809369062
v -0.0001297634763391071 -0.001037641337612057 0.010017584574101776
v 0.002803137206254629 -0.0016701556061042447 0.009860902721127076
v 0.005409120302612713 -0.001868069574677237 0.00979016453361926
v 0.007242334856361063 -0.0015773170814942631 0.00980392213152213
v 0.008972491262254242 -0.0010643326571892738 0.009869688819287866
v 0.008359282753747688 -0.0000948734487206114 0.009980259823838029
v 0.006440964936547946 0.0006599156938277005 0.010056337136350834
v 0.003574021300213863 0.001131543231316128 0.010065737732633522
v 0.00017880266413927682 0.0013335033196945761 0.010041414558400104
v -0.0030916411163910457 0.0020376513147474097 0.009853980082341288
v -0.006035246499324395 0.002245796454374174 0.009767924078680606
v -0.008120017555862594 0.0018785176908937013 0.009781966444172781
v -0.008971351434358444 0.001064121147362367 0.009870491327142758
v -0.00835816166868682 0.0000947005284058251 0.009981168331859991
v -0.0064398364764453086 -0.000660022025812217 0.0100571987743255
v -0.0035728273295845526 -0.0011315413145339926 0.010066499016378839
v -0.0001775824038535806 -0.0013334785091072465 0.010041900518237671
v 0.003092794913829767 -0.002037716234236956 0.00985416095284304
v 0.0060364429529139434 -0.0022459913776146415 0.009767748242557493
v 0.008121187133001967 -0.0018787535142144522 0.009781442561932065
v 0.009958588455867702 -0.0011794527554998915 0.009856607371936745
v 0.009295633500416617 -0.0000244018617974417 0.009992140144932373
v 0.00714072586795354 0.000883772692257332 0.010089744877114054
v 0.003950633541585876 0.0014108270294451556 0.010100266461217816
v 0.00022517568154099032 0.0016303867973559115 0.010067175703175068
v -0.0033825090031966536 0.002403064585278237 0.009843493310142984
v -0.006671170624306564 0.0026100706967205687 0.00973889947524116
v -0.009006447422711257 0.002150241214822375 0.009751558793718114
v -0.009957439264752743 0.0011792227632832963 0.009857490748286098
v -0.009294515262550004 0.000024236201968306266 0.009993155003924156
v -0.007139594764154846 -0.0008838755396731246 0.010090687682473648
v -0.003949429109332575 -0.0014108145404733382 0.0101011011260199
v -0.0002239588175651827 -0.0016303490817723386 0.010067704399796422
v 0.0033836488951509243 -0.0024031374301270083 0.009843694448378291
v 0.006672351469777824 -0.002610287116428806 0.009738693614738165
v 0.009007624732564739 -0.0021504955583106665 0.009750964136690094
v 0.010936587182157708 -0.0012959544203764311 0.00983648876048508
v 0.010225448068461849 0.00003175093615540248 0.00999994814602145
v 0.00784494152953363 0.0010937147757596913 0.010123628029067867
v 0.004326362023574826 0.001690126866286091 0.010135332460110707
v 0.00027050310758646275 0.0019278698585588016 0.010094211931849121
v -0.003673460457328346 0.0027659282358704607 0.00982926135166034
v -0.007311366080240473 0.002963926131072127 0.009702994536181614
v -0.009892958445870351 0.0024087670683241367 0.00971213778781452
v -0.01093542203284562 0.0012957089953165681 0.009837447319145076
v -0.01022432009177475 -0.00003192156048465405 0.010001064987776061
v -0.007843811851803306 -0.0010938094144887403 0.010124654068076274
v -0.004325148177513941 -0.0016901029368324562 0.010136239887690357
v -0.0002692848367026946 -0.0019278194270619866 0.010094784643956599
v 0.003674585152657541 -0.002766006720382679 0.009829481736189458
v 0.007312529329794988 -0.0029641618855616382 0.009702757576827583
v 0.00989414059409376 -0.0024090419063664942 0.009711486176851037
v 0.011905794209787997 -0.001425392692494743 0.00980829552735738
v 0.011150188334701501 0.00008489121556644005 0.010000593654446454
v 0.008547934178530569 0.0012951141609870427 0.010158323872814394
v 0.004700695569930525 0.0019684457557174726 0.010170994250269495
v 0.0003152120485968954 0.0022256438817465697 0.010122457203830459
v -0.00396323919378966 0.003126385683567604 0.009811151070003259
v -0.007953468513821161 0.003310610679193734 0.009659686562113667
v -0.010779181984369194 0.0026625009255453317 0.009662607978843668
v -0.011904593668183455 0.001425163035600336 0.00980931899287467
v -0.011149047727225766 -0.00008507076191933528 0.010001811363953261
v -0.00854680483541456 -0.0012951982135494047 0.0101594291588283
v -0.004699471318136794 -0.001968409303681209 0.010171982468693684
v -0.000313994115826168 -0.0022255792497215625 0.010123076900804977
v 0.003964351273611087 -0.003126469092292304 0.009811391464280656
v 0.007954625772158174 -0.0033108649382414695 0.009659418746152906
v 0.010780379182222443 -0.0026627900446552525 0.009661902828041783
v 0.007940638179573311 -0.0014482296412654354 0.014936551318415781
v 0.00743631433994055 -0.0007597239097920984 0.015041170219685334
v 0.005808289534086532 -0.00007351694262549309 0.015122088286756055
v 0.0032698316023019084 0.00043283750358261684 0.015129310544626079
v 0.000193628283988936 0.0007243021252790703 0.0150452972808454
v -0.002726040739667129 0.001638952491197895 0.014920169241100198
v -0.005311422209703016 0.0020976174386139307 0.014846858682558514
v -0.007160957225311709 0.001993148224469917 0.014858423684625121
v -0.007938663888052729 0.0014491956350583665 0.014937410820352201
v -0.007434313212729741 0.0007607451089798069 0.015042265466397513
v -0.005806279038962558 0.00007461987780888837 0.015123233052325866
v -0.0032677841772137243 -0.00043164381228998213 0.01513023298912787
v -0.0001916438151025627 -0.0007231207462311786 0.01504579601871712
v 0.0027280511337352195 -0.001637861139459148 0.014920432841345465
v 0.005313391930357315 -0.0020966055177169193 0.014846803475461067
v 0.0071628922230779326 -0.0019921807399400603 0.014857950887378409
v 0.008927336206979478 -0.0016631836884318687 0.01492210288951012
v 0.00837874821958171 -0.0006711298910591377 0.015045549943546678
v 0.006501832061197622 0.00014392972691723785 0.01514491990409809
v 0.003656436317266955 0.0006996006582906599 0.015156412174644654
v 0.0002584515376817394 0.001016126903828885 0.015056476555579625
v -0.0029846683054433917 0.0020315621854015277 0.014905072480269626
v -0.005900424848015149 0.0025351703378822896 0.01481847104270114
v -0.00800417084031185 0.0023783291978034253 0.01483214611849388
v -0.00892536963263882 0.0016641046928800316 0.014923060933371701
v -0.00837673467474639 0.0006721353445379854 0.01504680194180144
v -0.006499803070296944 -0.0001428296013553552 0.015146232110897093
v -0.0036543715446771563 -0.000698397818259477 0.015157500048151779
v -0.0002564674315921765 -0.001014934079023768 0.015057087530805759
v 0.002986668915212518 -0.0020304753552277117 0.014905422230675957
v 0.00590237694458343 -0.0025341836836144122 0.01481845743185077
v 0.008006084744654654 -0.0023774011559983925 0.014831646627417155
v 0.009897135649637134 -0.0018566702791635193 0.014903076657726716
v 0.009317905726825112 -0.0006616401824574279 0.015047716761877456
v 0.007211550999908391 0.0003451379502603459 0.015169403735090244
v 0.00404170400450501 0.0009690346508360478 0.015185309246163842
v 0.0003216885211015306 0.0013097025406634672 0.015067159901939735
v -0.0032441932646445045 0.0024223731120223196 0.014887174063031479
v -0.006498829620757586 0.0029594423432878054 0.014785000961300327
v -0.008858460729361577 0.0027291888571529207 0.014798731130723395
v -0.009895158771917344 0.0018575526421220957 0.014904126958385406
v -0.00931588641609036 0.0006626264465414645 0.015049117917968171
v -0.0072095132214064295 -0.00034403590182468694 0.015170873430510746
v -0.004039615374997039 -0.0009678220085866898 0.015186555055087633
v -0.0003197018189404882 -0.0013084972927732456 0.015067876381999794
v 0.003246176084332321 -0.0024212895417641653 0.014887614395049846
v 0.006500763652543524 -0.002958481632761078 0.014785028515272504
v 0.008860357830302023 -0.002728304655028759 0.014798194903730478
v 0.01085820621818004 -0.0020516515096588063 0.014879862047728735
v 0.010248560858600191 -0.0006732185780167284 0.015048003612834026
v 0.007927361022977097 0.0005261027275741712 0.015195085752712972
v 0.004426789022697216 0.001238535862422473 0.015215965574541105
v 0.0003836190457785979 0.0016045186243042612 0.015077281645705288
v -0.0035034260858996017 0.0028106866317256732 0.014866386776152301
v -0.007101979178223842 0.003372877991423511 0.014746343248423586
v -0.009713446212567325 0.003063702245211372 0.014758420283830925
v -0.010856211181724343 0.0020525004737649015 0.01488099029900992
v -0.010246524572267978 0.000674185208526837 0.01504954530974116
v -0.007925312148067394 -0.0005249966811050722 0.01519671916426114
v -0.004424669825904625 -0.0012373116635640007 0.015217367230951169
v -0.0003816307939163887 -0.0016033039114634851 0.015078103677138343
v 0.0035053908542146033 -0.0028096096621719616 0.01486692126905098
v 0.007103898399550476 -0.0033719476639856396 0.014746409617279289
v 0.009715326481532224 -0.003062858574069591 0.01475785636135018
v 0.011809909471898706 -0.0022614196757657383 0.014854080621093183
v 0.01117592966934889 -0.0006960892990235073 0.015044734029006215
v 0.008641514841763478 0.0006951436815460838 0.015221961069872454
v 0.0048113059951123294 0.0015063732718121785 0.01524842222371528
v 0.00044465166231807556 0.0019001340097782877 0.015086737448122663
v -0.0037609662389836884 0.0031964005575690086 0.014842600351997567
v -0.007707251421533661 0.0037785293415200146 0.01470242432129266
v -0.010567828134117448 0.003391547147835797 0.014711481705235898
v -0.011807900566014386 0.002262215233399301 0.014855278841409116
v -0.011173872111099825 0.0006970335550407353 0.015046429738851574
v -0.008639464030100534 -0.0006940268460518282 0.015223753777620861
v -0.004809157284883448 -0.0015051343822083524 0.015249984726700647
v -0.0004426638710635534 -0.0018989059599657857 0.015087667467940663
v 0.0037629201459535486 -0.003195326391475943 0.014843235535642664
v 0.007709144512055771 -0.003777632570688469 0.014702532875061177
v 0.010569677769931224 -0.00339075180134806 0.014710891234832992
v 0.007865641734989383 -0.001901612263394081 0.020014605452701013
v 0.007410126082571212 -0.0012122098908165682 0.020124769024039566
v 0.005838202940777716 -0.00046100442978549 0.020219835309230272
v 0.003337301667061688 0.00014941477487018167 0.02023767523261637
v 0.0002734526581003696 0.0005640836451455857 0.020147280181201013
v -0.002606013925668855 0.0016783704605357079 0.020023122542654346
v -0.005169612977912121 0.0023308471186506115 0.019944535309372523
v -0.00703497115123229 0.002375288157611524 0.01994408704601939
v -0.007862568057871 0.001904928609903702 0.020015493477223423
v -0.007406966649876602 0.0012155924830049378 0.020126008370839225
v -0.005834999353666577 0.00046448359882762916 0.02022121270941765
v -0.0033340948596514404 -0.00014585176100773592 0.0202388895682165
v -0.00027037738714572566 -0.0005605287453160215 0.020147889866944827
v 0.002609061657360681 -0.0016749140755486513 0.020023537075207185
v 0.005172582141420483 -0.0023274684971070405 0.019944655886797266
v 0.00703797073465441 -0.0023719724680725386 0.01994373216482459
v 0.00883010175275794 -0.002190995074855682 0.01999532849140208
v 0.008355935085424187 -0.0011701666863002825 0.020118243194169473
v 0.00653824726465743 -0.000269980769690478 0.020232013702153537
v 0.003733715517335959 0.00040218181181504237 0.020258231380184896
v 0.00035270197575029406 0.0008512455886106913 0.020153301317884616
v -0.002840178722269221 0.0020873720613580676 0.020006366462411065
v -0.005726555941974846 0.0028125272755722104 0.01991505242192324
v -0.007845591690433194 0.0028267044444140015 0.019915808981031395
v -0.008827037073076026 0.002194258125882419 0.019996290338638992
v -0.008352777401883383 0.001173515243665102 0.02011971580543687
v -0.006535037612835175 0.00027345827187438273 0.02023363706756967
v -0.003730495047781678 -0.0003986097181553385 0.020259690209193982
v -0.0003496292166264583 -0.0008476823952485528 0.02015409508279284
v 0.002843217280313889 -0.0020839262611508287 0.020006943784570293
v 0.00572950860825505 -0.0028091758653994475 0.019915290136842612
v 0.007848570772555892 -0.0028234368618192235 0.019915497784082883
v 0.009781156563031355 -0.002454565579361432 0.019969712412589442
v 0.009293683186216043 -0.0012207827436117615 0.020110317591625296
v 0.00725700725140314 -0.00009907576520012052 0.020246618075820674
v 0.004128970159726504 0.0006582057754263279 0.020280714792504033
v 0.0004310961400686567 0.0011402111390826043 0.020159501890762842
v -0.003074357881599991 0.002494904282277777 0.019987853300114367
v -0.00629205924241992 0.0032821260122286103 0.019881260374795595
v -0.00866908523553276 0.0032433997154403356 0.019880155518030265
v -0.009778092735634373 0.0024577679422439153 0.0199707600549506
v -0.009290524479809664 0.001224087585459677 0.02011198214132399
v -0.007253791408598064 0.00010254838633634667 0.02024847904306168
v -0.004125732930794763 -0.0006546206216524026 0.020282418955593056
v -0.00042802331089885747 -0.0011366395178825826 0.02016047817727678
v 0.003077382272925218 -0.002491465963679515 0.01998859726652777
v 0.0062949872802096464 -0.0032788037277579362 0.019881614506244233
v 0.00867204857514443 -0.003240185696138158 0.0198798671710317
v 0.010722967363146726 -0.0027199423568301934 0.0199394993707697
v 0.010221430528034193 -0.0012952980042408523 0.020100227372406777
v 0.007982236779161938 0.00004686466904232003 0.020262662499691237
v 0.0045244525565576255 0.0009143172160488176 0.020305078404023742
v 0.0005088466363621875 0.0014304412854296749 0.020165854357854073
v -0.0033076657600590383 0.002900107757524401 0.019967418036652817
v -0.006861649125291221 0.003741531746160367 0.019843031713645043
v -0.009493481914641626 0.003643350196588094 0.01983796828152142
v -0.010719892696423093 0.002723076466033027 0.019940609774796808
v -0.010218253320150498 0.0012985534326995828 0.02010206971353413
v -0.007979016270781068 -0.00004339320876863125 0.020264754361971272
v -0.004521194466275465 -0.0009107149604471158 0.02030703071125474
v -0.0005057720014957559 -0.001426858447719132 0.020167011654449105
v 0.003310680001516826 -0.0028966785639843585 0.019968326063268364
v 0.0068645549786852415 -0.0037382458360132 0.019843500835205075
v 0.009496420860043956 -0.0036401994879199486 0.01983771500750488
v 0.01165301547837681 -0.003002579208638853 0.019906410129942407
v 0.011146173995798538 -0.0013835177278665293 0.020085713084168316
v 0.008705426455802613 0.00017824052216244284 0.020280041551728266
v 0.004919658245851943 0.001168375696402403 0.020331222490829193
v 0.0005863928089859214 0.00172138130530428 0.02017232774509205
v -0.0035389238269049644 0.003302707129096474 0.019944931774097417
v -0.007432658074636285 0.004193596268312592 0.0198003703170039
v -0.01031680281602734 0.004036937948221243 0.019789945842039143
v -0.011649939486777946 0.0030056286818016566 0.019907570657682883
v -0.011142969890398372 0.001386724386392615 0.020087714632741473
v -0.008702194762936238 -0.00017477128712116316 0.020282360615388968
v -0.004916372932527785 -0.0011647556126276667 0.020333416992242052
v -0.000583319569198513 -0.001717785969572109 0.02017367093746075
v 0.0035419263882440176 -0.0032992879780956975 0.01994601606042398
v 0.007435530361607624 -0.004190347715164314 0.019800953303111477
v 0.010319731544995584 -0.004033856822230551 0.019789715174155082
v 0.007802224198691597 -0.002261409013585861 0.025094310529853964
v 0.007379720450471132 -0.001566935229718102 0.02520709682265195
v 0.0058540381038240915 -0.0007535377034343476 0.025311847447947053
v 0.0033864068067539378 -0.00004612563863352784 0.025342208811521584
v 0.0003226239166954279 0.0004662981101817872 0.025255720149711915
v -0.0025258119091583747 0.001716124550944194 0.025129570669112505
v -0.005062048716995788 0.0025120867888344988 0.025047338620071597
v -0.0069292624796378835 0.002674642911995205 0.025034359566248394
v -0.00779776252554556 0.0022680230028710013 0.025095111557710523
v -0.007375240052728896 0.001573642098123347 0.025208308589074264
v -0.005849499044674429 0.0007603860790762215 0.025313271192087317
v -0.0033818018150591485 0.00005307144053704361 0.025343534591225108
v -0.00031815387334172495 -0.0004593700081331243 0.025256514281024524
v 0.0025302492377615774 -0.0017093216840121377 0.025130153408992748
v 0.005066467957831309 -0.002505437130297745 0.02504759442948025
v 0.0069336873884126085 -0.002668051851605626 0.025034124472638662
v 0.008741687989451356 -0.002612137289227158 0.025070612256349805
v 0.008330263446767959 -0.0015657403309211199 0.025190587101164716
v 0.006561203495801037 -0.0005880958798147917 0.02531575815028028
v 0.003791386113686363 0.00019416910172575976 0.02535877879208707
v 0.00041189009042774097 0.0007496264796885275 0.025261047473384875
v -0.0027413413457016075 0.002136490091864688 0.025115014019623835
v -0.005591523797505566 0.0030269534140052083 0.025020618122349358
v -0.007710756280681872 0.0031793557552951615 0.02500613870978649
v -0.008737246253542195 0.002618699176463429 0.02507146108373422
v -0.008325776323994323 0.001572408948332697 0.025192063859549026
v -0.006556655473200368 0.0005949225468674868 0.02531748269187009
v -0.003786773674142548 -0.0001872147637333433 0.025360380306544528
v -0.0004074204137258524 -0.0007426927960446741 0.02526206963699329
v 0.0027457606259147158 -0.00212969627529255 0.025115804708733938
v 0.0055959257307995796 -0.0030203365307203143 0.02502105890122762
v 0.007715149924482869 -0.003172807922577093 0.02500600564030058
v 0.00967406384264106 -0.0029341154789837647 0.025037340960196396
v 0.009266177326165307 -0.0016699570152113826 0.0251727589436551
v 0.007288693214388108 -0.00044556915968017093 0.02532148159850834
v 0.004195736118159613 0.0004378310177715895 0.025376951652549405
v 0.0005004980075457638 0.001034897773888408 0.025266711679891623
v -0.002955807227819604 0.002555709932243659 0.025099247428582765
v -0.006128469333831228 0.0035314058523623296 0.024989426761985307
v -0.008506146245089793 0.0036497942237882102 0.024969089594771947
v -0.009669646790990137 0.0029406160644707374 0.025038235983210224
v -0.009261687624414495 0.0016765802771940162 0.02517442610504137
v -0.007284126466703906 0.00045237423715808827 0.025323495602095285
v -0.004191103480486108 -0.0004308726391303678 0.02537882910996047
v -0.0004960258029984261 -0.0010279561578593697 0.02526795765946558
v 0.002960219833542614 -0.0025489300214982047 0.02510024375815522
v 0.00613284192805397 -0.0035248204730281116 0.024990060909956674
v 0.008510520218965407 -0.0036433003500984085 0.024969040483217873
v 0.01059835679122691 -0.003257962613328881 0.024998125166328856
v 0.010190152159966798 -0.0017989557365917098 0.025151116662258166
v 0.008022522494578558 -0.0003324197519742078 0.025328374883560954
v 0.004600901815473481 0.0006812845776184396 0.025396678427632113
v 0.000588683712125972 0.0013215543638464486 0.025272712944850964
v -0.0031684680151273592 0.0029728496813641 0.02508213546911968
v -0.006668743301203577 0.004026569168790969 0.024953758152371226
v -0.00930226948760803 0.004103376835811456 0.024924902993653558
v -0.01059392851629757 0.003264394073238766 0.024999058903000915
v -0.010185663021771181 0.0018055269971648407 0.025152958134838376
v -0.008017932672806264 0.00033920290554042843 0.02533066683262115
v -0.004596248927014373 -0.0006743190445000998 0.025398833635137643
v -0.000584211707025996 -0.0013146038529855055 0.025274189207168913
v 0.003172876062256212 -0.0029660848747620366 0.025083336389176474
v 0.0066730837397067765 -0.004020023771519927 0.02495457903465771
v 0.009306616468508382 -0.0040969407327490995 0.024924920809740615
v 0.011509545366518848 -0.0036008262001679197 0.0249551264305024
v 0.011110452239196636 -0.0019410874381802859 0.025124256650948595
v 0.008753713868888352 -0.00023607445805459143 0.025336051839016972
v 0.005006374032405466 0.0009219080723864388 0.02541788462967977
v 0.000676934096550865 0.0016089970420644008 0.025279037520577172
v -0.003378245873102247 0.003387497568822552 0.025063681764209363
v -0.007209544263289491 0.004514859782254336 0.02491388594896277
v -0.010096423742435847 0.004550574252193078 0.02487447478232464
v -0.011505123998994275 0.003607184590205231 0.024956084778439105
v -0.01110597544123868 0.0019476056328274036 0.025126257740706412
v -0.008749100415534445 0.0002428347963912834 0.025338612797967546
v -0.005001701762450962 -0.0009149331677259088 0.025420320597562454
v -0.0006724599697160445 -0.001602039059573182 0.025280744365100968
v 0.0033826417308518413 -0.003380746259716817 0.025065107628458917
v 0.00721384238136354 -0.0045083538234637075 0.024914889656166304
v 0.010100726734715286 -0.004544204159703157 0.024874569889809583
v 0.007784462461934685 -0.0025079841866022913 0.03020481581794853
v 0.007374156918072978 -0.0018671149545400998 0.030301796004330972
v 0.005871453007868886 -0.0010052155739027483 0.03039369646604647
v 0.003402034178205636 -0.00022183511247348396 0.030425503660391096
v 0.0003622842849649368 0.00034835778119657654 0.030347977020434135
v -0.002513262750273303 0.0017204207930013008 0.030239964554239215
v -0.005030669349403074 0.0026233364957782856 0.030165286985092403
v -0.00689519553167894 0.0028725066426846884 0.03014759474950065
v -0.007778409125188093 0.002518409438883438 0.03020554026252457
v -0.007368064155484345 0.0018776672551845826 0.030302879738356596
v -0.005865312070543396 0.0010159475788436474 0.03039498391756786
v -0.003395843151679278 0.00023268566666371316 0.030426647758922846
v -0.00035610015098405955 -0.0003376882953806969 0.030348831344121915
v 0.0025194025112230474 -0.0017098215406279745 0.0302406514740103
v 0.005036759481397554 -0.002612905533373665 0.030165605748151324
v 0.00690126558817174 -0.002862127383262112 0.03014744937322163
v 0.00869152586294146 -0.002935190033995623 0.030174965853157244
v 0.008335949778790902 -0.001872987175323267 0.03028214321254819
v 0.0065785566180170995 -0.0008468807719682103 0.030394963299231272
v 0.003808525924998913 0.000014017031930513909 0.030440384887991657
v 0.00043973766631955893 0.0006346677435204203 0.030356124317354946
v -0.002724762060334463 0.002145648587376523 0.03022966830761865
v -0.005541561723615527 0.0031577162452872667 0.03014420417537345
v -0.0076447939388761986 0.003422428033743576 0.030121439964330938
v -0.008685478712971888 0.0029455791592545096 0.03017565854873705
v -0.0083298615741442 0.0018834998689817952 0.030283533336418512
v -0.006572411234233432 0.0008575748052675231 0.030396601891840708
v -0.003802332474423012 -0.0000031578550972322864 0.030441818844213375
v -0.0004335525888585921 -0.0006239912534464938 0.030357218740568424
v 0.0027309001608407137 -0.0021350616101261906 0.03023058140078583
v 0.005547635201288316 -0.0031473234995808906 0.030144737288075117
v 0.007650816789540708 -0.0034120855478903538 0.030121462908099465
v 0.009610312816675348 -0.003313616633300735 0.03012594087936399
v 0.009266602502935553 -0.0020384829167926963 0.030248643544075884
v 0.0073142057021059565 -0.0007197472669569927 0.03039599485115932
v 0.004213716797174191 0.0002546151486848923 0.03045733675560413
v 0.000517371381437901 0.0009226122027245513 0.030366010555281875
v -0.002933354209912918 0.0025699998236097003 0.03021936965233275
v -0.006054882414842419 0.0036847732467999157 0.030120385906575356
v -0.008411599509627384 0.003941061709512722 0.030083222532580688
v -0.009604316330334782 0.0033239325562985198 0.030126648077981103
v -0.009260510749652439 0.0020489394234258582 0.030250201639966088
v -0.0073080516720315175 0.0007304162407582523 0.03039796555677561
v -0.004207515325115685 -0.00024374592362308843 0.030459074139692083
v -0.0005111831350633601 -0.0009119265737147776 0.030367344169023276
v 0.0029394886443549063 -0.0025594255502212307 0.030220533026186342
v 0.006060933004217485 -0.0036744209073792515 0.030121140308871537
v 0.008417586694941345 -0.0039307703347949245 0.030083398334589676
v 0.010520597241519561 -0.0036851062662466563 0.03006978251794352
v 0.010180403104590714 -0.002218104099391656 0.03020897002433132
v 0.008055958036846689 -0.0006380454595356258 0.030393863235554593
v 0.004621537520576542 0.0004936236783528484 0.030475597566801106
v 0.0005947715399447856 0.0012119605866320147 0.03037694025072417
v -0.0031383002542254537 0.0029925410013195374 0.030208529293641095
v -0.006567786637020341 0.0042040723563444874 0.030093997846869933
v -0.009177008163879619 0.00444109818048168 0.030038247181359654
v -0.010514613168962766 0.0036953588986487922 0.030070481687451852
v -0.010174329536530195 0.0022284980351575797 0.03021067090952729
v -0.008049805299138037 0.0006486893373925151 0.030396132511962288
v -0.00461532726338633 -0.00048274680850176525 0.03047763588211011
v -0.0005885738851507705 -0.00120126342082232 0.030378510552417807
v 0.003144442769306717 -0.0029819806255822505 0.030209934954537575
v 0.00657381747609539 -0.004193760720350689 0.030094976394789114
v 0.009182968286932842 -0.004430863757560388 0.030038567041218517
v 0.011417553004893806 -0.004068302306163504 0.03001521511214468
v 0.011089257708593196 -0.002403221554984231 0.03016946248350172
v 0.00879214656101125 -0.0005774886857189327 0.03038969723767047
v 0.005032062815862674 0.0007262800054601066 0.030494200013914247
v 0.0006722088993102484 0.0015021255024463465 0.030388317002328556
v -0.0033386576943518213 0.003412739448441068 0.030196933560197193
v -0.00707763856105619 0.004716845034316915 0.030066298116841812
v -0.009933243501182574 0.004932514671015039 0.02999179887784626
v -0.011411632584042566 0.004078473405694947 0.03001591376368686
v -0.011083178724263955 0.0024135325313847187 0.03017129096153443
v -0.008785987391582636 0.0005881071008087265 0.03039225238315713
v -0.005025842441209046 -0.0007153957897990985 0.030496535687085963
v -0.0006660007292364168 -0.0014914170149635312 0.03039013174413076
v 0.0033448067870714107 -0.00340219437222091 0.03019857969226787
v 0.007083649364511444 -0.004706576015836413 0.030067494445822286
v 0.00993915996806004 -0.0049223359549023975 0.02999225461134283
v 0.0125 0 0
v 0.011548494156391085 0.0014350628713690867 0
v 0.008838834764831846 0.002651650429449553 0
v 0.004783542904563624 0.003464548246917325 0
v 0.0000000000000000007654042494670958 0.00375 0
v -0.004783542904563622 0.003464548246917325 0
v -0.008838834764831844 0.0026516504294495534 0
v -0.011548494156391085 0.001435062871369087 0
v -0.0125 0.0000000000000000004592425496802574 0
v -0.011548494156391087 -0.0014350628713690862 0
v -0.008838834764831846 -0.002651650429449553 0
v -0.00478354290456363 -0.0034645482469173243 0
v -0.000000000000000002296212748401287 -0.00375 0
v 0.004783542904563625 -0.0034645482469173247 0
v 0.008838834764831842 -0.002651650429449554 0
v 0.011548494156391082 -0.0014350628713690888 0
v 0.014 0 0
v 0.012934313455158015 0.001607270415933377 0
v 0.009899494936611667 0.0029698484809834993 0
v 0.005357568053111258 0.0038802940365474043 0
v 0.0000000000000000008572527594031473 0.0042 0
v -0.005357568053111256 0.0038802940365474043 0
v -0.009899494936611665 0.0029698484809834997 0
v -0.012934313455158015 0.0016072704159333774 0
v -0.014 0.0000000000000000005143516556418883 0
v -0.012934313455158017 -0.0016072704159333766 0
v -0.009899494936611668 -0.0029698484809834993 0
v -0.005357568053111265 -0.003880294036547403 0
v -0.0000000000000000025717582782094414 -0.0042 0
v 0.00535756805311126 -0.0038802940365474034 0
v 0.009899494936611663 -0.0029698484809835 0
v 0.012934313455158011 -0.0016072704159333796 0
v 0.016 0 0
v 0.014782072520180588 0.0018368804753524307 0
v 0.011313708498984762 0.0033941125496954275 0
v 0.006122934917841437 0.0044346217560541756 0
v 0.0000000000000000009797174393178825 0.0048 0
v -0.006122934917841436 0.0044346217560541756 0
v -0.01131370849898476 0.003394112549695428 0
v -0.014782072520180588 0.0018368804753524314 0
v -0.016 0.0000000000000000005878304635907295 0
v -0.01478207252018059 -0.0018368804753524303 0
v -0.011313708498984764 -0.0033941125496954275 0
v -0.006122934917841445 -0.004434621756054175 0
v -0.0000000000000000029391523179536477 -0.0048 0
v 0.00612293491784144 -0.0044346217560541756 0
v 0.011313708498984758 -0.0033941125496954284 0
v 0.014782072520180585 -0.0018368804753524338 0
v 0.012273021308214534 -0.0006422431566522247 0.005160539728840188
v 0.011446096111290441 0.0007358035429234221 0.005198954501920372
v 0.008828977475271676 0.0019025419132000937 0.005151678969079922
v 0.004854645268759992 0.002620263830333714 0.0050593035715574665
v 0.0001761436355425549 0.0028646272272110176 0.004960243227593141
v -0.004438420713602087 0.0032081711991647902 0.004883105071491551
v -0.008477343131003524 0.0028790757073564022 0.0049301324046001575
v -0.01122171937009592 0.001936308191992432 0.005042263940431484
v -0.012272558386553745 0.0006418937808247939 0.005161040965035003
v -0.0114455812004584 -0.0007360894492841244 0.005199561641925876
v -0.00882847757507365 -0.0019027245535902526 0.005152269088772143
v -0.004854208178951059 -0.002620380591166642 0.0050598049259078515
v -0.00017579289231771267 -0.0028648069989607346 0.004960492194247677
v 0.004438697834520549 -0.003208431513952319 0.004883132215282041
v 0.008477653507720836 -0.0028794432018373773 0.0049300040880331155
v 0.011222087461122394 -0.0019366962016716986 0.005041923063707253
v 0.013730388001241607 -0.0007332705489317174 0.005174185804927707
v 0.012794558428610827 0.000874428370618206 0.0052874736451863176
v 0.009863932150125996 0.0022184361439565913 0.005247843873026442
v 0.005411326727345704 0.0030324519153877827 0.005136493390208305
v 0.00021839432413846556 0.003308363245397428 0.005015535878861779
v -0.004940582152779506 0.0036888756938161208 0.0048961267507288825
v -0.00948165317799299 0.0032924784924498593 0.0049118961271785635
v -0.012566393435280758 0.0022068147194817516 0.005018055308053364
v -0.013729877389382505 0.0007329084406630764 0.005174792538713327
v -0.012794002197076802 -0.0008747118280690127 0.00528812023719837
v -0.009863405297853506 -0.002218614741169053 0.005248473977493861
v -0.005410865209765936 -0.0030325498075141305 0.005137022140154205
v -0.00021805434228060812 -0.0033085295517425763 0.005015793843958712
v 0.004940850887767427 -0.003689144948819292 0.004896129316568814
v 0.009481974224417935 -0.0032928620206764676 0.0049116962027981785
v 0.012566791673489513 -0.0022072171238252296 0.005017590147633765
v 0.015672090618673425 -0.0008426376825702933 0.005196900110054594
v 0.014598610724861594 0.0009777465816878752 0.0054063071294925364
v 0.011247379441094753 0.0026239439946266017 0.005380314244533
v 0.006144098326737689 0.0035805838043767176 0.005243245010799422
v 0.00027480530373068425 0.0038983955501500998 0.005086066840591722
v -0.005612684916172804 0.004325123772752115 0.004896913126923973
v -0.010830175837015272 0.0038307852747012086 0.004869009739911583
v -0.01436619537173607 0.002544743732103027 0.0049799105564676165
v -0.0156715269746772 0.0008422363350568672 0.005197654030605576
v -0.01459798385636356 -0.000978034687476012 0.005406999964646234
v -0.011246801969927752 -0.002624112102676514 0.005380978403984782
v -0.006143609474397806 -0.0035806551699625578 0.005243812722291266
v -0.0002744710632572237 -0.0038985412968262586 0.005086341604755282
v 0.005612943609582616 -0.004325398770804085 0.0048968842986831865
v 0.010830500943763316 -0.003831194273071039 0.004868701200424512
v 0.014366625178453265 -0.00254517792742701 0.004979272025964959
v 0.012026269601408002 -0.001488316343280333 0.010285357656420701
v 0.011324027751365085 -0.00004963266240393501 0.010402619045598844
v 0.008853752036294989 0.0012216513757827656 0.010357495575603086
v 0.004939403951241643 0.0019565893110823278 0.010206304870005931
v 0.0003920037325883027 0.0022447963659990833 0.010003275714253596
v -0.004128321295318398 0.00316656300158556 0.009967538306024041
v -0.008125330357707893 0.0033501654069297395 0.009977077308019774
v -0.010896261377191815 0.0026961871611590094 0.010104743936963981
v -0.01202503943131758 0.001488091518009099 0.010286375836313887
v -0.011322722380517194 0.00004948435419836377 0.010403909787931579
v -0.008852449842696836 -0.0012217026359451183 0.010358868550400673
v -0.004938161333558315 -0.0019565386112926964 0.010207410203314143
v -0.00039084562062142254 -0.0022447403962057187 0.010003939070554548
v 0.004129379629299534 -0.0031666060491547933 0.009967847187642275
v 0.008126347770216228 -0.003350355568458651 0.009976913038696505
v 0.010897375437941472 -0.002696432834650611 0.010104093876780535
v 0.013470239602795111 -0.0017064611758741465 0.010292923581351662
v 0.012682182576920326 -0.000004064186111749042 0.010484201181547675
v 0.009888096605913247 0.0015121751497111184 0.01045821742215602
v 0.005492752550694403 0.0023690572812875062 0.010274794506291788
v 0.0004599555394603655 0.0026880811206596053 0.01004149194638847
v -0.004561893285676644 0.0037013910174535465 0.009955796719064105
v -0.009065303449776714 0.0038666143790012917 0.009938285241920444
v -0.012198869825402634 0.0030858488884985542 0.010068819342164574
v -0.013468966476260098 0.0017062017535904685 0.010294073801944225
v -0.012680827105817138 0.000003904168391391304 0.01048559650170679
v -0.009886757984966283 -0.0015122079916745816 0.010459717757849417
v -0.005491484504545908 -0.0023689767757751217 0.010276026644688598
v -0.0004588016537325578 -0.0026880004592039256 0.010042234825449296
v 0.004562934254103479 -0.003701437909976696 0.009956143142354325
v 0.00906631232381615 -0.003866836742647275 0.00993809170294584
v 0.012200004294201282 -0.0030861379675943637 0.010068073193711726
v 0.015388764071200201 -0.001986856900930575 0.010301153236636582
v 0.014498850515253663 -0.00006664628294505402 0.010597101524507973
v 0.011281020205727415 0.0018797758669456465 0.01059971531374006
v 0.006219562700886358 0.002920106030664956 0.01037220404970255
v 0.0005541501129509486 0.003279700900494238 0.010086418059834382
v -0.005141965403338941 0.004409963856544797 0.00993089633176565
v -0.010327842587396318 0.004542603268625745 0.009869404100658041
v -0.013941459360762782 0.0035838348598029616 0.010007769115118859
v -0.015387443697978974 0.0019865427552226067 0.010302513584964437
v -0.01449741510834573 0.00006646651478302569 0.010598621945282067
v -0.011279609901063307 -0.0018797846297381599 0.010601369700084566
v -0.006218258898029015 -0.0029199808312581886 0.010373596267695934
v -0.0005529987902032083 -0.0032795866647858376 0.010087267743449176
v 0.0051429769691176755 -0.0044100141908428765 0.009931293470899737
v 0.010328834888717157 -0.004542871391678479 0.009869157896702958
v 0.013942609011190491 -0.0035841765458291047 0.010006851053083191
v 0.011840864500200245 -0.002322989654600077 0.015346399810803362
v 0.011270499449154356 -0.0008021202637832681 0.015485724869832077
v 0.008912556301820451 0.0006195118464518843 0.015469290280989145
v 0.005042258389661338 0.0014863417293861857 0.015328104165729906
v 0.0005556139826761507 0.001893574450966895 0.01518164934166185
v -0.003808668296980315 0.0032273271944807144 0.015069122102955248
v -0.007778336962986702 0.003822762755110683 0.015058367631922679
v -0.010609282436114613 0.0034448448454293544 0.015166514732231405
v -0.011838668604269163 0.002323955627913428 0.015347591320539635
v -0.01126821610463873 0.0008031807690377238 0.015487449234722566
v -0.008910241754843458 -0.0006183200116733797 0.015471358610146707
v -0.005040012202644349 -0.0014850714851216025 0.01532991888269822
v -0.000553432553950506 -0.001892318248867592 0.015182800394179463
v 0.0038107473588230066 -0.003226169770291492 0.015069753617337023
v 0.007780393626614713 -0.0038217179069256054 0.01505847249774953
v 0.010611410425016322 -0.0034438899538867564 0.015165935002669731
v 0.013254891264945286 -0.002668497385280275 0.015340151492318052
v 0.012629421051153465 -0.000872587167302428 0.015547228727259062
v 0.009960391842529713 0.0008623733737683773 0.015559093377219014
v 0.005607564376829926 0.001887762259404575 0.015385452863914371
v 0.0006488011049397308 0.00233633947567199 0.015195381399907833
v -0.00418876638146683 0.0038017016774548264 0.01504622604710357
v -0.008660810759192847 0.00443087435075409 0.015014248393241458
v -0.01186060887648994 0.003952692766746071 0.015124467671434754
v -0.013252675178564441 0.0026694036700392666 0.01534146988479908
v -0.012627102973186656 0.0008736263320002181 0.015549145096468228
v -0.009958035303876124 -0.0008611644576673221 0.015561382672472918
v -0.005605282800547897 -0.0018864597843942185 0.015387510531631518
v -0.0006466252266543094 -0.0023350603045675595 0.015196703647863831
v 0.004190824876948873 -0.0038005448916889548 0.01504700852050937
v 0.008662835973658196 -0.00442987578979384 0.015014423741902818
v 0.011862724317683074 -0.00395180690501142 0.015123855290321621
v 0.01513430247615718 -0.003126732977616606 0.015327085811529185
v 0.0144466017109147 -0.001108640829818567 0.01562648658256253
v 0.011376977434255317 0.001156750732179827 0.015683234882288212
v 0.006348983833334912 0.002423568083995116 0.015465785719230988
v 0.0007777419428053237 0.0029261202272066592 0.015215568125735395
v -0.004691872503070082 0.004561641999121766 0.015007734962190291
v -0.009843268485314922 0.005229521666997566 0.014939565535248264
v -0.013537042375592823 0.004612527739156564 0.015053257915622483
v -0.015132066687150607 0.003127560045880122 0.015328586104739823
v -0.014444216588625098 0.0011096272005983185 0.01562858661246413
v -0.011374548899753246 -0.001155515355705933 0.015685825616465355
v -0.006346658247971925 -0.0024222143173990955 0.015468167969635642
v -0.0007755643386314967 -0.002924808894403001 0.01521713238564343
v 0.004693900023238844 -0.004560494217480198 0.015008707577083382
v 0.009845249975234853 -0.005228582049341486 0.01493982100524658
v 0.013539133385247972 -0.004611731433204729 0.015052570037777682
v 0.011681274219626912 -0.003051988713441108 0.020397705505388844
v 0.011224020109154532 -0.0014799071676483838 0.020532124252789517
v 0.008970050201761372 0.00009450203495549994 0.020534478331666765
v 0.005146295977493684 0.001141286059460393 0.02042462594819175
v 0.0006717437996866888 0.001715267008102241 0.020296282121728446
v -0.003574778945412457 0.003332430121276859 0.020176457285941935
v -0.007496055755911351 0.004237237519236235 0.02015838032636461
v -0.010359892411073638 0.004087058519992755 0.020243549065683004
v -0.01167803051068916 0.003055326156813976 0.02039884869938585
v -0.011220664754894786 0.0014833748301723777 0.020534101555038355
v -0.008966661706688302 -0.00009089594027268724 0.020536923549279707
v -0.00514294201137042 -0.0011376068562306391 0.02042695120839831
v -0.0006684685362722036 -0.001711625127166613 0.020297766122401972
v 0.003577965534610631 -0.003328902440900127 0.020177540577970342
v 0.007499225657049987 -0.004233844599910929 0.0201589418629957
v 0.01036306428102283 -0.0040837465336149735 0.020243326008412683
v 0.013064609963008393 -0.0035054528858849254 0.0203747385384399
v 0.012577484800487062 -0.0016501788548882149 0.02056815188195556
v 0.010032718719688681 0.0002800690311891602 0.020608109577074707
v 0.005728584660721316 0.0015223608632773092 0.0204714434317691
v 0.0007897796444577598 0.0021538356173135794 0.020305672021323152
v -0.00391120492300065 0.003933777349196677 0.020152833796442247
v -0.008327081073017058 0.004914366651423315 0.020115424209230463
v -0.011564413270837296 0.004693323819417528 0.020197372304628532
v -0.013061357620352682 0.003508702076318163 0.02037594038665366
v -0.012574096212980775 0.0016535928974867472 0.0205703314933193
v -0.0100292858247009 -0.0002764523578824952 0.020610872125248526
v -0.005725194348909386 -0.001518649840746986 0.020474113949662903
v -0.0007865012100778071 -0.0021501743824563014 0.020307439712708385
v 0.003914372815178659 -0.003930258851282311 0.020154174866043085
v 0.008330209687683788 -0.004911028829090664 0.020116169909416858
v 0.011567546968212718 -0.004690090079856489 0.020197218368735684
v 0.014899668913999221 -0.004117712351704935 0.020343277627178732
v 0.01438364829120161 -0.0020286789632221803 0.020610020390476172
v 0.011470807146108224 0.0004908097102476406 0.020706190747657303
v 0.006493194921205134 0.002030099049440489 0.020536474771482644
v 0.0009501117484847848 0.0027380833370020006 0.0203176219995085
v -0.004353337384254826 0.004728569035565012 0.02011345474719122
v -0.009439056876911815 0.005806652633565076 0.020045208936616515
v -0.013176673318654833 0.005489976501092936 0.02012452347713803
v -0.014896433691830087 0.004120825770202836 0.02034456531909714
v -0.014380212036741653 0.002032021253141529 0.02061239696245629
v -0.011467298746737423 -0.000487180449046695 0.020709383094677698
v -0.00648976279714158 -0.002026339065618219 0.020539606149065442
v -0.0009468379021081345 -0.00273439132119596 0.020319783067054425
v 0.004356468015539094 -0.0047250677975494764 0.0201151331833438
v 0.00944213823977461 -0.005803387322600375 0.02004619990191158
v 0.01317975395813994 -0.005486862922555471 0.020124441978723522
v 0.011556924349588228 -0.0036272589452381273 0.02544434654341686
v 0.01117848438244354 -0.002030377044910423 0.025573282249081543
v 0.00900880463419924 -0.0003284459457488582 0.025598142961917272
v 0.005228908944355307 0.0008889123954550838 0.02552169284940759
v 0.0007546834988002225 0.0016023061383371416 0.025408430640617638
v -0.003426650658183649 0.0034209507369125066 0.02529274718690488
v -0.007308624679864117 0.004564837524850205 0.025261846372076065
v -0.010183432152694516 0.004590854543206019 0.02532067732040489
v -0.011552369737631135 0.003633951459750595 0.025445300327359793
v -0.011173786964029245 0.00203716591154788 0.02557527374623357
v -0.00900405129735856 0.0003353802781857933 0.025600773454327215
v -0.005224164343048931 -0.0008818678104938679 0.025524247988080253
v -0.0007498797293375881 -0.0015953006723983855 0.0254103397070642
v 0.0034312069416985087 -0.003414075132914451 0.025294173828594977
v 0.007313169222636406 -0.004558140362316069 0.02526281418775619
v 0.010187907135755306 -0.004584190925132282 0.02532077750827326
v 0.0129200837626652 -0.004160455869460929 0.025407955463687303
v 0.012526994383030982 -0.002275031171352472 0.025583998278602554
v 0.010082728035911334 -0.0001970500608359771 0.025654747129660347
v 0.0058271096869032335 0.0012485865062409343 0.025560879084091586
v 0.0008887888607049977 0.0020356585688409293 0.025417594193239964
v -0.0037312984494092994 0.004040114214220721 0.02527437300570648
v -0.008097303395904778 0.00529346647695928 0.02522372735539283
v -0.011348855508890579 0.005271390258109714 0.02527353890444172
v -0.01291554243590467 0.0041670552345189375 0.025408922171810774
v -0.012522283921184043 0.002281763156609422 0.025586208095691412
v -0.010077925659617447 0.00020397723095125393 0.025657762808433144
v -0.005822344180261578 -0.001241517265516299 0.02556384650534325
v -0.0008839910617477809 -0.0020286378963293664 0.025419855310394632
v 0.003735824542912178 -0.004033257922423854 0.02527613610944629
v 0.008101804135968208 -0.00528681462291906 0.025224975724127765
v 0.011353296101413765 -0.005264801271554296 0.02527379371906787
v 0.01472049483307478 -0.004885986035122488 0.02536526602205925
v 0.014321099242817973 -0.002747079778887275 0.025593051194968467
v 0.011535492553060177 -0.00006286014316285762 0.025725974766900285
v 0.006614745658323435 0.001725612067466192 0.025613565349351112
v 0.001071550789324313 0.002612890607646221 0.025429371390542396
v -0.004128751627016566 0.004858222923324765 0.025244066054420627
v -0.009150801519342389 0.006255352746537493 0.025163860229212145
v -0.012905662865949552 0.006170725197747206 0.025205636518223936
v -0.01471599028749347 0.00489244674016961 0.02536621635794935
v -0.014316378598625853 0.0027537334944602665 0.02559545727423955
v -0.011530624255671567 0.00006976918961255477 0.025729507798635375
v -0.006609955526095066 -0.0017185039692483829 0.02561708840665317
v -0.001066758282496162 -0.0026058484018031945 0.025432122958924722
v 0.0041332345972739945 -0.004851391179905181 0.025246270200782645
v 0.009155255837128364 -0.006248773964433537 0.02516548218554675
v 0.012910040641262787 -0.006164260686876037 0.025206101837141406
v 0.011506039718932338 -0.004059298609350827 0.030496170503259014
v 0.011120165926564169 -0.002468553623807138 0.030623626702328374
v 0.009000355546836092 -0.0006706941711946976 0.030682896508258884
v 0.005232618835794314 0.0006895203199803451 0.030630156712394024
v 0.0007471666242063729 0.0014973510019364747 0.030523532949271428
v -0.003430792532236059 0.003460337397316912 0.030411342505838865
v -0.007304678944229975 0.004801680957502747 0.030338910475762447
v -0.010170518775583746 0.0049671907879530386 0.03037695156742902
v -0.011499961780892229 0.004069832262240519 0.030496896234528555
v -0.011113946011111141 0.0024792054807864783 0.030625412841480626
v -0.008994077007062415 0.0006815145273378484 0.03068546841651061
v -0.005226310443974058 -0.0006785443508450218 0.030632596842130683
v -0.000740741726989848 -0.001486562443679354 0.03052546653056976
v 0.0034370965854212294 -0.00344967042780837 0.030412950246273874
v 0.007310781993923871 -0.004791219335729853 0.030340114233358036
v 0.010176551913619858 -0.0049567277683053475 0.030377361114606895
v 0.012856070049789779 -0.004642717446409163 0.030445748648760394
v 0.012472545246009499 -0.002755872741184676 0.03060991525786439
v 0.010075708863466593 -0.0005834244395540926 0.03072259320466446
v 0.005841286230581921 0.0010347134963622456 0.030669085238306498
v 0.0008650494457335052 0.0019345979847767395 0.030539915021269848
v -0.0037230038569414036 0.00408729292502811 0.030402351480012003
v -0.00805703361821958 0.0055662164580693105 0.030314131054227
v -0.011287967766564844 0.005701339093447401 0.030336377046668837
v -0.012850042507819692 0.004653150399472294 0.030446419736829242
v -0.012466336557138583 0.002766448338100322 0.030611900147337834
v -0.010069385654200578 0.0005942186188443459 0.030725548888217994
v -0.005834957644330987 -0.0010237168491220052 0.030671966697590237
v -0.0008586253268801928 -0.0019237866081726724 0.030542225665799415
v 0.003729274597807171 -0.004076639327229085 0.0304042994776411
v 0.008063091098811932 -0.0055557980867829955 0.030315656957853925
v 0.011293936617316853 -0.005690940718619113 0.030337001331198415
v 0.01463328181402779 -0.005425419554613546 0.03039364747529397
v 0.014252850956690096 -0.0032662421371883665 0.030597399897474706
v 0.011534198685242853 -0.000517625269441397 0.03076891749665407
v 0.006652114425330304 0.0014845027350000473 0.030720033298642688
v 0.0010257549474964166 0.0025172515850139755 0.030559074624506456
v -0.004098587306354992 0.004915899569136955 0.030386249561030126
v -0.009065350864629233 0.006577818547813986 0.030271549045125894
v -0.012797219717708155 0.006667075815578858 0.03027571245013753
v -0.014627305424088993 0.005435714781580891 0.030394254608479693
v -0.014246664462151714 0.0032767271097970305 0.030599579550027244
v -0.011527840164567498 0.0005283780016082454 0.03077239502676491
v -0.006645757925422254 -0.0014734853029157225 0.030723517777201875
v -0.001019325611906626 -0.002506416045003823 0.03056189695705039
v 0.004104817936027076 -0.004905265019249269 0.030388668229546743
v 0.009071336287967876 -0.006567467682302648 0.03027351338383774
v 0.012803108091316857 -0.006656777971690178 0.030276608775112995
f 1 2 18
f 1 82 2
f 16 1 17
f 16 81 1
f 1 18 17
f 1 81 82
f 2 3 19
f 2 83 3
f 2 19 18
f 2 82 83
f 3 4 20
f 3 84 4
f 3 20 19
f 3 83 84
f 4 5 21
f 4 85 5
f 4 21 20
f 4 84 85
f 5 6 22
f 5 86 6
f 5 22 21
f 5 85 86
f 6 7 23
f 6 87 7
f 6 23 22
f 6 86 87
f 7 8 24
f 7 88 8
f 7 24 23
f 7 87 88
f 8 9 25
f 8 89 9
f 8 25 24
f 8 88 89
f 9 10 26
f 9 90 10
f 9 26 25
f 9 89 90
f 10 11 27
f 10 91 11
f 10 27 26
f 10 90 91
f 11 12 28
f 11 92 12
f 11 28 27
f 11 91 92
f 12 13 29
f 12 93 13
f 12 29 28
f 12 92 93
f 13 14 30
f 13 94 14
f 13 30 29
f 13 93 94
f 14 15 31
f 14 95 15
f 14 31 30
f 14 94 95
f 15 16 32
f 15 96 16
f 15 32 31
f 15 95 96
f 16 17 32
f 16 96 81
f 17 18 34
f 32 17 33
f 17 34 33
f 18 19 35
f 18 35 34
f 19 20 36
f 19 36 35
f 20 21 37
f 20 37 36
f 21 22 38
f 21 38 37
f 22 23 39
f 22 39 38
f 23 24 40
f 23 40 39
f 24 25 41
f 24 41 40
f 25 26 42
f 25 42 41
f 26 27 43
f 26 43 42
f 27 28 44
f 27 44 43
f 28 29 45
f 28 45 44
f 29 30 46
f 29 46 45
f 30 31 47
f 30 47 46
f 31 32 48
f 31 48 47
f 32 33 48
f 33 34 50
f 48 33 49
f 33 50 49
f 34 35 51
f 34 51 50
f 35 36 52
f 35 52 51
f 36 37 53
f 36 53 52
f 37 38 54
f 37 54 53
f 38 39 55
f 38 55 54
f 39 40 56
f 39 56 55
f 40 41 57
f 40 57 56
f 41 42 58
f 41 58 57
f 42 43 59
f 42 59 58
f 43 44 60
f 43 60 59
f 44 45 61
f 44 61 60
f 45 46 62
f 45 62 61
f 46 47 63
f 46 63 62
f 47 48 64
f 47 64 63
f 48 49 64
f 49 50 66
f 64 49 65
f 49 66 65
f 50 51 67
f 50 67 66
f 51 52 68
f 51 68 67
f 52 53 69
f 52 69 68
f 53 54 70
f 53 70 69
f 54 55 71
f 54 71 70
f 55 56 72
f 55 72 71
f 56 57 73
f 56 73 72
f 57 58 74
f 57 74 73
f 58 59 75
f 58 75 74
f 59 60 76
f 59 76 75
f 60 61 77
f 60 77 76
f 61 62 78
f 61 78 77
f 62 63 79
f 62 79 78
f 63 64 80
f 63 80 79
f 64 65 80
f 66 146 65
f 65 145 80
f 65 146 145
f 67 147 66
f 66 147 146
f 68 148 67
f 67 148 147
f 69 149 68
f 68 149 148
f 70 150 69
f 69 150 149
f 71 151 70
f 70 151 150
f 72 152 71
f 71 152 151
f 73 153 72
f 72 153 152
f 74 154 73
f 73 154 153
f 75 155 74
f 74 155 154
f 76 156 75
f 75 156 155
f 77 157 76
f 76 157 156
f 78 158 77
f 77 158 157
f 79 159 78
f 78 159 158
f 80 160 79
f 79 160 159
f 80 145 160
f 81 162 82
f 96 161 81
f 81 161 162
f 82 163 83
f 82 162 163
f 83 164 84
f 83 163 164
f 84 165 85
f 84 164 165
f 85 166 86
f 85 165 166
f 86 167 87
f 86 166 167
f 87 168 88
f 87 167 168
f 88 169 89
f 88 168 169
f 89 170 90
f 89 169 170
f 90 171 91
f 90 170 171
f 91 172 92
f 91 171 172
f 92 173 93
f 92 172 173
f 93 174 94
f 93 173 174
f 94 175 95
f 94 174 175
f 95 176 96
f 95 175 176
f 96 176 161
f 146 226 145
f 145 225 160
f 145 226 225
f 147 227 146
f 146 227 226
f 148 228 147
f 147 228 227
f 149 229 148
f 148 229 228
f 150 230 149
f 149 230 229
f 151 231 150
f 150 231 230
f 152 232 151
f 151 232 231
f 153 233 152
f 152 233 232
f 154 234 153
f 153 234 233
f 155 235 154
f 154 235 234
f 156 236 155
f 155 236 235
f 157 237 156
f 156 237 236
f 158 238 157
f 157 238 237
f 159 239 158
f 158 239 238
f 160 240 159
f 159 240 239
f 160 225 240
f 161 242 162
f 176 241 161
f 161 241 242
f 162 243 163
f 162 242 243
f 163 244 164
f 163 243 244
f 164 245 165
f 164 244 245
f 165 246 166
f 165 245 246
f 166 247 167
f 166 246 247
f 167 248 168
f 167 247 248
f 168 249 169
f 168 248 249
f 169 250 170
f 169 249 250
f 170 251 171
f 170 250 251
f 171 252 172
f 171 251 252
f 172 253 173
f 172 252 253
f 173 254 174
f 173 253 254
f 174 255 175
f 174 254 255
f 175 256 176
f 175 255 256
f 176 256 241
f 226 306 225
f 225 305 240
f 225 306 305
f 227 307 226
f 226 307 306
f 228 308 227
f 227 308 307
f 229 309 228
f 228 309 308
f 230 310 229
f 229 310 309
f 231 311 230
f 230 311 310
f 232 312 231
f 231 312 311
f 233 313 232
f 232 313 312
f 234 314 233
f 233 314 313
f 235 315 234
f 234 315 314
f 236 316 235
f 235 316 315
f 237 317 236
f 236 317 316
f 238 318 237
f 237 318 317
f 239 319 238
f 238 319 318
f 240 320 239
f 239 320 319
f 240 305 320
f 241 322 242
f 256 321 241
f 241 321 322
f 242 323 243
f 242 322 323
f 243 324 244
f 243 323 324
f 244 325 245
f 244 324 325
f 245 326 246
f 245 325 326
f 246 327 247
f 246 326 327
f 247 328 248
f 247 327 328
f 248 329 249
f 248 328 329
f 249 330 250
f 249 329 330
f 250 331 251
f 250 330 331
f 251 332 252
f 251 331 332
f 252 333 253
f 252 332 333
f 253 334 254
f 253 333 334
f 254 335 255
f 254 334 335
f 255 336 256
f 255 335 336
f 256 336 321
f 306 386 305
f 305 385 320
f 305 386 385
f 307 387 306
f 306 387 386
f 308 388 307
f 307 388 387
f 309 389 308
f 308 389 388
f 310 390 309
f 309 390 389
f 311 391 310
f 310 391 390
f 312 392 311
f 311 392 391
f 313 393 312
f 312 393 392
f 314 394 313
f 313 394 393
f 315 395 314
f 314 395 394
f 316 396 315
f 315 396 395
f 317 397 316
f 316 397 396
f 318 398 317
f 317 398 397
f 319 399 318
f 318 399 398
f 320 400 319
f 319 400 399
f 320 385 400
f 321 402 322
f 336 401 321
f 321 401 402
f 322 403 323
f 322 402 403
f 323 404 324
f 323 403 404
f 324 405 325
f 324 404 405
f 325 406 326
f 325 405 406
f 326 407 327
f 326 406 407
f 327 408 328
f 327 407 408
f 328 409 329
f 328 408 409
f 329 410 330
f 329 409 410
f 330 411 331
f 330 410 411
f 331 412 332
f 331 411 412
f 332 413 333
f 332 412 413
f 333 414 334
f 333 413 414
f 334 415 335
f 334 414 415
f 335 416 336
f 335 415 416
f 336 416 401
f 386 466 385
f 385 465 400
f 385 466 465
f 387 467 386
f 386 467 466
f 388 468 387
f 387 468 467
f 389 469 388
f 388 469 468
f 390 470 389
f 389 470 469
f 391 471 390
f 390 471 470
f 392 472 391
f 391 472 471
f 393 473 392
f 392 473 472
f 394 474 393
f 393 474 473
f 395 475 394
f 394 475 474
f 396 476 395
f 395 476 475
f 397 477 396
f 396 477 476
f 398 478 397
f 397 478 477
f 399 479 398
f 398 479 478
f 400 480 399
f 399 480 479
f 400 465 480
f 401 482 402
f 416 481 401
f 401 481 482
f 402 483 403
f 402 482 483
f 403 484 404
f 403 483 484
f 404 485 405
f 404 484 485
f 405 486 406
f 405 485 486
f 406 487 407
f 406 486 487
f 407 488 408
f 407 487 488
f 408 489 409
f 408 488 489
f 409 490 410
f 409 489 490
f 410 491 411
f 410 490 491
f 411 492 412
f 411 491 492
f 412 493 413
f 412 492 493
f 413 494 414
f 413 493 494
f 414 495 415
f 414 494 495
f 415 496 416
f 415 495 496
f 416 496 481
f 466 546 465
f 465 545 480
f 465 546 545
f 467 547 466
f 466 547 546
f 468 548 467
f 467 548 547
f 469 549 468
f 468 549 548
f 470 550 469
f 469 550 549
f 471 551 470
f 470 551 550
f 472 552 471
f 471 552 551
f 473 553 472
f 472 553 552
f 474 554 473
f 473 554 553
f 475 555 474
f 474 555 554
f 476 556 475
f 475 556 555
f 477 557 476
f 476 557 556
f 478 558 477
f 477 558 557
f 479 559 478
f 478 559 558
f 480 560 479
f 479 560 559
f 480 545 560
f 481 498 482
f 496 497 481
f 497 498 481
f 482 499 483
f 498 499 482
f 483 500 484
f 499 500 483
f 484 501 485
f 500 501 484
f 485 502 486
f 501 502 485
f 486 503 487
f 502 503 486
f 487 504 488
f 503 504 487
f 488 505 489
f 504 505 488
f 489 506 490
f 505 506 489
f 490 507 491
f 506 507 490
f 491 508 492
f 507 508 491
f 492 509 493
f 508 509 492
f 493 510 494
f 509 510 493
f 494 511 495
f 510 511 494
f 495 512 496
f 511 512 495
f 512 497 496
f 497 514 498
f 512 513 497
f 513 514 497
f 498 515 499
f 514 515 498
f 499 516 500
f 515 516 499
f 500 517 501
f 516 517 500
f 501 518 502
f 517 518 501
f 502 519 503
f 518 519 502
f 503 520 504
f 519 520 503
f 504 521 505
f 520 521 504
f 505 522 506
f 521 522 505
f 506 523 507
f 522 523 506
f 507 524 508
f 523 524 507
f 508 525 509
f 524 525 508
f 509 526 510
f 525 526 509
f 510 527 511
f 526 527 510
f 511 528 512
f 527 528 511
f 528 513 512
f 513 530 514
f 528 529 513
f 529 530 513
f 514 531 515
f 530 531 514
f 515 532 516
f 531 532 515
f 516 533 517
f 532 533 516
f 517 534 518
f 533 534 517
f 518 535 519
f 534 535 518
f 519 536 520
f 535 536 519
f 520 537 521
f 536 537 520
f 521 538 522
f 537 538 521
f 522 539 523
f 538 539 522
f 523 540 524
f 539 540 523
f 524 541 525
f 540 541 524
f 525 542 526
f 541 542 525
f 526 543 527
f 542 543 526
f 527 544 528
f 543 544 527
f 544 529 528
f 529 546 530
f 544 545 529
f 545 546 529
f 530 547 531
f 546 547 530
f 531 548 532
f 547 548 531
f 532 549 533
f 548 549 532
f 533 550 534
f 549 550 533
f 534 551 535
f 550 551 534
f 535 552 536
f 551 552 535
f 536 553 537
f 552 553 536
f 537 554 538
f 553 554 537
f 538 555 539
f 554 555 538
f 539 556 540
f 555 556 539
f 540 557 541
f 556 557 540
f 541 558 542
f 557 558 541
f 542 559 543
f 558 559 542
f 543 560 544
f 559 560 543
f 560 545 544
f 561 562 578
f 561 610 562
f 576 561 577
f 576 609 561
f 561 578 577
f 561 609 610
f 562 563 579
f 562 611 563
f 562 579 578
f 562 610 611
f 563 564 580
f 563 612 564
f 563 580 579
f 563 611 612
f 564 565 581
f 564 613 565
f 564 581 580
f 564 612 613
f 565 566 582
f 565 614 566
f 565 582 581
f 565 613 614
f 566 567 583
f 566 615 567
f 566 583 582
f 566 614 615
f 567 568 584
f 567 616 568
f 567 584 583
f 567 615 616
f 568 569 585
f 568 617 569
f 568 585 584
f 568 616 617
f 569 570 586
f 569 618 570
f 569 586 585
f 569 617 618
f 570 571 587
f 570 619 571
f 570 587 586
f 570 618 619
f 571 572 588
f 571 620 572
f 571 588 587
f 571 619 620
f 572 573 589
f 572 621 573
f 572 589 588
f 572 620 621
f 573 574 590
f 573 622 574
f 573 590 589
f 573 621 622
f 574 575 591
f 574 623 575
f 574 591 590
f 574 622 623
f 575 576 592
f 575 624 576
f 575 592 591
f 575 623 624
f 576 577 592
f 576 624 609
f 577 578 594
f 592 577 593
f 577 594 593
f 578 579 595
f 578 595 594
f 579 580 596
f 579 596 595
f 580 581 597
f 580 597 596
f 581 582 598
f 581 598 597
f 582 583 599
f 582 599 598
f 583 584 600
f 583 600 599
f 584 585 601
f 584 601 600
f 585 586 602
f 585 602 601
f 586 587 603
f 586 603 602
f 587 588 604
f 587 604 603
f 588 589 605
f 588 605 604
f 589 590 606
f 589 606 605
f 590 591 607
f 590 607 606
f 591 592 608
f 591 608 607
f 592 593 608
f 594 642 593
f 593 641 608
f 593 642 641
f 595 643 594
f 594 643 642
f 596 644 595
f 595 644 643
f 597 645 596
f 596 645 644
f 598 646 597
f 597 646 645
f 599 647 598
f 598 647 646
f 600 648 599
f 599 648 647
f 601 649 600
f 600 649 648
f 602 650 601
f 601 650 649
f 603 651 602
f 602 651 650
f 604 652 603
f 603 652 651
f 605 653 604
f 604 653 652
f 606 654 605
f 605 654 653
f 607 655 606
f 606 655 654
f 608 656 607
f 607 656 655
f 608 641 656
f 609 658 610
f 624 657 609
f 609 657 658
f 610 659 611
f 610 658 659
f 611 660 612
f 611 659 660
f 612 661 613
f 612 660 661
f 613 662 614
f 613 661 662
f 614 663 615
f 614 662 663
f 615 664 616
f 615 663 664
f 616 665 617
f 616 664 665
f 617 666 618
f 617 665 666
f 618 667 619
f 618 666 667
f 619 668 620
f 619 667 668
f 620 669 621
f 620 668 669
f 621 670 622
f 621 669 670
f 622 671 623
f 622 670 671
f 623 672 624
f 623 671 672
f 624 672 657
f 642 690 641
f 641 689 656
f 641 690 689
f 643 691 642
f 642 691 690
f 644 692 643
f 643 692 691
f 645 693 644
f 644 693 692
f 646 694 645
f 645 694 693
f 647 695 646
f 646 695 694
f 648 696 647
f 647 696 695
f 649 697 648
f 648 697 696
f 650 698 649
f 649 698 697
f 651 699 650
f 650 699 698
f 652 700 651
f 651 700 699
f 653 701 652
f 652 701 700
f 654 702 653
f 653 702 701
f 655 703 654
f 654 703 702
f 656 704 655
f 655 704 703
f 656 689 704
f 657 706 658
f 672 705 657
f 657 705 706
f 658 707 659
f 658 706 707
f 659 708 660
f 659 707 708
f 660 709 661
f 660 708 709
f 661 710 662
f 661 709 710
f 662 711 663
f 662 710 711
f 663 712 664
f 663 711 712
f 664 713 665
f 664 712 713
f 665 714 666
f 665 713 714
f 666 715 667
f 666 714 715
f 667 716 668
f 667 715 716
f 668 717 669
f 668 716 717
f 669 718 670
f 669 717 718
f 670 719 671
f 670 718 719
f 671 720 672
f 671 719 720
f 672 720 705
f 690 738 689
f 689 737 704
f 689 738 737
f 691 739 690
f 690 739 738
f 692 740 691
f 691 740 739
f 693 741 692
f 692 741 740
f 694 742 693
f 693 742 741
f 695 743 694
f 694 743 742
f 696 744 695
f 695 744 743
f 697 745 696
f 696 745 744
f 698 746 697
f 697 746 745
f 699 747 698
f 698 747 746
f 700 748 699
f 699 748 747
f 701 749 700
f 700 749 748
f 702 750 701
f 701 750 749
f 703 751 702
f 702 751 750
f 704 752 703
f 703 752 751
f 704 737 752
f 705 754 706
f 720 753 705
f 705 753 754
f 706 755 707
f 706 754 755
f 707 756 708
f 707 755 756
f 708 757 709
f 708 756 757
f 709 758 710
f 709 757 758
f 710 759 711
f 710 758 759
f 711 760 712
f 711 759 760
f 712 761 713
f 712 760 761
f 713 762 714
f 713 761 762
f 714 763 715
f 714 762 763
f 715 764 716
f 715 763 764
f 716 765 717
f 716 764 765
f 717 766 718
f 717 765 766
f 718 767 719
f 718 766 767
f 719 768 720
f 719 767 768
f 720 768 753
f 738 786 737
f 737 785 752
f 737 786 785
f 739 787 738
f 738 787 786
f 740 788 739
f 739 788 787
f 741 789 740
f 740 789 788
f 742 790 741
f 741 790 789
f 743 791 742
f 742 791 790
f 744 792 743
f 743 792 791
f 745 793 744
f 744 793 792
f 746 794 745
f 745 794 793
f 747 795 746
f 746 795 794
f 748 796 747
f 747 796 795
f 749 797 748
f 748 797 796
f 750 798 749
f 749 798 797
f 751 799 750
f 750 799 798
f 752 800 751
f 751 800 799
f 752 785 800
f 753 802 754
f 768 801 753
f 753 801 802
f 754 803 755
f 754 802 803
f 755 804 756
f 755 803 804
f 756 805 757
f 756 804 805
f 757 806 758
f 757 805 806
f 758 807 759
f 758 806 807
f 759 808 760
f 759 807 808
f 760 809 761
f 760 808 809
f 761 810 762
f 761 809 810
f 762 811 763
f 762 810 811
f 763 812 764
f 763 811 812
f 764 813 765
f 764 812 813
f 765 814 766
f 765 813 814
f 766 815 767
f 766 814 815
f 767 816 768
f 767 815 816
f 768 816 801
f 786 834 785
f 785 833 800
f 785 834 833
f 787 835 786
f 786 835 834
f 788 836 787
f 787 836 835
f 789 837 788
f 788 837 836
f 790 838 789
f 789 838 837
f 791 839 790
f 790 839 838
f 792 840 791
f 791 840 839
f 793 841 792
f 792 841 840
f 794 842 793
f 793 842 841
f 795 843 794
f 794 843 842
f 796 844 795
f 795 844 843
f 797 845 796
f 796 845 844
f 798 846 797
f 797 846 845
f 799 847 798
f 798 847 846
f 800 848 799
f 799 848 847
f 800 833 848
f 801 850 802
f 816 849 801
f 801 849 850
f 802 851 803
f 802 850 851
f 803 852 804
f 803 851 852
f 804 853 805
f 804 852 853
f 805 854 806
f 805 853 854
f 806 855 807
f 806 854 855
f 807 856 808
f 807 855 856
f 808 857 809
f 808 856 857
f 809 858 810
f 809 857 858
f 810 859 811
f 810 858 859
f 811 860 812
f 811 859 860
f 812 861 813
f 812 860 861
f 813 862 814
f 813 861 862
f 814 863 815
f 814 862 863
f 815 864 816
f 815 863 864
f 816 864 849
f 834 882 833
f 833 881 848
f 833 882 881
f 835 883 834
f 834 883 882
f 836 884 835
f 835 884 883
f 837 885 836
f 836 885 884
f 838 886 837
f 837 886 885
f 839 887 838
f 838 887 886
f 840 888 839
f 839 888 887
f 841 889 840
f 840 889 888
f 842 890 841
f 841 890 889
f 843 891 842
f 842 891 890
f 844 892 843
f 843 892 891
f 845 893 844
f 844 893 892
f 846 894 845
f 845 894 893
f 847 895 846
f 846 895 894
f 848 896 847
f 847 896 895
f 848 881 896
f 849 866 850
f 864 865 849
f 865 866 849
f 850 867 851
f 866 867 850
f 851 868 852
f 867 868 851
f 852 869 853
f 868 869 852
f 853 870 854
f 869 870 853
f 854 871 855
f 870 871 854
f 855 872 856
f 871 872 855
f 856 873 857
f 872 873 856
f 857 874 858
f 873 874 857
f 858 875 859
f 874 875 858
f 859 876 860
f 875 876 859
f 860 877 861
f 876 877 860
f 861 878 862
f 877 878 861
f 862 879 863
f 878 879 862
f 863 880 864
f 879 880 863
f 880 865 864
f 865 882 866
f 880 881 865
f 881 882 865
f 866 883 867
f 882 883 866
f 867 884 868
f 883 884 867
f 868 885 869
f 884 885 868
f 869 886 870
f 885 886 869
f 870 887 871
f 886 887 870
f 871 888 872
f 887 888 871
f 872 889 873
f 888 889 872
f 873 890 874
f 889 890 873
f 874 891 875
f 890 891 874
f 875 892 876
f 891 892 875
f 876 893 877
f 892 893 876
f 877 894 878
f 893 894 877
f 878 895 879
f 894 895 878
f 879 896 880
f 895 896 879
f 896 881 880
